G04 #@! TF.FileFunction,Other,Fab,Bot*
%FSLAX46Y46*%
G04 Gerber Fmt 4.6, Leading zero omitted, Abs format (unit mm)*
G04 Created by KiCad (PCBNEW 4.0.4-stable) date 10/29/16 22:30:41*
%MOMM*%
%LPD*%
G01*
G04 APERTURE LIST*
%ADD10C,0.100000*%
%ADD11C,0.150000*%
%ADD12C,0.090000*%
G04 APERTURE END LIST*
D10*
D11*
X143722624Y-88469096D02*
X143722624Y-83439896D01*
X148078724Y-88469096D02*
X143722624Y-88469096D01*
X148751824Y-87795996D02*
X148078724Y-88469096D01*
X148751824Y-84112996D02*
X148751824Y-87795996D01*
X148078724Y-83439896D02*
X148751824Y-84112996D01*
X143722624Y-83439896D02*
X148078724Y-83439896D01*
X143925000Y-96600000D02*
X142675000Y-96600000D01*
X143925000Y-98600000D02*
X143925000Y-96600000D01*
X142675000Y-98600000D02*
X143925000Y-98600000D01*
X142675000Y-96600000D02*
X142675000Y-98600000D01*
X144150400Y-95354096D02*
X144150400Y-89054896D01*
X149776500Y-95354096D02*
X144150400Y-95354096D01*
X150449600Y-94680996D02*
X149776500Y-95354096D01*
X150449600Y-89727996D02*
X150449600Y-94680996D01*
X149776500Y-89054896D02*
X150449600Y-89727996D01*
X144150400Y-89054896D02*
X149776500Y-89054896D01*
X150400000Y-88850000D02*
X152000000Y-88850000D01*
X150400000Y-85650000D02*
X150400000Y-88850000D01*
X152000000Y-85650000D02*
X150400000Y-85650000D01*
X152000000Y-88850000D02*
X152000000Y-85650000D01*
D12*
X147773905Y-85919567D02*
X147469143Y-85919567D01*
X147621524Y-86071948D02*
X147621524Y-85767186D01*
X149179581Y-92156867D02*
X148874819Y-92156867D01*
X149027200Y-92309248D02*
X149027200Y-92004486D01*
X149080952Y-86973810D02*
X149080952Y-86745238D01*
X149080952Y-86859524D02*
X148680952Y-86859524D01*
X148738095Y-86821429D01*
X148776190Y-86783334D01*
X148795238Y-86745238D01*
X148814286Y-87316667D02*
X149080952Y-87316667D01*
X148814286Y-87145238D02*
X149023810Y-87145238D01*
X149061905Y-87164286D01*
X149080952Y-87202381D01*
X149080952Y-87259524D01*
X149061905Y-87297619D01*
X149042857Y-87316667D01*
X149080952Y-87507143D02*
X148680952Y-87507143D01*
X148871429Y-87507143D02*
X148871429Y-87735715D01*
X149080952Y-87735715D02*
X148680952Y-87735715D01*
M02*
