G04 #@! TF.FileFunction,Legend,Top*
%FSLAX46Y46*%
G04 Gerber Fmt 4.6, Leading zero omitted, Abs format (unit mm)*
G04 Created by KiCad (PCBNEW 4.0.4-stable) date 02/09/17 23:46:16*
%MOMM*%
%LPD*%
G01*
G04 APERTURE LIST*
%ADD10C,0.100000*%
%ADD11C,0.150000*%
%ADD12C,0.125000*%
%ADD13C,0.120000*%
%ADD14C,0.200000*%
%ADD15C,0.090000*%
G04 APERTURE END LIST*
D10*
D11*
X148557143Y-84271429D02*
X148671429Y-84271429D01*
X148728571Y-84300000D01*
X148785714Y-84357143D01*
X148814286Y-84471429D01*
X148814286Y-84671429D01*
X148785714Y-84785714D01*
X148728571Y-84842857D01*
X148671429Y-84871429D01*
X148557143Y-84871429D01*
X148500000Y-84842857D01*
X148442857Y-84785714D01*
X148414286Y-84671429D01*
X148414286Y-84471429D01*
X148442857Y-84357143D01*
X148500000Y-84300000D01*
X148557143Y-84271429D01*
X149071428Y-84271429D02*
X149071428Y-84757143D01*
X149100000Y-84814286D01*
X149128571Y-84842857D01*
X149185714Y-84871429D01*
X149300000Y-84871429D01*
X149357142Y-84842857D01*
X149385714Y-84814286D01*
X149414285Y-84757143D01*
X149414285Y-84271429D01*
X149614285Y-84271429D02*
X149957142Y-84271429D01*
X149785713Y-84871429D02*
X149785713Y-84271429D01*
D12*
X147626190Y-84052381D02*
X148126190Y-83885714D01*
X147626190Y-83719048D01*
X148126190Y-83552381D02*
X147626190Y-83552381D01*
X147626190Y-83361905D01*
X147650000Y-83314286D01*
X147673810Y-83290477D01*
X147721429Y-83266667D01*
X147792857Y-83266667D01*
X147840476Y-83290477D01*
X147864286Y-83314286D01*
X147888095Y-83361905D01*
X147888095Y-83552381D01*
X148126190Y-83052381D02*
X147626190Y-83052381D01*
X147626190Y-82861905D01*
X147650000Y-82814286D01*
X147673810Y-82790477D01*
X147721429Y-82766667D01*
X147792857Y-82766667D01*
X147840476Y-82790477D01*
X147864286Y-82814286D01*
X147888095Y-82861905D01*
X147888095Y-83052381D01*
D11*
X148014286Y-79614286D02*
X148042857Y-79642857D01*
X148071429Y-79728571D01*
X148071429Y-79785714D01*
X148042857Y-79871429D01*
X147985714Y-79928571D01*
X147928571Y-79957143D01*
X147814286Y-79985714D01*
X147728571Y-79985714D01*
X147614286Y-79957143D01*
X147557143Y-79928571D01*
X147500000Y-79871429D01*
X147471429Y-79785714D01*
X147471429Y-79728571D01*
X147500000Y-79642857D01*
X147528571Y-79614286D01*
X147900000Y-79385714D02*
X147900000Y-79100000D01*
X148071429Y-79442857D02*
X147471429Y-79242857D01*
X148071429Y-79042857D01*
X148071429Y-78842857D02*
X147471429Y-78842857D01*
X148071429Y-78500000D01*
X147471429Y-78500000D01*
X148071429Y-78214286D02*
X147471429Y-78214286D01*
X147757143Y-78214286D02*
X147757143Y-77871429D01*
X148071429Y-77871429D02*
X147471429Y-77871429D01*
X148271429Y-77442858D02*
X147414286Y-77442858D01*
X148014286Y-76671429D02*
X148042857Y-76700000D01*
X148071429Y-76785714D01*
X148071429Y-76842857D01*
X148042857Y-76928572D01*
X147985714Y-76985714D01*
X147928571Y-77014286D01*
X147814286Y-77042857D01*
X147728571Y-77042857D01*
X147614286Y-77014286D01*
X147557143Y-76985714D01*
X147500000Y-76928572D01*
X147471429Y-76842857D01*
X147471429Y-76785714D01*
X147500000Y-76700000D01*
X147528571Y-76671429D01*
X147900000Y-76442857D02*
X147900000Y-76157143D01*
X148071429Y-76500000D02*
X147471429Y-76300000D01*
X148071429Y-76100000D01*
X148071429Y-75900000D02*
X147471429Y-75900000D01*
X148071429Y-75557143D01*
X147471429Y-75557143D01*
X148071429Y-74985715D02*
X148071429Y-75271429D01*
X147471429Y-75271429D01*
X148271429Y-74642858D02*
X147414286Y-74642858D01*
X148014286Y-73871429D02*
X148042857Y-73900000D01*
X148071429Y-73985714D01*
X148071429Y-74042857D01*
X148042857Y-74128572D01*
X147985714Y-74185714D01*
X147928571Y-74214286D01*
X147814286Y-74242857D01*
X147728571Y-74242857D01*
X147614286Y-74214286D01*
X147557143Y-74185714D01*
X147500000Y-74128572D01*
X147471429Y-74042857D01*
X147471429Y-73985714D01*
X147500000Y-73900000D01*
X147528571Y-73871429D01*
X147900000Y-73642857D02*
X147900000Y-73357143D01*
X148071429Y-73700000D02*
X147471429Y-73500000D01*
X148071429Y-73300000D01*
X148071429Y-73100000D02*
X147471429Y-73100000D01*
X148071429Y-72757143D01*
X147471429Y-72757143D01*
X148071429Y-72471429D02*
X147471429Y-72471429D01*
X147757143Y-72471429D02*
X147757143Y-72128572D01*
X148071429Y-72128572D02*
X147471429Y-72128572D01*
X148271429Y-71700001D02*
X147414286Y-71700001D01*
X148014286Y-70928572D02*
X148042857Y-70957143D01*
X148071429Y-71042857D01*
X148071429Y-71100000D01*
X148042857Y-71185715D01*
X147985714Y-71242857D01*
X147928571Y-71271429D01*
X147814286Y-71300000D01*
X147728571Y-71300000D01*
X147614286Y-71271429D01*
X147557143Y-71242857D01*
X147500000Y-71185715D01*
X147471429Y-71100000D01*
X147471429Y-71042857D01*
X147500000Y-70957143D01*
X147528571Y-70928572D01*
X147900000Y-70700000D02*
X147900000Y-70414286D01*
X148071429Y-70757143D02*
X147471429Y-70557143D01*
X148071429Y-70357143D01*
X148071429Y-70157143D02*
X147471429Y-70157143D01*
X148071429Y-69814286D01*
X147471429Y-69814286D01*
X148071429Y-69242858D02*
X148071429Y-69528572D01*
X147471429Y-69528572D01*
X148271429Y-68900001D02*
X147414286Y-68900001D01*
D12*
X147650000Y-81619048D02*
X147626190Y-81666667D01*
X147626190Y-81738095D01*
X147650000Y-81809524D01*
X147697619Y-81857143D01*
X147745238Y-81880952D01*
X147840476Y-81904762D01*
X147911905Y-81904762D01*
X148007143Y-81880952D01*
X148054762Y-81857143D01*
X148102381Y-81809524D01*
X148126190Y-81738095D01*
X148126190Y-81690476D01*
X148102381Y-81619048D01*
X148078571Y-81595238D01*
X147911905Y-81595238D01*
X147911905Y-81690476D01*
X148126190Y-81380952D02*
X147626190Y-81380952D01*
X148126190Y-81095238D01*
X147626190Y-81095238D01*
X148126190Y-80857142D02*
X147626190Y-80857142D01*
X147626190Y-80738095D01*
X147650000Y-80666666D01*
X147697619Y-80619047D01*
X147745238Y-80595238D01*
X147840476Y-80571428D01*
X147911905Y-80571428D01*
X148007143Y-80595238D01*
X148054762Y-80619047D01*
X148102381Y-80666666D01*
X148126190Y-80738095D01*
X148126190Y-80857142D01*
D10*
X160742858Y-72500000D02*
X160685715Y-72471429D01*
X160600001Y-72471429D01*
X160514286Y-72500000D01*
X160457144Y-72557143D01*
X160428572Y-72614286D01*
X160400001Y-72728571D01*
X160400001Y-72814286D01*
X160428572Y-72928571D01*
X160457144Y-72985714D01*
X160514286Y-73042857D01*
X160600001Y-73071429D01*
X160657144Y-73071429D01*
X160742858Y-73042857D01*
X160771429Y-73014286D01*
X160771429Y-72814286D01*
X160657144Y-72814286D01*
X161028572Y-73071429D02*
X161028572Y-72471429D01*
X161371429Y-73071429D01*
X161371429Y-72471429D01*
X161657143Y-73071429D02*
X161657143Y-72471429D01*
X161800000Y-72471429D01*
X161885715Y-72500000D01*
X161942857Y-72557143D01*
X161971429Y-72614286D01*
X162000000Y-72728571D01*
X162000000Y-72814286D01*
X161971429Y-72928571D01*
X161942857Y-72985714D01*
X161885715Y-73042857D01*
X161800000Y-73071429D01*
X161657143Y-73071429D01*
X161121428Y-83071429D02*
X160921428Y-82785714D01*
X160778571Y-83071429D02*
X160778571Y-82471429D01*
X161007143Y-82471429D01*
X161064285Y-82500000D01*
X161092857Y-82528571D01*
X161121428Y-82585714D01*
X161121428Y-82671429D01*
X161092857Y-82728571D01*
X161064285Y-82757143D01*
X161007143Y-82785714D01*
X160778571Y-82785714D01*
X161350000Y-83042857D02*
X161435714Y-83071429D01*
X161578571Y-83071429D01*
X161635714Y-83042857D01*
X161664285Y-83014286D01*
X161692857Y-82957143D01*
X161692857Y-82900000D01*
X161664285Y-82842857D01*
X161635714Y-82814286D01*
X161578571Y-82785714D01*
X161464285Y-82757143D01*
X161407143Y-82728571D01*
X161378571Y-82700000D01*
X161350000Y-82642857D01*
X161350000Y-82585714D01*
X161378571Y-82528571D01*
X161407143Y-82500000D01*
X161464285Y-82471429D01*
X161607143Y-82471429D01*
X161692857Y-82500000D01*
X161864286Y-82471429D02*
X162207143Y-82471429D01*
X162035714Y-83071429D02*
X162035714Y-82471429D01*
X160585715Y-75571429D02*
X160585715Y-74971429D01*
X160728572Y-74971429D01*
X160814287Y-75000000D01*
X160871429Y-75057143D01*
X160900001Y-75114286D01*
X160928572Y-75228571D01*
X160928572Y-75314286D01*
X160900001Y-75428571D01*
X160871429Y-75485714D01*
X160814287Y-75542857D01*
X160728572Y-75571429D01*
X160585715Y-75571429D01*
X161185715Y-75571429D02*
X161185715Y-74971429D01*
X161585715Y-74971429D02*
X161700001Y-74971429D01*
X161757143Y-75000000D01*
X161814286Y-75057143D01*
X161842858Y-75171429D01*
X161842858Y-75371429D01*
X161814286Y-75485714D01*
X161757143Y-75542857D01*
X161700001Y-75571429D01*
X161585715Y-75571429D01*
X161528572Y-75542857D01*
X161471429Y-75485714D01*
X161442858Y-75371429D01*
X161442858Y-75171429D01*
X161471429Y-75057143D01*
X161528572Y-75000000D01*
X161585715Y-74971429D01*
X160707142Y-79971429D02*
X161078571Y-79971429D01*
X160878571Y-80200000D01*
X160964285Y-80200000D01*
X161021428Y-80228571D01*
X161049999Y-80257143D01*
X161078571Y-80314286D01*
X161078571Y-80457143D01*
X161049999Y-80514286D01*
X161021428Y-80542857D01*
X160964285Y-80571429D01*
X160792857Y-80571429D01*
X160735714Y-80542857D01*
X160707142Y-80514286D01*
X161250000Y-79971429D02*
X161450000Y-80571429D01*
X161650000Y-79971429D01*
X161792857Y-79971429D02*
X162164286Y-79971429D01*
X161964286Y-80200000D01*
X162050000Y-80200000D01*
X162107143Y-80228571D01*
X162135714Y-80257143D01*
X162164286Y-80314286D01*
X162164286Y-80457143D01*
X162135714Y-80514286D01*
X162107143Y-80542857D01*
X162050000Y-80571429D01*
X161878572Y-80571429D01*
X161821429Y-80542857D01*
X161792857Y-80514286D01*
X160842857Y-78014286D02*
X160814286Y-78042857D01*
X160728572Y-78071429D01*
X160671429Y-78071429D01*
X160585714Y-78042857D01*
X160528572Y-77985714D01*
X160500000Y-77928571D01*
X160471429Y-77814286D01*
X160471429Y-77728571D01*
X160500000Y-77614286D01*
X160528572Y-77557143D01*
X160585714Y-77500000D01*
X160671429Y-77471429D01*
X160728572Y-77471429D01*
X160814286Y-77500000D01*
X160842857Y-77528571D01*
X161385714Y-78071429D02*
X161100000Y-78071429D01*
X161100000Y-77471429D01*
X161585714Y-78071429D02*
X161585714Y-77471429D01*
X161928571Y-78071429D02*
X161671428Y-77728571D01*
X161928571Y-77471429D02*
X161585714Y-77814286D01*
D11*
X155200000Y-83200000D02*
X155000000Y-83400000D01*
X155200000Y-83400000D02*
X155000000Y-83400000D01*
X155200000Y-83200000D02*
X155200000Y-83400000D01*
X155200000Y-83200000D02*
X155200000Y-83200000D01*
X156225000Y-72800000D02*
X156225000Y-73300000D01*
X157175000Y-73300000D02*
X157175000Y-72800000D01*
X149425000Y-75050000D02*
X149425000Y-74550000D01*
X148475000Y-74550000D02*
X148475000Y-75050000D01*
X158700000Y-76575000D02*
X158200000Y-76575000D01*
X158200000Y-77525000D02*
X158700000Y-77525000D01*
X158400000Y-84325000D02*
X157900000Y-84325000D01*
X157900000Y-85275000D02*
X158400000Y-85275000D01*
X152350240Y-72349160D02*
X152350240Y-72300900D01*
X151649200Y-69550180D02*
X152350240Y-69550180D01*
X152350240Y-69550180D02*
X152350240Y-69799100D01*
X152350240Y-72349160D02*
X152350240Y-72549820D01*
X152350240Y-72549820D02*
X151649200Y-72549820D01*
X148425000Y-70550000D02*
X148425000Y-71050000D01*
X149475000Y-71050000D02*
X149475000Y-70550000D01*
X156000000Y-84275000D02*
X155500000Y-84275000D01*
X155500000Y-85325000D02*
X156000000Y-85325000D01*
D13*
X158700000Y-75075000D02*
X158200000Y-75075000D01*
X158200000Y-76025000D02*
X158700000Y-76025000D01*
X148475000Y-79300000D02*
X148475000Y-79800000D01*
X149425000Y-79800000D02*
X149425000Y-79300000D01*
X150800000Y-76660000D02*
X152600000Y-76660000D01*
X152600000Y-73440000D02*
X150150000Y-73440000D01*
X154725000Y-72800000D02*
X154725000Y-73300000D01*
X155675000Y-73300000D02*
X155675000Y-72800000D01*
X150800000Y-80710000D02*
X152600000Y-80710000D01*
X152600000Y-77490000D02*
X150150000Y-77490000D01*
X150200000Y-81075000D02*
X149700000Y-81075000D01*
X149700000Y-82025000D02*
X150200000Y-82025000D01*
X152450000Y-82025000D02*
X152950000Y-82025000D01*
X152950000Y-81075000D02*
X152450000Y-81075000D01*
D14*
X150800000Y-82350000D02*
G75*
G03X150800000Y-82350000I-100000J0D01*
G01*
D11*
X150855094Y-82647724D02*
X153555094Y-82647724D01*
X150855094Y-84747724D02*
X150855094Y-82647724D01*
X153555094Y-84747724D02*
X150855094Y-84747724D01*
X153555094Y-82647724D02*
X153555094Y-84747724D01*
D15*
X154080952Y-83604762D02*
X154404762Y-83604762D01*
X154442857Y-83585714D01*
X154461905Y-83566667D01*
X154480952Y-83528571D01*
X154480952Y-83452381D01*
X154461905Y-83414286D01*
X154442857Y-83395238D01*
X154404762Y-83376190D01*
X154080952Y-83376190D01*
X154214286Y-83014285D02*
X154480952Y-83014285D01*
X154061905Y-83109523D02*
X154347619Y-83204762D01*
X154347619Y-82957142D01*
X156633334Y-74692857D02*
X156614286Y-74711905D01*
X156557143Y-74730952D01*
X156519048Y-74730952D01*
X156461905Y-74711905D01*
X156423810Y-74673810D01*
X156404762Y-74635714D01*
X156385714Y-74559524D01*
X156385714Y-74502381D01*
X156404762Y-74426190D01*
X156423810Y-74388095D01*
X156461905Y-74350000D01*
X156519048Y-74330952D01*
X156557143Y-74330952D01*
X156614286Y-74350000D01*
X156633334Y-74369048D01*
X157014286Y-74730952D02*
X156785714Y-74730952D01*
X156900000Y-74730952D02*
X156900000Y-74330952D01*
X156861905Y-74388095D01*
X156823810Y-74426190D01*
X156785714Y-74445238D01*
X148933334Y-73542857D02*
X148914286Y-73561905D01*
X148857143Y-73580952D01*
X148819048Y-73580952D01*
X148761905Y-73561905D01*
X148723810Y-73523810D01*
X148704762Y-73485714D01*
X148685714Y-73409524D01*
X148685714Y-73352381D01*
X148704762Y-73276190D01*
X148723810Y-73238095D01*
X148761905Y-73200000D01*
X148819048Y-73180952D01*
X148857143Y-73180952D01*
X148914286Y-73200000D01*
X148933334Y-73219048D01*
X149085714Y-73219048D02*
X149104762Y-73200000D01*
X149142857Y-73180952D01*
X149238095Y-73180952D01*
X149276191Y-73200000D01*
X149295238Y-73219048D01*
X149314286Y-73257143D01*
X149314286Y-73295238D01*
X149295238Y-73352381D01*
X149066667Y-73580952D01*
X149314286Y-73580952D01*
X157092857Y-77116666D02*
X157111905Y-77135714D01*
X157130952Y-77192857D01*
X157130952Y-77230952D01*
X157111905Y-77288095D01*
X157073810Y-77326190D01*
X157035714Y-77345238D01*
X156959524Y-77364286D01*
X156902381Y-77364286D01*
X156826190Y-77345238D01*
X156788095Y-77326190D01*
X156750000Y-77288095D01*
X156730952Y-77230952D01*
X156730952Y-77192857D01*
X156750000Y-77135714D01*
X156769048Y-77116666D01*
X156902381Y-76888095D02*
X156883333Y-76926190D01*
X156864286Y-76945238D01*
X156826190Y-76964286D01*
X156807143Y-76964286D01*
X156769048Y-76945238D01*
X156750000Y-76926190D01*
X156730952Y-76888095D01*
X156730952Y-76811905D01*
X156750000Y-76773809D01*
X156769048Y-76754762D01*
X156807143Y-76735714D01*
X156826190Y-76735714D01*
X156864286Y-76754762D01*
X156883333Y-76773809D01*
X156902381Y-76811905D01*
X156902381Y-76888095D01*
X156921429Y-76926190D01*
X156940476Y-76945238D01*
X156978571Y-76964286D01*
X157054762Y-76964286D01*
X157092857Y-76945238D01*
X157111905Y-76926190D01*
X157130952Y-76888095D01*
X157130952Y-76811905D01*
X157111905Y-76773809D01*
X157092857Y-76754762D01*
X157054762Y-76735714D01*
X156978571Y-76735714D01*
X156940476Y-76754762D01*
X156921429Y-76773809D01*
X156902381Y-76811905D01*
X158133334Y-85942857D02*
X158114286Y-85961905D01*
X158057143Y-85980952D01*
X158019048Y-85980952D01*
X157961905Y-85961905D01*
X157923810Y-85923810D01*
X157904762Y-85885714D01*
X157885714Y-85809524D01*
X157885714Y-85752381D01*
X157904762Y-85676190D01*
X157923810Y-85638095D01*
X157961905Y-85600000D01*
X158019048Y-85580952D01*
X158057143Y-85580952D01*
X158114286Y-85600000D01*
X158133334Y-85619048D01*
X158323810Y-85980952D02*
X158400000Y-85980952D01*
X158438095Y-85961905D01*
X158457143Y-85942857D01*
X158495238Y-85885714D01*
X158514286Y-85809524D01*
X158514286Y-85657143D01*
X158495238Y-85619048D01*
X158476191Y-85600000D01*
X158438095Y-85580952D01*
X158361905Y-85580952D01*
X158323810Y-85600000D01*
X158304762Y-85619048D01*
X158285714Y-85657143D01*
X158285714Y-85752381D01*
X158304762Y-85790476D01*
X158323810Y-85809524D01*
X158361905Y-85828571D01*
X158438095Y-85828571D01*
X158476191Y-85809524D01*
X158495238Y-85790476D01*
X158514286Y-85752381D01*
X152893458Y-69330952D02*
X152893458Y-69654762D01*
X152912506Y-69692857D01*
X152931553Y-69711905D01*
X152969649Y-69730952D01*
X153045839Y-69730952D01*
X153083934Y-69711905D01*
X153102982Y-69692857D01*
X153122030Y-69654762D01*
X153122030Y-69330952D01*
X153522030Y-69730952D02*
X153293458Y-69730952D01*
X153407744Y-69730952D02*
X153407744Y-69330952D01*
X153369649Y-69388095D01*
X153331554Y-69426190D01*
X153293458Y-69445238D01*
X148883334Y-69680952D02*
X148750000Y-69490476D01*
X148654762Y-69680952D02*
X148654762Y-69280952D01*
X148807143Y-69280952D01*
X148845238Y-69300000D01*
X148864286Y-69319048D01*
X148883334Y-69357143D01*
X148883334Y-69414286D01*
X148864286Y-69452381D01*
X148845238Y-69471429D01*
X148807143Y-69490476D01*
X148654762Y-69490476D01*
X149226191Y-69414286D02*
X149226191Y-69680952D01*
X149130953Y-69261905D02*
X149035714Y-69547619D01*
X149283334Y-69547619D01*
X155633334Y-85980952D02*
X155500000Y-85790476D01*
X155404762Y-85980952D02*
X155404762Y-85580952D01*
X155557143Y-85580952D01*
X155595238Y-85600000D01*
X155614286Y-85619048D01*
X155633334Y-85657143D01*
X155633334Y-85714286D01*
X155614286Y-85752381D01*
X155595238Y-85771429D01*
X155557143Y-85790476D01*
X155404762Y-85790476D01*
X155995238Y-85580952D02*
X155804762Y-85580952D01*
X155785714Y-85771429D01*
X155804762Y-85752381D01*
X155842857Y-85733333D01*
X155938095Y-85733333D01*
X155976191Y-85752381D01*
X155995238Y-85771429D01*
X156014286Y-85809524D01*
X156014286Y-85904762D01*
X155995238Y-85942857D01*
X155976191Y-85961905D01*
X155938095Y-85980952D01*
X155842857Y-85980952D01*
X155804762Y-85961905D01*
X155785714Y-85942857D01*
X157092857Y-75616666D02*
X157111905Y-75635714D01*
X157130952Y-75692857D01*
X157130952Y-75730952D01*
X157111905Y-75788095D01*
X157073810Y-75826190D01*
X157035714Y-75845238D01*
X156959524Y-75864286D01*
X156902381Y-75864286D01*
X156826190Y-75845238D01*
X156788095Y-75826190D01*
X156750000Y-75788095D01*
X156730952Y-75730952D01*
X156730952Y-75692857D01*
X156750000Y-75635714D01*
X156769048Y-75616666D01*
X156730952Y-75483333D02*
X156730952Y-75235714D01*
X156883333Y-75369047D01*
X156883333Y-75311905D01*
X156902381Y-75273809D01*
X156921429Y-75254762D01*
X156959524Y-75235714D01*
X157054762Y-75235714D01*
X157092857Y-75254762D01*
X157111905Y-75273809D01*
X157130952Y-75311905D01*
X157130952Y-75426190D01*
X157111905Y-75464286D01*
X157092857Y-75483333D01*
X148883334Y-78142857D02*
X148864286Y-78161905D01*
X148807143Y-78180952D01*
X148769048Y-78180952D01*
X148711905Y-78161905D01*
X148673810Y-78123810D01*
X148654762Y-78085714D01*
X148635714Y-78009524D01*
X148635714Y-77952381D01*
X148654762Y-77876190D01*
X148673810Y-77838095D01*
X148711905Y-77800000D01*
X148769048Y-77780952D01*
X148807143Y-77780952D01*
X148864286Y-77800000D01*
X148883334Y-77819048D01*
X149245238Y-77780952D02*
X149054762Y-77780952D01*
X149035714Y-77971429D01*
X149054762Y-77952381D01*
X149092857Y-77933333D01*
X149188095Y-77933333D01*
X149226191Y-77952381D01*
X149245238Y-77971429D01*
X149264286Y-78009524D01*
X149264286Y-78104762D01*
X149245238Y-78142857D01*
X149226191Y-78161905D01*
X149188095Y-78180952D01*
X149092857Y-78180952D01*
X149054762Y-78161905D01*
X149035714Y-78142857D01*
X152295238Y-72880952D02*
X152295238Y-73204762D01*
X152314286Y-73242857D01*
X152333333Y-73261905D01*
X152371429Y-73280952D01*
X152447619Y-73280952D01*
X152485714Y-73261905D01*
X152504762Y-73242857D01*
X152523810Y-73204762D01*
X152523810Y-72880952D01*
X152904762Y-72880952D02*
X152714286Y-72880952D01*
X152695238Y-73071429D01*
X152714286Y-73052381D01*
X152752381Y-73033333D01*
X152847619Y-73033333D01*
X152885715Y-73052381D01*
X152904762Y-73071429D01*
X152923810Y-73109524D01*
X152923810Y-73204762D01*
X152904762Y-73242857D01*
X152885715Y-73261905D01*
X152847619Y-73280952D01*
X152752381Y-73280952D01*
X152714286Y-73261905D01*
X152695238Y-73242857D01*
X155133334Y-74692857D02*
X155114286Y-74711905D01*
X155057143Y-74730952D01*
X155019048Y-74730952D01*
X154961905Y-74711905D01*
X154923810Y-74673810D01*
X154904762Y-74635714D01*
X154885714Y-74559524D01*
X154885714Y-74502381D01*
X154904762Y-74426190D01*
X154923810Y-74388095D01*
X154961905Y-74350000D01*
X155019048Y-74330952D01*
X155057143Y-74330952D01*
X155114286Y-74350000D01*
X155133334Y-74369048D01*
X155476191Y-74330952D02*
X155400000Y-74330952D01*
X155361905Y-74350000D01*
X155342857Y-74369048D01*
X155304762Y-74426190D01*
X155285714Y-74502381D01*
X155285714Y-74654762D01*
X155304762Y-74692857D01*
X155323810Y-74711905D01*
X155361905Y-74730952D01*
X155438095Y-74730952D01*
X155476191Y-74711905D01*
X155495238Y-74692857D01*
X155514286Y-74654762D01*
X155514286Y-74559524D01*
X155495238Y-74521429D01*
X155476191Y-74502381D01*
X155438095Y-74483333D01*
X155361905Y-74483333D01*
X155323810Y-74502381D01*
X155304762Y-74521429D01*
X155285714Y-74559524D01*
X152295238Y-76980952D02*
X152295238Y-77304762D01*
X152314286Y-77342857D01*
X152333333Y-77361905D01*
X152371429Y-77380952D01*
X152447619Y-77380952D01*
X152485714Y-77361905D01*
X152504762Y-77342857D01*
X152523810Y-77304762D01*
X152523810Y-76980952D01*
X152885715Y-76980952D02*
X152809524Y-76980952D01*
X152771429Y-77000000D01*
X152752381Y-77019048D01*
X152714286Y-77076190D01*
X152695238Y-77152381D01*
X152695238Y-77304762D01*
X152714286Y-77342857D01*
X152733334Y-77361905D01*
X152771429Y-77380952D01*
X152847619Y-77380952D01*
X152885715Y-77361905D01*
X152904762Y-77342857D01*
X152923810Y-77304762D01*
X152923810Y-77209524D01*
X152904762Y-77171429D01*
X152885715Y-77152381D01*
X152847619Y-77133333D01*
X152771429Y-77133333D01*
X152733334Y-77152381D01*
X152714286Y-77171429D01*
X152695238Y-77209524D01*
X148742857Y-81566666D02*
X148761905Y-81585714D01*
X148780952Y-81642857D01*
X148780952Y-81680952D01*
X148761905Y-81738095D01*
X148723810Y-81776190D01*
X148685714Y-81795238D01*
X148609524Y-81814286D01*
X148552381Y-81814286D01*
X148476190Y-81795238D01*
X148438095Y-81776190D01*
X148400000Y-81738095D01*
X148380952Y-81680952D01*
X148380952Y-81642857D01*
X148400000Y-81585714D01*
X148419048Y-81566666D01*
X148380952Y-81433333D02*
X148380952Y-81166666D01*
X148780952Y-81338095D01*
X151442857Y-81807142D02*
X151461905Y-81826190D01*
X151480952Y-81883333D01*
X151480952Y-81921428D01*
X151461905Y-81978571D01*
X151423810Y-82016666D01*
X151385714Y-82035714D01*
X151309524Y-82054762D01*
X151252381Y-82054762D01*
X151176190Y-82035714D01*
X151138095Y-82016666D01*
X151100000Y-81978571D01*
X151080952Y-81921428D01*
X151080952Y-81883333D01*
X151100000Y-81826190D01*
X151119048Y-81807142D01*
X151480952Y-81426190D02*
X151480952Y-81654762D01*
X151480952Y-81540476D02*
X151080952Y-81540476D01*
X151138095Y-81578571D01*
X151176190Y-81616666D01*
X151195238Y-81654762D01*
X151080952Y-81178571D02*
X151080952Y-81140476D01*
X151100000Y-81102381D01*
X151119048Y-81083333D01*
X151157143Y-81064286D01*
X151233333Y-81045238D01*
X151328571Y-81045238D01*
X151404762Y-81064286D01*
X151442857Y-81083333D01*
X151461905Y-81102381D01*
X151480952Y-81140476D01*
X151480952Y-81178571D01*
X151461905Y-81216667D01*
X151442857Y-81235714D01*
X151404762Y-81254762D01*
X151328571Y-81273810D01*
X151233333Y-81273810D01*
X151157143Y-81254762D01*
X151119048Y-81235714D01*
X151100000Y-81216667D01*
X151080952Y-81178571D01*
X150230952Y-83354762D02*
X150554762Y-83354762D01*
X150592857Y-83335714D01*
X150611905Y-83316667D01*
X150630952Y-83278571D01*
X150630952Y-83202381D01*
X150611905Y-83164286D01*
X150592857Y-83145238D01*
X150554762Y-83126190D01*
X150230952Y-83126190D01*
X150230952Y-82973809D02*
X150230952Y-82726190D01*
X150383333Y-82859523D01*
X150383333Y-82802381D01*
X150402381Y-82764285D01*
X150421429Y-82745238D01*
X150459524Y-82726190D01*
X150554762Y-82726190D01*
X150592857Y-82745238D01*
X150611905Y-82764285D01*
X150630952Y-82802381D01*
X150630952Y-82916666D01*
X150611905Y-82954762D01*
X150592857Y-82973809D01*
M02*
