G04 #@! TF.FileFunction,Paste,Top*
%FSLAX46Y46*%
G04 Gerber Fmt 4.6, Leading zero omitted, Abs format (unit mm)*
G04 Created by KiCad (PCBNEW 4.0.4-stable) date 02/09/17 23:46:16*
%MOMM*%
%LPD*%
G01*
G04 APERTURE LIST*
%ADD10C,0.100000*%
%ADD11R,0.300000X0.400000*%
%ADD12R,0.300000X0.550000*%
%ADD13R,0.400000X0.300000*%
%ADD14R,0.550000X0.300000*%
%ADD15R,0.200000X0.300000*%
%ADD16R,0.300000X0.200000*%
%ADD17R,0.400000X0.200000*%
%ADD18R,0.200000X0.400000*%
%ADD19R,0.500000X0.600000*%
%ADD20R,0.600000X0.500000*%
%ADD21R,0.800100X0.800100*%
%ADD22R,0.600000X0.400000*%
%ADD23R,0.400000X0.600000*%
%ADD24R,1.060000X0.650000*%
%ADD25R,0.500000X0.250000*%
%ADD26R,0.900000X1.600000*%
G04 APERTURE END LIST*
D10*
D11*
X155700000Y-83200000D03*
D12*
X156200000Y-83100000D03*
X156700000Y-83100000D03*
X157200000Y-83100000D03*
X157700000Y-83100000D03*
X158200000Y-83100000D03*
D11*
X158700000Y-83250000D03*
D13*
X159200000Y-82700000D03*
D14*
X159100000Y-82200000D03*
X159100000Y-81700000D03*
X159100000Y-81200000D03*
X159100000Y-80700000D03*
X159100000Y-80200000D03*
D13*
X159200000Y-79700000D03*
D11*
X158700000Y-79150000D03*
D12*
X158200000Y-79300000D03*
X157700000Y-79300000D03*
X157200000Y-79300000D03*
X156700000Y-79300000D03*
X156200000Y-79300000D03*
D11*
X155700000Y-79200000D03*
D13*
X155200000Y-79700000D03*
D14*
X155300000Y-80200000D03*
X155300000Y-80700000D03*
X155300000Y-81200000D03*
X155300000Y-81700000D03*
X155300000Y-82200000D03*
D13*
X155200000Y-82700000D03*
D15*
X155750000Y-83050000D03*
D16*
X155350000Y-82650000D03*
D17*
X159100000Y-82650000D03*
D18*
X158650000Y-83150000D03*
D17*
X159100000Y-79750000D03*
D18*
X158650000Y-79250000D03*
D15*
X155750000Y-79350000D03*
D16*
X155350000Y-79750000D03*
D19*
X156700000Y-73600000D03*
X156700000Y-72500000D03*
X148950000Y-74250000D03*
X148950000Y-75350000D03*
D20*
X157900000Y-77050000D03*
X159000000Y-77050000D03*
X157600000Y-84800000D03*
X158700000Y-84800000D03*
D21*
X150699240Y-70100000D03*
X150699240Y-72000000D03*
X152698220Y-71050000D03*
D22*
X148950000Y-71250000D03*
X148950000Y-70350000D03*
D23*
X155300000Y-84800000D03*
X156200000Y-84800000D03*
D20*
X157900000Y-75550000D03*
X159000000Y-75550000D03*
D19*
X148950000Y-80100000D03*
X148950000Y-79000000D03*
D24*
X150600000Y-74100000D03*
X150600000Y-75050000D03*
X150600000Y-76000000D03*
X152800000Y-76000000D03*
X152800000Y-74100000D03*
D19*
X155200000Y-73600000D03*
X155200000Y-72500000D03*
D24*
X150600000Y-78150000D03*
X150600000Y-79100000D03*
X150600000Y-80050000D03*
X152800000Y-80050000D03*
X152800000Y-78150000D03*
D20*
X149400000Y-81550000D03*
X150500000Y-81550000D03*
X153250000Y-81550000D03*
X152150000Y-81550000D03*
D25*
X153155094Y-82947724D03*
X153155094Y-83447724D03*
X153155094Y-83947724D03*
X153155094Y-84447724D03*
X151255094Y-84447724D03*
X151255094Y-83447724D03*
X151255094Y-83947724D03*
X151255094Y-82947724D03*
D26*
X152205094Y-83700000D03*
M02*
