G04 #@! TF.FileFunction,Soldermask,Top*
%FSLAX46Y46*%
G04 Gerber Fmt 4.6, Leading zero omitted, Abs format (unit mm)*
G04 Created by KiCad (PCBNEW 4.0.4-stable) date 02/16/17 23:31:48*
%MOMM*%
%LPD*%
G01*
G04 APERTURE LIST*
%ADD10C,0.100000*%
%ADD11O,2.400000X1.670000*%
%ADD12R,0.900000X1.000000*%
%ADD13R,1.000000X0.900000*%
%ADD14R,1.200100X1.200100*%
%ADD15R,1.000000X1.850000*%
%ADD16C,2.540000*%
%ADD17O,2.398980X2.398980*%
%ADD18R,2.398980X2.398980*%
%ADD19R,2.100000X2.100000*%
%ADD20O,2.100000X2.100000*%
%ADD21R,1.670000X1.370000*%
%ADD22C,2.900000*%
%ADD23R,0.900000X1.300000*%
%ADD24C,1.400000*%
%ADD25R,0.700000X0.800000*%
%ADD26R,0.700000X0.950000*%
%ADD27R,0.800000X0.700000*%
%ADD28R,0.950000X0.700000*%
%ADD29R,0.600000X0.700000*%
%ADD30R,0.700000X0.600000*%
%ADD31R,0.800000X0.600000*%
%ADD32R,0.600000X0.800000*%
%ADD33R,1.000000X0.800000*%
%ADD34R,1.300000X1.200000*%
%ADD35R,1.150000X2.500000*%
%ADD36R,1.370000X1.670000*%
G04 APERTURE END LIST*
D10*
D11*
X153550000Y-103090000D03*
X140850000Y-103090000D03*
X153550000Y-100550000D03*
X140850000Y-100550000D03*
X153550000Y-98010000D03*
X140850000Y-98010000D03*
X153550000Y-95470000D03*
X140850000Y-95470000D03*
X153550000Y-92930000D03*
X140850000Y-92930000D03*
X153550000Y-90390000D03*
X140850000Y-90390000D03*
X153550000Y-87850000D03*
X140850000Y-87850000D03*
X153550000Y-85310000D03*
X140850000Y-85310000D03*
D12*
X151400000Y-93650000D03*
X151400000Y-92550000D03*
D13*
X147750000Y-99414000D03*
X146650000Y-99414000D03*
X149500000Y-107550000D03*
X148400000Y-107550000D03*
X149750000Y-99400000D03*
X150850000Y-99400000D03*
D14*
X149900000Y-87050000D03*
X148000000Y-87050000D03*
X148950000Y-89048980D03*
D15*
X145795000Y-97400000D03*
X147065000Y-97400000D03*
X148335000Y-97400000D03*
X149605000Y-97400000D03*
X149605000Y-91400000D03*
X148335000Y-91400000D03*
X147065000Y-91400000D03*
X145795000Y-91400000D03*
D16*
X151200000Y-110800000D03*
D17*
X160200000Y-102840000D03*
D18*
X160200000Y-95220000D03*
D17*
X160200000Y-97760000D03*
X160200000Y-100300000D03*
D19*
X153990000Y-79800000D03*
D20*
X151450000Y-79800000D03*
D19*
X147950000Y-79800000D03*
D20*
X145410000Y-79800000D03*
D19*
X154200000Y-106800000D03*
D20*
X156740000Y-106800000D03*
X159280000Y-106800000D03*
X161820000Y-106800000D03*
D19*
X154160000Y-110800000D03*
D20*
X156700000Y-110800000D03*
X159240000Y-110800000D03*
X161780000Y-110800000D03*
D19*
X140370000Y-110800000D03*
D20*
X142910000Y-110800000D03*
X145450000Y-110800000D03*
X147990000Y-110800000D03*
D21*
X157450000Y-86660000D03*
X157450000Y-87940000D03*
X161200000Y-86660000D03*
X161200000Y-87940000D03*
D22*
X140450000Y-106800000D03*
X156450000Y-84050000D03*
D23*
X149300000Y-85300000D03*
X150800000Y-85300000D03*
D24*
X151700000Y-104550000D03*
X142556000Y-89310000D03*
X151700000Y-89310000D03*
X142556000Y-104550000D03*
D17*
X160490000Y-81300000D03*
D18*
X157950000Y-81300000D03*
D25*
X146500000Y-105300000D03*
D26*
X147000000Y-105200000D03*
X147500000Y-105200000D03*
X148000000Y-105200000D03*
X148500000Y-105200000D03*
X149000000Y-105200000D03*
D25*
X149500000Y-105350000D03*
D27*
X150000000Y-104800000D03*
D28*
X149900000Y-104300000D03*
X149900000Y-103800000D03*
X149900000Y-103300000D03*
X149900000Y-102800000D03*
X149900000Y-102300000D03*
D27*
X150000000Y-101800000D03*
D25*
X149500000Y-101250000D03*
D26*
X149000000Y-101400000D03*
X148500000Y-101400000D03*
X148000000Y-101400000D03*
X147500000Y-101400000D03*
X147000000Y-101400000D03*
D25*
X146500000Y-101300000D03*
D27*
X146000000Y-101800000D03*
D28*
X146100000Y-102300000D03*
X146100000Y-102800000D03*
X146100000Y-103300000D03*
X146100000Y-103800000D03*
X146100000Y-104300000D03*
D27*
X146000000Y-104800000D03*
D29*
X146550000Y-105150000D03*
D30*
X146150000Y-104750000D03*
D31*
X149900000Y-104750000D03*
D32*
X149450000Y-105250000D03*
D31*
X149900000Y-101850000D03*
D32*
X149450000Y-101350000D03*
D29*
X146550000Y-101450000D03*
D30*
X146150000Y-101850000D03*
D33*
X143450000Y-106850000D03*
X143450000Y-107750000D03*
D12*
X143200000Y-79000000D03*
X143200000Y-80100000D03*
D13*
X139450000Y-83300000D03*
X140550000Y-83300000D03*
D34*
X139700000Y-79850000D03*
X139700000Y-81750000D03*
X141700000Y-80800000D03*
D35*
X147840000Y-83050000D03*
X145300000Y-83050000D03*
X142760000Y-83050000D03*
X146570000Y-86950000D03*
X144030000Y-86950000D03*
D36*
X151160000Y-108300000D03*
X152440000Y-108300000D03*
M02*
