G04 #@! TF.FileFunction,Other,Fab,Top*
%FSLAX46Y46*%
G04 Gerber Fmt 4.6, Leading zero omitted, Abs format (unit mm)*
G04 Created by KiCad (PCBNEW 4.0.4-stable) date 02/16/17 23:31:48*
%MOMM*%
%LPD*%
G01*
G04 APERTURE LIST*
%ADD10C,0.100000*%
%ADD11C,0.150000*%
%ADD12C,0.090000*%
G04 APERTURE END LIST*
D10*
D11*
X151650000Y-93600000D02*
X151150000Y-93600000D01*
X151650000Y-92600000D02*
X151650000Y-93600000D01*
X151150000Y-92600000D02*
X151650000Y-92600000D01*
X151150000Y-93600000D02*
X151150000Y-92600000D01*
X147700000Y-99164000D02*
X147700000Y-99664000D01*
X146700000Y-99164000D02*
X147700000Y-99164000D01*
X146700000Y-99664000D02*
X146700000Y-99164000D01*
X147700000Y-99664000D02*
X146700000Y-99664000D01*
X149450000Y-107300000D02*
X149450000Y-107800000D01*
X148450000Y-107300000D02*
X149450000Y-107300000D01*
X148450000Y-107800000D02*
X148450000Y-107300000D01*
X149450000Y-107800000D02*
X148450000Y-107800000D01*
X149800000Y-99650000D02*
X149800000Y-99150000D01*
X150800000Y-99650000D02*
X149800000Y-99650000D01*
X150800000Y-99150000D02*
X150800000Y-99650000D01*
X149800000Y-99150000D02*
X150800000Y-99150000D01*
D10*
X149250000Y-85700000D02*
X149250000Y-84900000D01*
X150850000Y-85700000D02*
X149250000Y-85700000D01*
X150850000Y-84900000D02*
X150850000Y-85700000D01*
X149250000Y-84900000D02*
X150850000Y-84900000D01*
X143200000Y-106800000D02*
X143700000Y-106800000D01*
X143200000Y-107800000D02*
X143200000Y-106800000D01*
X143700000Y-107800000D02*
X143200000Y-107800000D01*
X143700000Y-106800000D02*
X143700000Y-107800000D01*
X142950000Y-79050000D02*
X143450000Y-79050000D01*
X142950000Y-80050000D02*
X142950000Y-79050000D01*
X143450000Y-80050000D02*
X142950000Y-80050000D01*
X143450000Y-79050000D02*
X143450000Y-80050000D01*
X139500000Y-83550000D02*
X139500000Y-83050000D01*
X140500000Y-83550000D02*
X139500000Y-83550000D01*
X140500000Y-83050000D02*
X140500000Y-83550000D01*
X139500000Y-83050000D02*
X140500000Y-83050000D01*
X140000000Y-79850000D02*
X140000000Y-82300000D01*
X140550000Y-79280000D02*
X141400000Y-79280000D01*
X140000000Y-79850000D02*
X140550000Y-79280000D01*
X141400000Y-79280000D02*
X141400000Y-82320000D01*
X140000000Y-82320000D02*
X141400000Y-82320000D01*
X148475000Y-84365000D02*
X142125000Y-84365000D01*
X142125000Y-84365000D02*
X142125000Y-85635000D01*
X142125000Y-85635000D02*
X148475000Y-85635000D01*
X148475000Y-85635000D02*
X148475000Y-84365000D01*
X148040000Y-84365000D02*
X147640000Y-84365000D01*
X147640000Y-84365000D02*
X147640000Y-83080000D01*
X147640000Y-83080000D02*
X148040000Y-83080000D01*
X148040000Y-83080000D02*
X148040000Y-84365000D01*
X145500000Y-84365000D02*
X145100000Y-84365000D01*
X145100000Y-84365000D02*
X145100000Y-83080000D01*
X145100000Y-83080000D02*
X145500000Y-83080000D01*
X145500000Y-83080000D02*
X145500000Y-84365000D01*
X142960000Y-84365000D02*
X142560000Y-84365000D01*
X142560000Y-84365000D02*
X142560000Y-83080000D01*
X142560000Y-83080000D02*
X142960000Y-83080000D01*
X142960000Y-83080000D02*
X142960000Y-84365000D01*
X146770000Y-85635000D02*
X146370000Y-85635000D01*
X146370000Y-85635000D02*
X146370000Y-86920000D01*
X146370000Y-86920000D02*
X146770000Y-86920000D01*
X146770000Y-86920000D02*
X146770000Y-85635000D01*
X144230000Y-85635000D02*
X143830000Y-85635000D01*
X143830000Y-85635000D02*
X143830000Y-86920000D01*
X143830000Y-86920000D02*
X144230000Y-86920000D01*
X144230000Y-86920000D02*
X144230000Y-85635000D01*
D12*
X149783334Y-87380952D02*
X149554762Y-87380952D01*
X149669048Y-87380952D02*
X149669048Y-86980952D01*
X149630953Y-87038095D01*
X149592858Y-87076190D01*
X149554762Y-87095238D01*
X149935714Y-87019048D02*
X149954762Y-87000000D01*
X149992857Y-86980952D01*
X150088095Y-86980952D01*
X150126191Y-87000000D01*
X150145238Y-87019048D01*
X150164286Y-87057143D01*
X150164286Y-87095238D01*
X150145238Y-87152381D01*
X149916667Y-87380952D01*
X150164286Y-87380952D01*
X150411905Y-86980952D02*
X150450000Y-86980952D01*
X150488095Y-87000000D01*
X150507143Y-87019048D01*
X150526190Y-87057143D01*
X150545238Y-87133333D01*
X150545238Y-87228571D01*
X150526190Y-87304762D01*
X150507143Y-87342857D01*
X150488095Y-87361905D01*
X150450000Y-87380952D01*
X150411905Y-87380952D01*
X150373809Y-87361905D01*
X150354762Y-87342857D01*
X150335714Y-87304762D01*
X150316666Y-87228571D01*
X150316666Y-87133333D01*
X150335714Y-87057143D01*
X150354762Y-87019048D01*
X150373809Y-87000000D01*
X150411905Y-86980952D01*
X141830952Y-107538095D02*
X141830952Y-107766667D01*
X141830952Y-107652381D02*
X141430952Y-107652381D01*
X141488095Y-107690476D01*
X141526190Y-107728571D01*
X141545238Y-107766667D01*
X141430952Y-107290476D02*
X141430952Y-107252381D01*
X141450000Y-107214286D01*
X141469048Y-107195238D01*
X141507143Y-107176191D01*
X141583333Y-107157143D01*
X141678571Y-107157143D01*
X141754762Y-107176191D01*
X141792857Y-107195238D01*
X141811905Y-107214286D01*
X141830952Y-107252381D01*
X141830952Y-107290476D01*
X141811905Y-107328572D01*
X141792857Y-107347619D01*
X141754762Y-107366667D01*
X141678571Y-107385715D01*
X141583333Y-107385715D01*
X141507143Y-107366667D01*
X141469048Y-107347619D01*
X141450000Y-107328572D01*
X141430952Y-107290476D01*
X141830952Y-106985715D02*
X141430952Y-106985715D01*
X141678571Y-106947620D02*
X141830952Y-106833334D01*
X141564286Y-106833334D02*
X141716667Y-106985715D01*
X141680952Y-79616666D02*
X141680952Y-79845238D01*
X141680952Y-79730952D02*
X141280952Y-79730952D01*
X141338095Y-79769047D01*
X141376190Y-79807142D01*
X141395238Y-79845238D01*
X141414286Y-79273809D02*
X141680952Y-79273809D01*
X141414286Y-79445238D02*
X141623810Y-79445238D01*
X141661905Y-79426190D01*
X141680952Y-79388095D01*
X141680952Y-79330952D01*
X141661905Y-79292857D01*
X141642857Y-79273809D01*
X139933334Y-85180952D02*
X139704762Y-85180952D01*
X139819048Y-85180952D02*
X139819048Y-84780952D01*
X139780953Y-84838095D01*
X139742858Y-84876190D01*
X139704762Y-84895238D01*
X140276191Y-84914286D02*
X140276191Y-85180952D01*
X140104762Y-84914286D02*
X140104762Y-85123810D01*
X140123810Y-85161905D01*
X140161905Y-85180952D01*
X140219048Y-85180952D01*
X140257143Y-85161905D01*
X140276191Y-85142857D01*
X137547620Y-83480952D02*
X137547620Y-83080952D01*
X137680953Y-83366667D01*
X137814287Y-83080952D01*
X137814287Y-83480952D01*
X138233335Y-83442857D02*
X138214287Y-83461905D01*
X138157144Y-83480952D01*
X138119049Y-83480952D01*
X138061906Y-83461905D01*
X138023811Y-83423810D01*
X138004763Y-83385714D01*
X137985715Y-83309524D01*
X137985715Y-83252381D01*
X138004763Y-83176190D01*
X138023811Y-83138095D01*
X138061906Y-83100000D01*
X138119049Y-83080952D01*
X138157144Y-83080952D01*
X138214287Y-83100000D01*
X138233335Y-83119048D01*
X138404763Y-83480952D02*
X138404763Y-83080952D01*
X138557144Y-83080952D01*
X138595239Y-83100000D01*
X138614287Y-83119048D01*
X138633335Y-83157143D01*
X138633335Y-83214286D01*
X138614287Y-83252381D01*
X138595239Y-83271429D01*
X138557144Y-83290476D01*
X138404763Y-83290476D01*
X139014287Y-83480952D02*
X138785715Y-83480952D01*
X138900001Y-83480952D02*
X138900001Y-83080952D01*
X138861906Y-83138095D01*
X138823811Y-83176190D01*
X138785715Y-83195238D01*
X139147620Y-83080952D02*
X139414287Y-83080952D01*
X139242858Y-83480952D01*
X139642858Y-83080952D02*
X139680953Y-83080952D01*
X139719048Y-83100000D01*
X139738096Y-83119048D01*
X139757143Y-83157143D01*
X139776191Y-83233333D01*
X139776191Y-83328571D01*
X139757143Y-83404762D01*
X139738096Y-83442857D01*
X139719048Y-83461905D01*
X139680953Y-83480952D01*
X139642858Y-83480952D01*
X139604762Y-83461905D01*
X139585715Y-83442857D01*
X139566667Y-83404762D01*
X139547619Y-83328571D01*
X139547619Y-83233333D01*
X139566667Y-83157143D01*
X139585715Y-83119048D01*
X139604762Y-83100000D01*
X139642858Y-83080952D01*
X140023810Y-83080952D02*
X140061905Y-83080952D01*
X140100000Y-83100000D01*
X140119048Y-83119048D01*
X140138095Y-83157143D01*
X140157143Y-83233333D01*
X140157143Y-83328571D01*
X140138095Y-83404762D01*
X140119048Y-83442857D01*
X140100000Y-83461905D01*
X140061905Y-83480952D01*
X140023810Y-83480952D01*
X139985714Y-83461905D01*
X139966667Y-83442857D01*
X139947619Y-83404762D01*
X139928571Y-83328571D01*
X139928571Y-83233333D01*
X139947619Y-83157143D01*
X139966667Y-83119048D01*
X139985714Y-83100000D01*
X140023810Y-83080952D01*
X140271428Y-83080952D02*
X140500000Y-83080952D01*
X140385714Y-83480952D02*
X140385714Y-83080952D01*
X140633333Y-83328571D02*
X140938095Y-83328571D01*
X141090476Y-83080952D02*
X141338095Y-83080952D01*
X141204762Y-83233333D01*
X141261904Y-83233333D01*
X141300000Y-83252381D01*
X141319047Y-83271429D01*
X141338095Y-83309524D01*
X141338095Y-83404762D01*
X141319047Y-83442857D01*
X141300000Y-83461905D01*
X141261904Y-83480952D01*
X141147619Y-83480952D01*
X141109523Y-83461905D01*
X141090476Y-83442857D01*
X141471428Y-83080952D02*
X141719047Y-83080952D01*
X141585714Y-83233333D01*
X141642856Y-83233333D01*
X141680952Y-83252381D01*
X141699999Y-83271429D01*
X141719047Y-83309524D01*
X141719047Y-83404762D01*
X141699999Y-83442857D01*
X141680952Y-83461905D01*
X141642856Y-83480952D01*
X141528571Y-83480952D01*
X141490475Y-83461905D01*
X141471428Y-83442857D01*
X141966666Y-83080952D02*
X142004761Y-83080952D01*
X142042856Y-83100000D01*
X142061904Y-83119048D01*
X142080951Y-83157143D01*
X142099999Y-83233333D01*
X142099999Y-83328571D01*
X142080951Y-83404762D01*
X142061904Y-83442857D01*
X142042856Y-83461905D01*
X142004761Y-83480952D01*
X141966666Y-83480952D01*
X141928570Y-83461905D01*
X141909523Y-83442857D01*
X141890475Y-83404762D01*
X141871427Y-83328571D01*
X141871427Y-83233333D01*
X141890475Y-83157143D01*
X141909523Y-83119048D01*
X141928570Y-83100000D01*
X141966666Y-83080952D01*
X142252379Y-83119048D02*
X142271427Y-83100000D01*
X142309522Y-83080952D01*
X142404760Y-83080952D01*
X142442856Y-83100000D01*
X142461903Y-83119048D01*
X142480951Y-83157143D01*
X142480951Y-83195238D01*
X142461903Y-83252381D01*
X142233332Y-83480952D01*
X142480951Y-83480952D01*
X142652379Y-83271429D02*
X142785712Y-83271429D01*
X142842855Y-83480952D02*
X142652379Y-83480952D01*
X142652379Y-83080952D01*
X142842855Y-83080952D01*
X143299998Y-83061905D02*
X142957141Y-83576190D01*
X143376189Y-83080952D02*
X143604761Y-83080952D01*
X143490475Y-83480952D02*
X143490475Y-83080952D01*
X143680951Y-83080952D02*
X143909523Y-83080952D01*
X143795237Y-83480952D02*
X143795237Y-83080952D01*
X141207857Y-86609523D02*
X141226905Y-86628571D01*
X141245952Y-86685714D01*
X141245952Y-86723809D01*
X141226905Y-86780952D01*
X141188810Y-86819047D01*
X141150714Y-86838095D01*
X141074524Y-86857143D01*
X141017381Y-86857143D01*
X140941190Y-86838095D01*
X140903095Y-86819047D01*
X140865000Y-86780952D01*
X140845952Y-86723809D01*
X140845952Y-86685714D01*
X140865000Y-86628571D01*
X140884048Y-86609523D01*
X140845952Y-86361904D02*
X140845952Y-86285714D01*
X140865000Y-86247619D01*
X140903095Y-86209523D01*
X140979286Y-86190476D01*
X141112619Y-86190476D01*
X141188810Y-86209523D01*
X141226905Y-86247619D01*
X141245952Y-86285714D01*
X141245952Y-86361904D01*
X141226905Y-86400000D01*
X141188810Y-86438095D01*
X141112619Y-86457143D01*
X140979286Y-86457143D01*
X140903095Y-86438095D01*
X140865000Y-86400000D01*
X140845952Y-86361904D01*
X141245952Y-86019047D02*
X140845952Y-86019047D01*
X141245952Y-85790475D01*
X140845952Y-85790475D01*
X141245952Y-85599999D02*
X140845952Y-85599999D01*
X141245952Y-85371427D01*
X140845952Y-85371427D01*
X141284048Y-85276189D02*
X141284048Y-84971427D01*
X140845952Y-84799998D02*
X140845952Y-84761903D01*
X140865000Y-84723808D01*
X140884048Y-84704760D01*
X140922143Y-84685713D01*
X140998333Y-84666665D01*
X141093571Y-84666665D01*
X141169762Y-84685713D01*
X141207857Y-84704760D01*
X141226905Y-84723808D01*
X141245952Y-84761903D01*
X141245952Y-84799998D01*
X141226905Y-84838094D01*
X141207857Y-84857141D01*
X141169762Y-84876189D01*
X141093571Y-84895237D01*
X140998333Y-84895237D01*
X140922143Y-84876189D01*
X140884048Y-84857141D01*
X140865000Y-84838094D01*
X140845952Y-84799998D01*
X141245952Y-84285713D02*
X141245952Y-84514285D01*
X141245952Y-84399999D02*
X140845952Y-84399999D01*
X140903095Y-84438094D01*
X140941190Y-84476189D01*
X140960238Y-84514285D01*
X140845952Y-84152380D02*
X141245952Y-83885713D01*
X140845952Y-83885713D02*
X141245952Y-84152380D01*
X140845952Y-83657142D02*
X140845952Y-83619047D01*
X140865000Y-83580952D01*
X140884048Y-83561904D01*
X140922143Y-83542857D01*
X140998333Y-83523809D01*
X141093571Y-83523809D01*
X141169762Y-83542857D01*
X141207857Y-83561904D01*
X141226905Y-83580952D01*
X141245952Y-83619047D01*
X141245952Y-83657142D01*
X141226905Y-83695238D01*
X141207857Y-83714285D01*
X141169762Y-83733333D01*
X141093571Y-83752381D01*
X140998333Y-83752381D01*
X140922143Y-83733333D01*
X140884048Y-83714285D01*
X140865000Y-83695238D01*
X140845952Y-83657142D01*
X140845952Y-83161905D02*
X140845952Y-83352381D01*
X141036429Y-83371429D01*
X141017381Y-83352381D01*
X140998333Y-83314286D01*
X140998333Y-83219048D01*
X141017381Y-83180952D01*
X141036429Y-83161905D01*
X141074524Y-83142857D01*
X141169762Y-83142857D01*
X141207857Y-83161905D01*
X141226905Y-83180952D01*
X141245952Y-83219048D01*
X141245952Y-83314286D01*
X141226905Y-83352381D01*
X141207857Y-83371429D01*
X151523810Y-109900000D02*
X151485715Y-109880952D01*
X151428572Y-109880952D01*
X151371429Y-109900000D01*
X151333334Y-109938095D01*
X151314286Y-109976190D01*
X151295238Y-110052381D01*
X151295238Y-110109524D01*
X151314286Y-110185714D01*
X151333334Y-110223810D01*
X151371429Y-110261905D01*
X151428572Y-110280952D01*
X151466667Y-110280952D01*
X151523810Y-110261905D01*
X151542858Y-110242857D01*
X151542858Y-110109524D01*
X151466667Y-110109524D01*
X151695238Y-110261905D02*
X151752381Y-110280952D01*
X151847619Y-110280952D01*
X151885715Y-110261905D01*
X151904762Y-110242857D01*
X151923810Y-110204762D01*
X151923810Y-110166667D01*
X151904762Y-110128571D01*
X151885715Y-110109524D01*
X151847619Y-110090476D01*
X151771429Y-110071429D01*
X151733334Y-110052381D01*
X151714286Y-110033333D01*
X151695238Y-109995238D01*
X151695238Y-109957143D01*
X151714286Y-109919048D01*
X151733334Y-109900000D01*
X151771429Y-109880952D01*
X151866667Y-109880952D01*
X151923810Y-109900000D01*
X152076190Y-109919048D02*
X152095238Y-109900000D01*
X152133333Y-109880952D01*
X152228571Y-109880952D01*
X152266667Y-109900000D01*
X152285714Y-109919048D01*
X152304762Y-109957143D01*
X152304762Y-109995238D01*
X152285714Y-110052381D01*
X152057143Y-110280952D01*
X152304762Y-110280952D01*
M02*
