G04 #@! TF.FileFunction,Copper,L1,Top,Signal*
%FSLAX46Y46*%
G04 Gerber Fmt 4.6, Leading zero omitted, Abs format (unit mm)*
G04 Created by KiCad (PCBNEW 4.0.4-stable) date 10/29/16 22:30:41*
%MOMM*%
%LPD*%
G01*
G04 APERTURE LIST*
%ADD10C,0.100000*%
%ADD11R,1.350000X1.350000*%
%ADD12C,1.350000*%
%ADD13R,0.300000X0.400000*%
%ADD14R,0.300000X0.550000*%
%ADD15R,0.400000X0.300000*%
%ADD16R,0.550000X0.300000*%
%ADD17R,0.200000X0.300000*%
%ADD18R,0.300000X0.200000*%
%ADD19R,0.400000X0.200000*%
%ADD20R,0.200000X0.400000*%
%ADD21O,2.000000X1.270000*%
%ADD22R,2.032000X1.727200*%
%ADD23O,2.032000X1.727200*%
%ADD24R,0.500000X0.600000*%
%ADD25R,0.600000X0.500000*%
%ADD26R,0.600000X0.400000*%
%ADD27R,0.800100X0.800100*%
%ADD28R,0.600000X1.450000*%
%ADD29R,0.400000X0.600000*%
%ADD30C,1.000000*%
%ADD31O,1.000000X1.000000*%
%ADD32C,0.600000*%
%ADD33C,0.250000*%
%ADD34C,0.500000*%
%ADD35C,0.254000*%
G04 APERTURE END LIST*
D10*
D11*
X161200000Y-97800000D03*
D12*
X161200000Y-95800000D03*
D13*
X147000000Y-107050000D03*
D14*
X147500000Y-107000000D03*
X148000000Y-107000000D03*
X148500000Y-107000000D03*
X149000000Y-107000000D03*
X149500000Y-107000000D03*
D13*
X150000000Y-107100000D03*
D15*
X150524380Y-106551140D03*
D16*
X150450000Y-106050000D03*
X150450000Y-105550000D03*
X150450000Y-105050000D03*
X150450000Y-104550000D03*
X150450000Y-104050000D03*
D15*
X150500000Y-103550000D03*
D13*
X150000000Y-103000000D03*
D14*
X149500000Y-103100000D03*
X149000000Y-103100000D03*
X148500000Y-103100000D03*
X148000000Y-103100000D03*
X147500000Y-103100000D03*
D13*
X147000000Y-103050000D03*
D15*
X146500000Y-103550000D03*
D16*
X146550000Y-104050000D03*
X146550000Y-104550000D03*
X146550000Y-105050000D03*
X146550000Y-105550000D03*
X146550000Y-106050000D03*
D15*
X146500000Y-106550000D03*
D17*
X147050000Y-106950000D03*
D18*
X146650000Y-106500000D03*
D19*
X150400000Y-106500000D03*
D20*
X149950000Y-107000000D03*
D19*
X150400000Y-103600000D03*
D20*
X149950000Y-103100000D03*
D17*
X147050000Y-103150000D03*
D18*
X146600000Y-103600000D03*
D21*
X153550000Y-105840000D03*
X140850000Y-105840000D03*
X153550000Y-103300000D03*
X140850000Y-103300000D03*
X153550000Y-100760000D03*
X140850000Y-100760000D03*
X153550000Y-98220000D03*
X140850000Y-98220000D03*
X153550000Y-95680000D03*
X140850000Y-95680000D03*
X153550000Y-93140000D03*
X140850000Y-93140000D03*
X153550000Y-90600000D03*
X140850000Y-90600000D03*
X153550000Y-88060000D03*
X140850000Y-88060000D03*
D22*
X157600000Y-98130000D03*
D23*
X157600000Y-95590000D03*
X157600000Y-93050000D03*
X157600000Y-90510000D03*
D24*
X151450000Y-95350000D03*
X151450000Y-94250000D03*
D25*
X147550000Y-100750000D03*
X146450000Y-100750000D03*
X148950000Y-108450000D03*
X150050000Y-108450000D03*
X149700000Y-101150000D03*
X150800000Y-101150000D03*
D26*
X147700000Y-109000000D03*
X147700000Y-109900000D03*
D27*
X149400000Y-88949240D03*
X147500000Y-88949240D03*
X148450000Y-90948220D03*
D28*
X146295000Y-99150000D03*
X147565000Y-99150000D03*
X148835000Y-99150000D03*
X150105000Y-99150000D03*
X150105000Y-93150000D03*
X148835000Y-93150000D03*
X147565000Y-93150000D03*
X146295000Y-93150000D03*
D11*
X153200000Y-85050000D03*
D12*
X155200000Y-85050000D03*
D11*
X157700000Y-87050000D03*
D12*
X157700000Y-85050000D03*
D11*
X161200000Y-92300000D03*
D12*
X161200000Y-90300000D03*
D11*
X160100000Y-110300000D03*
D12*
X158100000Y-110300000D03*
D29*
X147750000Y-87550000D03*
X148650000Y-87550000D03*
D30*
X144300000Y-107350000D03*
X154700000Y-109800000D03*
X140500000Y-84550000D03*
D11*
X161200000Y-87300000D03*
D12*
X161200000Y-85300000D03*
D31*
X143160000Y-86850000D03*
X145700000Y-86850000D03*
X145700000Y-89390000D03*
X145700000Y-84310000D03*
X143160000Y-84310000D03*
D32*
X144842728Y-88060000D03*
X151450000Y-96550000D03*
X152700000Y-94300000D03*
X147832728Y-84050000D03*
D33*
X149150000Y-88949240D02*
X149150000Y-88500000D01*
X149150000Y-88500000D02*
X148700000Y-88050000D01*
X148700000Y-88050000D02*
X148700000Y-87600000D01*
X148700000Y-87600000D02*
X148650000Y-87550000D01*
X155200000Y-85050000D02*
X154950000Y-84800000D01*
X154950000Y-84800000D02*
X154950000Y-85550000D01*
X154950000Y-85550000D02*
X153700000Y-86800000D01*
X153700000Y-86800000D02*
X149200000Y-86800000D01*
X149200000Y-86800000D02*
X148650000Y-87350000D01*
X148650000Y-87350000D02*
X148650000Y-87550000D01*
X148835000Y-93150000D02*
X148835000Y-92175000D01*
X148835000Y-92175000D02*
X149400000Y-91610000D01*
X149400000Y-91610000D02*
X149400000Y-88949240D01*
X148650000Y-87550000D02*
X148650000Y-87450000D01*
X145700000Y-89390000D02*
X145700000Y-88300000D01*
X145700000Y-88300000D02*
X146774988Y-87225012D01*
X162200001Y-100235397D02*
X153985398Y-108450000D01*
X146774988Y-87225012D02*
X146774988Y-86725012D01*
X146774988Y-86725012D02*
X149950000Y-83550000D01*
X149950000Y-83550000D02*
X160930002Y-83550000D01*
X160930002Y-83550000D02*
X162200001Y-84819999D01*
X162200001Y-84819999D02*
X162200001Y-100235397D01*
X150600000Y-108450000D02*
X150050000Y-108450000D01*
X153985398Y-108450000D02*
X150600000Y-108450000D01*
X150800000Y-101150000D02*
X150850000Y-101150000D01*
X150850000Y-101150000D02*
X151700000Y-100300000D01*
X151700000Y-100300000D02*
X151700000Y-97350000D01*
X151700000Y-97350000D02*
X152100000Y-96950000D01*
X152100000Y-94550000D02*
X151800000Y-94250000D01*
X151800000Y-94250000D02*
X151450000Y-94250000D01*
X152100000Y-96950000D02*
X152100000Y-94550000D01*
X146700000Y-95450000D02*
X145200001Y-93950001D01*
X145200001Y-93950001D02*
X145200001Y-89889999D01*
X145200001Y-89889999D02*
X145700000Y-89390000D01*
X148200000Y-95450000D02*
X148200000Y-95800000D01*
X148200000Y-90948220D02*
X148200000Y-95450000D01*
X148200000Y-95450000D02*
X146700000Y-95450000D01*
D34*
X144842728Y-88060000D02*
X144842728Y-88532728D01*
X144842728Y-88532728D02*
X145700000Y-89390000D01*
D33*
X150700000Y-101850000D02*
X150800000Y-101750000D01*
X150800000Y-101750000D02*
X150800000Y-101150000D01*
X150225000Y-101850000D02*
X150700000Y-101850000D01*
X149500000Y-103100000D02*
X149500000Y-102575000D01*
X149500000Y-102575000D02*
X150225000Y-101850000D01*
X148200000Y-95800000D02*
X148450000Y-96050000D01*
X148450000Y-96050000D02*
X150250000Y-94250000D01*
X150250000Y-94250000D02*
X151450000Y-94250000D01*
X148450000Y-97300000D02*
X148450000Y-96050000D01*
X147700000Y-98040000D02*
X147710000Y-98040000D01*
X147710000Y-98040000D02*
X148450000Y-97300000D01*
X147565000Y-99150000D02*
X147565000Y-98175000D01*
X147565000Y-98175000D02*
X147700000Y-98040000D01*
X146450000Y-100550000D02*
X146450000Y-100500000D01*
X146450000Y-100500000D02*
X147565000Y-99385000D01*
X147565000Y-99385000D02*
X147565000Y-98750000D01*
X151450000Y-96550000D02*
X151450000Y-96300000D01*
X151450000Y-96300000D02*
X151450000Y-95350000D01*
X152224990Y-93824990D02*
X152700000Y-94300000D01*
X153550000Y-90600000D02*
X153185000Y-90600000D01*
X153185000Y-90600000D02*
X152224990Y-91560010D01*
X152224990Y-91560010D02*
X152224990Y-93824990D01*
D34*
X147832728Y-84050000D02*
X145960000Y-84050000D01*
X145960000Y-84050000D02*
X145700000Y-84310000D01*
D33*
X148835000Y-99150000D02*
X148835000Y-98015000D01*
X148835000Y-98015000D02*
X149000000Y-97850000D01*
X149000000Y-97850000D02*
X150200000Y-96650000D01*
X149700000Y-101150000D02*
X149750000Y-101150000D01*
X150200000Y-96650000D02*
X151450000Y-95400000D01*
X149750000Y-101150000D02*
X150730001Y-100169999D01*
X150730001Y-100169999D02*
X150730001Y-97180001D01*
X150730001Y-97180001D02*
X150200000Y-96650000D01*
X149000000Y-102750000D02*
X149000000Y-102575000D01*
X149000000Y-103100000D02*
X149000000Y-102750000D01*
X149000000Y-102750000D02*
X149000000Y-102350000D01*
X149000000Y-102350000D02*
X149700000Y-101650000D01*
X149700000Y-101650000D02*
X149700000Y-101150000D01*
X147550000Y-100750000D02*
X148835000Y-99465000D01*
X148835000Y-99465000D02*
X148835000Y-99150000D01*
X151450000Y-95400000D02*
X151450000Y-95350000D01*
X149000000Y-103100000D02*
X148500000Y-103100000D01*
X149000000Y-107000000D02*
X149000000Y-106475000D01*
X149000000Y-106475000D02*
X149000000Y-103343408D01*
X148950000Y-108450000D02*
X149000000Y-108400000D01*
X149000000Y-108400000D02*
X149000000Y-107000000D01*
X148950000Y-108450000D02*
X148950000Y-108950000D01*
X148950000Y-108950000D02*
X148000000Y-109900000D01*
X148000000Y-109900000D02*
X147700000Y-109900000D01*
X144899979Y-102286390D02*
X146163589Y-103550000D01*
X144249989Y-90436399D02*
X144249989Y-99255275D01*
X144249989Y-99255275D02*
X144899979Y-99905265D01*
X142334999Y-88521409D02*
X144249989Y-90436399D01*
X144899979Y-99905265D02*
X144899979Y-102286390D01*
X143160000Y-85426411D02*
X142334999Y-86251412D01*
X146163589Y-103550000D02*
X146500000Y-103550000D01*
X143160000Y-84310000D02*
X143160000Y-85426411D01*
X142334999Y-86251412D02*
X142334999Y-88521409D01*
X143160000Y-86850000D02*
X143160000Y-88710000D01*
X143160000Y-88710000D02*
X144700000Y-90250000D01*
X144700000Y-90250000D02*
X144700000Y-99068875D01*
X145349990Y-102099990D02*
X146300000Y-103050000D01*
X146300000Y-103050000D02*
X146600000Y-103050000D01*
X146600000Y-103050000D02*
X147000000Y-103050000D01*
X144700000Y-99068875D02*
X145349990Y-99718865D01*
X145349990Y-99718865D02*
X145349990Y-102099990D01*
X146295000Y-93150000D02*
X146295000Y-90955000D01*
X152224974Y-101525026D02*
X150675001Y-103074999D01*
X146295000Y-90955000D02*
X146650005Y-90599995D01*
X155200000Y-99050000D02*
X154700000Y-99550000D01*
X155200000Y-89363188D02*
X155200000Y-99050000D01*
X146650005Y-87986405D02*
X147224999Y-87411412D01*
X146650005Y-90599995D02*
X146650005Y-87986405D01*
X154700000Y-99550000D02*
X153037341Y-99550000D01*
X154719999Y-84049999D02*
X155680001Y-84049999D01*
X154699999Y-84049999D02*
X154709999Y-84059999D01*
X152224974Y-100362367D02*
X152224974Y-101525026D01*
X147224999Y-87411412D02*
X147224999Y-86911411D01*
X147224999Y-86911411D02*
X150086411Y-84049999D01*
X156450000Y-88113188D02*
X155200000Y-89363188D01*
X150086411Y-84049999D02*
X154699999Y-84049999D01*
X154709999Y-84059999D02*
X154719999Y-84049999D01*
X155680001Y-84049999D02*
X156450000Y-84819998D01*
X156450000Y-84819998D02*
X156450000Y-88113188D01*
X153037341Y-99550000D02*
X152224974Y-100362367D01*
X150675001Y-103074999D02*
X149975001Y-103074999D01*
X146295000Y-93150000D02*
X146295000Y-93575000D01*
X148000000Y-101450000D02*
X148000000Y-103100000D01*
X149000000Y-100450000D02*
X148000000Y-101450000D01*
X149500000Y-100450000D02*
X149000000Y-100450000D01*
X150105000Y-99845000D02*
X149500000Y-100450000D01*
X150105000Y-99150000D02*
X150105000Y-99845000D01*
X150105000Y-98750000D02*
X150105000Y-99055000D01*
X147500000Y-102575000D02*
X147500000Y-103100000D01*
X146295000Y-99255000D02*
X145800000Y-99750000D01*
X146600000Y-101675000D02*
X147500000Y-102575000D01*
X145800000Y-99750000D02*
X145800000Y-101675000D01*
X145800000Y-101675000D02*
X146600000Y-101675000D01*
X146295000Y-98750000D02*
X146295000Y-99255000D01*
X150974380Y-106551140D02*
X150524380Y-106551140D01*
X151673261Y-107250021D02*
X150974380Y-106551140D01*
X161200000Y-100549070D02*
X154499049Y-107250021D01*
X161200000Y-97800000D02*
X161200000Y-100549070D01*
X154499049Y-107250021D02*
X151673261Y-107250021D01*
X160525001Y-96474999D02*
X161200000Y-95800000D01*
X160199999Y-96800001D02*
X160525001Y-96474999D01*
X160199999Y-100912660D02*
X160199999Y-96800001D01*
X154312649Y-106800010D02*
X160199999Y-100912660D01*
X152037341Y-106050000D02*
X152787351Y-106800010D01*
X150450000Y-106050000D02*
X152037341Y-106050000D01*
X152787351Y-106800010D02*
X154312649Y-106800010D01*
X147500000Y-88949240D02*
X147550760Y-88949240D01*
X147550760Y-88949240D02*
X147700000Y-88800000D01*
X147700000Y-88800000D02*
X147700000Y-87600000D01*
X147700000Y-87600000D02*
X147750000Y-87550000D01*
X147750000Y-87550000D02*
X147750000Y-87450000D01*
X147750000Y-87450000D02*
X150150000Y-85050000D01*
X150150000Y-85050000D02*
X153200000Y-85050000D01*
X152900000Y-84750000D02*
X153200000Y-85050000D01*
X147565000Y-92750000D02*
X147565000Y-88915000D01*
X147565000Y-88915000D02*
X147500000Y-88850000D01*
X147500000Y-88850000D02*
X147500000Y-88949240D01*
X145700000Y-86142894D02*
X145700000Y-86850000D01*
X140874999Y-109424999D02*
X139524990Y-108074990D01*
X142500000Y-83450000D02*
X143521002Y-83450000D01*
X147700000Y-109000000D02*
X147600000Y-109000000D01*
X142100000Y-83850000D02*
X142500000Y-83450000D01*
X141300000Y-86650000D02*
X142100000Y-85850000D01*
X139524990Y-86825010D02*
X139700000Y-86650000D01*
X139524990Y-108074990D02*
X139524990Y-86825010D01*
X143521002Y-83450000D02*
X145700000Y-85628998D01*
X147175001Y-109424999D02*
X140874999Y-109424999D01*
X147600000Y-109000000D02*
X147175001Y-109424999D01*
X142100000Y-85850000D02*
X142100000Y-83850000D01*
X145700000Y-85628998D02*
X145700000Y-86142894D01*
X139700000Y-86650000D02*
X141300000Y-86650000D01*
X148500000Y-107000000D02*
X148500000Y-107764998D01*
X148500000Y-107764998D02*
X148250000Y-108014998D01*
X148250000Y-108014998D02*
X148250000Y-108550000D01*
X148250000Y-108550000D02*
X147800000Y-109000000D01*
X147800000Y-109000000D02*
X147700000Y-109000000D01*
X142899956Y-94824956D02*
X141215000Y-93140000D01*
X142899956Y-99814475D02*
X142899956Y-94824956D01*
X143525043Y-100439562D02*
X142899956Y-99814475D01*
X143525043Y-102984276D02*
X143525043Y-100439562D01*
X145590767Y-105050000D02*
X143525043Y-102984276D01*
X146550000Y-105050000D02*
X145590767Y-105050000D01*
X141215000Y-93140000D02*
X140850000Y-93140000D01*
X146550000Y-105050000D02*
X146550000Y-105025001D01*
X140850000Y-107774999D02*
X140850000Y-106725000D01*
X142049989Y-108974988D02*
X140850000Y-107774999D01*
X140850000Y-106725000D02*
X140850000Y-105840000D01*
X146646425Y-108974988D02*
X142049989Y-108974988D01*
X148000000Y-107621413D02*
X146646425Y-108974988D01*
X148000000Y-107000000D02*
X148000000Y-107621413D01*
X140850000Y-90600000D02*
X141215000Y-90600000D01*
X141215000Y-90600000D02*
X143349967Y-92734967D01*
X143349967Y-92734967D02*
X143349967Y-99628075D01*
X143349967Y-99628075D02*
X143999957Y-100278065D01*
X143999957Y-102822779D02*
X145727178Y-104550000D01*
X145727178Y-104550000D02*
X146025000Y-104550000D01*
X143999957Y-100278065D02*
X143999957Y-102822779D01*
X146025000Y-104550000D02*
X146550000Y-104550000D01*
X144449968Y-100091665D02*
X143799978Y-99441675D01*
X141215000Y-88060000D02*
X140850000Y-88060000D01*
X146025000Y-104050000D02*
X144449968Y-102474968D01*
X146550000Y-104050000D02*
X146025000Y-104050000D01*
X143799978Y-99441675D02*
X143799978Y-90644978D01*
X143799978Y-90644978D02*
X141215000Y-88060000D01*
X144449968Y-102474968D02*
X144449968Y-100091665D01*
X147500000Y-107000000D02*
X147475001Y-107024999D01*
X147475001Y-107024999D02*
X147475001Y-107510001D01*
X147475001Y-107510001D02*
X146460025Y-108524977D01*
X146460025Y-108524977D02*
X142974977Y-108524977D01*
X142974977Y-108524977D02*
X142500000Y-108050000D01*
X142500000Y-108050000D02*
X142500000Y-104585000D01*
X142500000Y-104585000D02*
X141215000Y-103300000D01*
X141215000Y-103300000D02*
X140850000Y-103300000D01*
X140950000Y-103300000D02*
X140850000Y-103300000D01*
X140850000Y-100760000D02*
X141215000Y-100760000D01*
X141215000Y-100760000D02*
X142175010Y-101720010D01*
X142175010Y-101720010D02*
X142175010Y-103543476D01*
X145181534Y-106550000D02*
X146050000Y-106550000D01*
X142175010Y-103543476D02*
X145181534Y-106550000D01*
X146050000Y-106550000D02*
X146500000Y-106550000D01*
X140850000Y-99037341D02*
X140850000Y-98220000D01*
X142625021Y-103357076D02*
X142625021Y-100812362D01*
X142625021Y-100812362D02*
X140850000Y-99037341D01*
X145317945Y-106050000D02*
X142625021Y-103357076D01*
X146550000Y-106050000D02*
X145317945Y-106050000D01*
X142449945Y-96914945D02*
X141215000Y-95680000D01*
X141215000Y-95680000D02*
X140850000Y-95680000D01*
X145454356Y-105550000D02*
X143075032Y-103170676D01*
X146550000Y-105550000D02*
X145454356Y-105550000D01*
X143075032Y-100625962D02*
X142449945Y-100000875D01*
X142449945Y-100000875D02*
X142449945Y-96914945D01*
X143075032Y-103170676D02*
X143075032Y-100625962D01*
X144300000Y-107350000D02*
X146700000Y-107350000D01*
X146700000Y-107350000D02*
X147000000Y-107050000D01*
X159650011Y-99559059D02*
X159650011Y-94774989D01*
X154459059Y-104750011D02*
X159650011Y-99559059D01*
X152280919Y-104750011D02*
X154459059Y-104750011D01*
X151480930Y-105550000D02*
X152280919Y-104750011D01*
X150450000Y-105550000D02*
X151480930Y-105550000D01*
X161200000Y-93225000D02*
X161200000Y-92300000D01*
X159650011Y-94774989D02*
X161200000Y-93225000D01*
X150450000Y-105050000D02*
X151207824Y-105050000D01*
X159200000Y-92300000D02*
X160525001Y-90974999D01*
X154272659Y-104300000D02*
X159200000Y-99372659D01*
X151207824Y-105050000D02*
X151957824Y-104300000D01*
X160525001Y-90974999D02*
X161200000Y-90300000D01*
X151957824Y-104300000D02*
X154272659Y-104300000D01*
X159200000Y-99372659D02*
X159200000Y-92300000D01*
X160674989Y-88750011D02*
X161200000Y-88225000D01*
X161200000Y-88225000D02*
X161200000Y-87300000D01*
X156150011Y-90126641D02*
X157526641Y-88750011D01*
X157526641Y-88750011D02*
X160674989Y-88750011D01*
X152224990Y-102902351D02*
X152787351Y-102339990D01*
X151071413Y-104550000D02*
X152224990Y-103396423D01*
X152224990Y-103396423D02*
X152224990Y-102902351D01*
X152787351Y-102339990D02*
X154329080Y-102339990D01*
X154329080Y-102339990D02*
X156150011Y-100519059D01*
X150450000Y-104550000D02*
X151071413Y-104550000D01*
X156150011Y-100519059D02*
X156150011Y-90126641D01*
X150450000Y-104050000D02*
X150935002Y-104050000D01*
X150935002Y-104050000D02*
X151774979Y-103210023D01*
X151774979Y-103210023D02*
X151774979Y-102715951D01*
X151774979Y-102715951D02*
X152690930Y-101800000D01*
X152690930Y-101800000D02*
X154232659Y-101800000D01*
X154232659Y-101800000D02*
X155700000Y-100332659D01*
X155700000Y-100332659D02*
X155700000Y-89940241D01*
X155700000Y-89940241D02*
X157340241Y-88300000D01*
X157340241Y-88300000D02*
X159200000Y-88300000D01*
X159200000Y-88300000D02*
X159450000Y-88050000D01*
X159450000Y-88050000D02*
X159450000Y-87050000D01*
X159450000Y-87050000D02*
X161200000Y-85300000D01*
D35*
X161773000Y-101030588D02*
X161773000Y-101030588D01*
X161773000Y-101233788D02*
X161578770Y-101233788D01*
X161773000Y-101436988D02*
X161375570Y-101436988D01*
X161773000Y-101640188D02*
X161172370Y-101640188D01*
X161773000Y-101843388D02*
X160969170Y-101843388D01*
X161773000Y-102046588D02*
X160765970Y-102046588D01*
X161773000Y-102249788D02*
X160562770Y-102249788D01*
X161773000Y-102452988D02*
X160359570Y-102452988D01*
X161773000Y-102656188D02*
X160156370Y-102656188D01*
X161773000Y-102859388D02*
X159953170Y-102859388D01*
X161773000Y-103062588D02*
X159749970Y-103062588D01*
X161773000Y-103265788D02*
X159546770Y-103265788D01*
X161773000Y-103468988D02*
X159343570Y-103468988D01*
X161773000Y-103672188D02*
X159140370Y-103672188D01*
X161773000Y-103875388D02*
X158937170Y-103875388D01*
X161773000Y-104078588D02*
X158733970Y-104078588D01*
X161773000Y-104281788D02*
X158530770Y-104281788D01*
X161773000Y-104484988D02*
X158327570Y-104484988D01*
X161773000Y-104688188D02*
X158124370Y-104688188D01*
X161773000Y-104891388D02*
X157921170Y-104891388D01*
X161773000Y-105094588D02*
X157717970Y-105094588D01*
X161773000Y-105297788D02*
X157514770Y-105297788D01*
X161773000Y-105500988D02*
X157311570Y-105500988D01*
X161773000Y-105704188D02*
X157108370Y-105704188D01*
X161773000Y-105907388D02*
X156905170Y-105907388D01*
X161773000Y-106110588D02*
X156701970Y-106110588D01*
X161773000Y-106313788D02*
X156498770Y-106313788D01*
X161773000Y-106516988D02*
X156295570Y-106516988D01*
X161773000Y-106720188D02*
X156092370Y-106720188D01*
X161773000Y-106923388D02*
X155889170Y-106923388D01*
X161773000Y-107126588D02*
X155685970Y-107126588D01*
X161773000Y-107329788D02*
X155482770Y-107329788D01*
X150892740Y-107532988D02*
X150729185Y-107532988D01*
X161773000Y-107532988D02*
X155279570Y-107532988D01*
X151095940Y-107736188D02*
X150597822Y-107736188D01*
X161773000Y-107736188D02*
X155076370Y-107736188D01*
X151373701Y-107939388D02*
X150636689Y-107939388D01*
X161773000Y-107939388D02*
X154796695Y-107939388D01*
X161773000Y-108142588D02*
X150733162Y-108142588D01*
X161773000Y-108345788D02*
X150737000Y-108345788D01*
X150053000Y-108548988D02*
X150047000Y-108548988D01*
X154066960Y-108548988D02*
X150736238Y-108548988D01*
X161773000Y-108548988D02*
X155329131Y-108548988D01*
X150053000Y-108752188D02*
X150047000Y-108752188D01*
X153773231Y-108752188D02*
X150734200Y-108752188D01*
X161773000Y-108752188D02*
X155628358Y-108752188D01*
X139341900Y-108955388D02*
X139227000Y-108955388D01*
X150053000Y-108955388D02*
X150047000Y-108955388D01*
X153585146Y-108955388D02*
X150641912Y-108955388D01*
X161773000Y-108955388D02*
X155816142Y-108955388D01*
X139545100Y-109158588D02*
X139227000Y-109158588D01*
X153454939Y-109158588D02*
X149678731Y-109158588D01*
X157466351Y-109158588D02*
X155946706Y-109158588D01*
X161773000Y-109158588D02*
X158736243Y-109158588D01*
X139748300Y-109361788D02*
X139227000Y-109361788D01*
X153367847Y-109361788D02*
X149578409Y-109361788D01*
X157197096Y-109361788D02*
X156030459Y-109361788D01*
X161773000Y-109361788D02*
X161059089Y-109361788D01*
X139951500Y-109564988D02*
X139227000Y-109564988D01*
X153321683Y-109564988D02*
X149398500Y-109564988D01*
X157025241Y-109564988D02*
X156077649Y-109564988D01*
X161773000Y-109564988D02*
X161157645Y-109564988D01*
X140154700Y-109768188D02*
X139227000Y-109768188D01*
X153303249Y-109768188D02*
X149195300Y-109768188D01*
X156911326Y-109768188D02*
X156095590Y-109768188D01*
X161773000Y-109768188D02*
X161162000Y-109768188D01*
X140361084Y-109971388D02*
X139227000Y-109971388D01*
X153311060Y-109971388D02*
X148992100Y-109971388D01*
X156838704Y-109971388D02*
X156092753Y-109971388D01*
X161773000Y-109971388D02*
X161162000Y-109971388D01*
X140843656Y-110174588D02*
X139227000Y-110174588D01*
X153348355Y-110174588D02*
X148788900Y-110174588D01*
X156799568Y-110174588D02*
X156047557Y-110174588D01*
X161773000Y-110174588D02*
X161162000Y-110174588D01*
X146836033Y-110377788D02*
X139227000Y-110377788D01*
X153426187Y-110377788D02*
X148585700Y-110377788D01*
X156796731Y-110377788D02*
X155972023Y-110377788D01*
X161773000Y-110377788D02*
X161140038Y-110377788D01*
X147002724Y-110580988D02*
X139227000Y-110580988D01*
X153541267Y-110580988D02*
X148403712Y-110580988D01*
X156827766Y-110580988D02*
X155858757Y-110580988D01*
X161773000Y-110580988D02*
X161162000Y-110580988D01*
X153708278Y-110784188D02*
X139227000Y-110784188D01*
X156891307Y-110784188D02*
X155692341Y-110784188D01*
X161773000Y-110784188D02*
X161162000Y-110784188D01*
X153553000Y-103277000D02*
X153547000Y-103277000D01*
X150803000Y-101160489D02*
X150803000Y-101160489D01*
X150803000Y-101363689D02*
X150797000Y-101363689D01*
X150803000Y-101566889D02*
X150797000Y-101566889D01*
X150882839Y-101770089D02*
X150717161Y-101770089D01*
X150713223Y-101973289D02*
X150376321Y-101973289D01*
X150510023Y-102176489D02*
X150236062Y-102176489D01*
X145452000Y-94184605D02*
X145452000Y-94184605D01*
X145635055Y-94387805D02*
X145452000Y-94387805D01*
X150813000Y-94387805D02*
X150760427Y-94387805D01*
X150771616Y-94591005D02*
X145452000Y-94591005D01*
X150631095Y-94794205D02*
X145452000Y-94794205D01*
X150577442Y-94997405D02*
X145452000Y-94997405D01*
X150569967Y-95200605D02*
X145452000Y-95200605D01*
X150382707Y-95403805D02*
X145452000Y-95403805D01*
X150179507Y-95607005D02*
X145452000Y-95607005D01*
X149976307Y-95810205D02*
X145452000Y-95810205D01*
X149773107Y-96013405D02*
X145452000Y-96013405D01*
X149569907Y-96216605D02*
X145452000Y-96216605D01*
X149366707Y-96419805D02*
X145452000Y-96419805D01*
X149163507Y-96623005D02*
X145452000Y-96623005D01*
X148960307Y-96826205D02*
X145452000Y-96826205D01*
X148757107Y-97029405D02*
X145452000Y-97029405D01*
X148553907Y-97232605D02*
X145452000Y-97232605D01*
X148350707Y-97435805D02*
X145452000Y-97435805D01*
X148187399Y-97639005D02*
X145452000Y-97639005D01*
X145768326Y-97842205D02*
X145452000Y-97842205D01*
X148104650Y-97842205D02*
X146819982Y-97842205D01*
X145498944Y-98045405D02*
X145452000Y-98045405D01*
X147189656Y-98045405D02*
X147091880Y-98045405D01*
X147657345Y-98045405D02*
X147472655Y-98045405D01*
X148038943Y-98045405D02*
X147940345Y-98045405D01*
X147568000Y-98248605D02*
X147562000Y-98248605D01*
X147568000Y-98451805D02*
X147562000Y-98451805D01*
X147568000Y-98655005D02*
X147562000Y-98655005D01*
X147568000Y-98858205D02*
X147562000Y-98858205D01*
X147568000Y-99061405D02*
X147562000Y-99061405D01*
X155698000Y-86253409D02*
X155698000Y-86253409D01*
X155698000Y-86456609D02*
X155106879Y-86456609D01*
X155698000Y-86659809D02*
X154903679Y-86659809D01*
X155698000Y-86863009D02*
X154700479Y-86863009D01*
X155698000Y-87066209D02*
X154497279Y-87066209D01*
X155698000Y-87269409D02*
X154554937Y-87269409D01*
X155698000Y-87472609D02*
X154748405Y-87472609D01*
X152238406Y-87675809D02*
X149480033Y-87675809D01*
X155698000Y-87675809D02*
X154861595Y-87675809D01*
X152179296Y-87879009D02*
X149592497Y-87879009D01*
X155620691Y-87879009D02*
X154920705Y-87879009D01*
X152249697Y-88082209D02*
X150213760Y-88082209D01*
X153553000Y-88082209D02*
X153547000Y-88082209D01*
X155417491Y-88082209D02*
X154850304Y-88082209D01*
X152190747Y-88285409D02*
X150371354Y-88285409D01*
X153553000Y-88285409D02*
X153547000Y-88285409D01*
X155214291Y-88285409D02*
X154909252Y-88285409D01*
X152261025Y-88488609D02*
X150425253Y-88488609D01*
X153553000Y-88488609D02*
X153547000Y-88488609D01*
X155011091Y-88488609D02*
X154838974Y-88488609D01*
X152387830Y-88691809D02*
X150430083Y-88691809D01*
X153553000Y-88691809D02*
X153547000Y-88691809D01*
X154807891Y-88691809D02*
X154712169Y-88691809D01*
X152598863Y-88895009D02*
X150430083Y-88895009D01*
X153553000Y-88895009D02*
X153547000Y-88895009D01*
X154615868Y-88895009D02*
X154501136Y-88895009D01*
X154498406Y-89098209D02*
X150430083Y-89098209D01*
X154453826Y-89301409D02*
X150430083Y-89301409D01*
X152561960Y-89504609D02*
X150408010Y-89504609D01*
X152285161Y-89707809D02*
X150314069Y-89707809D01*
X152121848Y-89911009D02*
X150152000Y-89911009D01*
X152012730Y-90114209D02*
X150152000Y-90114209D01*
X151949829Y-90317409D02*
X150152000Y-90317409D01*
X151922578Y-90520609D02*
X150152000Y-90520609D01*
X151927227Y-90723809D02*
X150152000Y-90723809D01*
X151794503Y-90927009D02*
X150152000Y-90927009D01*
X151608656Y-91130209D02*
X150152000Y-91130209D01*
X151511662Y-91333409D02*
X150152000Y-91333409D01*
X151474511Y-91536609D02*
X150152000Y-91536609D01*
X151472990Y-91739809D02*
X150139076Y-91739809D01*
X151472990Y-91943009D02*
X150801099Y-91943009D01*
X151472990Y-92146209D02*
X150968306Y-92146209D01*
X151472990Y-92349409D02*
X151029006Y-92349409D01*
X151472990Y-92552609D02*
X151035033Y-92552609D01*
X151472990Y-92755809D02*
X151035033Y-92755809D01*
X151472990Y-92959009D02*
X151035033Y-92959009D01*
X151472990Y-93162209D02*
X151035033Y-93162209D01*
X151472990Y-93365409D02*
X151035033Y-93365409D01*
X151133686Y-93568609D02*
X151035033Y-93568609D01*
X151472990Y-93568609D02*
X151355859Y-93568609D01*
X151453000Y-93771809D02*
X151447000Y-93771809D01*
X151453000Y-93975009D02*
X151447000Y-93975009D01*
X151453000Y-94178209D02*
X151447000Y-94178209D01*
X144030490Y-85022977D02*
X144030490Y-85022977D01*
X144233690Y-85226177D02*
X143912000Y-85226177D01*
X144436890Y-85429377D02*
X143911979Y-85429377D01*
X144640090Y-85632577D02*
X143879764Y-85632577D01*
X144843290Y-85835777D02*
X143789708Y-85835777D01*
X144911926Y-86038977D02*
X143945849Y-86038977D01*
X144751214Y-86242177D02*
X144110029Y-86242177D01*
X144649922Y-86445377D02*
X144211110Y-86445377D01*
X144593327Y-86648577D02*
X144267785Y-86648577D01*
X144573000Y-86851777D02*
X144287000Y-86851777D01*
X144592563Y-87054977D02*
X144266274Y-87054977D01*
X144649963Y-87258177D02*
X144208950Y-87258177D01*
X144751861Y-87461377D02*
X144106832Y-87461377D01*
X144918447Y-87664577D02*
X143943654Y-87664577D01*
X145214045Y-87867777D02*
X143912000Y-87867777D01*
X145898005Y-88070977D02*
X143912000Y-88070977D01*
X145898005Y-88274177D02*
X143912000Y-88274177D01*
X145898005Y-88477377D02*
X143990865Y-88477377D01*
X145169810Y-88680577D02*
X144194065Y-88680577D01*
X145703000Y-88680577D02*
X145697000Y-88680577D01*
X144975935Y-88883777D02*
X144397265Y-88883777D01*
X145703000Y-88883777D02*
X145697000Y-88883777D01*
X144867071Y-89086977D02*
X144600465Y-89086977D01*
X145703000Y-89086977D02*
X145697000Y-89086977D01*
X144850175Y-89290177D02*
X144803665Y-89290177D01*
X145703000Y-89290177D02*
X145697000Y-89290177D01*
X145703000Y-89493377D02*
X145697000Y-89493377D01*
X145703000Y-89696577D02*
X145697000Y-89696577D01*
X145703000Y-89899777D02*
X145697000Y-89899777D01*
X145703000Y-90102977D02*
X145697000Y-90102977D01*
X145880335Y-90306177D02*
X145452000Y-90306177D01*
X145691942Y-90509377D02*
X145452000Y-90509377D01*
X145586509Y-90712577D02*
X145452000Y-90712577D01*
X145546296Y-90915777D02*
X145452000Y-90915777D01*
X145543000Y-91118977D02*
X145452000Y-91118977D01*
X145543000Y-91322177D02*
X145452000Y-91322177D01*
X145543000Y-91525377D02*
X145452000Y-91525377D01*
X145543000Y-91728577D02*
X145452000Y-91728577D01*
X145543000Y-91931777D02*
X145452000Y-91931777D01*
X148449675Y-89647856D02*
X148449675Y-89647856D01*
X148627054Y-89851056D02*
X148317000Y-89851056D01*
X148648000Y-90054256D02*
X148317000Y-90054256D01*
X148453464Y-90257456D02*
X148446536Y-90257456D01*
X148453000Y-90460656D02*
X148447000Y-90460656D01*
X148453000Y-90663856D02*
X148447000Y-90663856D01*
X148453000Y-90867056D02*
X148447000Y-90867056D01*
X161773000Y-83777000D02*
X156470490Y-83777000D01*
X161773000Y-83980200D02*
X156673690Y-83980200D01*
X157077435Y-84183400D02*
X156876890Y-84183400D01*
X160528434Y-84183400D02*
X158322233Y-84183400D01*
X158367643Y-84386600D02*
X158359157Y-84386600D01*
X160271759Y-84386600D02*
X158449916Y-84386600D01*
X158164443Y-84589800D02*
X158155957Y-84589800D01*
X160108252Y-84589800D02*
X158657134Y-84589800D01*
X157961243Y-84793000D02*
X157952757Y-84793000D01*
X160000691Y-84793000D02*
X158730537Y-84793000D01*
X157758043Y-84996200D02*
X157749557Y-84996200D01*
X159933430Y-84996200D02*
X158760701Y-84996200D01*
X159899222Y-85199400D02*
X158751461Y-85199400D01*
X159896385Y-85402600D02*
X158701788Y-85402600D01*
X159830712Y-85605800D02*
X158605286Y-85605800D01*
X159627512Y-85809000D02*
X158637240Y-85809000D01*
X159424312Y-86012200D02*
X158882948Y-86012200D01*
X159221112Y-86215400D02*
X158978567Y-86215400D01*
X159017912Y-86418600D02*
X159005033Y-86418600D01*
X161773000Y-110823000D02*
X161162000Y-110823000D01*
X161162000Y-110399750D01*
X161065250Y-110303000D01*
X160827000Y-110303000D01*
X160827000Y-110297000D01*
X161065250Y-110297000D01*
X161162000Y-110200250D01*
X161162000Y-109586884D01*
X161147128Y-109512116D01*
X161117955Y-109441687D01*
X161075603Y-109378302D01*
X161021698Y-109324398D01*
X160958313Y-109282045D01*
X160887884Y-109252872D01*
X160813116Y-109238000D01*
X160808122Y-109238000D01*
X160791035Y-109211447D01*
X160749410Y-109183006D01*
X160700000Y-109173000D01*
X158757609Y-109173000D01*
X158722259Y-109149156D01*
X158486875Y-109050209D01*
X158236755Y-108998867D01*
X157981425Y-108997084D01*
X157730613Y-109044930D01*
X157493870Y-109140580D01*
X157280214Y-109280392D01*
X157097784Y-109459041D01*
X156953528Y-109669722D01*
X156852941Y-109904409D01*
X156799853Y-110154165D01*
X156796288Y-110409476D01*
X156842381Y-110660616D01*
X156906674Y-110823000D01*
X155651585Y-110823000D01*
X155762639Y-110717245D01*
X155920561Y-110493375D01*
X156031993Y-110243095D01*
X156092690Y-109975938D01*
X156097059Y-109663017D01*
X156043846Y-109394269D01*
X155939446Y-109140975D01*
X155787835Y-108912783D01*
X155594790Y-108718385D01*
X155367662Y-108565185D01*
X155115103Y-108459019D01*
X154846733Y-108403931D01*
X154572774Y-108402018D01*
X154303661Y-108453354D01*
X154049644Y-108555984D01*
X153820399Y-108705997D01*
X153624658Y-108897681D01*
X153469877Y-109123734D01*
X153361950Y-109375546D01*
X153304989Y-109643524D01*
X153301164Y-109917464D01*
X153350620Y-110186928D01*
X153451474Y-110441655D01*
X153599883Y-110671942D01*
X153745759Y-110823000D01*
X139227000Y-110823000D01*
X139227000Y-108840488D01*
X140343255Y-109956743D01*
X140396921Y-110000825D01*
X140450144Y-110045484D01*
X140453610Y-110047389D01*
X140456665Y-110049899D01*
X140517874Y-110082719D01*
X140578755Y-110116189D01*
X140582525Y-110117385D01*
X140586009Y-110119253D01*
X140652433Y-110139561D01*
X140718649Y-110160566D01*
X140722578Y-110161007D01*
X140726360Y-110162163D01*
X140795438Y-110169179D01*
X140864499Y-110176926D01*
X140872234Y-110176980D01*
X140872374Y-110176994D01*
X140872505Y-110176982D01*
X140874999Y-110176999D01*
X146776107Y-110176999D01*
X146777929Y-110199847D01*
X146830374Y-110369199D01*
X146927923Y-110517235D01*
X147062852Y-110632234D01*
X147224477Y-110705089D01*
X147400000Y-110730033D01*
X148000000Y-110730033D01*
X148099847Y-110722071D01*
X148269199Y-110669626D01*
X148417235Y-110572077D01*
X148532234Y-110437148D01*
X148537071Y-110426417D01*
X149481744Y-109481744D01*
X149525826Y-109428078D01*
X149570485Y-109374855D01*
X149572390Y-109371389D01*
X149574900Y-109368334D01*
X149607720Y-109307125D01*
X149641190Y-109246244D01*
X149642386Y-109242474D01*
X149644254Y-109238990D01*
X149664075Y-109174159D01*
X149667235Y-109172077D01*
X149739746Y-109087000D01*
X149950250Y-109087000D01*
X150047000Y-108990250D01*
X150047000Y-108453000D01*
X150053000Y-108453000D01*
X150053000Y-108990250D01*
X150149750Y-109087000D01*
X150388116Y-109087000D01*
X150462884Y-109072128D01*
X150533313Y-109042955D01*
X150596698Y-109000603D01*
X150650602Y-108946698D01*
X150692955Y-108883313D01*
X150722128Y-108812884D01*
X150737000Y-108738116D01*
X150737000Y-108549750D01*
X150640250Y-108453000D01*
X150053000Y-108453000D01*
X150047000Y-108453000D01*
X150027000Y-108453000D01*
X150027000Y-108447000D01*
X150047000Y-108447000D01*
X150047000Y-108427000D01*
X150053000Y-108427000D01*
X150053000Y-108447000D01*
X150640250Y-108447000D01*
X150737000Y-108350250D01*
X150737000Y-108161884D01*
X150722128Y-108087116D01*
X150692955Y-108016687D01*
X150650602Y-107953302D01*
X150596698Y-107899397D01*
X150533313Y-107857045D01*
X150474967Y-107832877D01*
X150567235Y-107772077D01*
X150682234Y-107637148D01*
X150755089Y-107475523D01*
X150765067Y-107405315D01*
X151141517Y-107781765D01*
X151195183Y-107825847D01*
X151248406Y-107870506D01*
X151251872Y-107872411D01*
X151254927Y-107874921D01*
X151316136Y-107907741D01*
X151377017Y-107941211D01*
X151380787Y-107942407D01*
X151384271Y-107944275D01*
X151450695Y-107964583D01*
X151516911Y-107985588D01*
X151520840Y-107986029D01*
X151524622Y-107987185D01*
X151593700Y-107994201D01*
X151662761Y-108001948D01*
X151670496Y-108002002D01*
X151670636Y-108002016D01*
X151670767Y-108002004D01*
X151673261Y-108002021D01*
X154499049Y-108002021D01*
X154568175Y-107995243D01*
X154637380Y-107989188D01*
X154641177Y-107988085D01*
X154645113Y-107987699D01*
X154711644Y-107967612D01*
X154778318Y-107948242D01*
X154781826Y-107946424D01*
X154785614Y-107945280D01*
X154846950Y-107912667D01*
X154908617Y-107880702D01*
X154911709Y-107878234D01*
X154915199Y-107876378D01*
X154969011Y-107832490D01*
X155023317Y-107789138D01*
X155028819Y-107783712D01*
X155028934Y-107783618D01*
X155029022Y-107783511D01*
X155030793Y-107781765D01*
X161731744Y-101080814D01*
X161773000Y-101030588D01*
X161773000Y-110823000D01*
X161773000Y-101030588D02*
X161773000Y-101030588D01*
X161773000Y-101233788D02*
X161578770Y-101233788D01*
X161773000Y-101436988D02*
X161375570Y-101436988D01*
X161773000Y-101640188D02*
X161172370Y-101640188D01*
X161773000Y-101843388D02*
X160969170Y-101843388D01*
X161773000Y-102046588D02*
X160765970Y-102046588D01*
X161773000Y-102249788D02*
X160562770Y-102249788D01*
X161773000Y-102452988D02*
X160359570Y-102452988D01*
X161773000Y-102656188D02*
X160156370Y-102656188D01*
X161773000Y-102859388D02*
X159953170Y-102859388D01*
X161773000Y-103062588D02*
X159749970Y-103062588D01*
X161773000Y-103265788D02*
X159546770Y-103265788D01*
X161773000Y-103468988D02*
X159343570Y-103468988D01*
X161773000Y-103672188D02*
X159140370Y-103672188D01*
X161773000Y-103875388D02*
X158937170Y-103875388D01*
X161773000Y-104078588D02*
X158733970Y-104078588D01*
X161773000Y-104281788D02*
X158530770Y-104281788D01*
X161773000Y-104484988D02*
X158327570Y-104484988D01*
X161773000Y-104688188D02*
X158124370Y-104688188D01*
X161773000Y-104891388D02*
X157921170Y-104891388D01*
X161773000Y-105094588D02*
X157717970Y-105094588D01*
X161773000Y-105297788D02*
X157514770Y-105297788D01*
X161773000Y-105500988D02*
X157311570Y-105500988D01*
X161773000Y-105704188D02*
X157108370Y-105704188D01*
X161773000Y-105907388D02*
X156905170Y-105907388D01*
X161773000Y-106110588D02*
X156701970Y-106110588D01*
X161773000Y-106313788D02*
X156498770Y-106313788D01*
X161773000Y-106516988D02*
X156295570Y-106516988D01*
X161773000Y-106720188D02*
X156092370Y-106720188D01*
X161773000Y-106923388D02*
X155889170Y-106923388D01*
X161773000Y-107126588D02*
X155685970Y-107126588D01*
X161773000Y-107329788D02*
X155482770Y-107329788D01*
X150892740Y-107532988D02*
X150729185Y-107532988D01*
X161773000Y-107532988D02*
X155279570Y-107532988D01*
X151095940Y-107736188D02*
X150597822Y-107736188D01*
X161773000Y-107736188D02*
X155076370Y-107736188D01*
X151373701Y-107939388D02*
X150636689Y-107939388D01*
X161773000Y-107939388D02*
X154796695Y-107939388D01*
X161773000Y-108142588D02*
X150733162Y-108142588D01*
X161773000Y-108345788D02*
X150737000Y-108345788D01*
X150053000Y-108548988D02*
X150047000Y-108548988D01*
X154066960Y-108548988D02*
X150736238Y-108548988D01*
X161773000Y-108548988D02*
X155329131Y-108548988D01*
X150053000Y-108752188D02*
X150047000Y-108752188D01*
X153773231Y-108752188D02*
X150734200Y-108752188D01*
X161773000Y-108752188D02*
X155628358Y-108752188D01*
X139341900Y-108955388D02*
X139227000Y-108955388D01*
X150053000Y-108955388D02*
X150047000Y-108955388D01*
X153585146Y-108955388D02*
X150641912Y-108955388D01*
X161773000Y-108955388D02*
X155816142Y-108955388D01*
X139545100Y-109158588D02*
X139227000Y-109158588D01*
X153454939Y-109158588D02*
X149678731Y-109158588D01*
X157466351Y-109158588D02*
X155946706Y-109158588D01*
X161773000Y-109158588D02*
X158736243Y-109158588D01*
X139748300Y-109361788D02*
X139227000Y-109361788D01*
X153367847Y-109361788D02*
X149578409Y-109361788D01*
X157197096Y-109361788D02*
X156030459Y-109361788D01*
X161773000Y-109361788D02*
X161059089Y-109361788D01*
X139951500Y-109564988D02*
X139227000Y-109564988D01*
X153321683Y-109564988D02*
X149398500Y-109564988D01*
X157025241Y-109564988D02*
X156077649Y-109564988D01*
X161773000Y-109564988D02*
X161157645Y-109564988D01*
X140154700Y-109768188D02*
X139227000Y-109768188D01*
X153303249Y-109768188D02*
X149195300Y-109768188D01*
X156911326Y-109768188D02*
X156095590Y-109768188D01*
X161773000Y-109768188D02*
X161162000Y-109768188D01*
X140361084Y-109971388D02*
X139227000Y-109971388D01*
X153311060Y-109971388D02*
X148992100Y-109971388D01*
X156838704Y-109971388D02*
X156092753Y-109971388D01*
X161773000Y-109971388D02*
X161162000Y-109971388D01*
X140843656Y-110174588D02*
X139227000Y-110174588D01*
X153348355Y-110174588D02*
X148788900Y-110174588D01*
X156799568Y-110174588D02*
X156047557Y-110174588D01*
X161773000Y-110174588D02*
X161162000Y-110174588D01*
X146836033Y-110377788D02*
X139227000Y-110377788D01*
X153426187Y-110377788D02*
X148585700Y-110377788D01*
X156796731Y-110377788D02*
X155972023Y-110377788D01*
X161773000Y-110377788D02*
X161140038Y-110377788D01*
X147002724Y-110580988D02*
X139227000Y-110580988D01*
X153541267Y-110580988D02*
X148403712Y-110580988D01*
X156827766Y-110580988D02*
X155858757Y-110580988D01*
X161773000Y-110580988D02*
X161162000Y-110580988D01*
X153708278Y-110784188D02*
X139227000Y-110784188D01*
X156891307Y-110784188D02*
X155692341Y-110784188D01*
X161773000Y-110784188D02*
X161162000Y-110784188D01*
X153553000Y-103277000D02*
X153547000Y-103277000D01*
X150803000Y-101160489D02*
X150803000Y-101160489D01*
X150803000Y-101363689D02*
X150797000Y-101363689D01*
X150803000Y-101566889D02*
X150797000Y-101566889D01*
X150882839Y-101770089D02*
X150717161Y-101770089D01*
X150713223Y-101973289D02*
X150376321Y-101973289D01*
X150510023Y-102176489D02*
X150236062Y-102176489D01*
X145452000Y-94184605D02*
X145452000Y-94184605D01*
X145635055Y-94387805D02*
X145452000Y-94387805D01*
X150813000Y-94387805D02*
X150760427Y-94387805D01*
X150771616Y-94591005D02*
X145452000Y-94591005D01*
X150631095Y-94794205D02*
X145452000Y-94794205D01*
X150577442Y-94997405D02*
X145452000Y-94997405D01*
X150569967Y-95200605D02*
X145452000Y-95200605D01*
X150382707Y-95403805D02*
X145452000Y-95403805D01*
X150179507Y-95607005D02*
X145452000Y-95607005D01*
X149976307Y-95810205D02*
X145452000Y-95810205D01*
X149773107Y-96013405D02*
X145452000Y-96013405D01*
X149569907Y-96216605D02*
X145452000Y-96216605D01*
X149366707Y-96419805D02*
X145452000Y-96419805D01*
X149163507Y-96623005D02*
X145452000Y-96623005D01*
X148960307Y-96826205D02*
X145452000Y-96826205D01*
X148757107Y-97029405D02*
X145452000Y-97029405D01*
X148553907Y-97232605D02*
X145452000Y-97232605D01*
X148350707Y-97435805D02*
X145452000Y-97435805D01*
X148187399Y-97639005D02*
X145452000Y-97639005D01*
X145768326Y-97842205D02*
X145452000Y-97842205D01*
X148104650Y-97842205D02*
X146819982Y-97842205D01*
X145498944Y-98045405D02*
X145452000Y-98045405D01*
X147189656Y-98045405D02*
X147091880Y-98045405D01*
X147657345Y-98045405D02*
X147472655Y-98045405D01*
X148038943Y-98045405D02*
X147940345Y-98045405D01*
X147568000Y-98248605D02*
X147562000Y-98248605D01*
X147568000Y-98451805D02*
X147562000Y-98451805D01*
X147568000Y-98655005D02*
X147562000Y-98655005D01*
X147568000Y-98858205D02*
X147562000Y-98858205D01*
X147568000Y-99061405D02*
X147562000Y-99061405D01*
X155698000Y-86253409D02*
X155698000Y-86253409D01*
X155698000Y-86456609D02*
X155106879Y-86456609D01*
X155698000Y-86659809D02*
X154903679Y-86659809D01*
X155698000Y-86863009D02*
X154700479Y-86863009D01*
X155698000Y-87066209D02*
X154497279Y-87066209D01*
X155698000Y-87269409D02*
X154554937Y-87269409D01*
X155698000Y-87472609D02*
X154748405Y-87472609D01*
X152238406Y-87675809D02*
X149480033Y-87675809D01*
X155698000Y-87675809D02*
X154861595Y-87675809D01*
X152179296Y-87879009D02*
X149592497Y-87879009D01*
X155620691Y-87879009D02*
X154920705Y-87879009D01*
X152249697Y-88082209D02*
X150213760Y-88082209D01*
X153553000Y-88082209D02*
X153547000Y-88082209D01*
X155417491Y-88082209D02*
X154850304Y-88082209D01*
X152190747Y-88285409D02*
X150371354Y-88285409D01*
X153553000Y-88285409D02*
X153547000Y-88285409D01*
X155214291Y-88285409D02*
X154909252Y-88285409D01*
X152261025Y-88488609D02*
X150425253Y-88488609D01*
X153553000Y-88488609D02*
X153547000Y-88488609D01*
X155011091Y-88488609D02*
X154838974Y-88488609D01*
X152387830Y-88691809D02*
X150430083Y-88691809D01*
X153553000Y-88691809D02*
X153547000Y-88691809D01*
X154807891Y-88691809D02*
X154712169Y-88691809D01*
X152598863Y-88895009D02*
X150430083Y-88895009D01*
X153553000Y-88895009D02*
X153547000Y-88895009D01*
X154615868Y-88895009D02*
X154501136Y-88895009D01*
X154498406Y-89098209D02*
X150430083Y-89098209D01*
X154453826Y-89301409D02*
X150430083Y-89301409D01*
X152561960Y-89504609D02*
X150408010Y-89504609D01*
X152285161Y-89707809D02*
X150314069Y-89707809D01*
X152121848Y-89911009D02*
X150152000Y-89911009D01*
X152012730Y-90114209D02*
X150152000Y-90114209D01*
X151949829Y-90317409D02*
X150152000Y-90317409D01*
X151922578Y-90520609D02*
X150152000Y-90520609D01*
X151927227Y-90723809D02*
X150152000Y-90723809D01*
X151794503Y-90927009D02*
X150152000Y-90927009D01*
X151608656Y-91130209D02*
X150152000Y-91130209D01*
X151511662Y-91333409D02*
X150152000Y-91333409D01*
X151474511Y-91536609D02*
X150152000Y-91536609D01*
X151472990Y-91739809D02*
X150139076Y-91739809D01*
X151472990Y-91943009D02*
X150801099Y-91943009D01*
X151472990Y-92146209D02*
X150968306Y-92146209D01*
X151472990Y-92349409D02*
X151029006Y-92349409D01*
X151472990Y-92552609D02*
X151035033Y-92552609D01*
X151472990Y-92755809D02*
X151035033Y-92755809D01*
X151472990Y-92959009D02*
X151035033Y-92959009D01*
X151472990Y-93162209D02*
X151035033Y-93162209D01*
X151472990Y-93365409D02*
X151035033Y-93365409D01*
X151133686Y-93568609D02*
X151035033Y-93568609D01*
X151472990Y-93568609D02*
X151355859Y-93568609D01*
X151453000Y-93771809D02*
X151447000Y-93771809D01*
X151453000Y-93975009D02*
X151447000Y-93975009D01*
X151453000Y-94178209D02*
X151447000Y-94178209D01*
X144030490Y-85022977D02*
X144030490Y-85022977D01*
X144233690Y-85226177D02*
X143912000Y-85226177D01*
X144436890Y-85429377D02*
X143911979Y-85429377D01*
X144640090Y-85632577D02*
X143879764Y-85632577D01*
X144843290Y-85835777D02*
X143789708Y-85835777D01*
X144911926Y-86038977D02*
X143945849Y-86038977D01*
X144751214Y-86242177D02*
X144110029Y-86242177D01*
X144649922Y-86445377D02*
X144211110Y-86445377D01*
X144593327Y-86648577D02*
X144267785Y-86648577D01*
X144573000Y-86851777D02*
X144287000Y-86851777D01*
X144592563Y-87054977D02*
X144266274Y-87054977D01*
X144649963Y-87258177D02*
X144208950Y-87258177D01*
X144751861Y-87461377D02*
X144106832Y-87461377D01*
X144918447Y-87664577D02*
X143943654Y-87664577D01*
X145214045Y-87867777D02*
X143912000Y-87867777D01*
X145898005Y-88070977D02*
X143912000Y-88070977D01*
X145898005Y-88274177D02*
X143912000Y-88274177D01*
X145898005Y-88477377D02*
X143990865Y-88477377D01*
X145169810Y-88680577D02*
X144194065Y-88680577D01*
X145703000Y-88680577D02*
X145697000Y-88680577D01*
X144975935Y-88883777D02*
X144397265Y-88883777D01*
X145703000Y-88883777D02*
X145697000Y-88883777D01*
X144867071Y-89086977D02*
X144600465Y-89086977D01*
X145703000Y-89086977D02*
X145697000Y-89086977D01*
X144850175Y-89290177D02*
X144803665Y-89290177D01*
X145703000Y-89290177D02*
X145697000Y-89290177D01*
X145703000Y-89493377D02*
X145697000Y-89493377D01*
X145703000Y-89696577D02*
X145697000Y-89696577D01*
X145703000Y-89899777D02*
X145697000Y-89899777D01*
X145703000Y-90102977D02*
X145697000Y-90102977D01*
X145880335Y-90306177D02*
X145452000Y-90306177D01*
X145691942Y-90509377D02*
X145452000Y-90509377D01*
X145586509Y-90712577D02*
X145452000Y-90712577D01*
X145546296Y-90915777D02*
X145452000Y-90915777D01*
X145543000Y-91118977D02*
X145452000Y-91118977D01*
X145543000Y-91322177D02*
X145452000Y-91322177D01*
X145543000Y-91525377D02*
X145452000Y-91525377D01*
X145543000Y-91728577D02*
X145452000Y-91728577D01*
X145543000Y-91931777D02*
X145452000Y-91931777D01*
X148449675Y-89647856D02*
X148449675Y-89647856D01*
X148627054Y-89851056D02*
X148317000Y-89851056D01*
X148648000Y-90054256D02*
X148317000Y-90054256D01*
X148453464Y-90257456D02*
X148446536Y-90257456D01*
X148453000Y-90460656D02*
X148447000Y-90460656D01*
X148453000Y-90663856D02*
X148447000Y-90663856D01*
X148453000Y-90867056D02*
X148447000Y-90867056D01*
X161773000Y-83777000D02*
X156470490Y-83777000D01*
X161773000Y-83980200D02*
X156673690Y-83980200D01*
X157077435Y-84183400D02*
X156876890Y-84183400D01*
X160528434Y-84183400D02*
X158322233Y-84183400D01*
X158367643Y-84386600D02*
X158359157Y-84386600D01*
X160271759Y-84386600D02*
X158449916Y-84386600D01*
X158164443Y-84589800D02*
X158155957Y-84589800D01*
X160108252Y-84589800D02*
X158657134Y-84589800D01*
X157961243Y-84793000D02*
X157952757Y-84793000D01*
X160000691Y-84793000D02*
X158730537Y-84793000D01*
X157758043Y-84996200D02*
X157749557Y-84996200D01*
X159933430Y-84996200D02*
X158760701Y-84996200D01*
X159899222Y-85199400D02*
X158751461Y-85199400D01*
X159896385Y-85402600D02*
X158701788Y-85402600D01*
X159830712Y-85605800D02*
X158605286Y-85605800D01*
X159627512Y-85809000D02*
X158637240Y-85809000D01*
X159424312Y-86012200D02*
X158882948Y-86012200D01*
X159221112Y-86215400D02*
X158978567Y-86215400D01*
X159017912Y-86418600D02*
X159005033Y-86418600D01*
X153553000Y-103297000D02*
X153573000Y-103297000D01*
X153573000Y-103303000D01*
X153553000Y-103303000D01*
X153553000Y-103323000D01*
X153547000Y-103323000D01*
X153547000Y-103303000D01*
X153527000Y-103303000D01*
X153527000Y-103297000D01*
X153547000Y-103297000D01*
X153547000Y-103277000D01*
X153553000Y-103277000D01*
X153553000Y-103297000D01*
X161773000Y-101030588D02*
X161773000Y-101030588D01*
X161773000Y-101233788D02*
X161578770Y-101233788D01*
X161773000Y-101436988D02*
X161375570Y-101436988D01*
X161773000Y-101640188D02*
X161172370Y-101640188D01*
X161773000Y-101843388D02*
X160969170Y-101843388D01*
X161773000Y-102046588D02*
X160765970Y-102046588D01*
X161773000Y-102249788D02*
X160562770Y-102249788D01*
X161773000Y-102452988D02*
X160359570Y-102452988D01*
X161773000Y-102656188D02*
X160156370Y-102656188D01*
X161773000Y-102859388D02*
X159953170Y-102859388D01*
X161773000Y-103062588D02*
X159749970Y-103062588D01*
X161773000Y-103265788D02*
X159546770Y-103265788D01*
X161773000Y-103468988D02*
X159343570Y-103468988D01*
X161773000Y-103672188D02*
X159140370Y-103672188D01*
X161773000Y-103875388D02*
X158937170Y-103875388D01*
X161773000Y-104078588D02*
X158733970Y-104078588D01*
X161773000Y-104281788D02*
X158530770Y-104281788D01*
X161773000Y-104484988D02*
X158327570Y-104484988D01*
X161773000Y-104688188D02*
X158124370Y-104688188D01*
X161773000Y-104891388D02*
X157921170Y-104891388D01*
X161773000Y-105094588D02*
X157717970Y-105094588D01*
X161773000Y-105297788D02*
X157514770Y-105297788D01*
X161773000Y-105500988D02*
X157311570Y-105500988D01*
X161773000Y-105704188D02*
X157108370Y-105704188D01*
X161773000Y-105907388D02*
X156905170Y-105907388D01*
X161773000Y-106110588D02*
X156701970Y-106110588D01*
X161773000Y-106313788D02*
X156498770Y-106313788D01*
X161773000Y-106516988D02*
X156295570Y-106516988D01*
X161773000Y-106720188D02*
X156092370Y-106720188D01*
X161773000Y-106923388D02*
X155889170Y-106923388D01*
X161773000Y-107126588D02*
X155685970Y-107126588D01*
X161773000Y-107329788D02*
X155482770Y-107329788D01*
X150892740Y-107532988D02*
X150729185Y-107532988D01*
X161773000Y-107532988D02*
X155279570Y-107532988D01*
X151095940Y-107736188D02*
X150597822Y-107736188D01*
X161773000Y-107736188D02*
X155076370Y-107736188D01*
X151373701Y-107939388D02*
X150636689Y-107939388D01*
X161773000Y-107939388D02*
X154796695Y-107939388D01*
X161773000Y-108142588D02*
X150733162Y-108142588D01*
X161773000Y-108345788D02*
X150737000Y-108345788D01*
X150053000Y-108548988D02*
X150047000Y-108548988D01*
X154066960Y-108548988D02*
X150736238Y-108548988D01*
X161773000Y-108548988D02*
X155329131Y-108548988D01*
X150053000Y-108752188D02*
X150047000Y-108752188D01*
X153773231Y-108752188D02*
X150734200Y-108752188D01*
X161773000Y-108752188D02*
X155628358Y-108752188D01*
X139341900Y-108955388D02*
X139227000Y-108955388D01*
X150053000Y-108955388D02*
X150047000Y-108955388D01*
X153585146Y-108955388D02*
X150641912Y-108955388D01*
X161773000Y-108955388D02*
X155816142Y-108955388D01*
X139545100Y-109158588D02*
X139227000Y-109158588D01*
X153454939Y-109158588D02*
X149678731Y-109158588D01*
X157466351Y-109158588D02*
X155946706Y-109158588D01*
X161773000Y-109158588D02*
X158736243Y-109158588D01*
X139748300Y-109361788D02*
X139227000Y-109361788D01*
X153367847Y-109361788D02*
X149578409Y-109361788D01*
X157197096Y-109361788D02*
X156030459Y-109361788D01*
X161773000Y-109361788D02*
X161059089Y-109361788D01*
X139951500Y-109564988D02*
X139227000Y-109564988D01*
X153321683Y-109564988D02*
X149398500Y-109564988D01*
X157025241Y-109564988D02*
X156077649Y-109564988D01*
X161773000Y-109564988D02*
X161157645Y-109564988D01*
X140154700Y-109768188D02*
X139227000Y-109768188D01*
X153303249Y-109768188D02*
X149195300Y-109768188D01*
X156911326Y-109768188D02*
X156095590Y-109768188D01*
X161773000Y-109768188D02*
X161162000Y-109768188D01*
X140361084Y-109971388D02*
X139227000Y-109971388D01*
X153311060Y-109971388D02*
X148992100Y-109971388D01*
X156838704Y-109971388D02*
X156092753Y-109971388D01*
X161773000Y-109971388D02*
X161162000Y-109971388D01*
X140843656Y-110174588D02*
X139227000Y-110174588D01*
X153348355Y-110174588D02*
X148788900Y-110174588D01*
X156799568Y-110174588D02*
X156047557Y-110174588D01*
X161773000Y-110174588D02*
X161162000Y-110174588D01*
X146836033Y-110377788D02*
X139227000Y-110377788D01*
X153426187Y-110377788D02*
X148585700Y-110377788D01*
X156796731Y-110377788D02*
X155972023Y-110377788D01*
X161773000Y-110377788D02*
X161140038Y-110377788D01*
X147002724Y-110580988D02*
X139227000Y-110580988D01*
X153541267Y-110580988D02*
X148403712Y-110580988D01*
X156827766Y-110580988D02*
X155858757Y-110580988D01*
X161773000Y-110580988D02*
X161162000Y-110580988D01*
X153708278Y-110784188D02*
X139227000Y-110784188D01*
X156891307Y-110784188D02*
X155692341Y-110784188D01*
X161773000Y-110784188D02*
X161162000Y-110784188D01*
X153553000Y-103277000D02*
X153547000Y-103277000D01*
X150803000Y-101160489D02*
X150803000Y-101160489D01*
X150803000Y-101363689D02*
X150797000Y-101363689D01*
X150803000Y-101566889D02*
X150797000Y-101566889D01*
X150882839Y-101770089D02*
X150717161Y-101770089D01*
X150713223Y-101973289D02*
X150376321Y-101973289D01*
X150510023Y-102176489D02*
X150236062Y-102176489D01*
X145452000Y-94184605D02*
X145452000Y-94184605D01*
X145635055Y-94387805D02*
X145452000Y-94387805D01*
X150813000Y-94387805D02*
X150760427Y-94387805D01*
X150771616Y-94591005D02*
X145452000Y-94591005D01*
X150631095Y-94794205D02*
X145452000Y-94794205D01*
X150577442Y-94997405D02*
X145452000Y-94997405D01*
X150569967Y-95200605D02*
X145452000Y-95200605D01*
X150382707Y-95403805D02*
X145452000Y-95403805D01*
X150179507Y-95607005D02*
X145452000Y-95607005D01*
X149976307Y-95810205D02*
X145452000Y-95810205D01*
X149773107Y-96013405D02*
X145452000Y-96013405D01*
X149569907Y-96216605D02*
X145452000Y-96216605D01*
X149366707Y-96419805D02*
X145452000Y-96419805D01*
X149163507Y-96623005D02*
X145452000Y-96623005D01*
X148960307Y-96826205D02*
X145452000Y-96826205D01*
X148757107Y-97029405D02*
X145452000Y-97029405D01*
X148553907Y-97232605D02*
X145452000Y-97232605D01*
X148350707Y-97435805D02*
X145452000Y-97435805D01*
X148187399Y-97639005D02*
X145452000Y-97639005D01*
X145768326Y-97842205D02*
X145452000Y-97842205D01*
X148104650Y-97842205D02*
X146819982Y-97842205D01*
X145498944Y-98045405D02*
X145452000Y-98045405D01*
X147189656Y-98045405D02*
X147091880Y-98045405D01*
X147657345Y-98045405D02*
X147472655Y-98045405D01*
X148038943Y-98045405D02*
X147940345Y-98045405D01*
X147568000Y-98248605D02*
X147562000Y-98248605D01*
X147568000Y-98451805D02*
X147562000Y-98451805D01*
X147568000Y-98655005D02*
X147562000Y-98655005D01*
X147568000Y-98858205D02*
X147562000Y-98858205D01*
X147568000Y-99061405D02*
X147562000Y-99061405D01*
X155698000Y-86253409D02*
X155698000Y-86253409D01*
X155698000Y-86456609D02*
X155106879Y-86456609D01*
X155698000Y-86659809D02*
X154903679Y-86659809D01*
X155698000Y-86863009D02*
X154700479Y-86863009D01*
X155698000Y-87066209D02*
X154497279Y-87066209D01*
X155698000Y-87269409D02*
X154554937Y-87269409D01*
X155698000Y-87472609D02*
X154748405Y-87472609D01*
X152238406Y-87675809D02*
X149480033Y-87675809D01*
X155698000Y-87675809D02*
X154861595Y-87675809D01*
X152179296Y-87879009D02*
X149592497Y-87879009D01*
X155620691Y-87879009D02*
X154920705Y-87879009D01*
X152249697Y-88082209D02*
X150213760Y-88082209D01*
X153553000Y-88082209D02*
X153547000Y-88082209D01*
X155417491Y-88082209D02*
X154850304Y-88082209D01*
X152190747Y-88285409D02*
X150371354Y-88285409D01*
X153553000Y-88285409D02*
X153547000Y-88285409D01*
X155214291Y-88285409D02*
X154909252Y-88285409D01*
X152261025Y-88488609D02*
X150425253Y-88488609D01*
X153553000Y-88488609D02*
X153547000Y-88488609D01*
X155011091Y-88488609D02*
X154838974Y-88488609D01*
X152387830Y-88691809D02*
X150430083Y-88691809D01*
X153553000Y-88691809D02*
X153547000Y-88691809D01*
X154807891Y-88691809D02*
X154712169Y-88691809D01*
X152598863Y-88895009D02*
X150430083Y-88895009D01*
X153553000Y-88895009D02*
X153547000Y-88895009D01*
X154615868Y-88895009D02*
X154501136Y-88895009D01*
X154498406Y-89098209D02*
X150430083Y-89098209D01*
X154453826Y-89301409D02*
X150430083Y-89301409D01*
X152561960Y-89504609D02*
X150408010Y-89504609D01*
X152285161Y-89707809D02*
X150314069Y-89707809D01*
X152121848Y-89911009D02*
X150152000Y-89911009D01*
X152012730Y-90114209D02*
X150152000Y-90114209D01*
X151949829Y-90317409D02*
X150152000Y-90317409D01*
X151922578Y-90520609D02*
X150152000Y-90520609D01*
X151927227Y-90723809D02*
X150152000Y-90723809D01*
X151794503Y-90927009D02*
X150152000Y-90927009D01*
X151608656Y-91130209D02*
X150152000Y-91130209D01*
X151511662Y-91333409D02*
X150152000Y-91333409D01*
X151474511Y-91536609D02*
X150152000Y-91536609D01*
X151472990Y-91739809D02*
X150139076Y-91739809D01*
X151472990Y-91943009D02*
X150801099Y-91943009D01*
X151472990Y-92146209D02*
X150968306Y-92146209D01*
X151472990Y-92349409D02*
X151029006Y-92349409D01*
X151472990Y-92552609D02*
X151035033Y-92552609D01*
X151472990Y-92755809D02*
X151035033Y-92755809D01*
X151472990Y-92959009D02*
X151035033Y-92959009D01*
X151472990Y-93162209D02*
X151035033Y-93162209D01*
X151472990Y-93365409D02*
X151035033Y-93365409D01*
X151133686Y-93568609D02*
X151035033Y-93568609D01*
X151472990Y-93568609D02*
X151355859Y-93568609D01*
X151453000Y-93771809D02*
X151447000Y-93771809D01*
X151453000Y-93975009D02*
X151447000Y-93975009D01*
X151453000Y-94178209D02*
X151447000Y-94178209D01*
X144030490Y-85022977D02*
X144030490Y-85022977D01*
X144233690Y-85226177D02*
X143912000Y-85226177D01*
X144436890Y-85429377D02*
X143911979Y-85429377D01*
X144640090Y-85632577D02*
X143879764Y-85632577D01*
X144843290Y-85835777D02*
X143789708Y-85835777D01*
X144911926Y-86038977D02*
X143945849Y-86038977D01*
X144751214Y-86242177D02*
X144110029Y-86242177D01*
X144649922Y-86445377D02*
X144211110Y-86445377D01*
X144593327Y-86648577D02*
X144267785Y-86648577D01*
X144573000Y-86851777D02*
X144287000Y-86851777D01*
X144592563Y-87054977D02*
X144266274Y-87054977D01*
X144649963Y-87258177D02*
X144208950Y-87258177D01*
X144751861Y-87461377D02*
X144106832Y-87461377D01*
X144918447Y-87664577D02*
X143943654Y-87664577D01*
X145214045Y-87867777D02*
X143912000Y-87867777D01*
X145898005Y-88070977D02*
X143912000Y-88070977D01*
X145898005Y-88274177D02*
X143912000Y-88274177D01*
X145898005Y-88477377D02*
X143990865Y-88477377D01*
X145169810Y-88680577D02*
X144194065Y-88680577D01*
X145703000Y-88680577D02*
X145697000Y-88680577D01*
X144975935Y-88883777D02*
X144397265Y-88883777D01*
X145703000Y-88883777D02*
X145697000Y-88883777D01*
X144867071Y-89086977D02*
X144600465Y-89086977D01*
X145703000Y-89086977D02*
X145697000Y-89086977D01*
X144850175Y-89290177D02*
X144803665Y-89290177D01*
X145703000Y-89290177D02*
X145697000Y-89290177D01*
X145703000Y-89493377D02*
X145697000Y-89493377D01*
X145703000Y-89696577D02*
X145697000Y-89696577D01*
X145703000Y-89899777D02*
X145697000Y-89899777D01*
X145703000Y-90102977D02*
X145697000Y-90102977D01*
X145880335Y-90306177D02*
X145452000Y-90306177D01*
X145691942Y-90509377D02*
X145452000Y-90509377D01*
X145586509Y-90712577D02*
X145452000Y-90712577D01*
X145546296Y-90915777D02*
X145452000Y-90915777D01*
X145543000Y-91118977D02*
X145452000Y-91118977D01*
X145543000Y-91322177D02*
X145452000Y-91322177D01*
X145543000Y-91525377D02*
X145452000Y-91525377D01*
X145543000Y-91728577D02*
X145452000Y-91728577D01*
X145543000Y-91931777D02*
X145452000Y-91931777D01*
X148449675Y-89647856D02*
X148449675Y-89647856D01*
X148627054Y-89851056D02*
X148317000Y-89851056D01*
X148648000Y-90054256D02*
X148317000Y-90054256D01*
X148453464Y-90257456D02*
X148446536Y-90257456D01*
X148453000Y-90460656D02*
X148447000Y-90460656D01*
X148453000Y-90663856D02*
X148447000Y-90663856D01*
X148453000Y-90867056D02*
X148447000Y-90867056D01*
X161773000Y-83777000D02*
X156470490Y-83777000D01*
X161773000Y-83980200D02*
X156673690Y-83980200D01*
X157077435Y-84183400D02*
X156876890Y-84183400D01*
X160528434Y-84183400D02*
X158322233Y-84183400D01*
X158367643Y-84386600D02*
X158359157Y-84386600D01*
X160271759Y-84386600D02*
X158449916Y-84386600D01*
X158164443Y-84589800D02*
X158155957Y-84589800D01*
X160108252Y-84589800D02*
X158657134Y-84589800D01*
X157961243Y-84793000D02*
X157952757Y-84793000D01*
X160000691Y-84793000D02*
X158730537Y-84793000D01*
X157758043Y-84996200D02*
X157749557Y-84996200D01*
X159933430Y-84996200D02*
X158760701Y-84996200D01*
X159899222Y-85199400D02*
X158751461Y-85199400D01*
X159896385Y-85402600D02*
X158701788Y-85402600D01*
X159830712Y-85605800D02*
X158605286Y-85605800D01*
X159627512Y-85809000D02*
X158637240Y-85809000D01*
X159424312Y-86012200D02*
X158882948Y-86012200D01*
X159221112Y-86215400D02*
X158978567Y-86215400D01*
X159017912Y-86418600D02*
X159005033Y-86418600D01*
X150803000Y-101690250D02*
X150899631Y-101786881D01*
X150439999Y-102246513D01*
X150325523Y-102194911D01*
X150231863Y-102181601D01*
X150275865Y-102128032D01*
X150320485Y-102074855D01*
X150322389Y-102071393D01*
X150324900Y-102068335D01*
X150357742Y-102007086D01*
X150391190Y-101946244D01*
X150392385Y-101942476D01*
X150394254Y-101938991D01*
X150414075Y-101874160D01*
X150417235Y-101872077D01*
X150489746Y-101787000D01*
X150700250Y-101787000D01*
X150797000Y-101690250D01*
X150797000Y-101166489D01*
X150803000Y-101160489D01*
X150803000Y-101690250D01*
X161773000Y-101030588D02*
X161773000Y-101030588D01*
X161773000Y-101233788D02*
X161578770Y-101233788D01*
X161773000Y-101436988D02*
X161375570Y-101436988D01*
X161773000Y-101640188D02*
X161172370Y-101640188D01*
X161773000Y-101843388D02*
X160969170Y-101843388D01*
X161773000Y-102046588D02*
X160765970Y-102046588D01*
X161773000Y-102249788D02*
X160562770Y-102249788D01*
X161773000Y-102452988D02*
X160359570Y-102452988D01*
X161773000Y-102656188D02*
X160156370Y-102656188D01*
X161773000Y-102859388D02*
X159953170Y-102859388D01*
X161773000Y-103062588D02*
X159749970Y-103062588D01*
X161773000Y-103265788D02*
X159546770Y-103265788D01*
X161773000Y-103468988D02*
X159343570Y-103468988D01*
X161773000Y-103672188D02*
X159140370Y-103672188D01*
X161773000Y-103875388D02*
X158937170Y-103875388D01*
X161773000Y-104078588D02*
X158733970Y-104078588D01*
X161773000Y-104281788D02*
X158530770Y-104281788D01*
X161773000Y-104484988D02*
X158327570Y-104484988D01*
X161773000Y-104688188D02*
X158124370Y-104688188D01*
X161773000Y-104891388D02*
X157921170Y-104891388D01*
X161773000Y-105094588D02*
X157717970Y-105094588D01*
X161773000Y-105297788D02*
X157514770Y-105297788D01*
X161773000Y-105500988D02*
X157311570Y-105500988D01*
X161773000Y-105704188D02*
X157108370Y-105704188D01*
X161773000Y-105907388D02*
X156905170Y-105907388D01*
X161773000Y-106110588D02*
X156701970Y-106110588D01*
X161773000Y-106313788D02*
X156498770Y-106313788D01*
X161773000Y-106516988D02*
X156295570Y-106516988D01*
X161773000Y-106720188D02*
X156092370Y-106720188D01*
X161773000Y-106923388D02*
X155889170Y-106923388D01*
X161773000Y-107126588D02*
X155685970Y-107126588D01*
X161773000Y-107329788D02*
X155482770Y-107329788D01*
X150892740Y-107532988D02*
X150729185Y-107532988D01*
X161773000Y-107532988D02*
X155279570Y-107532988D01*
X151095940Y-107736188D02*
X150597822Y-107736188D01*
X161773000Y-107736188D02*
X155076370Y-107736188D01*
X151373701Y-107939388D02*
X150636689Y-107939388D01*
X161773000Y-107939388D02*
X154796695Y-107939388D01*
X161773000Y-108142588D02*
X150733162Y-108142588D01*
X161773000Y-108345788D02*
X150737000Y-108345788D01*
X150053000Y-108548988D02*
X150047000Y-108548988D01*
X154066960Y-108548988D02*
X150736238Y-108548988D01*
X161773000Y-108548988D02*
X155329131Y-108548988D01*
X150053000Y-108752188D02*
X150047000Y-108752188D01*
X153773231Y-108752188D02*
X150734200Y-108752188D01*
X161773000Y-108752188D02*
X155628358Y-108752188D01*
X139341900Y-108955388D02*
X139227000Y-108955388D01*
X150053000Y-108955388D02*
X150047000Y-108955388D01*
X153585146Y-108955388D02*
X150641912Y-108955388D01*
X161773000Y-108955388D02*
X155816142Y-108955388D01*
X139545100Y-109158588D02*
X139227000Y-109158588D01*
X153454939Y-109158588D02*
X149678731Y-109158588D01*
X157466351Y-109158588D02*
X155946706Y-109158588D01*
X161773000Y-109158588D02*
X158736243Y-109158588D01*
X139748300Y-109361788D02*
X139227000Y-109361788D01*
X153367847Y-109361788D02*
X149578409Y-109361788D01*
X157197096Y-109361788D02*
X156030459Y-109361788D01*
X161773000Y-109361788D02*
X161059089Y-109361788D01*
X139951500Y-109564988D02*
X139227000Y-109564988D01*
X153321683Y-109564988D02*
X149398500Y-109564988D01*
X157025241Y-109564988D02*
X156077649Y-109564988D01*
X161773000Y-109564988D02*
X161157645Y-109564988D01*
X140154700Y-109768188D02*
X139227000Y-109768188D01*
X153303249Y-109768188D02*
X149195300Y-109768188D01*
X156911326Y-109768188D02*
X156095590Y-109768188D01*
X161773000Y-109768188D02*
X161162000Y-109768188D01*
X140361084Y-109971388D02*
X139227000Y-109971388D01*
X153311060Y-109971388D02*
X148992100Y-109971388D01*
X156838704Y-109971388D02*
X156092753Y-109971388D01*
X161773000Y-109971388D02*
X161162000Y-109971388D01*
X140843656Y-110174588D02*
X139227000Y-110174588D01*
X153348355Y-110174588D02*
X148788900Y-110174588D01*
X156799568Y-110174588D02*
X156047557Y-110174588D01*
X161773000Y-110174588D02*
X161162000Y-110174588D01*
X146836033Y-110377788D02*
X139227000Y-110377788D01*
X153426187Y-110377788D02*
X148585700Y-110377788D01*
X156796731Y-110377788D02*
X155972023Y-110377788D01*
X161773000Y-110377788D02*
X161140038Y-110377788D01*
X147002724Y-110580988D02*
X139227000Y-110580988D01*
X153541267Y-110580988D02*
X148403712Y-110580988D01*
X156827766Y-110580988D02*
X155858757Y-110580988D01*
X161773000Y-110580988D02*
X161162000Y-110580988D01*
X153708278Y-110784188D02*
X139227000Y-110784188D01*
X156891307Y-110784188D02*
X155692341Y-110784188D01*
X161773000Y-110784188D02*
X161162000Y-110784188D01*
X153553000Y-103277000D02*
X153547000Y-103277000D01*
X150803000Y-101160489D02*
X150803000Y-101160489D01*
X150803000Y-101363689D02*
X150797000Y-101363689D01*
X150803000Y-101566889D02*
X150797000Y-101566889D01*
X150882839Y-101770089D02*
X150717161Y-101770089D01*
X150713223Y-101973289D02*
X150376321Y-101973289D01*
X150510023Y-102176489D02*
X150236062Y-102176489D01*
X145452000Y-94184605D02*
X145452000Y-94184605D01*
X145635055Y-94387805D02*
X145452000Y-94387805D01*
X150813000Y-94387805D02*
X150760427Y-94387805D01*
X150771616Y-94591005D02*
X145452000Y-94591005D01*
X150631095Y-94794205D02*
X145452000Y-94794205D01*
X150577442Y-94997405D02*
X145452000Y-94997405D01*
X150569967Y-95200605D02*
X145452000Y-95200605D01*
X150382707Y-95403805D02*
X145452000Y-95403805D01*
X150179507Y-95607005D02*
X145452000Y-95607005D01*
X149976307Y-95810205D02*
X145452000Y-95810205D01*
X149773107Y-96013405D02*
X145452000Y-96013405D01*
X149569907Y-96216605D02*
X145452000Y-96216605D01*
X149366707Y-96419805D02*
X145452000Y-96419805D01*
X149163507Y-96623005D02*
X145452000Y-96623005D01*
X148960307Y-96826205D02*
X145452000Y-96826205D01*
X148757107Y-97029405D02*
X145452000Y-97029405D01*
X148553907Y-97232605D02*
X145452000Y-97232605D01*
X148350707Y-97435805D02*
X145452000Y-97435805D01*
X148187399Y-97639005D02*
X145452000Y-97639005D01*
X145768326Y-97842205D02*
X145452000Y-97842205D01*
X148104650Y-97842205D02*
X146819982Y-97842205D01*
X145498944Y-98045405D02*
X145452000Y-98045405D01*
X147189656Y-98045405D02*
X147091880Y-98045405D01*
X147657345Y-98045405D02*
X147472655Y-98045405D01*
X148038943Y-98045405D02*
X147940345Y-98045405D01*
X147568000Y-98248605D02*
X147562000Y-98248605D01*
X147568000Y-98451805D02*
X147562000Y-98451805D01*
X147568000Y-98655005D02*
X147562000Y-98655005D01*
X147568000Y-98858205D02*
X147562000Y-98858205D01*
X147568000Y-99061405D02*
X147562000Y-99061405D01*
X155698000Y-86253409D02*
X155698000Y-86253409D01*
X155698000Y-86456609D02*
X155106879Y-86456609D01*
X155698000Y-86659809D02*
X154903679Y-86659809D01*
X155698000Y-86863009D02*
X154700479Y-86863009D01*
X155698000Y-87066209D02*
X154497279Y-87066209D01*
X155698000Y-87269409D02*
X154554937Y-87269409D01*
X155698000Y-87472609D02*
X154748405Y-87472609D01*
X152238406Y-87675809D02*
X149480033Y-87675809D01*
X155698000Y-87675809D02*
X154861595Y-87675809D01*
X152179296Y-87879009D02*
X149592497Y-87879009D01*
X155620691Y-87879009D02*
X154920705Y-87879009D01*
X152249697Y-88082209D02*
X150213760Y-88082209D01*
X153553000Y-88082209D02*
X153547000Y-88082209D01*
X155417491Y-88082209D02*
X154850304Y-88082209D01*
X152190747Y-88285409D02*
X150371354Y-88285409D01*
X153553000Y-88285409D02*
X153547000Y-88285409D01*
X155214291Y-88285409D02*
X154909252Y-88285409D01*
X152261025Y-88488609D02*
X150425253Y-88488609D01*
X153553000Y-88488609D02*
X153547000Y-88488609D01*
X155011091Y-88488609D02*
X154838974Y-88488609D01*
X152387830Y-88691809D02*
X150430083Y-88691809D01*
X153553000Y-88691809D02*
X153547000Y-88691809D01*
X154807891Y-88691809D02*
X154712169Y-88691809D01*
X152598863Y-88895009D02*
X150430083Y-88895009D01*
X153553000Y-88895009D02*
X153547000Y-88895009D01*
X154615868Y-88895009D02*
X154501136Y-88895009D01*
X154498406Y-89098209D02*
X150430083Y-89098209D01*
X154453826Y-89301409D02*
X150430083Y-89301409D01*
X152561960Y-89504609D02*
X150408010Y-89504609D01*
X152285161Y-89707809D02*
X150314069Y-89707809D01*
X152121848Y-89911009D02*
X150152000Y-89911009D01*
X152012730Y-90114209D02*
X150152000Y-90114209D01*
X151949829Y-90317409D02*
X150152000Y-90317409D01*
X151922578Y-90520609D02*
X150152000Y-90520609D01*
X151927227Y-90723809D02*
X150152000Y-90723809D01*
X151794503Y-90927009D02*
X150152000Y-90927009D01*
X151608656Y-91130209D02*
X150152000Y-91130209D01*
X151511662Y-91333409D02*
X150152000Y-91333409D01*
X151474511Y-91536609D02*
X150152000Y-91536609D01*
X151472990Y-91739809D02*
X150139076Y-91739809D01*
X151472990Y-91943009D02*
X150801099Y-91943009D01*
X151472990Y-92146209D02*
X150968306Y-92146209D01*
X151472990Y-92349409D02*
X151029006Y-92349409D01*
X151472990Y-92552609D02*
X151035033Y-92552609D01*
X151472990Y-92755809D02*
X151035033Y-92755809D01*
X151472990Y-92959009D02*
X151035033Y-92959009D01*
X151472990Y-93162209D02*
X151035033Y-93162209D01*
X151472990Y-93365409D02*
X151035033Y-93365409D01*
X151133686Y-93568609D02*
X151035033Y-93568609D01*
X151472990Y-93568609D02*
X151355859Y-93568609D01*
X151453000Y-93771809D02*
X151447000Y-93771809D01*
X151453000Y-93975009D02*
X151447000Y-93975009D01*
X151453000Y-94178209D02*
X151447000Y-94178209D01*
X144030490Y-85022977D02*
X144030490Y-85022977D01*
X144233690Y-85226177D02*
X143912000Y-85226177D01*
X144436890Y-85429377D02*
X143911979Y-85429377D01*
X144640090Y-85632577D02*
X143879764Y-85632577D01*
X144843290Y-85835777D02*
X143789708Y-85835777D01*
X144911926Y-86038977D02*
X143945849Y-86038977D01*
X144751214Y-86242177D02*
X144110029Y-86242177D01*
X144649922Y-86445377D02*
X144211110Y-86445377D01*
X144593327Y-86648577D02*
X144267785Y-86648577D01*
X144573000Y-86851777D02*
X144287000Y-86851777D01*
X144592563Y-87054977D02*
X144266274Y-87054977D01*
X144649963Y-87258177D02*
X144208950Y-87258177D01*
X144751861Y-87461377D02*
X144106832Y-87461377D01*
X144918447Y-87664577D02*
X143943654Y-87664577D01*
X145214045Y-87867777D02*
X143912000Y-87867777D01*
X145898005Y-88070977D02*
X143912000Y-88070977D01*
X145898005Y-88274177D02*
X143912000Y-88274177D01*
X145898005Y-88477377D02*
X143990865Y-88477377D01*
X145169810Y-88680577D02*
X144194065Y-88680577D01*
X145703000Y-88680577D02*
X145697000Y-88680577D01*
X144975935Y-88883777D02*
X144397265Y-88883777D01*
X145703000Y-88883777D02*
X145697000Y-88883777D01*
X144867071Y-89086977D02*
X144600465Y-89086977D01*
X145703000Y-89086977D02*
X145697000Y-89086977D01*
X144850175Y-89290177D02*
X144803665Y-89290177D01*
X145703000Y-89290177D02*
X145697000Y-89290177D01*
X145703000Y-89493377D02*
X145697000Y-89493377D01*
X145703000Y-89696577D02*
X145697000Y-89696577D01*
X145703000Y-89899777D02*
X145697000Y-89899777D01*
X145703000Y-90102977D02*
X145697000Y-90102977D01*
X145880335Y-90306177D02*
X145452000Y-90306177D01*
X145691942Y-90509377D02*
X145452000Y-90509377D01*
X145586509Y-90712577D02*
X145452000Y-90712577D01*
X145546296Y-90915777D02*
X145452000Y-90915777D01*
X145543000Y-91118977D02*
X145452000Y-91118977D01*
X145543000Y-91322177D02*
X145452000Y-91322177D01*
X145543000Y-91525377D02*
X145452000Y-91525377D01*
X145543000Y-91728577D02*
X145452000Y-91728577D01*
X145543000Y-91931777D02*
X145452000Y-91931777D01*
X148449675Y-89647856D02*
X148449675Y-89647856D01*
X148627054Y-89851056D02*
X148317000Y-89851056D01*
X148648000Y-90054256D02*
X148317000Y-90054256D01*
X148453464Y-90257456D02*
X148446536Y-90257456D01*
X148453000Y-90460656D02*
X148447000Y-90460656D01*
X148453000Y-90663856D02*
X148447000Y-90663856D01*
X148453000Y-90867056D02*
X148447000Y-90867056D01*
X161773000Y-83777000D02*
X156470490Y-83777000D01*
X161773000Y-83980200D02*
X156673690Y-83980200D01*
X157077435Y-84183400D02*
X156876890Y-84183400D01*
X160528434Y-84183400D02*
X158322233Y-84183400D01*
X158367643Y-84386600D02*
X158359157Y-84386600D01*
X160271759Y-84386600D02*
X158449916Y-84386600D01*
X158164443Y-84589800D02*
X158155957Y-84589800D01*
X160108252Y-84589800D02*
X158657134Y-84589800D01*
X157961243Y-84793000D02*
X157952757Y-84793000D01*
X160000691Y-84793000D02*
X158730537Y-84793000D01*
X157758043Y-84996200D02*
X157749557Y-84996200D01*
X159933430Y-84996200D02*
X158760701Y-84996200D01*
X159899222Y-85199400D02*
X158751461Y-85199400D01*
X159896385Y-85402600D02*
X158701788Y-85402600D01*
X159830712Y-85605800D02*
X158605286Y-85605800D01*
X159627512Y-85809000D02*
X158637240Y-85809000D01*
X159424312Y-86012200D02*
X158882948Y-86012200D01*
X159221112Y-86215400D02*
X158978567Y-86215400D01*
X159017912Y-86418600D02*
X159005033Y-86418600D01*
X145522923Y-94292235D02*
X145657852Y-94407234D01*
X145819477Y-94480089D01*
X145995000Y-94505033D01*
X146595000Y-94505033D01*
X146694847Y-94497071D01*
X146864199Y-94444626D01*
X146924840Y-94404667D01*
X146927852Y-94407234D01*
X147089477Y-94480089D01*
X147265000Y-94505033D01*
X147865000Y-94505033D01*
X147964847Y-94497071D01*
X148134199Y-94444626D01*
X148194840Y-94404667D01*
X148197852Y-94407234D01*
X148359477Y-94480089D01*
X148535000Y-94505033D01*
X149135000Y-94505033D01*
X149234847Y-94497071D01*
X149404199Y-94444626D01*
X149464840Y-94404667D01*
X149467852Y-94407234D01*
X149629477Y-94480089D01*
X149805000Y-94505033D01*
X150405000Y-94505033D01*
X150504847Y-94497071D01*
X150674199Y-94444626D01*
X150813000Y-94353162D01*
X150813000Y-94558000D01*
X150782765Y-94577923D01*
X150667766Y-94712852D01*
X150594911Y-94874477D01*
X150569967Y-95050000D01*
X150569967Y-95216545D01*
X148303256Y-97483256D01*
X148259174Y-97536922D01*
X148214515Y-97590145D01*
X148212610Y-97593611D01*
X148210100Y-97596666D01*
X148177280Y-97657875D01*
X148143810Y-97718756D01*
X148142614Y-97722526D01*
X148140746Y-97726010D01*
X148120438Y-97792434D01*
X148099433Y-97858650D01*
X148098992Y-97862579D01*
X148097836Y-97866361D01*
X148090820Y-97935439D01*
X148084477Y-97991980D01*
X148018308Y-98069616D01*
X147977884Y-98052872D01*
X147903116Y-98038000D01*
X147664750Y-98038000D01*
X147568000Y-98134750D01*
X147568000Y-99147000D01*
X147588000Y-99147000D01*
X147588000Y-99153000D01*
X147568000Y-99153000D01*
X147568000Y-99173000D01*
X147562000Y-99173000D01*
X147562000Y-99153000D01*
X147542000Y-99153000D01*
X147542000Y-99147000D01*
X147562000Y-99147000D01*
X147562000Y-98134750D01*
X147465250Y-98038000D01*
X147226884Y-98038000D01*
X147152116Y-98052872D01*
X147108661Y-98070872D01*
X147067077Y-98007765D01*
X146932148Y-97892766D01*
X146770523Y-97819911D01*
X146595000Y-97794967D01*
X145995000Y-97794967D01*
X145895153Y-97802929D01*
X145725801Y-97855374D01*
X145577765Y-97952923D01*
X145462766Y-98087852D01*
X145452000Y-98111736D01*
X145452000Y-94184605D01*
X145522923Y-94292235D01*
X161773000Y-101030588D02*
X161773000Y-101030588D01*
X161773000Y-101233788D02*
X161578770Y-101233788D01*
X161773000Y-101436988D02*
X161375570Y-101436988D01*
X161773000Y-101640188D02*
X161172370Y-101640188D01*
X161773000Y-101843388D02*
X160969170Y-101843388D01*
X161773000Y-102046588D02*
X160765970Y-102046588D01*
X161773000Y-102249788D02*
X160562770Y-102249788D01*
X161773000Y-102452988D02*
X160359570Y-102452988D01*
X161773000Y-102656188D02*
X160156370Y-102656188D01*
X161773000Y-102859388D02*
X159953170Y-102859388D01*
X161773000Y-103062588D02*
X159749970Y-103062588D01*
X161773000Y-103265788D02*
X159546770Y-103265788D01*
X161773000Y-103468988D02*
X159343570Y-103468988D01*
X161773000Y-103672188D02*
X159140370Y-103672188D01*
X161773000Y-103875388D02*
X158937170Y-103875388D01*
X161773000Y-104078588D02*
X158733970Y-104078588D01*
X161773000Y-104281788D02*
X158530770Y-104281788D01*
X161773000Y-104484988D02*
X158327570Y-104484988D01*
X161773000Y-104688188D02*
X158124370Y-104688188D01*
X161773000Y-104891388D02*
X157921170Y-104891388D01*
X161773000Y-105094588D02*
X157717970Y-105094588D01*
X161773000Y-105297788D02*
X157514770Y-105297788D01*
X161773000Y-105500988D02*
X157311570Y-105500988D01*
X161773000Y-105704188D02*
X157108370Y-105704188D01*
X161773000Y-105907388D02*
X156905170Y-105907388D01*
X161773000Y-106110588D02*
X156701970Y-106110588D01*
X161773000Y-106313788D02*
X156498770Y-106313788D01*
X161773000Y-106516988D02*
X156295570Y-106516988D01*
X161773000Y-106720188D02*
X156092370Y-106720188D01*
X161773000Y-106923388D02*
X155889170Y-106923388D01*
X161773000Y-107126588D02*
X155685970Y-107126588D01*
X161773000Y-107329788D02*
X155482770Y-107329788D01*
X150892740Y-107532988D02*
X150729185Y-107532988D01*
X161773000Y-107532988D02*
X155279570Y-107532988D01*
X151095940Y-107736188D02*
X150597822Y-107736188D01*
X161773000Y-107736188D02*
X155076370Y-107736188D01*
X151373701Y-107939388D02*
X150636689Y-107939388D01*
X161773000Y-107939388D02*
X154796695Y-107939388D01*
X161773000Y-108142588D02*
X150733162Y-108142588D01*
X161773000Y-108345788D02*
X150737000Y-108345788D01*
X150053000Y-108548988D02*
X150047000Y-108548988D01*
X154066960Y-108548988D02*
X150736238Y-108548988D01*
X161773000Y-108548988D02*
X155329131Y-108548988D01*
X150053000Y-108752188D02*
X150047000Y-108752188D01*
X153773231Y-108752188D02*
X150734200Y-108752188D01*
X161773000Y-108752188D02*
X155628358Y-108752188D01*
X139341900Y-108955388D02*
X139227000Y-108955388D01*
X150053000Y-108955388D02*
X150047000Y-108955388D01*
X153585146Y-108955388D02*
X150641912Y-108955388D01*
X161773000Y-108955388D02*
X155816142Y-108955388D01*
X139545100Y-109158588D02*
X139227000Y-109158588D01*
X153454939Y-109158588D02*
X149678731Y-109158588D01*
X157466351Y-109158588D02*
X155946706Y-109158588D01*
X161773000Y-109158588D02*
X158736243Y-109158588D01*
X139748300Y-109361788D02*
X139227000Y-109361788D01*
X153367847Y-109361788D02*
X149578409Y-109361788D01*
X157197096Y-109361788D02*
X156030459Y-109361788D01*
X161773000Y-109361788D02*
X161059089Y-109361788D01*
X139951500Y-109564988D02*
X139227000Y-109564988D01*
X153321683Y-109564988D02*
X149398500Y-109564988D01*
X157025241Y-109564988D02*
X156077649Y-109564988D01*
X161773000Y-109564988D02*
X161157645Y-109564988D01*
X140154700Y-109768188D02*
X139227000Y-109768188D01*
X153303249Y-109768188D02*
X149195300Y-109768188D01*
X156911326Y-109768188D02*
X156095590Y-109768188D01*
X161773000Y-109768188D02*
X161162000Y-109768188D01*
X140361084Y-109971388D02*
X139227000Y-109971388D01*
X153311060Y-109971388D02*
X148992100Y-109971388D01*
X156838704Y-109971388D02*
X156092753Y-109971388D01*
X161773000Y-109971388D02*
X161162000Y-109971388D01*
X140843656Y-110174588D02*
X139227000Y-110174588D01*
X153348355Y-110174588D02*
X148788900Y-110174588D01*
X156799568Y-110174588D02*
X156047557Y-110174588D01*
X161773000Y-110174588D02*
X161162000Y-110174588D01*
X146836033Y-110377788D02*
X139227000Y-110377788D01*
X153426187Y-110377788D02*
X148585700Y-110377788D01*
X156796731Y-110377788D02*
X155972023Y-110377788D01*
X161773000Y-110377788D02*
X161140038Y-110377788D01*
X147002724Y-110580988D02*
X139227000Y-110580988D01*
X153541267Y-110580988D02*
X148403712Y-110580988D01*
X156827766Y-110580988D02*
X155858757Y-110580988D01*
X161773000Y-110580988D02*
X161162000Y-110580988D01*
X153708278Y-110784188D02*
X139227000Y-110784188D01*
X156891307Y-110784188D02*
X155692341Y-110784188D01*
X161773000Y-110784188D02*
X161162000Y-110784188D01*
X153553000Y-103277000D02*
X153547000Y-103277000D01*
X150803000Y-101160489D02*
X150803000Y-101160489D01*
X150803000Y-101363689D02*
X150797000Y-101363689D01*
X150803000Y-101566889D02*
X150797000Y-101566889D01*
X150882839Y-101770089D02*
X150717161Y-101770089D01*
X150713223Y-101973289D02*
X150376321Y-101973289D01*
X150510023Y-102176489D02*
X150236062Y-102176489D01*
X145452000Y-94184605D02*
X145452000Y-94184605D01*
X145635055Y-94387805D02*
X145452000Y-94387805D01*
X150813000Y-94387805D02*
X150760427Y-94387805D01*
X150771616Y-94591005D02*
X145452000Y-94591005D01*
X150631095Y-94794205D02*
X145452000Y-94794205D01*
X150577442Y-94997405D02*
X145452000Y-94997405D01*
X150569967Y-95200605D02*
X145452000Y-95200605D01*
X150382707Y-95403805D02*
X145452000Y-95403805D01*
X150179507Y-95607005D02*
X145452000Y-95607005D01*
X149976307Y-95810205D02*
X145452000Y-95810205D01*
X149773107Y-96013405D02*
X145452000Y-96013405D01*
X149569907Y-96216605D02*
X145452000Y-96216605D01*
X149366707Y-96419805D02*
X145452000Y-96419805D01*
X149163507Y-96623005D02*
X145452000Y-96623005D01*
X148960307Y-96826205D02*
X145452000Y-96826205D01*
X148757107Y-97029405D02*
X145452000Y-97029405D01*
X148553907Y-97232605D02*
X145452000Y-97232605D01*
X148350707Y-97435805D02*
X145452000Y-97435805D01*
X148187399Y-97639005D02*
X145452000Y-97639005D01*
X145768326Y-97842205D02*
X145452000Y-97842205D01*
X148104650Y-97842205D02*
X146819982Y-97842205D01*
X145498944Y-98045405D02*
X145452000Y-98045405D01*
X147189656Y-98045405D02*
X147091880Y-98045405D01*
X147657345Y-98045405D02*
X147472655Y-98045405D01*
X148038943Y-98045405D02*
X147940345Y-98045405D01*
X147568000Y-98248605D02*
X147562000Y-98248605D01*
X147568000Y-98451805D02*
X147562000Y-98451805D01*
X147568000Y-98655005D02*
X147562000Y-98655005D01*
X147568000Y-98858205D02*
X147562000Y-98858205D01*
X147568000Y-99061405D02*
X147562000Y-99061405D01*
X155698000Y-86253409D02*
X155698000Y-86253409D01*
X155698000Y-86456609D02*
X155106879Y-86456609D01*
X155698000Y-86659809D02*
X154903679Y-86659809D01*
X155698000Y-86863009D02*
X154700479Y-86863009D01*
X155698000Y-87066209D02*
X154497279Y-87066209D01*
X155698000Y-87269409D02*
X154554937Y-87269409D01*
X155698000Y-87472609D02*
X154748405Y-87472609D01*
X152238406Y-87675809D02*
X149480033Y-87675809D01*
X155698000Y-87675809D02*
X154861595Y-87675809D01*
X152179296Y-87879009D02*
X149592497Y-87879009D01*
X155620691Y-87879009D02*
X154920705Y-87879009D01*
X152249697Y-88082209D02*
X150213760Y-88082209D01*
X153553000Y-88082209D02*
X153547000Y-88082209D01*
X155417491Y-88082209D02*
X154850304Y-88082209D01*
X152190747Y-88285409D02*
X150371354Y-88285409D01*
X153553000Y-88285409D02*
X153547000Y-88285409D01*
X155214291Y-88285409D02*
X154909252Y-88285409D01*
X152261025Y-88488609D02*
X150425253Y-88488609D01*
X153553000Y-88488609D02*
X153547000Y-88488609D01*
X155011091Y-88488609D02*
X154838974Y-88488609D01*
X152387830Y-88691809D02*
X150430083Y-88691809D01*
X153553000Y-88691809D02*
X153547000Y-88691809D01*
X154807891Y-88691809D02*
X154712169Y-88691809D01*
X152598863Y-88895009D02*
X150430083Y-88895009D01*
X153553000Y-88895009D02*
X153547000Y-88895009D01*
X154615868Y-88895009D02*
X154501136Y-88895009D01*
X154498406Y-89098209D02*
X150430083Y-89098209D01*
X154453826Y-89301409D02*
X150430083Y-89301409D01*
X152561960Y-89504609D02*
X150408010Y-89504609D01*
X152285161Y-89707809D02*
X150314069Y-89707809D01*
X152121848Y-89911009D02*
X150152000Y-89911009D01*
X152012730Y-90114209D02*
X150152000Y-90114209D01*
X151949829Y-90317409D02*
X150152000Y-90317409D01*
X151922578Y-90520609D02*
X150152000Y-90520609D01*
X151927227Y-90723809D02*
X150152000Y-90723809D01*
X151794503Y-90927009D02*
X150152000Y-90927009D01*
X151608656Y-91130209D02*
X150152000Y-91130209D01*
X151511662Y-91333409D02*
X150152000Y-91333409D01*
X151474511Y-91536609D02*
X150152000Y-91536609D01*
X151472990Y-91739809D02*
X150139076Y-91739809D01*
X151472990Y-91943009D02*
X150801099Y-91943009D01*
X151472990Y-92146209D02*
X150968306Y-92146209D01*
X151472990Y-92349409D02*
X151029006Y-92349409D01*
X151472990Y-92552609D02*
X151035033Y-92552609D01*
X151472990Y-92755809D02*
X151035033Y-92755809D01*
X151472990Y-92959009D02*
X151035033Y-92959009D01*
X151472990Y-93162209D02*
X151035033Y-93162209D01*
X151472990Y-93365409D02*
X151035033Y-93365409D01*
X151133686Y-93568609D02*
X151035033Y-93568609D01*
X151472990Y-93568609D02*
X151355859Y-93568609D01*
X151453000Y-93771809D02*
X151447000Y-93771809D01*
X151453000Y-93975009D02*
X151447000Y-93975009D01*
X151453000Y-94178209D02*
X151447000Y-94178209D01*
X144030490Y-85022977D02*
X144030490Y-85022977D01*
X144233690Y-85226177D02*
X143912000Y-85226177D01*
X144436890Y-85429377D02*
X143911979Y-85429377D01*
X144640090Y-85632577D02*
X143879764Y-85632577D01*
X144843290Y-85835777D02*
X143789708Y-85835777D01*
X144911926Y-86038977D02*
X143945849Y-86038977D01*
X144751214Y-86242177D02*
X144110029Y-86242177D01*
X144649922Y-86445377D02*
X144211110Y-86445377D01*
X144593327Y-86648577D02*
X144267785Y-86648577D01*
X144573000Y-86851777D02*
X144287000Y-86851777D01*
X144592563Y-87054977D02*
X144266274Y-87054977D01*
X144649963Y-87258177D02*
X144208950Y-87258177D01*
X144751861Y-87461377D02*
X144106832Y-87461377D01*
X144918447Y-87664577D02*
X143943654Y-87664577D01*
X145214045Y-87867777D02*
X143912000Y-87867777D01*
X145898005Y-88070977D02*
X143912000Y-88070977D01*
X145898005Y-88274177D02*
X143912000Y-88274177D01*
X145898005Y-88477377D02*
X143990865Y-88477377D01*
X145169810Y-88680577D02*
X144194065Y-88680577D01*
X145703000Y-88680577D02*
X145697000Y-88680577D01*
X144975935Y-88883777D02*
X144397265Y-88883777D01*
X145703000Y-88883777D02*
X145697000Y-88883777D01*
X144867071Y-89086977D02*
X144600465Y-89086977D01*
X145703000Y-89086977D02*
X145697000Y-89086977D01*
X144850175Y-89290177D02*
X144803665Y-89290177D01*
X145703000Y-89290177D02*
X145697000Y-89290177D01*
X145703000Y-89493377D02*
X145697000Y-89493377D01*
X145703000Y-89696577D02*
X145697000Y-89696577D01*
X145703000Y-89899777D02*
X145697000Y-89899777D01*
X145703000Y-90102977D02*
X145697000Y-90102977D01*
X145880335Y-90306177D02*
X145452000Y-90306177D01*
X145691942Y-90509377D02*
X145452000Y-90509377D01*
X145586509Y-90712577D02*
X145452000Y-90712577D01*
X145546296Y-90915777D02*
X145452000Y-90915777D01*
X145543000Y-91118977D02*
X145452000Y-91118977D01*
X145543000Y-91322177D02*
X145452000Y-91322177D01*
X145543000Y-91525377D02*
X145452000Y-91525377D01*
X145543000Y-91728577D02*
X145452000Y-91728577D01*
X145543000Y-91931777D02*
X145452000Y-91931777D01*
X148449675Y-89647856D02*
X148449675Y-89647856D01*
X148627054Y-89851056D02*
X148317000Y-89851056D01*
X148648000Y-90054256D02*
X148317000Y-90054256D01*
X148453464Y-90257456D02*
X148446536Y-90257456D01*
X148453000Y-90460656D02*
X148447000Y-90460656D01*
X148453000Y-90663856D02*
X148447000Y-90663856D01*
X148453000Y-90867056D02*
X148447000Y-90867056D01*
X161773000Y-83777000D02*
X156470490Y-83777000D01*
X161773000Y-83980200D02*
X156673690Y-83980200D01*
X157077435Y-84183400D02*
X156876890Y-84183400D01*
X160528434Y-84183400D02*
X158322233Y-84183400D01*
X158367643Y-84386600D02*
X158359157Y-84386600D01*
X160271759Y-84386600D02*
X158449916Y-84386600D01*
X158164443Y-84589800D02*
X158155957Y-84589800D01*
X160108252Y-84589800D02*
X158657134Y-84589800D01*
X157961243Y-84793000D02*
X157952757Y-84793000D01*
X160000691Y-84793000D02*
X158730537Y-84793000D01*
X157758043Y-84996200D02*
X157749557Y-84996200D01*
X159933430Y-84996200D02*
X158760701Y-84996200D01*
X159899222Y-85199400D02*
X158751461Y-85199400D01*
X159896385Y-85402600D02*
X158701788Y-85402600D01*
X159830712Y-85605800D02*
X158605286Y-85605800D01*
X159627512Y-85809000D02*
X158637240Y-85809000D01*
X159424312Y-86012200D02*
X158882948Y-86012200D01*
X159221112Y-86215400D02*
X158978567Y-86215400D01*
X159017912Y-86418600D02*
X159005033Y-86418600D01*
X155698000Y-87801700D02*
X154668256Y-88831444D01*
X154624174Y-88885110D01*
X154579515Y-88938333D01*
X154577610Y-88941799D01*
X154575100Y-88944854D01*
X154542280Y-89006063D01*
X154508810Y-89066944D01*
X154507614Y-89070714D01*
X154505746Y-89074198D01*
X154485451Y-89140580D01*
X154464433Y-89206838D01*
X154463992Y-89210767D01*
X154462836Y-89214549D01*
X154455822Y-89283608D01*
X154448073Y-89352688D01*
X154448019Y-89360423D01*
X154448005Y-89360563D01*
X154448017Y-89360694D01*
X154448000Y-89363188D01*
X154448000Y-89455429D01*
X154420027Y-89440051D01*
X154185257Y-89365578D01*
X153940492Y-89338123D01*
X153922872Y-89338000D01*
X153177128Y-89338000D01*
X152932004Y-89362035D01*
X152696217Y-89433223D01*
X152478748Y-89548853D01*
X152287880Y-89704522D01*
X152130883Y-89894299D01*
X152013737Y-90110955D01*
X151940904Y-90346240D01*
X151915159Y-90591190D01*
X151933106Y-90788406D01*
X151693246Y-91028266D01*
X151649164Y-91081932D01*
X151604505Y-91135155D01*
X151602600Y-91138621D01*
X151600090Y-91141676D01*
X151567270Y-91202885D01*
X151533800Y-91263766D01*
X151532604Y-91267536D01*
X151530736Y-91271020D01*
X151510428Y-91337444D01*
X151489423Y-91403660D01*
X151488982Y-91407589D01*
X151487826Y-91411371D01*
X151480810Y-91480449D01*
X151473063Y-91549510D01*
X151473009Y-91557245D01*
X151472995Y-91557385D01*
X151473007Y-91557516D01*
X151472990Y-91560010D01*
X151472990Y-93639760D01*
X151453000Y-93659750D01*
X151453000Y-94247000D01*
X151473000Y-94247000D01*
X151473000Y-94253000D01*
X151453000Y-94253000D01*
X151453000Y-94273000D01*
X151447000Y-94273000D01*
X151447000Y-94253000D01*
X151427000Y-94253000D01*
X151427000Y-94247000D01*
X151447000Y-94247000D01*
X151447000Y-93659750D01*
X151350250Y-93563000D01*
X151161884Y-93563000D01*
X151087116Y-93577872D01*
X151035033Y-93599446D01*
X151035033Y-92425000D01*
X151027071Y-92325153D01*
X150974626Y-92155801D01*
X150877077Y-92007765D01*
X150742148Y-91892766D01*
X150580523Y-91819911D01*
X150405000Y-91794967D01*
X150126489Y-91794967D01*
X150135567Y-91766350D01*
X150136008Y-91762421D01*
X150137164Y-91758639D01*
X150144185Y-91689517D01*
X150151927Y-91620500D01*
X150151981Y-91612776D01*
X150151996Y-91612625D01*
X150151983Y-91612485D01*
X150152000Y-91610000D01*
X150152000Y-89864387D01*
X150217285Y-89821367D01*
X150332284Y-89686438D01*
X150405139Y-89524813D01*
X150430083Y-89349290D01*
X150430083Y-88549190D01*
X150422121Y-88449343D01*
X150369676Y-88279991D01*
X150332015Y-88222838D01*
X152176056Y-88222838D01*
X152182053Y-88256440D01*
X152239648Y-88448331D01*
X152333572Y-88625298D01*
X152460216Y-88780541D01*
X152614713Y-88908094D01*
X152791126Y-89003056D01*
X152982675Y-89061777D01*
X153182000Y-89082000D01*
X153547000Y-89082000D01*
X153547000Y-88063000D01*
X153553000Y-88063000D01*
X153553000Y-89082000D01*
X153918000Y-89082000D01*
X154117325Y-89061777D01*
X154308874Y-89003056D01*
X154485287Y-88908094D01*
X154639784Y-88780541D01*
X154766428Y-88625298D01*
X154860352Y-88448331D01*
X154917947Y-88256440D01*
X154923944Y-88222838D01*
X154840245Y-88063000D01*
X153553000Y-88063000D01*
X153547000Y-88063000D01*
X152259755Y-88063000D01*
X152176056Y-88222838D01*
X150332015Y-88222838D01*
X150272127Y-88131955D01*
X150137198Y-88016956D01*
X149975573Y-87944101D01*
X149800050Y-87919157D01*
X149632645Y-87919157D01*
X149480033Y-87766545D01*
X149480033Y-87583456D01*
X149511489Y-87552000D01*
X152303161Y-87552000D01*
X152239648Y-87671669D01*
X152182053Y-87863560D01*
X152176056Y-87897162D01*
X152259755Y-88057000D01*
X153547000Y-88057000D01*
X153547000Y-88037000D01*
X153553000Y-88037000D01*
X153553000Y-88057000D01*
X154840245Y-88057000D01*
X154923944Y-87897162D01*
X154917947Y-87863560D01*
X154860352Y-87671669D01*
X154766428Y-87494702D01*
X154639784Y-87339459D01*
X154485287Y-87211906D01*
X154398369Y-87165119D01*
X155210918Y-86352570D01*
X155300372Y-86354444D01*
X155551828Y-86310106D01*
X155698000Y-86253409D01*
X155698000Y-87801700D01*
X161773000Y-101030588D02*
X161773000Y-101030588D01*
X161773000Y-101233788D02*
X161578770Y-101233788D01*
X161773000Y-101436988D02*
X161375570Y-101436988D01*
X161773000Y-101640188D02*
X161172370Y-101640188D01*
X161773000Y-101843388D02*
X160969170Y-101843388D01*
X161773000Y-102046588D02*
X160765970Y-102046588D01*
X161773000Y-102249788D02*
X160562770Y-102249788D01*
X161773000Y-102452988D02*
X160359570Y-102452988D01*
X161773000Y-102656188D02*
X160156370Y-102656188D01*
X161773000Y-102859388D02*
X159953170Y-102859388D01*
X161773000Y-103062588D02*
X159749970Y-103062588D01*
X161773000Y-103265788D02*
X159546770Y-103265788D01*
X161773000Y-103468988D02*
X159343570Y-103468988D01*
X161773000Y-103672188D02*
X159140370Y-103672188D01*
X161773000Y-103875388D02*
X158937170Y-103875388D01*
X161773000Y-104078588D02*
X158733970Y-104078588D01*
X161773000Y-104281788D02*
X158530770Y-104281788D01*
X161773000Y-104484988D02*
X158327570Y-104484988D01*
X161773000Y-104688188D02*
X158124370Y-104688188D01*
X161773000Y-104891388D02*
X157921170Y-104891388D01*
X161773000Y-105094588D02*
X157717970Y-105094588D01*
X161773000Y-105297788D02*
X157514770Y-105297788D01*
X161773000Y-105500988D02*
X157311570Y-105500988D01*
X161773000Y-105704188D02*
X157108370Y-105704188D01*
X161773000Y-105907388D02*
X156905170Y-105907388D01*
X161773000Y-106110588D02*
X156701970Y-106110588D01*
X161773000Y-106313788D02*
X156498770Y-106313788D01*
X161773000Y-106516988D02*
X156295570Y-106516988D01*
X161773000Y-106720188D02*
X156092370Y-106720188D01*
X161773000Y-106923388D02*
X155889170Y-106923388D01*
X161773000Y-107126588D02*
X155685970Y-107126588D01*
X161773000Y-107329788D02*
X155482770Y-107329788D01*
X150892740Y-107532988D02*
X150729185Y-107532988D01*
X161773000Y-107532988D02*
X155279570Y-107532988D01*
X151095940Y-107736188D02*
X150597822Y-107736188D01*
X161773000Y-107736188D02*
X155076370Y-107736188D01*
X151373701Y-107939388D02*
X150636689Y-107939388D01*
X161773000Y-107939388D02*
X154796695Y-107939388D01*
X161773000Y-108142588D02*
X150733162Y-108142588D01*
X161773000Y-108345788D02*
X150737000Y-108345788D01*
X150053000Y-108548988D02*
X150047000Y-108548988D01*
X154066960Y-108548988D02*
X150736238Y-108548988D01*
X161773000Y-108548988D02*
X155329131Y-108548988D01*
X150053000Y-108752188D02*
X150047000Y-108752188D01*
X153773231Y-108752188D02*
X150734200Y-108752188D01*
X161773000Y-108752188D02*
X155628358Y-108752188D01*
X139341900Y-108955388D02*
X139227000Y-108955388D01*
X150053000Y-108955388D02*
X150047000Y-108955388D01*
X153585146Y-108955388D02*
X150641912Y-108955388D01*
X161773000Y-108955388D02*
X155816142Y-108955388D01*
X139545100Y-109158588D02*
X139227000Y-109158588D01*
X153454939Y-109158588D02*
X149678731Y-109158588D01*
X157466351Y-109158588D02*
X155946706Y-109158588D01*
X161773000Y-109158588D02*
X158736243Y-109158588D01*
X139748300Y-109361788D02*
X139227000Y-109361788D01*
X153367847Y-109361788D02*
X149578409Y-109361788D01*
X157197096Y-109361788D02*
X156030459Y-109361788D01*
X161773000Y-109361788D02*
X161059089Y-109361788D01*
X139951500Y-109564988D02*
X139227000Y-109564988D01*
X153321683Y-109564988D02*
X149398500Y-109564988D01*
X157025241Y-109564988D02*
X156077649Y-109564988D01*
X161773000Y-109564988D02*
X161157645Y-109564988D01*
X140154700Y-109768188D02*
X139227000Y-109768188D01*
X153303249Y-109768188D02*
X149195300Y-109768188D01*
X156911326Y-109768188D02*
X156095590Y-109768188D01*
X161773000Y-109768188D02*
X161162000Y-109768188D01*
X140361084Y-109971388D02*
X139227000Y-109971388D01*
X153311060Y-109971388D02*
X148992100Y-109971388D01*
X156838704Y-109971388D02*
X156092753Y-109971388D01*
X161773000Y-109971388D02*
X161162000Y-109971388D01*
X140843656Y-110174588D02*
X139227000Y-110174588D01*
X153348355Y-110174588D02*
X148788900Y-110174588D01*
X156799568Y-110174588D02*
X156047557Y-110174588D01*
X161773000Y-110174588D02*
X161162000Y-110174588D01*
X146836033Y-110377788D02*
X139227000Y-110377788D01*
X153426187Y-110377788D02*
X148585700Y-110377788D01*
X156796731Y-110377788D02*
X155972023Y-110377788D01*
X161773000Y-110377788D02*
X161140038Y-110377788D01*
X147002724Y-110580988D02*
X139227000Y-110580988D01*
X153541267Y-110580988D02*
X148403712Y-110580988D01*
X156827766Y-110580988D02*
X155858757Y-110580988D01*
X161773000Y-110580988D02*
X161162000Y-110580988D01*
X153708278Y-110784188D02*
X139227000Y-110784188D01*
X156891307Y-110784188D02*
X155692341Y-110784188D01*
X161773000Y-110784188D02*
X161162000Y-110784188D01*
X153553000Y-103277000D02*
X153547000Y-103277000D01*
X150803000Y-101160489D02*
X150803000Y-101160489D01*
X150803000Y-101363689D02*
X150797000Y-101363689D01*
X150803000Y-101566889D02*
X150797000Y-101566889D01*
X150882839Y-101770089D02*
X150717161Y-101770089D01*
X150713223Y-101973289D02*
X150376321Y-101973289D01*
X150510023Y-102176489D02*
X150236062Y-102176489D01*
X145452000Y-94184605D02*
X145452000Y-94184605D01*
X145635055Y-94387805D02*
X145452000Y-94387805D01*
X150813000Y-94387805D02*
X150760427Y-94387805D01*
X150771616Y-94591005D02*
X145452000Y-94591005D01*
X150631095Y-94794205D02*
X145452000Y-94794205D01*
X150577442Y-94997405D02*
X145452000Y-94997405D01*
X150569967Y-95200605D02*
X145452000Y-95200605D01*
X150382707Y-95403805D02*
X145452000Y-95403805D01*
X150179507Y-95607005D02*
X145452000Y-95607005D01*
X149976307Y-95810205D02*
X145452000Y-95810205D01*
X149773107Y-96013405D02*
X145452000Y-96013405D01*
X149569907Y-96216605D02*
X145452000Y-96216605D01*
X149366707Y-96419805D02*
X145452000Y-96419805D01*
X149163507Y-96623005D02*
X145452000Y-96623005D01*
X148960307Y-96826205D02*
X145452000Y-96826205D01*
X148757107Y-97029405D02*
X145452000Y-97029405D01*
X148553907Y-97232605D02*
X145452000Y-97232605D01*
X148350707Y-97435805D02*
X145452000Y-97435805D01*
X148187399Y-97639005D02*
X145452000Y-97639005D01*
X145768326Y-97842205D02*
X145452000Y-97842205D01*
X148104650Y-97842205D02*
X146819982Y-97842205D01*
X145498944Y-98045405D02*
X145452000Y-98045405D01*
X147189656Y-98045405D02*
X147091880Y-98045405D01*
X147657345Y-98045405D02*
X147472655Y-98045405D01*
X148038943Y-98045405D02*
X147940345Y-98045405D01*
X147568000Y-98248605D02*
X147562000Y-98248605D01*
X147568000Y-98451805D02*
X147562000Y-98451805D01*
X147568000Y-98655005D02*
X147562000Y-98655005D01*
X147568000Y-98858205D02*
X147562000Y-98858205D01*
X147568000Y-99061405D02*
X147562000Y-99061405D01*
X155698000Y-86253409D02*
X155698000Y-86253409D01*
X155698000Y-86456609D02*
X155106879Y-86456609D01*
X155698000Y-86659809D02*
X154903679Y-86659809D01*
X155698000Y-86863009D02*
X154700479Y-86863009D01*
X155698000Y-87066209D02*
X154497279Y-87066209D01*
X155698000Y-87269409D02*
X154554937Y-87269409D01*
X155698000Y-87472609D02*
X154748405Y-87472609D01*
X152238406Y-87675809D02*
X149480033Y-87675809D01*
X155698000Y-87675809D02*
X154861595Y-87675809D01*
X152179296Y-87879009D02*
X149592497Y-87879009D01*
X155620691Y-87879009D02*
X154920705Y-87879009D01*
X152249697Y-88082209D02*
X150213760Y-88082209D01*
X153553000Y-88082209D02*
X153547000Y-88082209D01*
X155417491Y-88082209D02*
X154850304Y-88082209D01*
X152190747Y-88285409D02*
X150371354Y-88285409D01*
X153553000Y-88285409D02*
X153547000Y-88285409D01*
X155214291Y-88285409D02*
X154909252Y-88285409D01*
X152261025Y-88488609D02*
X150425253Y-88488609D01*
X153553000Y-88488609D02*
X153547000Y-88488609D01*
X155011091Y-88488609D02*
X154838974Y-88488609D01*
X152387830Y-88691809D02*
X150430083Y-88691809D01*
X153553000Y-88691809D02*
X153547000Y-88691809D01*
X154807891Y-88691809D02*
X154712169Y-88691809D01*
X152598863Y-88895009D02*
X150430083Y-88895009D01*
X153553000Y-88895009D02*
X153547000Y-88895009D01*
X154615868Y-88895009D02*
X154501136Y-88895009D01*
X154498406Y-89098209D02*
X150430083Y-89098209D01*
X154453826Y-89301409D02*
X150430083Y-89301409D01*
X152561960Y-89504609D02*
X150408010Y-89504609D01*
X152285161Y-89707809D02*
X150314069Y-89707809D01*
X152121848Y-89911009D02*
X150152000Y-89911009D01*
X152012730Y-90114209D02*
X150152000Y-90114209D01*
X151949829Y-90317409D02*
X150152000Y-90317409D01*
X151922578Y-90520609D02*
X150152000Y-90520609D01*
X151927227Y-90723809D02*
X150152000Y-90723809D01*
X151794503Y-90927009D02*
X150152000Y-90927009D01*
X151608656Y-91130209D02*
X150152000Y-91130209D01*
X151511662Y-91333409D02*
X150152000Y-91333409D01*
X151474511Y-91536609D02*
X150152000Y-91536609D01*
X151472990Y-91739809D02*
X150139076Y-91739809D01*
X151472990Y-91943009D02*
X150801099Y-91943009D01*
X151472990Y-92146209D02*
X150968306Y-92146209D01*
X151472990Y-92349409D02*
X151029006Y-92349409D01*
X151472990Y-92552609D02*
X151035033Y-92552609D01*
X151472990Y-92755809D02*
X151035033Y-92755809D01*
X151472990Y-92959009D02*
X151035033Y-92959009D01*
X151472990Y-93162209D02*
X151035033Y-93162209D01*
X151472990Y-93365409D02*
X151035033Y-93365409D01*
X151133686Y-93568609D02*
X151035033Y-93568609D01*
X151472990Y-93568609D02*
X151355859Y-93568609D01*
X151453000Y-93771809D02*
X151447000Y-93771809D01*
X151453000Y-93975009D02*
X151447000Y-93975009D01*
X151453000Y-94178209D02*
X151447000Y-94178209D01*
X144030490Y-85022977D02*
X144030490Y-85022977D01*
X144233690Y-85226177D02*
X143912000Y-85226177D01*
X144436890Y-85429377D02*
X143911979Y-85429377D01*
X144640090Y-85632577D02*
X143879764Y-85632577D01*
X144843290Y-85835777D02*
X143789708Y-85835777D01*
X144911926Y-86038977D02*
X143945849Y-86038977D01*
X144751214Y-86242177D02*
X144110029Y-86242177D01*
X144649922Y-86445377D02*
X144211110Y-86445377D01*
X144593327Y-86648577D02*
X144267785Y-86648577D01*
X144573000Y-86851777D02*
X144287000Y-86851777D01*
X144592563Y-87054977D02*
X144266274Y-87054977D01*
X144649963Y-87258177D02*
X144208950Y-87258177D01*
X144751861Y-87461377D02*
X144106832Y-87461377D01*
X144918447Y-87664577D02*
X143943654Y-87664577D01*
X145214045Y-87867777D02*
X143912000Y-87867777D01*
X145898005Y-88070977D02*
X143912000Y-88070977D01*
X145898005Y-88274177D02*
X143912000Y-88274177D01*
X145898005Y-88477377D02*
X143990865Y-88477377D01*
X145169810Y-88680577D02*
X144194065Y-88680577D01*
X145703000Y-88680577D02*
X145697000Y-88680577D01*
X144975935Y-88883777D02*
X144397265Y-88883777D01*
X145703000Y-88883777D02*
X145697000Y-88883777D01*
X144867071Y-89086977D02*
X144600465Y-89086977D01*
X145703000Y-89086977D02*
X145697000Y-89086977D01*
X144850175Y-89290177D02*
X144803665Y-89290177D01*
X145703000Y-89290177D02*
X145697000Y-89290177D01*
X145703000Y-89493377D02*
X145697000Y-89493377D01*
X145703000Y-89696577D02*
X145697000Y-89696577D01*
X145703000Y-89899777D02*
X145697000Y-89899777D01*
X145703000Y-90102977D02*
X145697000Y-90102977D01*
X145880335Y-90306177D02*
X145452000Y-90306177D01*
X145691942Y-90509377D02*
X145452000Y-90509377D01*
X145586509Y-90712577D02*
X145452000Y-90712577D01*
X145546296Y-90915777D02*
X145452000Y-90915777D01*
X145543000Y-91118977D02*
X145452000Y-91118977D01*
X145543000Y-91322177D02*
X145452000Y-91322177D01*
X145543000Y-91525377D02*
X145452000Y-91525377D01*
X145543000Y-91728577D02*
X145452000Y-91728577D01*
X145543000Y-91931777D02*
X145452000Y-91931777D01*
X148449675Y-89647856D02*
X148449675Y-89647856D01*
X148627054Y-89851056D02*
X148317000Y-89851056D01*
X148648000Y-90054256D02*
X148317000Y-90054256D01*
X148453464Y-90257456D02*
X148446536Y-90257456D01*
X148453000Y-90460656D02*
X148447000Y-90460656D01*
X148453000Y-90663856D02*
X148447000Y-90663856D01*
X148453000Y-90867056D02*
X148447000Y-90867056D01*
X161773000Y-83777000D02*
X156470490Y-83777000D01*
X161773000Y-83980200D02*
X156673690Y-83980200D01*
X157077435Y-84183400D02*
X156876890Y-84183400D01*
X160528434Y-84183400D02*
X158322233Y-84183400D01*
X158367643Y-84386600D02*
X158359157Y-84386600D01*
X160271759Y-84386600D02*
X158449916Y-84386600D01*
X158164443Y-84589800D02*
X158155957Y-84589800D01*
X160108252Y-84589800D02*
X158657134Y-84589800D01*
X157961243Y-84793000D02*
X157952757Y-84793000D01*
X160000691Y-84793000D02*
X158730537Y-84793000D01*
X157758043Y-84996200D02*
X157749557Y-84996200D01*
X159933430Y-84996200D02*
X158760701Y-84996200D01*
X159899222Y-85199400D02*
X158751461Y-85199400D01*
X159896385Y-85402600D02*
X158701788Y-85402600D01*
X159830712Y-85605800D02*
X158605286Y-85605800D01*
X159627512Y-85809000D02*
X158637240Y-85809000D01*
X159424312Y-86012200D02*
X158882948Y-86012200D01*
X159221112Y-86215400D02*
X158978567Y-86215400D01*
X159017912Y-86418600D02*
X159005033Y-86418600D01*
X144948000Y-85940487D02*
X144948000Y-86009973D01*
X144911479Y-86039336D01*
X144770097Y-86207829D01*
X144664134Y-86400574D01*
X144597628Y-86610231D01*
X144573110Y-86828812D01*
X144573000Y-86844547D01*
X144573000Y-86855453D01*
X144594464Y-87074355D01*
X144658037Y-87284919D01*
X144761298Y-87479125D01*
X144900314Y-87649576D01*
X145069790Y-87789778D01*
X145263270Y-87894393D01*
X145473385Y-87959434D01*
X145692132Y-87982426D01*
X145899463Y-87963557D01*
X145898078Y-87975905D01*
X145898024Y-87983640D01*
X145898010Y-87983780D01*
X145898022Y-87983911D01*
X145898005Y-87986405D01*
X145898005Y-88525591D01*
X145841720Y-88514395D01*
X145703000Y-88599756D01*
X145703000Y-89387000D01*
X145723000Y-89387000D01*
X145723000Y-89393000D01*
X145703000Y-89393000D01*
X145703000Y-90180244D01*
X145841720Y-90265605D01*
X145898005Y-90254409D01*
X145898005Y-90288507D01*
X145763256Y-90423256D01*
X145719174Y-90476922D01*
X145674515Y-90530145D01*
X145672610Y-90533611D01*
X145670100Y-90536666D01*
X145637280Y-90597875D01*
X145603810Y-90658756D01*
X145602614Y-90662526D01*
X145600746Y-90666010D01*
X145580438Y-90732434D01*
X145559433Y-90798650D01*
X145558992Y-90802579D01*
X145557836Y-90806361D01*
X145550820Y-90875439D01*
X145543073Y-90944500D01*
X145543019Y-90952235D01*
X145543005Y-90952375D01*
X145543017Y-90952506D01*
X145543000Y-90955000D01*
X145543000Y-91993713D01*
X145462766Y-92087852D01*
X145452000Y-92111736D01*
X145452000Y-90250000D01*
X145450797Y-90237734D01*
X145495853Y-90253187D01*
X145558280Y-90265605D01*
X145697000Y-90180244D01*
X145697000Y-89393000D01*
X145677000Y-89393000D01*
X145677000Y-89387000D01*
X145697000Y-89387000D01*
X145697000Y-88599756D01*
X145558280Y-88514395D01*
X145495853Y-88526813D01*
X145331376Y-88583226D01*
X145181065Y-88670643D01*
X145050697Y-88785704D01*
X144945281Y-88923988D01*
X144868868Y-89080181D01*
X144824395Y-89248280D01*
X144909754Y-89386998D01*
X144900486Y-89386998D01*
X143912000Y-88398512D01*
X143912000Y-87690027D01*
X143948521Y-87660664D01*
X144089903Y-87492171D01*
X144195866Y-87299426D01*
X144262372Y-87089769D01*
X144286890Y-86871188D01*
X144287000Y-86855453D01*
X144287000Y-86844547D01*
X144265536Y-86625645D01*
X144201963Y-86415081D01*
X144098702Y-86220875D01*
X143959686Y-86050424D01*
X143790210Y-85910222D01*
X143749490Y-85888205D01*
X143780485Y-85851266D01*
X143782390Y-85847801D01*
X143784900Y-85844745D01*
X143817739Y-85783501D01*
X143851190Y-85722655D01*
X143852385Y-85718889D01*
X143854255Y-85715401D01*
X143874577Y-85648931D01*
X143895567Y-85582761D01*
X143896008Y-85578832D01*
X143897164Y-85575050D01*
X143904185Y-85505932D01*
X143911927Y-85436911D01*
X143911981Y-85429186D01*
X143911996Y-85429035D01*
X143911983Y-85428895D01*
X143912000Y-85426411D01*
X143912000Y-85150027D01*
X143948521Y-85120664D01*
X144030490Y-85022977D01*
X144948000Y-85940487D01*
X161773000Y-101030588D02*
X161773000Y-101030588D01*
X161773000Y-101233788D02*
X161578770Y-101233788D01*
X161773000Y-101436988D02*
X161375570Y-101436988D01*
X161773000Y-101640188D02*
X161172370Y-101640188D01*
X161773000Y-101843388D02*
X160969170Y-101843388D01*
X161773000Y-102046588D02*
X160765970Y-102046588D01*
X161773000Y-102249788D02*
X160562770Y-102249788D01*
X161773000Y-102452988D02*
X160359570Y-102452988D01*
X161773000Y-102656188D02*
X160156370Y-102656188D01*
X161773000Y-102859388D02*
X159953170Y-102859388D01*
X161773000Y-103062588D02*
X159749970Y-103062588D01*
X161773000Y-103265788D02*
X159546770Y-103265788D01*
X161773000Y-103468988D02*
X159343570Y-103468988D01*
X161773000Y-103672188D02*
X159140370Y-103672188D01*
X161773000Y-103875388D02*
X158937170Y-103875388D01*
X161773000Y-104078588D02*
X158733970Y-104078588D01*
X161773000Y-104281788D02*
X158530770Y-104281788D01*
X161773000Y-104484988D02*
X158327570Y-104484988D01*
X161773000Y-104688188D02*
X158124370Y-104688188D01*
X161773000Y-104891388D02*
X157921170Y-104891388D01*
X161773000Y-105094588D02*
X157717970Y-105094588D01*
X161773000Y-105297788D02*
X157514770Y-105297788D01*
X161773000Y-105500988D02*
X157311570Y-105500988D01*
X161773000Y-105704188D02*
X157108370Y-105704188D01*
X161773000Y-105907388D02*
X156905170Y-105907388D01*
X161773000Y-106110588D02*
X156701970Y-106110588D01*
X161773000Y-106313788D02*
X156498770Y-106313788D01*
X161773000Y-106516988D02*
X156295570Y-106516988D01*
X161773000Y-106720188D02*
X156092370Y-106720188D01*
X161773000Y-106923388D02*
X155889170Y-106923388D01*
X161773000Y-107126588D02*
X155685970Y-107126588D01*
X161773000Y-107329788D02*
X155482770Y-107329788D01*
X150892740Y-107532988D02*
X150729185Y-107532988D01*
X161773000Y-107532988D02*
X155279570Y-107532988D01*
X151095940Y-107736188D02*
X150597822Y-107736188D01*
X161773000Y-107736188D02*
X155076370Y-107736188D01*
X151373701Y-107939388D02*
X150636689Y-107939388D01*
X161773000Y-107939388D02*
X154796695Y-107939388D01*
X161773000Y-108142588D02*
X150733162Y-108142588D01*
X161773000Y-108345788D02*
X150737000Y-108345788D01*
X150053000Y-108548988D02*
X150047000Y-108548988D01*
X154066960Y-108548988D02*
X150736238Y-108548988D01*
X161773000Y-108548988D02*
X155329131Y-108548988D01*
X150053000Y-108752188D02*
X150047000Y-108752188D01*
X153773231Y-108752188D02*
X150734200Y-108752188D01*
X161773000Y-108752188D02*
X155628358Y-108752188D01*
X139341900Y-108955388D02*
X139227000Y-108955388D01*
X150053000Y-108955388D02*
X150047000Y-108955388D01*
X153585146Y-108955388D02*
X150641912Y-108955388D01*
X161773000Y-108955388D02*
X155816142Y-108955388D01*
X139545100Y-109158588D02*
X139227000Y-109158588D01*
X153454939Y-109158588D02*
X149678731Y-109158588D01*
X157466351Y-109158588D02*
X155946706Y-109158588D01*
X161773000Y-109158588D02*
X158736243Y-109158588D01*
X139748300Y-109361788D02*
X139227000Y-109361788D01*
X153367847Y-109361788D02*
X149578409Y-109361788D01*
X157197096Y-109361788D02*
X156030459Y-109361788D01*
X161773000Y-109361788D02*
X161059089Y-109361788D01*
X139951500Y-109564988D02*
X139227000Y-109564988D01*
X153321683Y-109564988D02*
X149398500Y-109564988D01*
X157025241Y-109564988D02*
X156077649Y-109564988D01*
X161773000Y-109564988D02*
X161157645Y-109564988D01*
X140154700Y-109768188D02*
X139227000Y-109768188D01*
X153303249Y-109768188D02*
X149195300Y-109768188D01*
X156911326Y-109768188D02*
X156095590Y-109768188D01*
X161773000Y-109768188D02*
X161162000Y-109768188D01*
X140361084Y-109971388D02*
X139227000Y-109971388D01*
X153311060Y-109971388D02*
X148992100Y-109971388D01*
X156838704Y-109971388D02*
X156092753Y-109971388D01*
X161773000Y-109971388D02*
X161162000Y-109971388D01*
X140843656Y-110174588D02*
X139227000Y-110174588D01*
X153348355Y-110174588D02*
X148788900Y-110174588D01*
X156799568Y-110174588D02*
X156047557Y-110174588D01*
X161773000Y-110174588D02*
X161162000Y-110174588D01*
X146836033Y-110377788D02*
X139227000Y-110377788D01*
X153426187Y-110377788D02*
X148585700Y-110377788D01*
X156796731Y-110377788D02*
X155972023Y-110377788D01*
X161773000Y-110377788D02*
X161140038Y-110377788D01*
X147002724Y-110580988D02*
X139227000Y-110580988D01*
X153541267Y-110580988D02*
X148403712Y-110580988D01*
X156827766Y-110580988D02*
X155858757Y-110580988D01*
X161773000Y-110580988D02*
X161162000Y-110580988D01*
X153708278Y-110784188D02*
X139227000Y-110784188D01*
X156891307Y-110784188D02*
X155692341Y-110784188D01*
X161773000Y-110784188D02*
X161162000Y-110784188D01*
X153553000Y-103277000D02*
X153547000Y-103277000D01*
X150803000Y-101160489D02*
X150803000Y-101160489D01*
X150803000Y-101363689D02*
X150797000Y-101363689D01*
X150803000Y-101566889D02*
X150797000Y-101566889D01*
X150882839Y-101770089D02*
X150717161Y-101770089D01*
X150713223Y-101973289D02*
X150376321Y-101973289D01*
X150510023Y-102176489D02*
X150236062Y-102176489D01*
X145452000Y-94184605D02*
X145452000Y-94184605D01*
X145635055Y-94387805D02*
X145452000Y-94387805D01*
X150813000Y-94387805D02*
X150760427Y-94387805D01*
X150771616Y-94591005D02*
X145452000Y-94591005D01*
X150631095Y-94794205D02*
X145452000Y-94794205D01*
X150577442Y-94997405D02*
X145452000Y-94997405D01*
X150569967Y-95200605D02*
X145452000Y-95200605D01*
X150382707Y-95403805D02*
X145452000Y-95403805D01*
X150179507Y-95607005D02*
X145452000Y-95607005D01*
X149976307Y-95810205D02*
X145452000Y-95810205D01*
X149773107Y-96013405D02*
X145452000Y-96013405D01*
X149569907Y-96216605D02*
X145452000Y-96216605D01*
X149366707Y-96419805D02*
X145452000Y-96419805D01*
X149163507Y-96623005D02*
X145452000Y-96623005D01*
X148960307Y-96826205D02*
X145452000Y-96826205D01*
X148757107Y-97029405D02*
X145452000Y-97029405D01*
X148553907Y-97232605D02*
X145452000Y-97232605D01*
X148350707Y-97435805D02*
X145452000Y-97435805D01*
X148187399Y-97639005D02*
X145452000Y-97639005D01*
X145768326Y-97842205D02*
X145452000Y-97842205D01*
X148104650Y-97842205D02*
X146819982Y-97842205D01*
X145498944Y-98045405D02*
X145452000Y-98045405D01*
X147189656Y-98045405D02*
X147091880Y-98045405D01*
X147657345Y-98045405D02*
X147472655Y-98045405D01*
X148038943Y-98045405D02*
X147940345Y-98045405D01*
X147568000Y-98248605D02*
X147562000Y-98248605D01*
X147568000Y-98451805D02*
X147562000Y-98451805D01*
X147568000Y-98655005D02*
X147562000Y-98655005D01*
X147568000Y-98858205D02*
X147562000Y-98858205D01*
X147568000Y-99061405D02*
X147562000Y-99061405D01*
X155698000Y-86253409D02*
X155698000Y-86253409D01*
X155698000Y-86456609D02*
X155106879Y-86456609D01*
X155698000Y-86659809D02*
X154903679Y-86659809D01*
X155698000Y-86863009D02*
X154700479Y-86863009D01*
X155698000Y-87066209D02*
X154497279Y-87066209D01*
X155698000Y-87269409D02*
X154554937Y-87269409D01*
X155698000Y-87472609D02*
X154748405Y-87472609D01*
X152238406Y-87675809D02*
X149480033Y-87675809D01*
X155698000Y-87675809D02*
X154861595Y-87675809D01*
X152179296Y-87879009D02*
X149592497Y-87879009D01*
X155620691Y-87879009D02*
X154920705Y-87879009D01*
X152249697Y-88082209D02*
X150213760Y-88082209D01*
X153553000Y-88082209D02*
X153547000Y-88082209D01*
X155417491Y-88082209D02*
X154850304Y-88082209D01*
X152190747Y-88285409D02*
X150371354Y-88285409D01*
X153553000Y-88285409D02*
X153547000Y-88285409D01*
X155214291Y-88285409D02*
X154909252Y-88285409D01*
X152261025Y-88488609D02*
X150425253Y-88488609D01*
X153553000Y-88488609D02*
X153547000Y-88488609D01*
X155011091Y-88488609D02*
X154838974Y-88488609D01*
X152387830Y-88691809D02*
X150430083Y-88691809D01*
X153553000Y-88691809D02*
X153547000Y-88691809D01*
X154807891Y-88691809D02*
X154712169Y-88691809D01*
X152598863Y-88895009D02*
X150430083Y-88895009D01*
X153553000Y-88895009D02*
X153547000Y-88895009D01*
X154615868Y-88895009D02*
X154501136Y-88895009D01*
X154498406Y-89098209D02*
X150430083Y-89098209D01*
X154453826Y-89301409D02*
X150430083Y-89301409D01*
X152561960Y-89504609D02*
X150408010Y-89504609D01*
X152285161Y-89707809D02*
X150314069Y-89707809D01*
X152121848Y-89911009D02*
X150152000Y-89911009D01*
X152012730Y-90114209D02*
X150152000Y-90114209D01*
X151949829Y-90317409D02*
X150152000Y-90317409D01*
X151922578Y-90520609D02*
X150152000Y-90520609D01*
X151927227Y-90723809D02*
X150152000Y-90723809D01*
X151794503Y-90927009D02*
X150152000Y-90927009D01*
X151608656Y-91130209D02*
X150152000Y-91130209D01*
X151511662Y-91333409D02*
X150152000Y-91333409D01*
X151474511Y-91536609D02*
X150152000Y-91536609D01*
X151472990Y-91739809D02*
X150139076Y-91739809D01*
X151472990Y-91943009D02*
X150801099Y-91943009D01*
X151472990Y-92146209D02*
X150968306Y-92146209D01*
X151472990Y-92349409D02*
X151029006Y-92349409D01*
X151472990Y-92552609D02*
X151035033Y-92552609D01*
X151472990Y-92755809D02*
X151035033Y-92755809D01*
X151472990Y-92959009D02*
X151035033Y-92959009D01*
X151472990Y-93162209D02*
X151035033Y-93162209D01*
X151472990Y-93365409D02*
X151035033Y-93365409D01*
X151133686Y-93568609D02*
X151035033Y-93568609D01*
X151472990Y-93568609D02*
X151355859Y-93568609D01*
X151453000Y-93771809D02*
X151447000Y-93771809D01*
X151453000Y-93975009D02*
X151447000Y-93975009D01*
X151453000Y-94178209D02*
X151447000Y-94178209D01*
X144030490Y-85022977D02*
X144030490Y-85022977D01*
X144233690Y-85226177D02*
X143912000Y-85226177D01*
X144436890Y-85429377D02*
X143911979Y-85429377D01*
X144640090Y-85632577D02*
X143879764Y-85632577D01*
X144843290Y-85835777D02*
X143789708Y-85835777D01*
X144911926Y-86038977D02*
X143945849Y-86038977D01*
X144751214Y-86242177D02*
X144110029Y-86242177D01*
X144649922Y-86445377D02*
X144211110Y-86445377D01*
X144593327Y-86648577D02*
X144267785Y-86648577D01*
X144573000Y-86851777D02*
X144287000Y-86851777D01*
X144592563Y-87054977D02*
X144266274Y-87054977D01*
X144649963Y-87258177D02*
X144208950Y-87258177D01*
X144751861Y-87461377D02*
X144106832Y-87461377D01*
X144918447Y-87664577D02*
X143943654Y-87664577D01*
X145214045Y-87867777D02*
X143912000Y-87867777D01*
X145898005Y-88070977D02*
X143912000Y-88070977D01*
X145898005Y-88274177D02*
X143912000Y-88274177D01*
X145898005Y-88477377D02*
X143990865Y-88477377D01*
X145169810Y-88680577D02*
X144194065Y-88680577D01*
X145703000Y-88680577D02*
X145697000Y-88680577D01*
X144975935Y-88883777D02*
X144397265Y-88883777D01*
X145703000Y-88883777D02*
X145697000Y-88883777D01*
X144867071Y-89086977D02*
X144600465Y-89086977D01*
X145703000Y-89086977D02*
X145697000Y-89086977D01*
X144850175Y-89290177D02*
X144803665Y-89290177D01*
X145703000Y-89290177D02*
X145697000Y-89290177D01*
X145703000Y-89493377D02*
X145697000Y-89493377D01*
X145703000Y-89696577D02*
X145697000Y-89696577D01*
X145703000Y-89899777D02*
X145697000Y-89899777D01*
X145703000Y-90102977D02*
X145697000Y-90102977D01*
X145880335Y-90306177D02*
X145452000Y-90306177D01*
X145691942Y-90509377D02*
X145452000Y-90509377D01*
X145586509Y-90712577D02*
X145452000Y-90712577D01*
X145546296Y-90915777D02*
X145452000Y-90915777D01*
X145543000Y-91118977D02*
X145452000Y-91118977D01*
X145543000Y-91322177D02*
X145452000Y-91322177D01*
X145543000Y-91525377D02*
X145452000Y-91525377D01*
X145543000Y-91728577D02*
X145452000Y-91728577D01*
X145543000Y-91931777D02*
X145452000Y-91931777D01*
X148449675Y-89647856D02*
X148449675Y-89647856D01*
X148627054Y-89851056D02*
X148317000Y-89851056D01*
X148648000Y-90054256D02*
X148317000Y-90054256D01*
X148453464Y-90257456D02*
X148446536Y-90257456D01*
X148453000Y-90460656D02*
X148447000Y-90460656D01*
X148453000Y-90663856D02*
X148447000Y-90663856D01*
X148453000Y-90867056D02*
X148447000Y-90867056D01*
X161773000Y-83777000D02*
X156470490Y-83777000D01*
X161773000Y-83980200D02*
X156673690Y-83980200D01*
X157077435Y-84183400D02*
X156876890Y-84183400D01*
X160528434Y-84183400D02*
X158322233Y-84183400D01*
X158367643Y-84386600D02*
X158359157Y-84386600D01*
X160271759Y-84386600D02*
X158449916Y-84386600D01*
X158164443Y-84589800D02*
X158155957Y-84589800D01*
X160108252Y-84589800D02*
X158657134Y-84589800D01*
X157961243Y-84793000D02*
X157952757Y-84793000D01*
X160000691Y-84793000D02*
X158730537Y-84793000D01*
X157758043Y-84996200D02*
X157749557Y-84996200D01*
X159933430Y-84996200D02*
X158760701Y-84996200D01*
X159899222Y-85199400D02*
X158751461Y-85199400D01*
X159896385Y-85402600D02*
X158701788Y-85402600D01*
X159830712Y-85605800D02*
X158605286Y-85605800D01*
X159627512Y-85809000D02*
X158637240Y-85809000D01*
X159424312Y-86012200D02*
X158882948Y-86012200D01*
X159221112Y-86215400D02*
X158978567Y-86215400D01*
X159017912Y-86418600D02*
X159005033Y-86418600D01*
X148527873Y-89766525D02*
X148648000Y-89868908D01*
X148648000Y-90161170D01*
X148549750Y-90161170D01*
X148453000Y-90257920D01*
X148453000Y-90945220D01*
X148473000Y-90945220D01*
X148473000Y-90951220D01*
X148453000Y-90951220D01*
X148453000Y-90971220D01*
X148447000Y-90971220D01*
X148447000Y-90951220D01*
X148427000Y-90951220D01*
X148427000Y-90945220D01*
X148447000Y-90945220D01*
X148447000Y-90257920D01*
X148350250Y-90161170D01*
X148317000Y-90161170D01*
X148317000Y-89821555D01*
X148317285Y-89821367D01*
X148432284Y-89686438D01*
X148449675Y-89647856D01*
X148527873Y-89766525D01*
X161773000Y-101030588D02*
X161773000Y-101030588D01*
X161773000Y-101233788D02*
X161578770Y-101233788D01*
X161773000Y-101436988D02*
X161375570Y-101436988D01*
X161773000Y-101640188D02*
X161172370Y-101640188D01*
X161773000Y-101843388D02*
X160969170Y-101843388D01*
X161773000Y-102046588D02*
X160765970Y-102046588D01*
X161773000Y-102249788D02*
X160562770Y-102249788D01*
X161773000Y-102452988D02*
X160359570Y-102452988D01*
X161773000Y-102656188D02*
X160156370Y-102656188D01*
X161773000Y-102859388D02*
X159953170Y-102859388D01*
X161773000Y-103062588D02*
X159749970Y-103062588D01*
X161773000Y-103265788D02*
X159546770Y-103265788D01*
X161773000Y-103468988D02*
X159343570Y-103468988D01*
X161773000Y-103672188D02*
X159140370Y-103672188D01*
X161773000Y-103875388D02*
X158937170Y-103875388D01*
X161773000Y-104078588D02*
X158733970Y-104078588D01*
X161773000Y-104281788D02*
X158530770Y-104281788D01*
X161773000Y-104484988D02*
X158327570Y-104484988D01*
X161773000Y-104688188D02*
X158124370Y-104688188D01*
X161773000Y-104891388D02*
X157921170Y-104891388D01*
X161773000Y-105094588D02*
X157717970Y-105094588D01*
X161773000Y-105297788D02*
X157514770Y-105297788D01*
X161773000Y-105500988D02*
X157311570Y-105500988D01*
X161773000Y-105704188D02*
X157108370Y-105704188D01*
X161773000Y-105907388D02*
X156905170Y-105907388D01*
X161773000Y-106110588D02*
X156701970Y-106110588D01*
X161773000Y-106313788D02*
X156498770Y-106313788D01*
X161773000Y-106516988D02*
X156295570Y-106516988D01*
X161773000Y-106720188D02*
X156092370Y-106720188D01*
X161773000Y-106923388D02*
X155889170Y-106923388D01*
X161773000Y-107126588D02*
X155685970Y-107126588D01*
X161773000Y-107329788D02*
X155482770Y-107329788D01*
X150892740Y-107532988D02*
X150729185Y-107532988D01*
X161773000Y-107532988D02*
X155279570Y-107532988D01*
X151095940Y-107736188D02*
X150597822Y-107736188D01*
X161773000Y-107736188D02*
X155076370Y-107736188D01*
X151373701Y-107939388D02*
X150636689Y-107939388D01*
X161773000Y-107939388D02*
X154796695Y-107939388D01*
X161773000Y-108142588D02*
X150733162Y-108142588D01*
X161773000Y-108345788D02*
X150737000Y-108345788D01*
X150053000Y-108548988D02*
X150047000Y-108548988D01*
X154066960Y-108548988D02*
X150736238Y-108548988D01*
X161773000Y-108548988D02*
X155329131Y-108548988D01*
X150053000Y-108752188D02*
X150047000Y-108752188D01*
X153773231Y-108752188D02*
X150734200Y-108752188D01*
X161773000Y-108752188D02*
X155628358Y-108752188D01*
X139341900Y-108955388D02*
X139227000Y-108955388D01*
X150053000Y-108955388D02*
X150047000Y-108955388D01*
X153585146Y-108955388D02*
X150641912Y-108955388D01*
X161773000Y-108955388D02*
X155816142Y-108955388D01*
X139545100Y-109158588D02*
X139227000Y-109158588D01*
X153454939Y-109158588D02*
X149678731Y-109158588D01*
X157466351Y-109158588D02*
X155946706Y-109158588D01*
X161773000Y-109158588D02*
X158736243Y-109158588D01*
X139748300Y-109361788D02*
X139227000Y-109361788D01*
X153367847Y-109361788D02*
X149578409Y-109361788D01*
X157197096Y-109361788D02*
X156030459Y-109361788D01*
X161773000Y-109361788D02*
X161059089Y-109361788D01*
X139951500Y-109564988D02*
X139227000Y-109564988D01*
X153321683Y-109564988D02*
X149398500Y-109564988D01*
X157025241Y-109564988D02*
X156077649Y-109564988D01*
X161773000Y-109564988D02*
X161157645Y-109564988D01*
X140154700Y-109768188D02*
X139227000Y-109768188D01*
X153303249Y-109768188D02*
X149195300Y-109768188D01*
X156911326Y-109768188D02*
X156095590Y-109768188D01*
X161773000Y-109768188D02*
X161162000Y-109768188D01*
X140361084Y-109971388D02*
X139227000Y-109971388D01*
X153311060Y-109971388D02*
X148992100Y-109971388D01*
X156838704Y-109971388D02*
X156092753Y-109971388D01*
X161773000Y-109971388D02*
X161162000Y-109971388D01*
X140843656Y-110174588D02*
X139227000Y-110174588D01*
X153348355Y-110174588D02*
X148788900Y-110174588D01*
X156799568Y-110174588D02*
X156047557Y-110174588D01*
X161773000Y-110174588D02*
X161162000Y-110174588D01*
X146836033Y-110377788D02*
X139227000Y-110377788D01*
X153426187Y-110377788D02*
X148585700Y-110377788D01*
X156796731Y-110377788D02*
X155972023Y-110377788D01*
X161773000Y-110377788D02*
X161140038Y-110377788D01*
X147002724Y-110580988D02*
X139227000Y-110580988D01*
X153541267Y-110580988D02*
X148403712Y-110580988D01*
X156827766Y-110580988D02*
X155858757Y-110580988D01*
X161773000Y-110580988D02*
X161162000Y-110580988D01*
X153708278Y-110784188D02*
X139227000Y-110784188D01*
X156891307Y-110784188D02*
X155692341Y-110784188D01*
X161773000Y-110784188D02*
X161162000Y-110784188D01*
X153553000Y-103277000D02*
X153547000Y-103277000D01*
X150803000Y-101160489D02*
X150803000Y-101160489D01*
X150803000Y-101363689D02*
X150797000Y-101363689D01*
X150803000Y-101566889D02*
X150797000Y-101566889D01*
X150882839Y-101770089D02*
X150717161Y-101770089D01*
X150713223Y-101973289D02*
X150376321Y-101973289D01*
X150510023Y-102176489D02*
X150236062Y-102176489D01*
X145452000Y-94184605D02*
X145452000Y-94184605D01*
X145635055Y-94387805D02*
X145452000Y-94387805D01*
X150813000Y-94387805D02*
X150760427Y-94387805D01*
X150771616Y-94591005D02*
X145452000Y-94591005D01*
X150631095Y-94794205D02*
X145452000Y-94794205D01*
X150577442Y-94997405D02*
X145452000Y-94997405D01*
X150569967Y-95200605D02*
X145452000Y-95200605D01*
X150382707Y-95403805D02*
X145452000Y-95403805D01*
X150179507Y-95607005D02*
X145452000Y-95607005D01*
X149976307Y-95810205D02*
X145452000Y-95810205D01*
X149773107Y-96013405D02*
X145452000Y-96013405D01*
X149569907Y-96216605D02*
X145452000Y-96216605D01*
X149366707Y-96419805D02*
X145452000Y-96419805D01*
X149163507Y-96623005D02*
X145452000Y-96623005D01*
X148960307Y-96826205D02*
X145452000Y-96826205D01*
X148757107Y-97029405D02*
X145452000Y-97029405D01*
X148553907Y-97232605D02*
X145452000Y-97232605D01*
X148350707Y-97435805D02*
X145452000Y-97435805D01*
X148187399Y-97639005D02*
X145452000Y-97639005D01*
X145768326Y-97842205D02*
X145452000Y-97842205D01*
X148104650Y-97842205D02*
X146819982Y-97842205D01*
X145498944Y-98045405D02*
X145452000Y-98045405D01*
X147189656Y-98045405D02*
X147091880Y-98045405D01*
X147657345Y-98045405D02*
X147472655Y-98045405D01*
X148038943Y-98045405D02*
X147940345Y-98045405D01*
X147568000Y-98248605D02*
X147562000Y-98248605D01*
X147568000Y-98451805D02*
X147562000Y-98451805D01*
X147568000Y-98655005D02*
X147562000Y-98655005D01*
X147568000Y-98858205D02*
X147562000Y-98858205D01*
X147568000Y-99061405D02*
X147562000Y-99061405D01*
X155698000Y-86253409D02*
X155698000Y-86253409D01*
X155698000Y-86456609D02*
X155106879Y-86456609D01*
X155698000Y-86659809D02*
X154903679Y-86659809D01*
X155698000Y-86863009D02*
X154700479Y-86863009D01*
X155698000Y-87066209D02*
X154497279Y-87066209D01*
X155698000Y-87269409D02*
X154554937Y-87269409D01*
X155698000Y-87472609D02*
X154748405Y-87472609D01*
X152238406Y-87675809D02*
X149480033Y-87675809D01*
X155698000Y-87675809D02*
X154861595Y-87675809D01*
X152179296Y-87879009D02*
X149592497Y-87879009D01*
X155620691Y-87879009D02*
X154920705Y-87879009D01*
X152249697Y-88082209D02*
X150213760Y-88082209D01*
X153553000Y-88082209D02*
X153547000Y-88082209D01*
X155417491Y-88082209D02*
X154850304Y-88082209D01*
X152190747Y-88285409D02*
X150371354Y-88285409D01*
X153553000Y-88285409D02*
X153547000Y-88285409D01*
X155214291Y-88285409D02*
X154909252Y-88285409D01*
X152261025Y-88488609D02*
X150425253Y-88488609D01*
X153553000Y-88488609D02*
X153547000Y-88488609D01*
X155011091Y-88488609D02*
X154838974Y-88488609D01*
X152387830Y-88691809D02*
X150430083Y-88691809D01*
X153553000Y-88691809D02*
X153547000Y-88691809D01*
X154807891Y-88691809D02*
X154712169Y-88691809D01*
X152598863Y-88895009D02*
X150430083Y-88895009D01*
X153553000Y-88895009D02*
X153547000Y-88895009D01*
X154615868Y-88895009D02*
X154501136Y-88895009D01*
X154498406Y-89098209D02*
X150430083Y-89098209D01*
X154453826Y-89301409D02*
X150430083Y-89301409D01*
X152561960Y-89504609D02*
X150408010Y-89504609D01*
X152285161Y-89707809D02*
X150314069Y-89707809D01*
X152121848Y-89911009D02*
X150152000Y-89911009D01*
X152012730Y-90114209D02*
X150152000Y-90114209D01*
X151949829Y-90317409D02*
X150152000Y-90317409D01*
X151922578Y-90520609D02*
X150152000Y-90520609D01*
X151927227Y-90723809D02*
X150152000Y-90723809D01*
X151794503Y-90927009D02*
X150152000Y-90927009D01*
X151608656Y-91130209D02*
X150152000Y-91130209D01*
X151511662Y-91333409D02*
X150152000Y-91333409D01*
X151474511Y-91536609D02*
X150152000Y-91536609D01*
X151472990Y-91739809D02*
X150139076Y-91739809D01*
X151472990Y-91943009D02*
X150801099Y-91943009D01*
X151472990Y-92146209D02*
X150968306Y-92146209D01*
X151472990Y-92349409D02*
X151029006Y-92349409D01*
X151472990Y-92552609D02*
X151035033Y-92552609D01*
X151472990Y-92755809D02*
X151035033Y-92755809D01*
X151472990Y-92959009D02*
X151035033Y-92959009D01*
X151472990Y-93162209D02*
X151035033Y-93162209D01*
X151472990Y-93365409D02*
X151035033Y-93365409D01*
X151133686Y-93568609D02*
X151035033Y-93568609D01*
X151472990Y-93568609D02*
X151355859Y-93568609D01*
X151453000Y-93771809D02*
X151447000Y-93771809D01*
X151453000Y-93975009D02*
X151447000Y-93975009D01*
X151453000Y-94178209D02*
X151447000Y-94178209D01*
X144030490Y-85022977D02*
X144030490Y-85022977D01*
X144233690Y-85226177D02*
X143912000Y-85226177D01*
X144436890Y-85429377D02*
X143911979Y-85429377D01*
X144640090Y-85632577D02*
X143879764Y-85632577D01*
X144843290Y-85835777D02*
X143789708Y-85835777D01*
X144911926Y-86038977D02*
X143945849Y-86038977D01*
X144751214Y-86242177D02*
X144110029Y-86242177D01*
X144649922Y-86445377D02*
X144211110Y-86445377D01*
X144593327Y-86648577D02*
X144267785Y-86648577D01*
X144573000Y-86851777D02*
X144287000Y-86851777D01*
X144592563Y-87054977D02*
X144266274Y-87054977D01*
X144649963Y-87258177D02*
X144208950Y-87258177D01*
X144751861Y-87461377D02*
X144106832Y-87461377D01*
X144918447Y-87664577D02*
X143943654Y-87664577D01*
X145214045Y-87867777D02*
X143912000Y-87867777D01*
X145898005Y-88070977D02*
X143912000Y-88070977D01*
X145898005Y-88274177D02*
X143912000Y-88274177D01*
X145898005Y-88477377D02*
X143990865Y-88477377D01*
X145169810Y-88680577D02*
X144194065Y-88680577D01*
X145703000Y-88680577D02*
X145697000Y-88680577D01*
X144975935Y-88883777D02*
X144397265Y-88883777D01*
X145703000Y-88883777D02*
X145697000Y-88883777D01*
X144867071Y-89086977D02*
X144600465Y-89086977D01*
X145703000Y-89086977D02*
X145697000Y-89086977D01*
X144850175Y-89290177D02*
X144803665Y-89290177D01*
X145703000Y-89290177D02*
X145697000Y-89290177D01*
X145703000Y-89493377D02*
X145697000Y-89493377D01*
X145703000Y-89696577D02*
X145697000Y-89696577D01*
X145703000Y-89899777D02*
X145697000Y-89899777D01*
X145703000Y-90102977D02*
X145697000Y-90102977D01*
X145880335Y-90306177D02*
X145452000Y-90306177D01*
X145691942Y-90509377D02*
X145452000Y-90509377D01*
X145586509Y-90712577D02*
X145452000Y-90712577D01*
X145546296Y-90915777D02*
X145452000Y-90915777D01*
X145543000Y-91118977D02*
X145452000Y-91118977D01*
X145543000Y-91322177D02*
X145452000Y-91322177D01*
X145543000Y-91525377D02*
X145452000Y-91525377D01*
X145543000Y-91728577D02*
X145452000Y-91728577D01*
X145543000Y-91931777D02*
X145452000Y-91931777D01*
X148449675Y-89647856D02*
X148449675Y-89647856D01*
X148627054Y-89851056D02*
X148317000Y-89851056D01*
X148648000Y-90054256D02*
X148317000Y-90054256D01*
X148453464Y-90257456D02*
X148446536Y-90257456D01*
X148453000Y-90460656D02*
X148447000Y-90460656D01*
X148453000Y-90663856D02*
X148447000Y-90663856D01*
X148453000Y-90867056D02*
X148447000Y-90867056D01*
X161773000Y-83777000D02*
X156470490Y-83777000D01*
X161773000Y-83980200D02*
X156673690Y-83980200D01*
X157077435Y-84183400D02*
X156876890Y-84183400D01*
X160528434Y-84183400D02*
X158322233Y-84183400D01*
X158367643Y-84386600D02*
X158359157Y-84386600D01*
X160271759Y-84386600D02*
X158449916Y-84386600D01*
X158164443Y-84589800D02*
X158155957Y-84589800D01*
X160108252Y-84589800D02*
X158657134Y-84589800D01*
X157961243Y-84793000D02*
X157952757Y-84793000D01*
X160000691Y-84793000D02*
X158730537Y-84793000D01*
X157758043Y-84996200D02*
X157749557Y-84996200D01*
X159933430Y-84996200D02*
X158760701Y-84996200D01*
X159899222Y-85199400D02*
X158751461Y-85199400D01*
X159896385Y-85402600D02*
X158701788Y-85402600D01*
X159830712Y-85605800D02*
X158605286Y-85605800D01*
X159627512Y-85809000D02*
X158637240Y-85809000D01*
X159424312Y-86012200D02*
X158882948Y-86012200D01*
X159221112Y-86215400D02*
X158978567Y-86215400D01*
X159017912Y-86418600D02*
X159005033Y-86418600D01*
X161773000Y-84128449D02*
X161586875Y-84050209D01*
X161336755Y-83998867D01*
X161081425Y-83997084D01*
X160830613Y-84044930D01*
X160593870Y-84140580D01*
X160380214Y-84280392D01*
X160197784Y-84459041D01*
X160053528Y-84669722D01*
X159952941Y-84904409D01*
X159899853Y-85154165D01*
X159896288Y-85409476D01*
X159916564Y-85519948D01*
X159005033Y-86431479D01*
X159005033Y-86375000D01*
X158997071Y-86275153D01*
X158944626Y-86105801D01*
X158847077Y-85957765D01*
X158712148Y-85842766D01*
X158550523Y-85769911D01*
X158403223Y-85748978D01*
X158388288Y-85734043D01*
X158565094Y-85674819D01*
X158670367Y-85494042D01*
X158738350Y-85296200D01*
X158766429Y-85088898D01*
X158753527Y-84880101D01*
X158700138Y-84677832D01*
X158608315Y-84489866D01*
X158565094Y-84425181D01*
X158388286Y-84365956D01*
X157704243Y-85050000D01*
X157718385Y-85064142D01*
X157714142Y-85068385D01*
X157700000Y-85054243D01*
X157685858Y-85068385D01*
X157681615Y-85064142D01*
X157695757Y-85050000D01*
X157681615Y-85035858D01*
X157685858Y-85031615D01*
X157700000Y-85045757D01*
X158384044Y-84361714D01*
X158324819Y-84184906D01*
X158144042Y-84079633D01*
X157946200Y-84011650D01*
X157738898Y-83983571D01*
X157530101Y-83996473D01*
X157327832Y-84049862D01*
X157139866Y-84141685D01*
X157075181Y-84184906D01*
X157023592Y-84338917D01*
X156989117Y-84295730D01*
X156983691Y-84290228D01*
X156983597Y-84290113D01*
X156983490Y-84290025D01*
X156981744Y-84288254D01*
X156470490Y-83777000D01*
X161773000Y-83777000D01*
X161773000Y-84128449D01*
M02*
