G04 #@! TF.FileFunction,Soldermask,Bot*
%FSLAX46Y46*%
G04 Gerber Fmt 4.6, Leading zero omitted, Abs format (unit mm)*
G04 Created by KiCad (PCBNEW 4.0.4-stable) date 10/31/16 09:30:40*
%MOMM*%
%LPD*%
G01*
G04 APERTURE LIST*
%ADD10C,0.100000*%
%ADD11R,1.750000X1.750000*%
%ADD12C,1.750000*%
%ADD13R,1.300000X0.900000*%
%ADD14O,2.400000X1.670000*%
%ADD15R,2.100000X1.300000*%
%ADD16R,3.400000X2.000000*%
%ADD17R,1.650000X1.400000*%
%ADD18R,3.900000X2.000000*%
%ADD19R,2.600000X2.600000*%
%ADD20R,0.950000X1.900000*%
%ADD21R,0.900000X1.300000*%
%ADD22R,2.432000X2.127200*%
%ADD23O,2.432000X2.127200*%
%ADD24R,2.000200X3.999180*%
%ADD25C,2.540000*%
%ADD26R,2.000000X1.400000*%
G04 APERTURE END LIST*
D10*
D11*
X161200000Y-97800000D03*
D12*
X161200000Y-95800000D03*
D13*
X151000000Y-105600000D03*
X151000000Y-104100000D03*
X150600000Y-107100000D03*
X150600000Y-108600000D03*
D14*
X153550000Y-105840000D03*
X140850000Y-105840000D03*
X153550000Y-103300000D03*
X140850000Y-103300000D03*
X153550000Y-100760000D03*
X140850000Y-100760000D03*
X153550000Y-98220000D03*
X140850000Y-98220000D03*
X153550000Y-95680000D03*
X140850000Y-95680000D03*
X153550000Y-93140000D03*
X140850000Y-93140000D03*
X153550000Y-90600000D03*
X140850000Y-90600000D03*
X153550000Y-88060000D03*
X140850000Y-88060000D03*
D15*
X143237224Y-104604496D03*
X143237224Y-101704496D03*
D16*
X148437224Y-85954496D03*
X144037224Y-85954496D03*
D17*
X143300000Y-96600000D03*
X143300000Y-98600000D03*
D18*
X150000000Y-92204496D03*
X144600000Y-92204496D03*
D19*
X145737224Y-99554496D03*
X150987224Y-99554496D03*
D13*
X143700000Y-107400000D03*
X143700000Y-108900000D03*
D20*
X145282224Y-109854496D03*
X145282224Y-104454496D03*
X146552224Y-109854496D03*
X146552224Y-104454496D03*
X147822224Y-109854496D03*
X147822224Y-104454496D03*
X149092224Y-109854496D03*
X149092224Y-104454496D03*
D21*
X152450000Y-110150000D03*
X150950000Y-110150000D03*
D22*
X157600000Y-98130000D03*
D23*
X157600000Y-95590000D03*
X157600000Y-93050000D03*
X157600000Y-90510000D03*
D11*
X153200000Y-85050000D03*
D12*
X155200000Y-85050000D03*
D11*
X157700000Y-87050000D03*
D12*
X157700000Y-85050000D03*
D11*
X161200000Y-92300000D03*
D12*
X161200000Y-90300000D03*
D11*
X160100000Y-110300000D03*
D12*
X158100000Y-110300000D03*
D24*
X158100000Y-107150820D03*
X158100000Y-101649180D03*
D25*
X154700000Y-109800000D03*
X140500000Y-84550000D03*
D11*
X161200000Y-87300000D03*
D12*
X161200000Y-85300000D03*
D26*
X151200000Y-88750000D03*
X151200000Y-85750000D03*
M02*
