M48
;DRILL file {KiCad 4.0.4-stable} date 10/31/16 09:30:49
;FORMAT={2:4/ absolute / inch / keep zeros}
FMAT,2
INCH,TZ
T1C0.016
T2C0.031
T3C0.039
T4C0.040
%
G90
G05
M72
T1
X057025Y-034669
X058202Y-033091
X059626Y-038012
X060118Y-037126
T2
X060315Y-033484
X061102Y-033484
X062087Y-033484
X062087Y-034272
X062244Y-043425
X063031Y-043425
X063465Y-033583
X063465Y-034370
X063465Y-035551
X063465Y-036339
X063465Y-037717
X063465Y-038504
T3
X055453Y-034669
X055453Y-035669
X055453Y-036669
X055453Y-037669
X055453Y-038669
X055453Y-039669
X055453Y-040669
X055453Y-041669
X060453Y-034669
X060453Y-035669
X060453Y-036669
X060453Y-037669
X060453Y-038669
X060453Y-039669
X060453Y-040669
X060453Y-041669
T4
X062047Y-035634
X062047Y-036634
X062047Y-037634
X062047Y-038634
T0
M30
