G04 #@! TF.FileFunction,Legend,Top*
%FSLAX46Y46*%
G04 Gerber Fmt 4.6, Leading zero omitted, Abs format (unit mm)*
G04 Created by KiCad (PCBNEW 4.0.4-stable) date 02/16/17 23:31:48*
%MOMM*%
%LPD*%
G01*
G04 APERTURE LIST*
%ADD10C,0.100000*%
%ADD11C,0.150000*%
%ADD12C,0.200000*%
%ADD13C,0.250000*%
%ADD14C,0.175000*%
%ADD15C,0.120000*%
%ADD16C,0.090000*%
G04 APERTURE END LIST*
D10*
D11*
X144185714Y-81514286D02*
X144157143Y-81542857D01*
X144071429Y-81571429D01*
X144014286Y-81571429D01*
X143928571Y-81542857D01*
X143871429Y-81485714D01*
X143842857Y-81428571D01*
X143814286Y-81314286D01*
X143814286Y-81228571D01*
X143842857Y-81114286D01*
X143871429Y-81057143D01*
X143928571Y-81000000D01*
X144014286Y-80971429D01*
X144071429Y-80971429D01*
X144157143Y-81000000D01*
X144185714Y-81028571D01*
X144414286Y-81400000D02*
X144700000Y-81400000D01*
X144357143Y-81571429D02*
X144557143Y-80971429D01*
X144757143Y-81571429D01*
X144957143Y-81571429D02*
X144957143Y-80971429D01*
X145300000Y-81571429D01*
X145300000Y-80971429D01*
X145585714Y-81571429D02*
X145585714Y-80971429D01*
X145585714Y-81257143D02*
X145928571Y-81257143D01*
X145928571Y-81571429D02*
X145928571Y-80971429D01*
X146357142Y-81771429D02*
X146357142Y-80914286D01*
X147128571Y-81514286D02*
X147100000Y-81542857D01*
X147014286Y-81571429D01*
X146957143Y-81571429D01*
X146871428Y-81542857D01*
X146814286Y-81485714D01*
X146785714Y-81428571D01*
X146757143Y-81314286D01*
X146757143Y-81228571D01*
X146785714Y-81114286D01*
X146814286Y-81057143D01*
X146871428Y-81000000D01*
X146957143Y-80971429D01*
X147014286Y-80971429D01*
X147100000Y-81000000D01*
X147128571Y-81028571D01*
X147357143Y-81400000D02*
X147642857Y-81400000D01*
X147300000Y-81571429D02*
X147500000Y-80971429D01*
X147700000Y-81571429D01*
X147900000Y-81571429D02*
X147900000Y-80971429D01*
X148242857Y-81571429D01*
X148242857Y-80971429D01*
X148814285Y-81571429D02*
X148528571Y-81571429D01*
X148528571Y-80971429D01*
X149614285Y-81771429D02*
X149614285Y-80914286D01*
X150842857Y-81514286D02*
X150814286Y-81542857D01*
X150728572Y-81571429D01*
X150671429Y-81571429D01*
X150585714Y-81542857D01*
X150528572Y-81485714D01*
X150500000Y-81428571D01*
X150471429Y-81314286D01*
X150471429Y-81228571D01*
X150500000Y-81114286D01*
X150528572Y-81057143D01*
X150585714Y-81000000D01*
X150671429Y-80971429D01*
X150728572Y-80971429D01*
X150814286Y-81000000D01*
X150842857Y-81028571D01*
X151071429Y-81400000D02*
X151357143Y-81400000D01*
X151014286Y-81571429D02*
X151214286Y-80971429D01*
X151414286Y-81571429D01*
X151614286Y-81571429D02*
X151614286Y-80971429D01*
X151957143Y-81571429D01*
X151957143Y-80971429D01*
X152242857Y-81571429D02*
X152242857Y-80971429D01*
X152242857Y-81257143D02*
X152585714Y-81257143D01*
X152585714Y-81571429D02*
X152585714Y-80971429D01*
X153014285Y-81771429D02*
X153014285Y-80914286D01*
X153785714Y-81514286D02*
X153757143Y-81542857D01*
X153671429Y-81571429D01*
X153614286Y-81571429D01*
X153528571Y-81542857D01*
X153471429Y-81485714D01*
X153442857Y-81428571D01*
X153414286Y-81314286D01*
X153414286Y-81228571D01*
X153442857Y-81114286D01*
X153471429Y-81057143D01*
X153528571Y-81000000D01*
X153614286Y-80971429D01*
X153671429Y-80971429D01*
X153757143Y-81000000D01*
X153785714Y-81028571D01*
X154014286Y-81400000D02*
X154300000Y-81400000D01*
X153957143Y-81571429D02*
X154157143Y-80971429D01*
X154357143Y-81571429D01*
X154557143Y-81571429D02*
X154557143Y-80971429D01*
X154900000Y-81571429D01*
X154900000Y-80971429D01*
X155471428Y-81571429D02*
X155185714Y-81571429D01*
X155185714Y-80971429D01*
X155814285Y-81771429D02*
X155814285Y-80914286D01*
D12*
X157407143Y-103714286D02*
X157407143Y-103542857D01*
X157450000Y-103457143D01*
X157535714Y-103371429D01*
X157707143Y-103328571D01*
X158007143Y-103328571D01*
X158178571Y-103371429D01*
X158264286Y-103457143D01*
X158307143Y-103542857D01*
X158307143Y-103714286D01*
X158264286Y-103800000D01*
X158178571Y-103885714D01*
X158007143Y-103928571D01*
X157707143Y-103928571D01*
X157535714Y-103885714D01*
X157450000Y-103800000D01*
X157407143Y-103714286D01*
X157964286Y-102942857D02*
X157964286Y-102257143D01*
X158307143Y-102600000D02*
X157621429Y-102600000D01*
X158607143Y-101614286D02*
X157321429Y-101614286D01*
X157407143Y-100800000D02*
X157407143Y-100628571D01*
X157450000Y-100542857D01*
X157535714Y-100457143D01*
X157707143Y-100414285D01*
X158007143Y-100414285D01*
X158178571Y-100457143D01*
X158264286Y-100542857D01*
X158307143Y-100628571D01*
X158307143Y-100800000D01*
X158264286Y-100885714D01*
X158178571Y-100971428D01*
X158007143Y-101014285D01*
X157707143Y-101014285D01*
X157535714Y-100971428D01*
X157450000Y-100885714D01*
X157407143Y-100800000D01*
X157964286Y-100028571D02*
X157964286Y-99342857D01*
X158607143Y-98700000D02*
X157321429Y-98700000D01*
X157407143Y-98185714D02*
X158307143Y-97885714D01*
X157407143Y-97585714D01*
X158307143Y-97285713D02*
X157407143Y-97285713D01*
X158050000Y-96985713D01*
X157407143Y-96685713D01*
X158307143Y-96685713D01*
X158607143Y-96042857D02*
X157321429Y-96042857D01*
X158307143Y-95399999D02*
X157407143Y-95399999D01*
X158307143Y-94885714D01*
X157407143Y-94885714D01*
X158221429Y-93942857D02*
X158264286Y-93985714D01*
X158307143Y-94114285D01*
X158307143Y-94199999D01*
X158264286Y-94328571D01*
X158178571Y-94414285D01*
X158092857Y-94457142D01*
X157921429Y-94499999D01*
X157792857Y-94499999D01*
X157621429Y-94457142D01*
X157535714Y-94414285D01*
X157450000Y-94328571D01*
X157407143Y-94199999D01*
X157407143Y-94114285D01*
X157450000Y-93985714D01*
X157492857Y-93942857D01*
D13*
X156166667Y-103709524D02*
X156166667Y-103233333D01*
X156452381Y-103804762D02*
X155452381Y-103471429D01*
X156452381Y-103138095D01*
X155547619Y-102852381D02*
X155500000Y-102804762D01*
X155452381Y-102709524D01*
X155452381Y-102471428D01*
X155500000Y-102376190D01*
X155547619Y-102328571D01*
X155642857Y-102280952D01*
X155738095Y-102280952D01*
X155880952Y-102328571D01*
X156452381Y-102900000D01*
X156452381Y-102280952D01*
X156785714Y-101614286D02*
X155357143Y-101614286D01*
X156166667Y-100947619D02*
X156166667Y-100471428D01*
X156452381Y-101042857D02*
X155452381Y-100709524D01*
X156452381Y-100376190D01*
X156452381Y-99519047D02*
X156452381Y-100090476D01*
X156452381Y-99804762D02*
X155452381Y-99804762D01*
X155595238Y-99900000D01*
X155690476Y-99995238D01*
X155738095Y-100090476D01*
X156785714Y-98852381D02*
X155357143Y-98852381D01*
X155928571Y-97804761D02*
X155976190Y-97661904D01*
X156023810Y-97614285D01*
X156119048Y-97566666D01*
X156261905Y-97566666D01*
X156357143Y-97614285D01*
X156404762Y-97661904D01*
X156452381Y-97757142D01*
X156452381Y-98138095D01*
X155452381Y-98138095D01*
X155452381Y-97804761D01*
X155500000Y-97709523D01*
X155547619Y-97661904D01*
X155642857Y-97614285D01*
X155738095Y-97614285D01*
X155833333Y-97661904D01*
X155880952Y-97709523D01*
X155928571Y-97804761D01*
X155928571Y-98138095D01*
X156452381Y-96614285D02*
X156452381Y-97185714D01*
X156452381Y-96900000D02*
X155452381Y-96900000D01*
X155595238Y-96995238D01*
X155690476Y-97090476D01*
X155738095Y-97185714D01*
X156785714Y-95947619D02*
X155357143Y-95947619D01*
X155928571Y-94899999D02*
X155976190Y-94757142D01*
X156023810Y-94709523D01*
X156119048Y-94661904D01*
X156261905Y-94661904D01*
X156357143Y-94709523D01*
X156404762Y-94757142D01*
X156452381Y-94852380D01*
X156452381Y-95233333D01*
X155452381Y-95233333D01*
X155452381Y-94899999D01*
X155500000Y-94804761D01*
X155547619Y-94757142D01*
X155642857Y-94709523D01*
X155738095Y-94709523D01*
X155833333Y-94757142D01*
X155880952Y-94804761D01*
X155928571Y-94899999D01*
X155928571Y-95233333D01*
X155547619Y-94280952D02*
X155500000Y-94233333D01*
X155452381Y-94138095D01*
X155452381Y-93899999D01*
X155500000Y-93804761D01*
X155547619Y-93757142D01*
X155642857Y-93709523D01*
X155738095Y-93709523D01*
X155880952Y-93757142D01*
X156452381Y-94328571D01*
X156452381Y-93709523D01*
D11*
X153964286Y-104671429D02*
X154307143Y-104671429D01*
X154135714Y-105271429D02*
X154135714Y-104671429D01*
X154450000Y-104671429D02*
X154850000Y-105271429D01*
X154850000Y-104671429D02*
X154450000Y-105271429D01*
X155678572Y-105471429D02*
X155678572Y-104614286D01*
X156907144Y-105271429D02*
X156707144Y-104985714D01*
X156564287Y-105271429D02*
X156564287Y-104671429D01*
X156792859Y-104671429D01*
X156850001Y-104700000D01*
X156878573Y-104728571D01*
X156907144Y-104785714D01*
X156907144Y-104871429D01*
X156878573Y-104928571D01*
X156850001Y-104957143D01*
X156792859Y-104985714D01*
X156564287Y-104985714D01*
X157107144Y-104671429D02*
X157507144Y-105271429D01*
X157507144Y-104671429D02*
X157107144Y-105271429D01*
X158335716Y-105471429D02*
X158335716Y-104614286D01*
X159078574Y-104700000D02*
X159021431Y-104671429D01*
X158935717Y-104671429D01*
X158850002Y-104700000D01*
X158792860Y-104757143D01*
X158764288Y-104814286D01*
X158735717Y-104928571D01*
X158735717Y-105014286D01*
X158764288Y-105128571D01*
X158792860Y-105185714D01*
X158850002Y-105242857D01*
X158935717Y-105271429D01*
X158992860Y-105271429D01*
X159078574Y-105242857D01*
X159107145Y-105214286D01*
X159107145Y-105014286D01*
X158992860Y-105014286D01*
X159364288Y-105271429D02*
X159364288Y-104671429D01*
X159707145Y-105271429D01*
X159707145Y-104671429D01*
X159992859Y-105271429D02*
X159992859Y-104671429D01*
X160135716Y-104671429D01*
X160221431Y-104700000D01*
X160278573Y-104757143D01*
X160307145Y-104814286D01*
X160335716Y-104928571D01*
X160335716Y-105014286D01*
X160307145Y-105128571D01*
X160278573Y-105185714D01*
X160221431Y-105242857D01*
X160135716Y-105271429D01*
X159992859Y-105271429D01*
X160735716Y-105471429D02*
X160735716Y-104614286D01*
X161107145Y-104671429D02*
X161478574Y-104671429D01*
X161278574Y-104900000D01*
X161364288Y-104900000D01*
X161421431Y-104928571D01*
X161450002Y-104957143D01*
X161478574Y-105014286D01*
X161478574Y-105157143D01*
X161450002Y-105214286D01*
X161421431Y-105242857D01*
X161364288Y-105271429D01*
X161192860Y-105271429D01*
X161135717Y-105242857D01*
X161107145Y-105214286D01*
X161650003Y-104671429D02*
X161850003Y-105271429D01*
X162050003Y-104671429D01*
X162192860Y-104671429D02*
X162564289Y-104671429D01*
X162364289Y-104900000D01*
X162450003Y-104900000D01*
X162507146Y-104928571D01*
X162535717Y-104957143D01*
X162564289Y-105014286D01*
X162564289Y-105157143D01*
X162535717Y-105214286D01*
X162507146Y-105242857D01*
X162450003Y-105271429D01*
X162278575Y-105271429D01*
X162221432Y-105242857D01*
X162192860Y-105214286D01*
X162964289Y-105471429D02*
X162964289Y-104614286D01*
X152942857Y-109007143D02*
X153142857Y-109007143D01*
X153228571Y-109321429D02*
X152942857Y-109321429D01*
X152942857Y-108721429D01*
X153228571Y-108721429D01*
X153485714Y-109321429D02*
X153485714Y-108721429D01*
X153828571Y-109321429D01*
X153828571Y-108721429D01*
X154457142Y-109264286D02*
X154428571Y-109292857D01*
X154342857Y-109321429D01*
X154285714Y-109321429D01*
X154199999Y-109292857D01*
X154142857Y-109235714D01*
X154114285Y-109178571D01*
X154085714Y-109064286D01*
X154085714Y-108978571D01*
X154114285Y-108864286D01*
X154142857Y-108807143D01*
X154199999Y-108750000D01*
X154285714Y-108721429D01*
X154342857Y-108721429D01*
X154428571Y-108750000D01*
X154457142Y-108778571D01*
X155028571Y-109321429D02*
X154685714Y-109321429D01*
X154857142Y-109321429D02*
X154857142Y-108721429D01*
X154799999Y-108807143D01*
X154742857Y-108864286D01*
X154685714Y-108892857D01*
X155428571Y-109521429D02*
X155428571Y-108664286D01*
X155857143Y-109007143D02*
X156057143Y-109007143D01*
X156142857Y-109321429D02*
X155857143Y-109321429D01*
X155857143Y-108721429D01*
X156142857Y-108721429D01*
X156400000Y-109321429D02*
X156400000Y-108721429D01*
X156742857Y-109321429D01*
X156742857Y-108721429D01*
X157371428Y-109264286D02*
X157342857Y-109292857D01*
X157257143Y-109321429D01*
X157200000Y-109321429D01*
X157114285Y-109292857D01*
X157057143Y-109235714D01*
X157028571Y-109178571D01*
X157000000Y-109064286D01*
X157000000Y-108978571D01*
X157028571Y-108864286D01*
X157057143Y-108807143D01*
X157114285Y-108750000D01*
X157200000Y-108721429D01*
X157257143Y-108721429D01*
X157342857Y-108750000D01*
X157371428Y-108778571D01*
X157600000Y-108778571D02*
X157628571Y-108750000D01*
X157685714Y-108721429D01*
X157828571Y-108721429D01*
X157885714Y-108750000D01*
X157914285Y-108778571D01*
X157942857Y-108835714D01*
X157942857Y-108892857D01*
X157914285Y-108978571D01*
X157571428Y-109321429D01*
X157942857Y-109321429D01*
X158342857Y-109521429D02*
X158342857Y-108664286D01*
X159085715Y-108750000D02*
X159028572Y-108721429D01*
X158942858Y-108721429D01*
X158857143Y-108750000D01*
X158800001Y-108807143D01*
X158771429Y-108864286D01*
X158742858Y-108978571D01*
X158742858Y-109064286D01*
X158771429Y-109178571D01*
X158800001Y-109235714D01*
X158857143Y-109292857D01*
X158942858Y-109321429D01*
X159000001Y-109321429D01*
X159085715Y-109292857D01*
X159114286Y-109264286D01*
X159114286Y-109064286D01*
X159000001Y-109064286D01*
X159371429Y-109321429D02*
X159371429Y-108721429D01*
X159714286Y-109321429D01*
X159714286Y-108721429D01*
X160000000Y-109321429D02*
X160000000Y-108721429D01*
X160142857Y-108721429D01*
X160228572Y-108750000D01*
X160285714Y-108807143D01*
X160314286Y-108864286D01*
X160342857Y-108978571D01*
X160342857Y-109064286D01*
X160314286Y-109178571D01*
X160285714Y-109235714D01*
X160228572Y-109292857D01*
X160142857Y-109321429D01*
X160000000Y-109321429D01*
X160742857Y-109521429D02*
X160742857Y-108664286D01*
X161114286Y-108721429D02*
X161485715Y-108721429D01*
X161285715Y-108950000D01*
X161371429Y-108950000D01*
X161428572Y-108978571D01*
X161457143Y-109007143D01*
X161485715Y-109064286D01*
X161485715Y-109207143D01*
X161457143Y-109264286D01*
X161428572Y-109292857D01*
X161371429Y-109321429D01*
X161200001Y-109321429D01*
X161142858Y-109292857D01*
X161114286Y-109264286D01*
X161657144Y-108721429D02*
X161857144Y-109321429D01*
X162057144Y-108721429D01*
X162200001Y-108721429D02*
X162571430Y-108721429D01*
X162371430Y-108950000D01*
X162457144Y-108950000D01*
X162514287Y-108978571D01*
X162542858Y-109007143D01*
X162571430Y-109064286D01*
X162571430Y-109207143D01*
X162542858Y-109264286D01*
X162514287Y-109292857D01*
X162457144Y-109321429D01*
X162285716Y-109321429D01*
X162228573Y-109292857D01*
X162200001Y-109264286D01*
X162971430Y-109521429D02*
X162971430Y-108664286D01*
X139314286Y-109150000D02*
X139600000Y-109150000D01*
X139257143Y-109321429D02*
X139457143Y-108721429D01*
X139657143Y-109321429D01*
X139857143Y-109321429D02*
X139857143Y-108721429D01*
X140000000Y-108721429D01*
X140085715Y-108750000D01*
X140142857Y-108807143D01*
X140171429Y-108864286D01*
X140200000Y-108978571D01*
X140200000Y-109064286D01*
X140171429Y-109178571D01*
X140142857Y-109235714D01*
X140085715Y-109292857D01*
X140000000Y-109321429D01*
X139857143Y-109321429D01*
X140800000Y-109264286D02*
X140771429Y-109292857D01*
X140685715Y-109321429D01*
X140628572Y-109321429D01*
X140542857Y-109292857D01*
X140485715Y-109235714D01*
X140457143Y-109178571D01*
X140428572Y-109064286D01*
X140428572Y-108978571D01*
X140457143Y-108864286D01*
X140485715Y-108807143D01*
X140542857Y-108750000D01*
X140628572Y-108721429D01*
X140685715Y-108721429D01*
X140771429Y-108750000D01*
X140800000Y-108778571D01*
X141371429Y-109321429D02*
X141028572Y-109321429D01*
X141200000Y-109321429D02*
X141200000Y-108721429D01*
X141142857Y-108807143D01*
X141085715Y-108864286D01*
X141028572Y-108892857D01*
X141771429Y-109521429D02*
X141771429Y-108664286D01*
X142171430Y-109150000D02*
X142457144Y-109150000D01*
X142114287Y-109321429D02*
X142314287Y-108721429D01*
X142514287Y-109321429D01*
X142714287Y-109321429D02*
X142714287Y-108721429D01*
X142857144Y-108721429D01*
X142942859Y-108750000D01*
X143000001Y-108807143D01*
X143028573Y-108864286D01*
X143057144Y-108978571D01*
X143057144Y-109064286D01*
X143028573Y-109178571D01*
X143000001Y-109235714D01*
X142942859Y-109292857D01*
X142857144Y-109321429D01*
X142714287Y-109321429D01*
X143657144Y-109264286D02*
X143628573Y-109292857D01*
X143542859Y-109321429D01*
X143485716Y-109321429D01*
X143400001Y-109292857D01*
X143342859Y-109235714D01*
X143314287Y-109178571D01*
X143285716Y-109064286D01*
X143285716Y-108978571D01*
X143314287Y-108864286D01*
X143342859Y-108807143D01*
X143400001Y-108750000D01*
X143485716Y-108721429D01*
X143542859Y-108721429D01*
X143628573Y-108750000D01*
X143657144Y-108778571D01*
X143885716Y-108778571D02*
X143914287Y-108750000D01*
X143971430Y-108721429D01*
X144114287Y-108721429D01*
X144171430Y-108750000D01*
X144200001Y-108778571D01*
X144228573Y-108835714D01*
X144228573Y-108892857D01*
X144200001Y-108978571D01*
X143857144Y-109321429D01*
X144228573Y-109321429D01*
X144628573Y-109521429D02*
X144628573Y-108664286D01*
X145371431Y-108750000D02*
X145314288Y-108721429D01*
X145228574Y-108721429D01*
X145142859Y-108750000D01*
X145085717Y-108807143D01*
X145057145Y-108864286D01*
X145028574Y-108978571D01*
X145028574Y-109064286D01*
X145057145Y-109178571D01*
X145085717Y-109235714D01*
X145142859Y-109292857D01*
X145228574Y-109321429D01*
X145285717Y-109321429D01*
X145371431Y-109292857D01*
X145400002Y-109264286D01*
X145400002Y-109064286D01*
X145285717Y-109064286D01*
X145657145Y-109321429D02*
X145657145Y-108721429D01*
X146000002Y-109321429D01*
X146000002Y-108721429D01*
X146285716Y-109321429D02*
X146285716Y-108721429D01*
X146428573Y-108721429D01*
X146514288Y-108750000D01*
X146571430Y-108807143D01*
X146600002Y-108864286D01*
X146628573Y-108978571D01*
X146628573Y-109064286D01*
X146600002Y-109178571D01*
X146571430Y-109235714D01*
X146514288Y-109292857D01*
X146428573Y-109321429D01*
X146285716Y-109321429D01*
X147028573Y-109521429D02*
X147028573Y-108664286D01*
X147400002Y-108721429D02*
X147771431Y-108721429D01*
X147571431Y-108950000D01*
X147657145Y-108950000D01*
X147714288Y-108978571D01*
X147742859Y-109007143D01*
X147771431Y-109064286D01*
X147771431Y-109207143D01*
X147742859Y-109264286D01*
X147714288Y-109292857D01*
X147657145Y-109321429D01*
X147485717Y-109321429D01*
X147428574Y-109292857D01*
X147400002Y-109264286D01*
X147942860Y-108721429D02*
X148142860Y-109321429D01*
X148342860Y-108721429D01*
X148485717Y-108721429D02*
X148857146Y-108721429D01*
X148657146Y-108950000D01*
X148742860Y-108950000D01*
X148800003Y-108978571D01*
X148828574Y-109007143D01*
X148857146Y-109064286D01*
X148857146Y-109207143D01*
X148828574Y-109264286D01*
X148800003Y-109292857D01*
X148742860Y-109321429D01*
X148571432Y-109321429D01*
X148514289Y-109292857D01*
X148485717Y-109264286D01*
X149257146Y-109521429D02*
X149257146Y-108664286D01*
D14*
X157309524Y-78900000D02*
X157233333Y-78861905D01*
X157119048Y-78861905D01*
X157004762Y-78900000D01*
X156928571Y-78976190D01*
X156890476Y-79052381D01*
X156852381Y-79204762D01*
X156852381Y-79319048D01*
X156890476Y-79471429D01*
X156928571Y-79547619D01*
X157004762Y-79623810D01*
X157119048Y-79661905D01*
X157195238Y-79661905D01*
X157309524Y-79623810D01*
X157347619Y-79585714D01*
X157347619Y-79319048D01*
X157195238Y-79319048D01*
X157690476Y-79661905D02*
X157690476Y-78861905D01*
X158147619Y-79661905D01*
X158147619Y-78861905D01*
X158528571Y-79661905D02*
X158528571Y-78861905D01*
X158719047Y-78861905D01*
X158833333Y-78900000D01*
X158909524Y-78976190D01*
X158947619Y-79052381D01*
X158985714Y-79204762D01*
X158985714Y-79319048D01*
X158947619Y-79471429D01*
X158909524Y-79547619D01*
X158833333Y-79623810D01*
X158719047Y-79661905D01*
X158528571Y-79661905D01*
X159519047Y-79928571D02*
X159519047Y-78785714D01*
X159976190Y-78861905D02*
X160242857Y-79661905D01*
X160509524Y-78861905D01*
X160776190Y-79661905D02*
X160776190Y-78861905D01*
X161080952Y-78861905D01*
X161157143Y-78900000D01*
X161195238Y-78938095D01*
X161233333Y-79014286D01*
X161233333Y-79128571D01*
X161195238Y-79204762D01*
X161157143Y-79242857D01*
X161080952Y-79280952D01*
X160776190Y-79280952D01*
X161576190Y-79661905D02*
X161576190Y-78861905D01*
X161880952Y-78861905D01*
X161957143Y-78900000D01*
X161995238Y-78938095D01*
X162033333Y-79014286D01*
X162033333Y-79128571D01*
X161995238Y-79204762D01*
X161957143Y-79242857D01*
X161880952Y-79280952D01*
X161576190Y-79280952D01*
D10*
X159094312Y-91980852D02*
X159065741Y-92009423D01*
X158980027Y-92037995D01*
X158922884Y-92037995D01*
X158837169Y-92009423D01*
X158780027Y-91952280D01*
X158751455Y-91895137D01*
X158722884Y-91780852D01*
X158722884Y-91695137D01*
X158751455Y-91580852D01*
X158780027Y-91523709D01*
X158837169Y-91466566D01*
X158922884Y-91437995D01*
X158980027Y-91437995D01*
X159065741Y-91466566D01*
X159094312Y-91495137D01*
X159551455Y-91723709D02*
X159637169Y-91752280D01*
X159665741Y-91780852D01*
X159694312Y-91837995D01*
X159694312Y-91923709D01*
X159665741Y-91980852D01*
X159637169Y-92009423D01*
X159580027Y-92037995D01*
X159351455Y-92037995D01*
X159351455Y-91437995D01*
X159551455Y-91437995D01*
X159608598Y-91466566D01*
X159637169Y-91495137D01*
X159665741Y-91552280D01*
X159665741Y-91609423D01*
X159637169Y-91666566D01*
X159608598Y-91695137D01*
X159551455Y-91723709D01*
X159351455Y-91723709D01*
X159951455Y-92037995D02*
X159951455Y-91437995D01*
X160094312Y-91437995D01*
X160180027Y-91466566D01*
X160237169Y-91523709D01*
X160265741Y-91580852D01*
X160294312Y-91695137D01*
X160294312Y-91780852D01*
X160265741Y-91895137D01*
X160237169Y-91952280D01*
X160180027Y-92009423D01*
X160094312Y-92037995D01*
X159951455Y-92037995D01*
X160894312Y-91980852D02*
X160865741Y-92009423D01*
X160780027Y-92037995D01*
X160722884Y-92037995D01*
X160637169Y-92009423D01*
X160580027Y-91952280D01*
X160551455Y-91895137D01*
X160522884Y-91780852D01*
X160522884Y-91695137D01*
X160551455Y-91580852D01*
X160580027Y-91523709D01*
X160637169Y-91466566D01*
X160722884Y-91437995D01*
X160780027Y-91437995D01*
X160865741Y-91466566D01*
X160894312Y-91495137D01*
X161465741Y-92037995D02*
X161122884Y-92037995D01*
X161294312Y-92037995D02*
X161294312Y-91437995D01*
X161237169Y-91523709D01*
X161180027Y-91580852D01*
X161122884Y-91609423D01*
X161722884Y-91980852D02*
X161751456Y-92009423D01*
X161722884Y-92037995D01*
X161694313Y-92009423D01*
X161722884Y-91980852D01*
X161722884Y-92037995D01*
X162122884Y-91437995D02*
X162180027Y-91437995D01*
X162237170Y-91466566D01*
X162265741Y-91495137D01*
X162294312Y-91552280D01*
X162322884Y-91666566D01*
X162322884Y-91809423D01*
X162294312Y-91923709D01*
X162265741Y-91980852D01*
X162237170Y-92009423D01*
X162180027Y-92037995D01*
X162122884Y-92037995D01*
X162065741Y-92009423D01*
X162037170Y-91980852D01*
X162008598Y-91923709D01*
X161980027Y-91809423D01*
X161980027Y-91666566D01*
X162008598Y-91552280D01*
X162037170Y-91495137D01*
X162065741Y-91466566D01*
X162122884Y-91437995D01*
X146400000Y-83457142D02*
X146371429Y-83514285D01*
X146371429Y-83599999D01*
X146400000Y-83685714D01*
X146457143Y-83742856D01*
X146514286Y-83771428D01*
X146628571Y-83799999D01*
X146714286Y-83799999D01*
X146828571Y-83771428D01*
X146885714Y-83742856D01*
X146942857Y-83685714D01*
X146971429Y-83599999D01*
X146971429Y-83542856D01*
X146942857Y-83457142D01*
X146914286Y-83428571D01*
X146714286Y-83428571D01*
X146714286Y-83542856D01*
X146971429Y-83171428D02*
X146371429Y-83171428D01*
X146971429Y-82828571D01*
X146371429Y-82828571D01*
X146971429Y-82542857D02*
X146371429Y-82542857D01*
X146371429Y-82400000D01*
X146400000Y-82314285D01*
X146457143Y-82257143D01*
X146514286Y-82228571D01*
X146628571Y-82200000D01*
X146714286Y-82200000D01*
X146828571Y-82228571D01*
X146885714Y-82257143D01*
X146942857Y-82314285D01*
X146971429Y-82400000D01*
X146971429Y-82542857D01*
X141971429Y-83328572D02*
X141685714Y-83528572D01*
X141971429Y-83671429D02*
X141371429Y-83671429D01*
X141371429Y-83442857D01*
X141400000Y-83385715D01*
X141428571Y-83357143D01*
X141485714Y-83328572D01*
X141571429Y-83328572D01*
X141628571Y-83357143D01*
X141657143Y-83385715D01*
X141685714Y-83442857D01*
X141685714Y-83671429D01*
X141942857Y-83100000D02*
X141971429Y-83014286D01*
X141971429Y-82871429D01*
X141942857Y-82814286D01*
X141914286Y-82785715D01*
X141857143Y-82757143D01*
X141800000Y-82757143D01*
X141742857Y-82785715D01*
X141714286Y-82814286D01*
X141685714Y-82871429D01*
X141657143Y-82985715D01*
X141628571Y-83042857D01*
X141600000Y-83071429D01*
X141542857Y-83100000D01*
X141485714Y-83100000D01*
X141428571Y-83071429D01*
X141400000Y-83042857D01*
X141371429Y-82985715D01*
X141371429Y-82842857D01*
X141400000Y-82757143D01*
X141371429Y-82585714D02*
X141371429Y-82242857D01*
X141971429Y-82414286D02*
X141371429Y-82414286D01*
X145771429Y-87214285D02*
X145171429Y-87214285D01*
X145171429Y-87071428D01*
X145200000Y-86985713D01*
X145257143Y-86928571D01*
X145314286Y-86899999D01*
X145428571Y-86871428D01*
X145514286Y-86871428D01*
X145628571Y-86899999D01*
X145685714Y-86928571D01*
X145742857Y-86985713D01*
X145771429Y-87071428D01*
X145771429Y-87214285D01*
X145771429Y-86614285D02*
X145171429Y-86614285D01*
X145171429Y-86214285D02*
X145171429Y-86099999D01*
X145200000Y-86042857D01*
X145257143Y-85985714D01*
X145371429Y-85957142D01*
X145571429Y-85957142D01*
X145685714Y-85985714D01*
X145742857Y-86042857D01*
X145771429Y-86099999D01*
X145771429Y-86214285D01*
X145742857Y-86271428D01*
X145685714Y-86328571D01*
X145571429Y-86357142D01*
X145371429Y-86357142D01*
X145257143Y-86328571D01*
X145200000Y-86271428D01*
X145171429Y-86214285D01*
X143771429Y-83742858D02*
X143771429Y-83371429D01*
X144000000Y-83571429D01*
X144000000Y-83485715D01*
X144028571Y-83428572D01*
X144057143Y-83400001D01*
X144114286Y-83371429D01*
X144257143Y-83371429D01*
X144314286Y-83400001D01*
X144342857Y-83428572D01*
X144371429Y-83485715D01*
X144371429Y-83657143D01*
X144342857Y-83714286D01*
X144314286Y-83742858D01*
X143771429Y-83200000D02*
X144371429Y-83000000D01*
X143771429Y-82800000D01*
X143771429Y-82657143D02*
X143771429Y-82285714D01*
X144000000Y-82485714D01*
X144000000Y-82400000D01*
X144028571Y-82342857D01*
X144057143Y-82314286D01*
X144114286Y-82285714D01*
X144257143Y-82285714D01*
X144314286Y-82314286D01*
X144342857Y-82342857D01*
X144371429Y-82400000D01*
X144371429Y-82571428D01*
X144342857Y-82628571D01*
X144314286Y-82657143D01*
X143114286Y-86957143D02*
X143142857Y-86985714D01*
X143171429Y-87071428D01*
X143171429Y-87128571D01*
X143142857Y-87214286D01*
X143085714Y-87271428D01*
X143028571Y-87300000D01*
X142914286Y-87328571D01*
X142828571Y-87328571D01*
X142714286Y-87300000D01*
X142657143Y-87271428D01*
X142600000Y-87214286D01*
X142571429Y-87128571D01*
X142571429Y-87071428D01*
X142600000Y-86985714D01*
X142628571Y-86957143D01*
X143171429Y-86414286D02*
X143171429Y-86700000D01*
X142571429Y-86700000D01*
X143171429Y-86214286D02*
X142571429Y-86214286D01*
X143171429Y-85871429D02*
X142828571Y-86128572D01*
X142571429Y-85871429D02*
X142914286Y-86214286D01*
D13*
X158487655Y-90116490D02*
X158487655Y-91654585D01*
X158416227Y-91835537D01*
X158344798Y-91926014D01*
X158201941Y-92016490D01*
X157916227Y-92016490D01*
X157773369Y-91926014D01*
X157701941Y-91835537D01*
X157630512Y-91654585D01*
X157630512Y-90116490D01*
D10*
X159246599Y-91087080D02*
X159208504Y-91125176D01*
X159094218Y-91163271D01*
X159018028Y-91163271D01*
X158903742Y-91125176D01*
X158827551Y-91048985D01*
X158789456Y-90972795D01*
X158751361Y-90820414D01*
X158751361Y-90706128D01*
X158789456Y-90553747D01*
X158827551Y-90477556D01*
X158903742Y-90401366D01*
X159018028Y-90363271D01*
X159094218Y-90363271D01*
X159208504Y-90401366D01*
X159246599Y-90439461D01*
X159551361Y-90934699D02*
X159932313Y-90934699D01*
X159475170Y-91163271D02*
X159741837Y-90363271D01*
X160008504Y-91163271D01*
X160275170Y-91163271D02*
X160275170Y-90363271D01*
X160732313Y-91163271D01*
X160732313Y-90363271D01*
D12*
X158465484Y-90090166D02*
X161111084Y-90090166D01*
D11*
X150925000Y-92850000D02*
X150925000Y-93350000D01*
X151875000Y-93350000D02*
X151875000Y-92850000D01*
X146950000Y-99889000D02*
X147450000Y-99889000D01*
X147450000Y-98939000D02*
X146950000Y-98939000D01*
X148700000Y-108025000D02*
X149200000Y-108025000D01*
X149200000Y-107075000D02*
X148700000Y-107075000D01*
X150550000Y-98925000D02*
X150050000Y-98925000D01*
X150050000Y-99875000D02*
X150550000Y-99875000D01*
X147650840Y-88701000D02*
X147699100Y-88701000D01*
X150449820Y-87999960D02*
X150449820Y-88701000D01*
X150449820Y-88701000D02*
X150200900Y-88701000D01*
X147650840Y-88701000D02*
X147450180Y-88701000D01*
X147450180Y-88701000D02*
X147450180Y-87999960D01*
D12*
X145200000Y-96400000D02*
X145200000Y-92400000D01*
X145200000Y-92400000D02*
X150200000Y-92400000D01*
X150200000Y-92400000D02*
X150200000Y-96400000D01*
X150200000Y-96400000D02*
X145200000Y-96400000D01*
X146450000Y-95650000D02*
G75*
G03X146450000Y-95650000I-500000J0D01*
G01*
D15*
X156560000Y-86030000D02*
X156560000Y-88570000D01*
X158340000Y-88570000D02*
X158340000Y-86030000D01*
X158340000Y-88570000D02*
X156560000Y-88570000D01*
X156560000Y-86030000D02*
X158340000Y-86030000D01*
X160310000Y-86030000D02*
X160310000Y-88570000D01*
X162090000Y-88570000D02*
X162090000Y-86030000D01*
X162090000Y-88570000D02*
X160310000Y-88570000D01*
X160310000Y-86030000D02*
X162090000Y-86030000D01*
D11*
X150550000Y-85975000D02*
X149550000Y-85975000D01*
X149550000Y-84625000D02*
X150550000Y-84625000D01*
X146000000Y-105300000D02*
X145800000Y-105500000D01*
X146000000Y-105500000D02*
X145800000Y-105500000D01*
X146000000Y-105300000D02*
X146000000Y-105500000D01*
X146000000Y-105300000D02*
X146000000Y-105300000D01*
X143975000Y-107550000D02*
X143975000Y-107050000D01*
X142925000Y-107050000D02*
X142925000Y-107550000D01*
D15*
X143675000Y-79800000D02*
X143675000Y-79300000D01*
X142725000Y-79300000D02*
X142725000Y-79800000D01*
X140250000Y-82825000D02*
X139750000Y-82825000D01*
X139750000Y-83775000D02*
X140250000Y-83775000D01*
X141460000Y-82380000D02*
X141460000Y-81450000D01*
X141460000Y-79220000D02*
X141460000Y-80150000D01*
X141460000Y-79220000D02*
X139300000Y-79220000D01*
X141460000Y-82380000D02*
X140000000Y-82380000D01*
X148515000Y-84305000D02*
X148535000Y-84305000D01*
X148535000Y-84305000D02*
X148535000Y-85695000D01*
X148535000Y-85695000D02*
X148515000Y-85695000D01*
X142085000Y-84305000D02*
X142065000Y-84305000D01*
X142065000Y-84305000D02*
X142065000Y-85695000D01*
X142065000Y-85695000D02*
X142085000Y-85695000D01*
X148535000Y-85695000D02*
X147125000Y-85695000D01*
X148515000Y-84305000D02*
X148515000Y-82000000D01*
X146015000Y-85695000D02*
X144585000Y-85695000D01*
X143475000Y-85695000D02*
X142065000Y-85695000D01*
X147285000Y-84305000D02*
X145855000Y-84305000D01*
X144745000Y-84305000D02*
X143315000Y-84305000D01*
X150530000Y-109190000D02*
X153070000Y-109190000D01*
X153070000Y-107410000D02*
X150530000Y-107410000D01*
X153070000Y-107410000D02*
X153070000Y-109190000D01*
X150530000Y-109190000D02*
X150530000Y-107410000D01*
D16*
X151383334Y-91692857D02*
X151364286Y-91711905D01*
X151307143Y-91730952D01*
X151269048Y-91730952D01*
X151211905Y-91711905D01*
X151173810Y-91673810D01*
X151154762Y-91635714D01*
X151135714Y-91559524D01*
X151135714Y-91502381D01*
X151154762Y-91426190D01*
X151173810Y-91388095D01*
X151211905Y-91350000D01*
X151269048Y-91330952D01*
X151307143Y-91330952D01*
X151364286Y-91350000D01*
X151383334Y-91369048D01*
X151764286Y-91730952D02*
X151535714Y-91730952D01*
X151650000Y-91730952D02*
X151650000Y-91330952D01*
X151611905Y-91388095D01*
X151573810Y-91426190D01*
X151535714Y-91445238D01*
X145842857Y-99480666D02*
X145861905Y-99499714D01*
X145880952Y-99556857D01*
X145880952Y-99594952D01*
X145861905Y-99652095D01*
X145823810Y-99690190D01*
X145785714Y-99709238D01*
X145709524Y-99728286D01*
X145652381Y-99728286D01*
X145576190Y-99709238D01*
X145538095Y-99690190D01*
X145500000Y-99652095D01*
X145480952Y-99594952D01*
X145480952Y-99556857D01*
X145500000Y-99499714D01*
X145519048Y-99480666D01*
X145519048Y-99328286D02*
X145500000Y-99309238D01*
X145480952Y-99271143D01*
X145480952Y-99175905D01*
X145500000Y-99137809D01*
X145519048Y-99118762D01*
X145557143Y-99099714D01*
X145595238Y-99099714D01*
X145652381Y-99118762D01*
X145880952Y-99347333D01*
X145880952Y-99099714D01*
X147592857Y-107616666D02*
X147611905Y-107635714D01*
X147630952Y-107692857D01*
X147630952Y-107730952D01*
X147611905Y-107788095D01*
X147573810Y-107826190D01*
X147535714Y-107845238D01*
X147459524Y-107864286D01*
X147402381Y-107864286D01*
X147326190Y-107845238D01*
X147288095Y-107826190D01*
X147250000Y-107788095D01*
X147230952Y-107730952D01*
X147230952Y-107692857D01*
X147250000Y-107635714D01*
X147269048Y-107616666D01*
X147402381Y-107388095D02*
X147383333Y-107426190D01*
X147364286Y-107445238D01*
X147326190Y-107464286D01*
X147307143Y-107464286D01*
X147269048Y-107445238D01*
X147250000Y-107426190D01*
X147230952Y-107388095D01*
X147230952Y-107311905D01*
X147250000Y-107273809D01*
X147269048Y-107254762D01*
X147307143Y-107235714D01*
X147326190Y-107235714D01*
X147364286Y-107254762D01*
X147383333Y-107273809D01*
X147402381Y-107311905D01*
X147402381Y-107388095D01*
X147421429Y-107426190D01*
X147440476Y-107445238D01*
X147478571Y-107464286D01*
X147554762Y-107464286D01*
X147592857Y-107445238D01*
X147611905Y-107426190D01*
X147630952Y-107388095D01*
X147630952Y-107311905D01*
X147611905Y-107273809D01*
X147592857Y-107254762D01*
X147554762Y-107235714D01*
X147478571Y-107235714D01*
X147440476Y-107254762D01*
X147421429Y-107273809D01*
X147402381Y-107311905D01*
X148918857Y-99466666D02*
X148937905Y-99485714D01*
X148956952Y-99542857D01*
X148956952Y-99580952D01*
X148937905Y-99638095D01*
X148899810Y-99676190D01*
X148861714Y-99695238D01*
X148785524Y-99714286D01*
X148728381Y-99714286D01*
X148652190Y-99695238D01*
X148614095Y-99676190D01*
X148576000Y-99638095D01*
X148556952Y-99580952D01*
X148556952Y-99542857D01*
X148576000Y-99485714D01*
X148595048Y-99466666D01*
X148956952Y-99276190D02*
X148956952Y-99200000D01*
X148937905Y-99161905D01*
X148918857Y-99142857D01*
X148861714Y-99104762D01*
X148785524Y-99085714D01*
X148633143Y-99085714D01*
X148595048Y-99104762D01*
X148576000Y-99123809D01*
X148556952Y-99161905D01*
X148556952Y-99238095D01*
X148576000Y-99276190D01*
X148595048Y-99295238D01*
X148633143Y-99314286D01*
X148728381Y-99314286D01*
X148766476Y-99295238D01*
X148785524Y-99276190D01*
X148804571Y-99238095D01*
X148804571Y-99161905D01*
X148785524Y-99123809D01*
X148766476Y-99104762D01*
X148728381Y-99085714D01*
X147480952Y-89704762D02*
X147804762Y-89704762D01*
X147842857Y-89685714D01*
X147861905Y-89666667D01*
X147880952Y-89628571D01*
X147880952Y-89552381D01*
X147861905Y-89514286D01*
X147842857Y-89495238D01*
X147804762Y-89476190D01*
X147480952Y-89476190D01*
X147880952Y-89076190D02*
X147880952Y-89304762D01*
X147880952Y-89190476D02*
X147480952Y-89190476D01*
X147538095Y-89228571D01*
X147576190Y-89266666D01*
X147595238Y-89304762D01*
X144380952Y-96104762D02*
X144704762Y-96104762D01*
X144742857Y-96085714D01*
X144761905Y-96066667D01*
X144780952Y-96028571D01*
X144780952Y-95952381D01*
X144761905Y-95914286D01*
X144742857Y-95895238D01*
X144704762Y-95876190D01*
X144380952Y-95876190D01*
X144419048Y-95704762D02*
X144400000Y-95685714D01*
X144380952Y-95647619D01*
X144380952Y-95552381D01*
X144400000Y-95514285D01*
X144419048Y-95495238D01*
X144457143Y-95476190D01*
X144495238Y-95476190D01*
X144552381Y-95495238D01*
X144780952Y-95723809D01*
X144780952Y-95476190D01*
X144771190Y-96838095D02*
X144771190Y-96761905D01*
X144809286Y-96685714D01*
X144885476Y-96647619D01*
X144961667Y-96647619D01*
X145037857Y-96685714D01*
X145075952Y-96761905D01*
X145075952Y-96838095D01*
X145037857Y-96914286D01*
X144961667Y-96952381D01*
X144885476Y-96952381D01*
X144809286Y-96914286D01*
X144771190Y-96838095D01*
X155750000Y-87576190D02*
X155730952Y-87614285D01*
X155730952Y-87671428D01*
X155750000Y-87728571D01*
X155788095Y-87766666D01*
X155826190Y-87785714D01*
X155902381Y-87804762D01*
X155959524Y-87804762D01*
X156035714Y-87785714D01*
X156073810Y-87766666D01*
X156111905Y-87728571D01*
X156130952Y-87671428D01*
X156130952Y-87633333D01*
X156111905Y-87576190D01*
X156092857Y-87557142D01*
X155959524Y-87557142D01*
X155959524Y-87633333D01*
X156111905Y-87404762D02*
X156130952Y-87347619D01*
X156130952Y-87252381D01*
X156111905Y-87214285D01*
X156092857Y-87195238D01*
X156054762Y-87176190D01*
X156016667Y-87176190D01*
X155978571Y-87195238D01*
X155959524Y-87214285D01*
X155940476Y-87252381D01*
X155921429Y-87328571D01*
X155902381Y-87366666D01*
X155883333Y-87385714D01*
X155845238Y-87404762D01*
X155807143Y-87404762D01*
X155769048Y-87385714D01*
X155750000Y-87366666D01*
X155730952Y-87328571D01*
X155730952Y-87233333D01*
X155750000Y-87176190D01*
X156130952Y-86795238D02*
X156130952Y-87023810D01*
X156130952Y-86909524D02*
X155730952Y-86909524D01*
X155788095Y-86947619D01*
X155826190Y-86985714D01*
X155845238Y-87023810D01*
X159500000Y-87576190D02*
X159480952Y-87614285D01*
X159480952Y-87671428D01*
X159500000Y-87728571D01*
X159538095Y-87766666D01*
X159576190Y-87785714D01*
X159652381Y-87804762D01*
X159709524Y-87804762D01*
X159785714Y-87785714D01*
X159823810Y-87766666D01*
X159861905Y-87728571D01*
X159880952Y-87671428D01*
X159880952Y-87633333D01*
X159861905Y-87576190D01*
X159842857Y-87557142D01*
X159709524Y-87557142D01*
X159709524Y-87633333D01*
X159861905Y-87404762D02*
X159880952Y-87347619D01*
X159880952Y-87252381D01*
X159861905Y-87214285D01*
X159842857Y-87195238D01*
X159804762Y-87176190D01*
X159766667Y-87176190D01*
X159728571Y-87195238D01*
X159709524Y-87214285D01*
X159690476Y-87252381D01*
X159671429Y-87328571D01*
X159652381Y-87366666D01*
X159633333Y-87385714D01*
X159595238Y-87404762D01*
X159557143Y-87404762D01*
X159519048Y-87385714D01*
X159500000Y-87366666D01*
X159480952Y-87328571D01*
X159480952Y-87233333D01*
X159500000Y-87176190D01*
X159519048Y-87023810D02*
X159500000Y-87004762D01*
X159480952Y-86966667D01*
X159480952Y-86871429D01*
X159500000Y-86833333D01*
X159519048Y-86814286D01*
X159557143Y-86795238D01*
X159595238Y-86795238D01*
X159652381Y-86814286D01*
X159880952Y-87042857D01*
X159880952Y-86795238D01*
X150033334Y-84180952D02*
X149900000Y-83990476D01*
X149804762Y-84180952D02*
X149804762Y-83780952D01*
X149957143Y-83780952D01*
X149995238Y-83800000D01*
X150014286Y-83819048D01*
X150033334Y-83857143D01*
X150033334Y-83914286D01*
X150014286Y-83952381D01*
X149995238Y-83971429D01*
X149957143Y-83990476D01*
X149804762Y-83990476D01*
X150376191Y-83914286D02*
X150376191Y-84180952D01*
X150280953Y-83761905D02*
X150185714Y-84047619D01*
X150433334Y-84047619D01*
X144730952Y-105104762D02*
X145054762Y-105104762D01*
X145092857Y-105085714D01*
X145111905Y-105066667D01*
X145130952Y-105028571D01*
X145130952Y-104952381D01*
X145111905Y-104914286D01*
X145092857Y-104895238D01*
X145054762Y-104876190D01*
X144730952Y-104876190D01*
X144864286Y-104514285D02*
X145130952Y-104514285D01*
X144711905Y-104609523D02*
X144997619Y-104704762D01*
X144997619Y-104457142D01*
X142630952Y-107366666D02*
X142440476Y-107500000D01*
X142630952Y-107595238D02*
X142230952Y-107595238D01*
X142230952Y-107442857D01*
X142250000Y-107404762D01*
X142269048Y-107385714D01*
X142307143Y-107366666D01*
X142364286Y-107366666D01*
X142402381Y-107385714D01*
X142421429Y-107404762D01*
X142440476Y-107442857D01*
X142440476Y-107595238D01*
X142230952Y-107004762D02*
X142230952Y-107195238D01*
X142421429Y-107214286D01*
X142402381Y-107195238D01*
X142383333Y-107157143D01*
X142383333Y-107061905D01*
X142402381Y-107023809D01*
X142421429Y-107004762D01*
X142459524Y-106985714D01*
X142554762Y-106985714D01*
X142592857Y-107004762D01*
X142611905Y-107023809D01*
X142630952Y-107061905D01*
X142630952Y-107157143D01*
X142611905Y-107195238D01*
X142592857Y-107214286D01*
X142342857Y-79616666D02*
X142361905Y-79635714D01*
X142380952Y-79692857D01*
X142380952Y-79730952D01*
X142361905Y-79788095D01*
X142323810Y-79826190D01*
X142285714Y-79845238D01*
X142209524Y-79864286D01*
X142152381Y-79864286D01*
X142076190Y-79845238D01*
X142038095Y-79826190D01*
X142000000Y-79788095D01*
X141980952Y-79730952D01*
X141980952Y-79692857D01*
X142000000Y-79635714D01*
X142019048Y-79616666D01*
X141980952Y-79483333D02*
X141980952Y-79235714D01*
X142133333Y-79369047D01*
X142133333Y-79311905D01*
X142152381Y-79273809D01*
X142171429Y-79254762D01*
X142209524Y-79235714D01*
X142304762Y-79235714D01*
X142342857Y-79254762D01*
X142361905Y-79273809D01*
X142380952Y-79311905D01*
X142380952Y-79426190D01*
X142361905Y-79464286D01*
X142342857Y-79483333D01*
X139383334Y-84442857D02*
X139364286Y-84461905D01*
X139307143Y-84480952D01*
X139269048Y-84480952D01*
X139211905Y-84461905D01*
X139173810Y-84423810D01*
X139154762Y-84385714D01*
X139135714Y-84309524D01*
X139135714Y-84252381D01*
X139154762Y-84176190D01*
X139173810Y-84138095D01*
X139211905Y-84100000D01*
X139269048Y-84080952D01*
X139307143Y-84080952D01*
X139364286Y-84100000D01*
X139383334Y-84119048D01*
X139745238Y-84080952D02*
X139554762Y-84080952D01*
X139535714Y-84271429D01*
X139554762Y-84252381D01*
X139592857Y-84233333D01*
X139688095Y-84233333D01*
X139726191Y-84252381D01*
X139745238Y-84271429D01*
X139764286Y-84309524D01*
X139764286Y-84404762D01*
X139745238Y-84442857D01*
X139726191Y-84461905D01*
X139688095Y-84480952D01*
X139592857Y-84480952D01*
X139554762Y-84461905D01*
X139535714Y-84442857D01*
X140395238Y-78580952D02*
X140395238Y-78904762D01*
X140414286Y-78942857D01*
X140433333Y-78961905D01*
X140471429Y-78980952D01*
X140547619Y-78980952D01*
X140585714Y-78961905D01*
X140604762Y-78942857D01*
X140623810Y-78904762D01*
X140623810Y-78580952D01*
X140985715Y-78580952D02*
X140909524Y-78580952D01*
X140871429Y-78600000D01*
X140852381Y-78619048D01*
X140814286Y-78676190D01*
X140795238Y-78752381D01*
X140795238Y-78904762D01*
X140814286Y-78942857D01*
X140833334Y-78961905D01*
X140871429Y-78980952D01*
X140947619Y-78980952D01*
X140985715Y-78961905D01*
X141004762Y-78942857D01*
X141023810Y-78904762D01*
X141023810Y-78809524D01*
X141004762Y-78771429D01*
X140985715Y-78752381D01*
X140947619Y-78733333D01*
X140871429Y-78733333D01*
X140833334Y-78752381D01*
X140814286Y-78771429D01*
X140795238Y-78809524D01*
X142404762Y-85080952D02*
X142404762Y-84680952D01*
X142557143Y-84680952D01*
X142595238Y-84700000D01*
X142614286Y-84719048D01*
X142633334Y-84757143D01*
X142633334Y-84814286D01*
X142614286Y-84852381D01*
X142595238Y-84871429D01*
X142557143Y-84890476D01*
X142404762Y-84890476D01*
X142785714Y-84719048D02*
X142804762Y-84700000D01*
X142842857Y-84680952D01*
X142938095Y-84680952D01*
X142976191Y-84700000D01*
X142995238Y-84719048D01*
X143014286Y-84757143D01*
X143014286Y-84795238D01*
X142995238Y-84852381D01*
X142766667Y-85080952D01*
X143014286Y-85080952D01*
X151523810Y-106700000D02*
X151485715Y-106680952D01*
X151428572Y-106680952D01*
X151371429Y-106700000D01*
X151333334Y-106738095D01*
X151314286Y-106776190D01*
X151295238Y-106852381D01*
X151295238Y-106909524D01*
X151314286Y-106985714D01*
X151333334Y-107023810D01*
X151371429Y-107061905D01*
X151428572Y-107080952D01*
X151466667Y-107080952D01*
X151523810Y-107061905D01*
X151542858Y-107042857D01*
X151542858Y-106909524D01*
X151466667Y-106909524D01*
X151695238Y-107061905D02*
X151752381Y-107080952D01*
X151847619Y-107080952D01*
X151885715Y-107061905D01*
X151904762Y-107042857D01*
X151923810Y-107004762D01*
X151923810Y-106966667D01*
X151904762Y-106928571D01*
X151885715Y-106909524D01*
X151847619Y-106890476D01*
X151771429Y-106871429D01*
X151733334Y-106852381D01*
X151714286Y-106833333D01*
X151695238Y-106795238D01*
X151695238Y-106757143D01*
X151714286Y-106719048D01*
X151733334Y-106700000D01*
X151771429Y-106680952D01*
X151866667Y-106680952D01*
X151923810Y-106700000D01*
X152057143Y-106680952D02*
X152304762Y-106680952D01*
X152171429Y-106833333D01*
X152228571Y-106833333D01*
X152266667Y-106852381D01*
X152285714Y-106871429D01*
X152304762Y-106909524D01*
X152304762Y-107004762D01*
X152285714Y-107042857D01*
X152266667Y-107061905D01*
X152228571Y-107080952D01*
X152114286Y-107080952D01*
X152076190Y-107061905D01*
X152057143Y-107042857D01*
M02*
