G04 #@! TF.FileFunction,Legend,Bot*
%FSLAX46Y46*%
G04 Gerber Fmt 4.6, Leading zero omitted, Abs format (unit mm)*
G04 Created by KiCad (PCBNEW 4.0.4-stable) date 10/29/16 22:30:41*
%MOMM*%
%LPD*%
G01*
G04 APERTURE LIST*
%ADD10C,0.100000*%
%ADD11C,0.150000*%
%ADD12C,0.090000*%
G04 APERTURE END LIST*
D10*
D11*
X160200000Y-96800000D02*
X162200000Y-96800000D01*
X162200000Y-96800000D02*
X162200000Y-94800000D01*
X162200000Y-94800000D02*
X160200000Y-94800000D01*
X160200000Y-94800000D02*
X160200000Y-96800000D01*
X159700000Y-97800000D02*
X159700000Y-99300000D01*
X159700000Y-99300000D02*
X161200000Y-99300000D01*
X150325000Y-104350000D02*
X150325000Y-105350000D01*
X151675000Y-105350000D02*
X151675000Y-104350000D01*
X151275000Y-108350000D02*
X151275000Y-107350000D01*
X149925000Y-107350000D02*
X149925000Y-108350000D01*
X138580000Y-107745000D02*
X138580000Y-86155000D01*
X138580000Y-86155000D02*
X155820000Y-86155000D01*
X155820000Y-86155000D02*
X155820000Y-107745000D01*
X155820000Y-107745000D02*
X150073333Y-107745000D01*
X150073333Y-107745000D02*
X144326667Y-107745000D01*
X144326667Y-107745000D02*
X138580000Y-107745000D01*
X142162224Y-102154496D02*
X142162224Y-104154496D01*
X144312224Y-104154496D02*
X144312224Y-102154496D01*
X143570224Y-88621496D02*
X143570224Y-87072096D01*
X143570224Y-83287496D02*
X143570224Y-84836896D01*
X148904224Y-87859496D02*
X148904224Y-87072096D01*
X148904224Y-84049496D02*
X148904224Y-84836896D01*
X148370314Y-87073068D02*
G75*
G02X144103624Y-87072096I-2133090J1118572D01*
G01*
X144103624Y-84836896D02*
G75*
G02X148370824Y-84836896I2133600J-1117600D01*
G01*
X143570224Y-83287496D02*
X148142224Y-83287496D01*
X148142224Y-83287496D02*
X148904224Y-84049496D01*
X148904224Y-87859496D02*
X148142224Y-88621496D01*
X148142224Y-88621496D02*
X143570224Y-88621496D01*
X142450000Y-98100000D02*
X142450000Y-97100000D01*
X144150000Y-97100000D02*
X144150000Y-98100000D01*
X150133022Y-93319758D02*
G75*
G02X144467900Y-93322096I-2833022J1115262D01*
G01*
X144466978Y-91089234D02*
G75*
G02X150132100Y-91086896I2833022J-1115262D01*
G01*
X150602000Y-94744496D02*
X150602000Y-93322096D01*
X143998000Y-95506496D02*
X143998000Y-93322096D01*
X143998000Y-88902496D02*
X143998000Y-91086896D01*
X150602000Y-89664496D02*
X150602000Y-91086896D01*
X143998000Y-95506496D02*
X149840000Y-95506496D01*
X149840000Y-95506496D02*
X150602000Y-94744496D01*
X150602000Y-89664496D02*
X149840000Y-88902496D01*
X149840000Y-88902496D02*
X143998000Y-88902496D01*
X144587224Y-103354496D02*
X144587224Y-95754496D01*
X144587224Y-95754496D02*
X152187224Y-95754496D01*
X152187224Y-95754496D02*
X152187224Y-103354496D01*
X152187224Y-103354496D02*
X144587224Y-103354496D01*
X144375000Y-108650000D02*
X144375000Y-107650000D01*
X143025000Y-107650000D02*
X143025000Y-108650000D01*
X145807224Y-108904496D02*
X144807224Y-107904496D01*
X144807224Y-107904496D02*
X144807224Y-105404496D01*
X144807224Y-105404496D02*
X149567224Y-105404496D01*
X149567224Y-105404496D02*
X149567224Y-108904496D01*
X149567224Y-108904496D02*
X145807224Y-108904496D01*
X151200000Y-110825000D02*
X152200000Y-110825000D01*
X152200000Y-109475000D02*
X151200000Y-109475000D01*
X156330000Y-96860000D02*
X156330000Y-89240000D01*
X158870000Y-96860000D02*
X158870000Y-89240000D01*
X159150000Y-99680000D02*
X159150000Y-98130000D01*
X156330000Y-89240000D02*
X158870000Y-89240000D01*
X158870000Y-96860000D02*
X156330000Y-96860000D01*
X156050000Y-98130000D02*
X156050000Y-99680000D01*
X156050000Y-99680000D02*
X159150000Y-99680000D01*
X154200000Y-84050000D02*
X154200000Y-86050000D01*
X154200000Y-86050000D02*
X156200000Y-86050000D01*
X156200000Y-86050000D02*
X156200000Y-84050000D01*
X156200000Y-84050000D02*
X154200000Y-84050000D01*
X153200000Y-83550000D02*
X151700000Y-83550000D01*
X151700000Y-83550000D02*
X151700000Y-85050000D01*
X156700000Y-86050000D02*
X158700000Y-86050000D01*
X158700000Y-86050000D02*
X158700000Y-84050000D01*
X158700000Y-84050000D02*
X156700000Y-84050000D01*
X156700000Y-84050000D02*
X156700000Y-86050000D01*
X156200000Y-87050000D02*
X156200000Y-88550000D01*
X156200000Y-88550000D02*
X157700000Y-88550000D01*
X160200000Y-91300000D02*
X162200000Y-91300000D01*
X162200000Y-91300000D02*
X162200000Y-89300000D01*
X162200000Y-89300000D02*
X160200000Y-89300000D01*
X160200000Y-89300000D02*
X160200000Y-91300000D01*
X159700000Y-92300000D02*
X159700000Y-93800000D01*
X159700000Y-93800000D02*
X161200000Y-93800000D01*
X159100000Y-111300000D02*
X159100000Y-109300000D01*
X159100000Y-109300000D02*
X157100000Y-109300000D01*
X157100000Y-109300000D02*
X157100000Y-111300000D01*
X157100000Y-111300000D02*
X159100000Y-111300000D01*
X160100000Y-111800000D02*
X161600000Y-111800000D01*
X161600000Y-111800000D02*
X161600000Y-110300000D01*
X157338000Y-101479000D02*
X158862000Y-101479000D01*
X159243000Y-101606000D02*
X156957000Y-101606000D01*
X156703000Y-101733000D02*
X159497000Y-101733000D01*
X159751000Y-101860000D02*
X156449000Y-101860000D01*
X156322000Y-101987000D02*
X159878000Y-101987000D01*
X154798000Y-101098000D02*
X161402000Y-101098000D01*
X161402000Y-101098000D02*
X161402000Y-106940000D01*
X161402000Y-106940000D02*
X160640000Y-107702000D01*
X160640000Y-107702000D02*
X155560000Y-107702000D01*
X155560000Y-107702000D02*
X154798000Y-106940000D01*
X154798000Y-106940000D02*
X154798000Y-101098000D01*
X158100000Y-106559000D02*
X158100000Y-105797000D01*
X157719000Y-106178000D02*
X158481000Y-106178000D01*
X161148000Y-104400000D02*
G75*
G03X161148000Y-104400000I-3048000J0D01*
G01*
X160200000Y-86300000D02*
X162200000Y-86300000D01*
X162200000Y-86300000D02*
X162200000Y-84300000D01*
X162200000Y-84300000D02*
X160200000Y-84300000D01*
X160200000Y-84300000D02*
X160200000Y-86300000D01*
X159700000Y-87300000D02*
X159700000Y-88800000D01*
X159700000Y-88800000D02*
X161200000Y-88800000D01*
X152225000Y-86250000D02*
X152225000Y-88250000D01*
X150175000Y-88250000D02*
X150175000Y-86250000D01*
D12*
X161995238Y-94480952D02*
X161995238Y-94080952D01*
X161842857Y-94080952D01*
X161804762Y-94100000D01*
X161785714Y-94119048D01*
X161766666Y-94157143D01*
X161766666Y-94214286D01*
X161785714Y-94252381D01*
X161804762Y-94271429D01*
X161842857Y-94290476D01*
X161995238Y-94290476D01*
X161423809Y-94214286D02*
X161423809Y-94480952D01*
X161519047Y-94061905D02*
X161614286Y-94347619D01*
X161366666Y-94347619D01*
X150080952Y-104833193D02*
X149890476Y-104699859D01*
X150080952Y-104604621D02*
X149680952Y-104604621D01*
X149680952Y-104757002D01*
X149700000Y-104795097D01*
X149719048Y-104814145D01*
X149757143Y-104833193D01*
X149814286Y-104833193D01*
X149852381Y-104814145D01*
X149871429Y-104795097D01*
X149890476Y-104757002D01*
X149890476Y-104604621D01*
X149680952Y-104966526D02*
X149680952Y-105214145D01*
X149833333Y-105080812D01*
X149833333Y-105137954D01*
X149852381Y-105176050D01*
X149871429Y-105195097D01*
X149909524Y-105214145D01*
X150004762Y-105214145D01*
X150042857Y-105195097D01*
X150061905Y-105176050D01*
X150080952Y-105137954D01*
X150080952Y-105023669D01*
X150061905Y-104985573D01*
X150042857Y-104966526D01*
X152080952Y-107133334D02*
X151890476Y-107000000D01*
X152080952Y-106904762D02*
X151680952Y-106904762D01*
X151680952Y-107057143D01*
X151700000Y-107095238D01*
X151719048Y-107114286D01*
X151757143Y-107133334D01*
X151814286Y-107133334D01*
X151852381Y-107114286D01*
X151871429Y-107095238D01*
X151890476Y-107057143D01*
X151890476Y-106904762D01*
X152080952Y-107514286D02*
X152080952Y-107285714D01*
X152080952Y-107400000D02*
X151680952Y-107400000D01*
X151738095Y-107361905D01*
X151776190Y-107323810D01*
X151795238Y-107285714D01*
X138930952Y-106895238D02*
X139254762Y-106895238D01*
X139292857Y-106914286D01*
X139311905Y-106933333D01*
X139330952Y-106971429D01*
X139330952Y-107047619D01*
X139311905Y-107085714D01*
X139292857Y-107104762D01*
X139254762Y-107123810D01*
X138930952Y-107123810D01*
X138930952Y-107276191D02*
X138930952Y-107523810D01*
X139083333Y-107390477D01*
X139083333Y-107447619D01*
X139102381Y-107485715D01*
X139121429Y-107504762D01*
X139159524Y-107523810D01*
X139254762Y-107523810D01*
X139292857Y-107504762D01*
X139311905Y-107485715D01*
X139330952Y-107447619D01*
X139330952Y-107333334D01*
X139311905Y-107295238D01*
X139292857Y-107276191D01*
X143282462Y-100735448D02*
X143282462Y-100335448D01*
X143187224Y-100335448D01*
X143130081Y-100354496D01*
X143091986Y-100392591D01*
X143072938Y-100430686D01*
X143053890Y-100506877D01*
X143053890Y-100564020D01*
X143072938Y-100640210D01*
X143091986Y-100678306D01*
X143130081Y-100716401D01*
X143187224Y-100735448D01*
X143282462Y-100735448D01*
X142672938Y-100735448D02*
X142901510Y-100735448D01*
X142787224Y-100735448D02*
X142787224Y-100335448D01*
X142825319Y-100392591D01*
X142863414Y-100430686D01*
X142901510Y-100449734D01*
X149630081Y-84487830D02*
X149649129Y-84468782D01*
X149668176Y-84411639D01*
X149668176Y-84373544D01*
X149649129Y-84316401D01*
X149611034Y-84278306D01*
X149572938Y-84259258D01*
X149496748Y-84240210D01*
X149439605Y-84240210D01*
X149363414Y-84259258D01*
X149325319Y-84278306D01*
X149287224Y-84316401D01*
X149268176Y-84373544D01*
X149268176Y-84411639D01*
X149287224Y-84468782D01*
X149306272Y-84487830D01*
X149268176Y-84621163D02*
X149268176Y-84887830D01*
X149668176Y-84716401D01*
X149767805Y-88332567D02*
X149463043Y-88332567D01*
X149615424Y-88484948D02*
X149615424Y-88180186D01*
X142966666Y-95742857D02*
X142985714Y-95761905D01*
X143042857Y-95780952D01*
X143080952Y-95780952D01*
X143138095Y-95761905D01*
X143176190Y-95723810D01*
X143195238Y-95685714D01*
X143214286Y-95609524D01*
X143214286Y-95552381D01*
X143195238Y-95476190D01*
X143176190Y-95438095D01*
X143138095Y-95400000D01*
X143080952Y-95380952D01*
X143042857Y-95380952D01*
X142985714Y-95400000D01*
X142966666Y-95419048D01*
X142604762Y-95380952D02*
X142795238Y-95380952D01*
X142814286Y-95571429D01*
X142795238Y-95552381D01*
X142757143Y-95533333D01*
X142661905Y-95533333D01*
X142623809Y-95552381D01*
X142604762Y-95571429D01*
X142585714Y-95609524D01*
X142585714Y-95704762D01*
X142604762Y-95742857D01*
X142623809Y-95761905D01*
X142661905Y-95780952D01*
X142757143Y-95780952D01*
X142795238Y-95761905D01*
X142814286Y-95742857D01*
X143542857Y-90287830D02*
X143561905Y-90268782D01*
X143580952Y-90211639D01*
X143580952Y-90173544D01*
X143561905Y-90116401D01*
X143523810Y-90078306D01*
X143485714Y-90059258D01*
X143409524Y-90040210D01*
X143352381Y-90040210D01*
X143276190Y-90059258D01*
X143238095Y-90078306D01*
X143200000Y-90116401D01*
X143180952Y-90173544D01*
X143180952Y-90211639D01*
X143200000Y-90268782D01*
X143219048Y-90287830D01*
X143180952Y-90630687D02*
X143180952Y-90554496D01*
X143200000Y-90516401D01*
X143219048Y-90497353D01*
X143276190Y-90459258D01*
X143352381Y-90440210D01*
X143504762Y-90440210D01*
X143542857Y-90459258D01*
X143561905Y-90478306D01*
X143580952Y-90516401D01*
X143580952Y-90592591D01*
X143561905Y-90630687D01*
X143542857Y-90649734D01*
X143504762Y-90668782D01*
X143409524Y-90668782D01*
X143371429Y-90649734D01*
X143352381Y-90630687D01*
X143333333Y-90592591D01*
X143333333Y-90516401D01*
X143352381Y-90478306D01*
X143371429Y-90459258D01*
X143409524Y-90440210D01*
X151732281Y-95141367D02*
X151427519Y-95141367D01*
X151579900Y-95293748D02*
X151579900Y-94988986D01*
X148653891Y-96735448D02*
X148844367Y-96735448D01*
X148844367Y-96335448D01*
X148311033Y-96735448D02*
X148539605Y-96735448D01*
X148425319Y-96735448D02*
X148425319Y-96335448D01*
X148463414Y-96392591D01*
X148501509Y-96430686D01*
X148539605Y-96449734D01*
X142680952Y-108133334D02*
X142490476Y-108000000D01*
X142680952Y-107904762D02*
X142280952Y-107904762D01*
X142280952Y-108057143D01*
X142300000Y-108095238D01*
X142319048Y-108114286D01*
X142357143Y-108133334D01*
X142414286Y-108133334D01*
X142452381Y-108114286D01*
X142471429Y-108095238D01*
X142490476Y-108057143D01*
X142490476Y-107904762D01*
X142319048Y-108285714D02*
X142300000Y-108304762D01*
X142280952Y-108342857D01*
X142280952Y-108438095D01*
X142300000Y-108476191D01*
X142319048Y-108495238D01*
X142357143Y-108514286D01*
X142395238Y-108514286D01*
X142452381Y-108495238D01*
X142680952Y-108266667D01*
X142680952Y-108514286D01*
X144280952Y-105695238D02*
X144604762Y-105695238D01*
X144642857Y-105714286D01*
X144661905Y-105733333D01*
X144680952Y-105771429D01*
X144680952Y-105847619D01*
X144661905Y-105885714D01*
X144642857Y-105904762D01*
X144604762Y-105923810D01*
X144280952Y-105923810D01*
X144280952Y-106304762D02*
X144280952Y-106114286D01*
X144471429Y-106095238D01*
X144452381Y-106114286D01*
X144433333Y-106152381D01*
X144433333Y-106247619D01*
X144452381Y-106285715D01*
X144471429Y-106304762D01*
X144509524Y-106323810D01*
X144604762Y-106323810D01*
X144642857Y-106304762D01*
X144661905Y-106285715D01*
X144680952Y-106247619D01*
X144680952Y-106152381D01*
X144661905Y-106114286D01*
X144642857Y-106095238D01*
X152516666Y-109230952D02*
X152650000Y-109040476D01*
X152745238Y-109230952D02*
X152745238Y-108830952D01*
X152592857Y-108830952D01*
X152554762Y-108850000D01*
X152535714Y-108869048D01*
X152516666Y-108907143D01*
X152516666Y-108964286D01*
X152535714Y-109002381D01*
X152554762Y-109021429D01*
X152592857Y-109040476D01*
X152745238Y-109040476D01*
X152173809Y-108830952D02*
X152250000Y-108830952D01*
X152288095Y-108850000D01*
X152307143Y-108869048D01*
X152345238Y-108926190D01*
X152364286Y-109002381D01*
X152364286Y-109154762D01*
X152345238Y-109192857D01*
X152326190Y-109211905D01*
X152288095Y-109230952D01*
X152211905Y-109230952D01*
X152173809Y-109211905D01*
X152154762Y-109192857D01*
X152135714Y-109154762D01*
X152135714Y-109059524D01*
X152154762Y-109021429D01*
X152173809Y-109002381D01*
X152211905Y-108983333D01*
X152288095Y-108983333D01*
X152326190Y-109002381D01*
X152345238Y-109021429D01*
X152364286Y-109059524D01*
X158495238Y-88980952D02*
X158495238Y-88580952D01*
X158342857Y-88580952D01*
X158304762Y-88600000D01*
X158285714Y-88619048D01*
X158266666Y-88657143D01*
X158266666Y-88714286D01*
X158285714Y-88752381D01*
X158304762Y-88771429D01*
X158342857Y-88790476D01*
X158495238Y-88790476D01*
X158133333Y-88580952D02*
X157866666Y-88580952D01*
X158038095Y-88980952D01*
X151380952Y-83954762D02*
X150980952Y-83954762D01*
X150980952Y-84107143D01*
X151000000Y-84145238D01*
X151019048Y-84164286D01*
X151057143Y-84183334D01*
X151114286Y-84183334D01*
X151152381Y-84164286D01*
X151171429Y-84145238D01*
X151190476Y-84107143D01*
X151190476Y-83954762D01*
X151380952Y-84564286D02*
X151380952Y-84335714D01*
X151380952Y-84450000D02*
X150980952Y-84450000D01*
X151038095Y-84411905D01*
X151076190Y-84373810D01*
X151095238Y-84335714D01*
X158195238Y-83730952D02*
X158195238Y-83330952D01*
X158042857Y-83330952D01*
X158004762Y-83350000D01*
X157985714Y-83369048D01*
X157966666Y-83407143D01*
X157966666Y-83464286D01*
X157985714Y-83502381D01*
X158004762Y-83521429D01*
X158042857Y-83540476D01*
X158195238Y-83540476D01*
X157833333Y-83330952D02*
X157585714Y-83330952D01*
X157719047Y-83483333D01*
X157661905Y-83483333D01*
X157623809Y-83502381D01*
X157604762Y-83521429D01*
X157585714Y-83559524D01*
X157585714Y-83654762D01*
X157604762Y-83692857D01*
X157623809Y-83711905D01*
X157661905Y-83730952D01*
X157776190Y-83730952D01*
X157814286Y-83711905D01*
X157833333Y-83692857D01*
X162245238Y-88980952D02*
X162245238Y-88580952D01*
X162092857Y-88580952D01*
X162054762Y-88600000D01*
X162035714Y-88619048D01*
X162016666Y-88657143D01*
X162016666Y-88714286D01*
X162035714Y-88752381D01*
X162054762Y-88771429D01*
X162092857Y-88790476D01*
X162245238Y-88790476D01*
X161654762Y-88580952D02*
X161845238Y-88580952D01*
X161864286Y-88771429D01*
X161845238Y-88752381D01*
X161807143Y-88733333D01*
X161711905Y-88733333D01*
X161673809Y-88752381D01*
X161654762Y-88771429D01*
X161635714Y-88809524D01*
X161635714Y-88904762D01*
X161654762Y-88942857D01*
X161673809Y-88961905D01*
X161711905Y-88980952D01*
X161807143Y-88980952D01*
X161845238Y-88961905D01*
X161864286Y-88942857D01*
X158245238Y-108780952D02*
X158245238Y-108380952D01*
X158092857Y-108380952D01*
X158054762Y-108400000D01*
X158035714Y-108419048D01*
X158016666Y-108457143D01*
X158016666Y-108514286D01*
X158035714Y-108552381D01*
X158054762Y-108571429D01*
X158092857Y-108590476D01*
X158245238Y-108590476D01*
X157673809Y-108380952D02*
X157750000Y-108380952D01*
X157788095Y-108400000D01*
X157807143Y-108419048D01*
X157845238Y-108476190D01*
X157864286Y-108552381D01*
X157864286Y-108704762D01*
X157845238Y-108742857D01*
X157826190Y-108761905D01*
X157788095Y-108780952D01*
X157711905Y-108780952D01*
X157673809Y-108761905D01*
X157654762Y-108742857D01*
X157635714Y-108704762D01*
X157635714Y-108609524D01*
X157654762Y-108571429D01*
X157673809Y-108552381D01*
X157711905Y-108533333D01*
X157788095Y-108533333D01*
X157826190Y-108552381D01*
X157845238Y-108571429D01*
X157864286Y-108609524D01*
X160042857Y-108433334D02*
X160061905Y-108414286D01*
X160080952Y-108357143D01*
X160080952Y-108319048D01*
X160061905Y-108261905D01*
X160023810Y-108223810D01*
X159985714Y-108204762D01*
X159909524Y-108185714D01*
X159852381Y-108185714D01*
X159776190Y-108204762D01*
X159738095Y-108223810D01*
X159700000Y-108261905D01*
X159680952Y-108319048D01*
X159680952Y-108357143D01*
X159700000Y-108414286D01*
X159719048Y-108433334D01*
X159814286Y-108776191D02*
X160080952Y-108776191D01*
X159661905Y-108680953D02*
X159947619Y-108585714D01*
X159947619Y-108833334D01*
X162245238Y-83980952D02*
X162245238Y-83580952D01*
X162092857Y-83580952D01*
X162054762Y-83600000D01*
X162035714Y-83619048D01*
X162016666Y-83657143D01*
X162016666Y-83714286D01*
X162035714Y-83752381D01*
X162054762Y-83771429D01*
X162092857Y-83790476D01*
X162245238Y-83790476D01*
X161826190Y-83980952D02*
X161750000Y-83980952D01*
X161711905Y-83961905D01*
X161692857Y-83942857D01*
X161654762Y-83885714D01*
X161635714Y-83809524D01*
X161635714Y-83657143D01*
X161654762Y-83619048D01*
X161673809Y-83600000D01*
X161711905Y-83580952D01*
X161788095Y-83580952D01*
X161826190Y-83600000D01*
X161845238Y-83619048D01*
X161864286Y-83657143D01*
X161864286Y-83752381D01*
X161845238Y-83790476D01*
X161826190Y-83809524D01*
X161788095Y-83828571D01*
X161711905Y-83828571D01*
X161673809Y-83809524D01*
X161654762Y-83790476D01*
X161635714Y-83752381D01*
X152880952Y-86733333D02*
X152880952Y-86542857D01*
X152480952Y-86542857D01*
X152519048Y-86847619D02*
X152500000Y-86866667D01*
X152480952Y-86904762D01*
X152480952Y-87000000D01*
X152500000Y-87038096D01*
X152519048Y-87057143D01*
X152557143Y-87076191D01*
X152595238Y-87076191D01*
X152652381Y-87057143D01*
X152880952Y-86828572D01*
X152880952Y-87076191D01*
M02*
