G04 #@! TF.FileFunction,Copper,L2,Bot,Signal*
%FSLAX46Y46*%
G04 Gerber Fmt 4.6, Leading zero omitted, Abs format (unit mm)*
G04 Created by KiCad (PCBNEW 4.0.4-stable) date 02/14/17 14:41:20*
%MOMM*%
%LPD*%
G01*
G04 APERTURE LIST*
%ADD10C,0.100000*%
%ADD11O,2.000000X1.270000*%
%ADD12R,3.000000X1.600000*%
%ADD13C,1.000000*%
%ADD14R,1.600000X1.000000*%
%ADD15O,1.998980X1.998980*%
%ADD16R,1.998980X1.998980*%
%ADD17R,1.600000X3.500000*%
%ADD18R,1.700000X1.700000*%
%ADD19O,1.700000X1.700000*%
%ADD20C,2.500000*%
%ADD21C,0.600000*%
%ADD22C,0.250000*%
%ADD23C,1.500000*%
%ADD24C,0.500000*%
%ADD25C,0.750000*%
%ADD26C,0.254000*%
G04 APERTURE END LIST*
D10*
D11*
X153550000Y-103090000D03*
X140850000Y-103090000D03*
X153550000Y-100550000D03*
X140850000Y-100550000D03*
X153550000Y-98010000D03*
X140850000Y-98010000D03*
X153550000Y-95470000D03*
X140850000Y-95470000D03*
X153550000Y-92930000D03*
X140850000Y-92930000D03*
X153550000Y-90390000D03*
X140850000Y-90390000D03*
X153550000Y-87850000D03*
X140850000Y-87850000D03*
X153550000Y-85310000D03*
X140850000Y-85310000D03*
D12*
X146100000Y-85300000D03*
X150500000Y-85300000D03*
D13*
X151200000Y-110300000D03*
D14*
X143200000Y-86900000D03*
X143200000Y-83900000D03*
D15*
X160200000Y-102840000D03*
D16*
X160200000Y-95220000D03*
D15*
X160200000Y-97760000D03*
X160200000Y-100300000D03*
D17*
X159450000Y-92000000D03*
X159450000Y-86600000D03*
D18*
X153990000Y-79800000D03*
D19*
X151450000Y-79800000D03*
D18*
X147950000Y-79800000D03*
D19*
X145410000Y-79800000D03*
D18*
X154200000Y-106800000D03*
D19*
X156740000Y-106800000D03*
X159280000Y-106800000D03*
X161820000Y-106800000D03*
D18*
X154160000Y-110800000D03*
D19*
X156700000Y-110800000D03*
X159240000Y-110800000D03*
X161780000Y-110800000D03*
D18*
X140370000Y-110800000D03*
D19*
X142910000Y-110800000D03*
X145450000Y-110800000D03*
X147990000Y-110800000D03*
D20*
X140450000Y-106800000D03*
X156450000Y-84050000D03*
D13*
X151700000Y-104550000D03*
X142556000Y-89310000D03*
X151700000Y-89310000D03*
X142556000Y-104550000D03*
D15*
X160490000Y-81300000D03*
D16*
X157950000Y-81300000D03*
D21*
X148900000Y-81400000D03*
X148900000Y-88000000D03*
X146700000Y-83000000D03*
X144200000Y-80800000D03*
X141450000Y-82550000D03*
X139950000Y-78800000D03*
X145900000Y-95200000D03*
X145100000Y-87400000D03*
X150700000Y-95050000D03*
X153700000Y-108550000D03*
X150200000Y-107300000D03*
X145200000Y-105524968D03*
X146450000Y-93550000D03*
X152603265Y-106409647D03*
X151229923Y-107059203D03*
X144855482Y-108160619D03*
X152030987Y-107190272D03*
X145958958Y-108575000D03*
X155300000Y-88600000D03*
X151900000Y-100900000D03*
X151900000Y-97000000D03*
X140700000Y-80800000D03*
X149300000Y-94100000D03*
D22*
X151450000Y-79800000D02*
X149978036Y-81271964D01*
X149978036Y-81271964D02*
X149028036Y-81271964D01*
X149028036Y-81271964D02*
X148900000Y-81400000D01*
X149199999Y-88299999D02*
X148900000Y-88000000D01*
X150210000Y-89310000D02*
X149199999Y-88299999D01*
X151700000Y-89310000D02*
X150210000Y-89310000D01*
X145818587Y-81300000D02*
X146700000Y-82181413D01*
X146700000Y-82181413D02*
X148750000Y-84231413D01*
X146700000Y-83000000D02*
X146700000Y-82181413D01*
X141450000Y-82550000D02*
X139700000Y-80800000D01*
X139700000Y-80800000D02*
X139700000Y-79050000D01*
X139700000Y-79050000D02*
X139950000Y-78800000D01*
X143950000Y-81300000D02*
X143950000Y-81050000D01*
X143950000Y-81050000D02*
X144200000Y-80800000D01*
X139950000Y-78800000D02*
X140249999Y-79099999D01*
X140249999Y-79099999D02*
X141749999Y-79099999D01*
X141749999Y-79099999D02*
X143950000Y-81300000D01*
X143950000Y-81300000D02*
X145818587Y-81300000D01*
X148750000Y-84231413D02*
X148750000Y-84250000D01*
X148750000Y-84250000D02*
X149800000Y-85300000D01*
X149800000Y-85300000D02*
X150500000Y-85300000D01*
D23*
X159450000Y-86600000D02*
X159450000Y-84050000D01*
X159450000Y-84050000D02*
X157950000Y-82550000D01*
X157950000Y-82550000D02*
X157950000Y-81300000D01*
X156550002Y-100049998D02*
X156050000Y-100550000D01*
X156050000Y-100550000D02*
X153550000Y-100550000D01*
X156450000Y-87300000D02*
X156550002Y-87400002D01*
X156550002Y-87400002D02*
X156550002Y-100049998D01*
D22*
X145900000Y-99762659D02*
X145900000Y-95200000D01*
X140450000Y-106800000D02*
X141699999Y-105550001D01*
X141699999Y-105550001D02*
X141699999Y-103962660D01*
X141699999Y-103962660D02*
X145900000Y-99762659D01*
D24*
X144052081Y-109200000D02*
X142850000Y-109200000D01*
X142850000Y-109200000D02*
X140450000Y-106800000D01*
X145450000Y-110597919D02*
X144052081Y-109200000D01*
D25*
X150500000Y-85300000D02*
X153540000Y-85300000D01*
X153540000Y-85300000D02*
X153550000Y-85310000D01*
X151700000Y-89310000D02*
X151700000Y-86500000D01*
X151700000Y-86500000D02*
X150500000Y-85300000D01*
X153550000Y-100550000D02*
X151700000Y-102400000D01*
X151700000Y-102400000D02*
X151700000Y-104550000D01*
D22*
X156450000Y-84050000D02*
X159000000Y-86600000D01*
X159000000Y-86600000D02*
X159450000Y-86600000D01*
D25*
X153710000Y-85310000D02*
X155700000Y-87300000D01*
X155700000Y-87300000D02*
X156450000Y-87300000D01*
X153550000Y-85310000D02*
X153710000Y-85310000D01*
D23*
X159450000Y-86600000D02*
X157150000Y-86600000D01*
X157150000Y-86600000D02*
X156450000Y-87300000D01*
D24*
X153210000Y-85310000D02*
X153550000Y-85310000D01*
X153185000Y-100550000D02*
X153550000Y-100550000D01*
D22*
X149200000Y-95050000D02*
X145100000Y-90950000D01*
X150700000Y-95050000D02*
X149200000Y-95050000D01*
X145100000Y-87824264D02*
X145100000Y-87400000D01*
X145100000Y-90950000D02*
X145100000Y-87824264D01*
D24*
X153700000Y-108550000D02*
X153999999Y-108849999D01*
X153999999Y-108849999D02*
X159770001Y-108849999D01*
X159770001Y-108849999D02*
X160970001Y-107649999D01*
X160970001Y-107649999D02*
X161820000Y-106800000D01*
D25*
X162030000Y-106800000D02*
X161813914Y-107016086D01*
D22*
X146749999Y-103974969D02*
X145499999Y-105224969D01*
X146749999Y-93849999D02*
X146749999Y-103974969D01*
X145499999Y-105224969D02*
X145200000Y-105524968D01*
X146450000Y-93550000D02*
X146749999Y-93849999D01*
X157160000Y-106800000D02*
X155410000Y-105050000D01*
X155410000Y-105050000D02*
X153718560Y-105050000D01*
X153718560Y-105050000D02*
X152808982Y-105959578D01*
X152808982Y-105959578D02*
X152808982Y-106203930D01*
X152808982Y-106203930D02*
X152603265Y-106409647D01*
D23*
X161750000Y-92000000D02*
X161950000Y-91800000D01*
X161950000Y-91800000D02*
X161950000Y-82671970D01*
X153550000Y-103090000D02*
X156050000Y-103090000D01*
X156050000Y-103090000D02*
X157749491Y-104789491D01*
X162200000Y-92450000D02*
X161750000Y-92000000D01*
X157749491Y-104789491D02*
X161135757Y-104789491D01*
X161135757Y-104789491D02*
X162200000Y-103725248D01*
X162200000Y-103725248D02*
X162200000Y-92450000D01*
X161750000Y-92000000D02*
X159450000Y-92000000D01*
X161950000Y-82671970D02*
X160578030Y-81300000D01*
X160578030Y-81300000D02*
X160490000Y-81300000D01*
D25*
X144506000Y-106500000D02*
X142556000Y-104550000D01*
X149974999Y-105625001D02*
X149100000Y-106500000D01*
X149100000Y-106500000D02*
X144506000Y-106500000D01*
X153550000Y-104228595D02*
X152153594Y-105625001D01*
X153550000Y-103090000D02*
X153550000Y-104228595D01*
X152153594Y-105625001D02*
X149974999Y-105625001D01*
X142556000Y-104550000D02*
X142556000Y-104694000D01*
D23*
X153550000Y-95470000D02*
X153915000Y-95470000D01*
X153550000Y-98010000D02*
X153915000Y-98010000D01*
D25*
X143200000Y-86900000D02*
X143200000Y-88666000D01*
X143200000Y-88666000D02*
X142556000Y-89310000D01*
D22*
X148260620Y-107860620D02*
X148450000Y-108050000D01*
X145155481Y-107860620D02*
X148260620Y-107860620D01*
X148450000Y-108050000D02*
X150663390Y-108050000D01*
X151229923Y-107483467D02*
X151229923Y-107059203D01*
X144855482Y-108160619D02*
X145155481Y-107860620D01*
X150663390Y-108050000D02*
X151229923Y-107483467D01*
X152030987Y-107614536D02*
X152030987Y-107190272D01*
X145958958Y-108575000D02*
X151070523Y-108575000D01*
X151070523Y-108575000D02*
X152030987Y-107614536D01*
X151900000Y-100900000D02*
X151900000Y-100475736D01*
X154990010Y-98455283D02*
X154990010Y-97385726D01*
X151900000Y-100475736D02*
X153290726Y-99085010D01*
X155374990Y-97000746D02*
X155374990Y-88874990D01*
X153290726Y-99085010D02*
X154360283Y-99085010D01*
X154360283Y-99085010D02*
X154990010Y-98455283D01*
X155374990Y-88874990D02*
X155300000Y-88800000D01*
X154990010Y-97385726D02*
X155374990Y-97000746D01*
X155300000Y-88800000D02*
X155300000Y-88600000D01*
D23*
X153550000Y-90390000D02*
X153915000Y-90390000D01*
D22*
X151900000Y-90317341D02*
X151900000Y-97000000D01*
X153550000Y-88667341D02*
X151900000Y-90317341D01*
X153550000Y-87850000D02*
X153550000Y-88667341D01*
D24*
X153550000Y-87850000D02*
X153915000Y-87850000D01*
D23*
X153550000Y-92930000D02*
X153851642Y-92930000D01*
D22*
X143200000Y-83900000D02*
X143200000Y-81724264D01*
X143200000Y-81724264D02*
X142275736Y-80800000D01*
X142275736Y-80800000D02*
X140700000Y-80800000D01*
X146100000Y-85300000D02*
X146100000Y-90900000D01*
X146100000Y-90900000D02*
X149300000Y-94100000D01*
D25*
X143200000Y-83900000D02*
X144700000Y-83900000D01*
X144700000Y-83900000D02*
X146100000Y-85300000D01*
D26*
G36*
X159367000Y-110673000D02*
X159387000Y-110673000D01*
X159387000Y-110927000D01*
X159367000Y-110927000D01*
X159367000Y-110947000D01*
X159113000Y-110947000D01*
X159113000Y-110927000D01*
X159093000Y-110927000D01*
X159093000Y-110673000D01*
X159113000Y-110673000D01*
X159113000Y-110653000D01*
X159367000Y-110653000D01*
X159367000Y-110673000D01*
X159367000Y-110673000D01*
G37*
X159367000Y-110673000D02*
X159387000Y-110673000D01*
X159387000Y-110927000D01*
X159367000Y-110927000D01*
X159367000Y-110947000D01*
X159113000Y-110947000D01*
X159113000Y-110927000D01*
X159093000Y-110927000D01*
X159093000Y-110673000D01*
X159113000Y-110673000D01*
X159113000Y-110653000D01*
X159367000Y-110653000D01*
X159367000Y-110673000D01*
G36*
X145577000Y-110673000D02*
X145597000Y-110673000D01*
X145597000Y-110927000D01*
X145577000Y-110927000D01*
X145577000Y-110947000D01*
X145323000Y-110947000D01*
X145323000Y-110927000D01*
X145303000Y-110927000D01*
X145303000Y-110673000D01*
X145323000Y-110673000D01*
X145323000Y-110653000D01*
X145577000Y-110653000D01*
X145577000Y-110673000D01*
X145577000Y-110673000D01*
G37*
X145577000Y-110673000D02*
X145597000Y-110673000D01*
X145597000Y-110927000D01*
X145577000Y-110927000D01*
X145577000Y-110947000D01*
X145323000Y-110947000D01*
X145323000Y-110927000D01*
X145303000Y-110927000D01*
X145303000Y-110673000D01*
X145323000Y-110673000D01*
X145323000Y-110653000D01*
X145577000Y-110653000D01*
X145577000Y-110673000D01*
G36*
X139560756Y-103982369D02*
X139970179Y-104255936D01*
X140453125Y-104352000D01*
X141246875Y-104352000D01*
X141433318Y-104314914D01*
X141429196Y-104324842D01*
X141428805Y-104773191D01*
X141600019Y-105187560D01*
X141916772Y-105504867D01*
X142138349Y-105596874D01*
X142172551Y-105619727D01*
X142212543Y-105627682D01*
X142219549Y-105630591D01*
X143797479Y-107208521D01*
X144122551Y-107425727D01*
X144253453Y-107451765D01*
X144070068Y-107634830D01*
X143928643Y-107975418D01*
X143928321Y-108344202D01*
X144069151Y-108685036D01*
X144329693Y-108946033D01*
X144670281Y-109087458D01*
X145039065Y-109087780D01*
X145149042Y-109042338D01*
X145172627Y-109099417D01*
X145387834Y-109315000D01*
X145322998Y-109315000D01*
X145322998Y-109479844D01*
X145093110Y-109358524D01*
X144683076Y-109528355D01*
X144254817Y-109918642D01*
X144183764Y-110069939D01*
X143954397Y-109726667D01*
X143475223Y-109406494D01*
X142910000Y-109294064D01*
X142344777Y-109406494D01*
X141865603Y-109726667D01*
X141827882Y-109783120D01*
X141815563Y-109717648D01*
X141678243Y-109504247D01*
X141468717Y-109361083D01*
X141220000Y-109310717D01*
X139520000Y-109310717D01*
X139427000Y-109328216D01*
X139427000Y-108426685D01*
X140125806Y-108694388D01*
X140875435Y-108674250D01*
X141474467Y-108426123D01*
X141603715Y-108133320D01*
X140450000Y-106979605D01*
X140435858Y-106993748D01*
X140256253Y-106814143D01*
X140270395Y-106800000D01*
X140629605Y-106800000D01*
X141783320Y-107953715D01*
X142076123Y-107824467D01*
X142344388Y-107124194D01*
X142324250Y-106374565D01*
X142076123Y-105775533D01*
X141783320Y-105646285D01*
X140629605Y-106800000D01*
X140270395Y-106800000D01*
X140256253Y-106785858D01*
X140435858Y-106606253D01*
X140450000Y-106620395D01*
X141603715Y-105466680D01*
X141474467Y-105173877D01*
X140774194Y-104905612D01*
X140024565Y-104925750D01*
X139427000Y-105173269D01*
X139427000Y-103782188D01*
X139560756Y-103982369D01*
X139560756Y-103982369D01*
G37*
X139560756Y-103982369D02*
X139970179Y-104255936D01*
X140453125Y-104352000D01*
X141246875Y-104352000D01*
X141433318Y-104314914D01*
X141429196Y-104324842D01*
X141428805Y-104773191D01*
X141600019Y-105187560D01*
X141916772Y-105504867D01*
X142138349Y-105596874D01*
X142172551Y-105619727D01*
X142212543Y-105627682D01*
X142219549Y-105630591D01*
X143797479Y-107208521D01*
X144122551Y-107425727D01*
X144253453Y-107451765D01*
X144070068Y-107634830D01*
X143928643Y-107975418D01*
X143928321Y-108344202D01*
X144069151Y-108685036D01*
X144329693Y-108946033D01*
X144670281Y-109087458D01*
X145039065Y-109087780D01*
X145149042Y-109042338D01*
X145172627Y-109099417D01*
X145387834Y-109315000D01*
X145322998Y-109315000D01*
X145322998Y-109479844D01*
X145093110Y-109358524D01*
X144683076Y-109528355D01*
X144254817Y-109918642D01*
X144183764Y-110069939D01*
X143954397Y-109726667D01*
X143475223Y-109406494D01*
X142910000Y-109294064D01*
X142344777Y-109406494D01*
X141865603Y-109726667D01*
X141827882Y-109783120D01*
X141815563Y-109717648D01*
X141678243Y-109504247D01*
X141468717Y-109361083D01*
X141220000Y-109310717D01*
X139520000Y-109310717D01*
X139427000Y-109328216D01*
X139427000Y-108426685D01*
X140125806Y-108694388D01*
X140875435Y-108674250D01*
X141474467Y-108426123D01*
X141603715Y-108133320D01*
X140450000Y-106979605D01*
X140435858Y-106993748D01*
X140256253Y-106814143D01*
X140270395Y-106800000D01*
X140629605Y-106800000D01*
X141783320Y-107953715D01*
X142076123Y-107824467D01*
X142344388Y-107124194D01*
X142324250Y-106374565D01*
X142076123Y-105775533D01*
X141783320Y-105646285D01*
X140629605Y-106800000D01*
X140270395Y-106800000D01*
X140256253Y-106785858D01*
X140435858Y-106606253D01*
X140450000Y-106620395D01*
X141603715Y-105466680D01*
X141474467Y-105173877D01*
X140774194Y-104905612D01*
X140024565Y-104925750D01*
X139427000Y-105173269D01*
X139427000Y-103782188D01*
X139560756Y-103982369D01*
G36*
X159407000Y-106673000D02*
X159427000Y-106673000D01*
X159427000Y-106927000D01*
X159407000Y-106927000D01*
X159407000Y-106947000D01*
X159153000Y-106947000D01*
X159153000Y-106927000D01*
X159133000Y-106927000D01*
X159133000Y-106673000D01*
X159153000Y-106673000D01*
X159153000Y-106653000D01*
X159407000Y-106653000D01*
X159407000Y-106673000D01*
X159407000Y-106673000D01*
G37*
X159407000Y-106673000D02*
X159427000Y-106673000D01*
X159427000Y-106927000D01*
X159407000Y-106927000D01*
X159407000Y-106947000D01*
X159153000Y-106947000D01*
X159153000Y-106927000D01*
X159133000Y-106927000D01*
X159133000Y-106673000D01*
X159153000Y-106673000D01*
X159153000Y-106653000D01*
X159407000Y-106653000D01*
X159407000Y-106673000D01*
G36*
X148668256Y-95581745D02*
X148814503Y-95679464D01*
X148912222Y-95744757D01*
X149200000Y-95802000D01*
X150140855Y-95802000D01*
X150174211Y-95835414D01*
X150514799Y-95976839D01*
X150883583Y-95977161D01*
X151148000Y-95867906D01*
X151148000Y-96440855D01*
X151114586Y-96474211D01*
X150973161Y-96814799D01*
X150972839Y-97183583D01*
X151113669Y-97524417D01*
X151374211Y-97785414D01*
X151714799Y-97926839D01*
X151907633Y-97927007D01*
X151891125Y-98010000D01*
X151987189Y-98492946D01*
X152260756Y-98902369D01*
X152350148Y-98962099D01*
X151368256Y-99943992D01*
X151205243Y-100187958D01*
X151181477Y-100307437D01*
X151114586Y-100374211D01*
X150973161Y-100714799D01*
X150972839Y-101083583D01*
X151113669Y-101424417D01*
X151374211Y-101685414D01*
X151714799Y-101826839D01*
X152083583Y-101827161D01*
X152424417Y-101686331D01*
X152501852Y-101609031D01*
X152581659Y-101674726D01*
X153039871Y-101814471D01*
X153023045Y-101817818D01*
X152946209Y-101869158D01*
X152670179Y-101924064D01*
X152260756Y-102197631D01*
X151987189Y-102607054D01*
X151891125Y-103090000D01*
X151960849Y-103440528D01*
X151845028Y-103401888D01*
X151394625Y-103433783D01*
X151126648Y-103544783D01*
X151089501Y-103759896D01*
X151700000Y-104370395D01*
X151714143Y-104356253D01*
X151859722Y-104501832D01*
X151738552Y-104623001D01*
X151565111Y-104623001D01*
X151506253Y-104564143D01*
X151520395Y-104550000D01*
X150909896Y-103939501D01*
X150694783Y-103976648D01*
X150551888Y-104404972D01*
X150567328Y-104623001D01*
X149974999Y-104623001D01*
X149591550Y-104699274D01*
X149266478Y-104916480D01*
X148684958Y-105498000D01*
X146290456Y-105498000D01*
X147281743Y-104506713D01*
X147444756Y-104262747D01*
X147501999Y-103974969D01*
X147501999Y-94415488D01*
X148668256Y-95581745D01*
X148668256Y-95581745D01*
G37*
X148668256Y-95581745D02*
X148814503Y-95679464D01*
X148912222Y-95744757D01*
X149200000Y-95802000D01*
X150140855Y-95802000D01*
X150174211Y-95835414D01*
X150514799Y-95976839D01*
X150883583Y-95977161D01*
X151148000Y-95867906D01*
X151148000Y-96440855D01*
X151114586Y-96474211D01*
X150973161Y-96814799D01*
X150972839Y-97183583D01*
X151113669Y-97524417D01*
X151374211Y-97785414D01*
X151714799Y-97926839D01*
X151907633Y-97927007D01*
X151891125Y-98010000D01*
X151987189Y-98492946D01*
X152260756Y-98902369D01*
X152350148Y-98962099D01*
X151368256Y-99943992D01*
X151205243Y-100187958D01*
X151181477Y-100307437D01*
X151114586Y-100374211D01*
X150973161Y-100714799D01*
X150972839Y-101083583D01*
X151113669Y-101424417D01*
X151374211Y-101685414D01*
X151714799Y-101826839D01*
X152083583Y-101827161D01*
X152424417Y-101686331D01*
X152501852Y-101609031D01*
X152581659Y-101674726D01*
X153039871Y-101814471D01*
X153023045Y-101817818D01*
X152946209Y-101869158D01*
X152670179Y-101924064D01*
X152260756Y-102197631D01*
X151987189Y-102607054D01*
X151891125Y-103090000D01*
X151960849Y-103440528D01*
X151845028Y-103401888D01*
X151394625Y-103433783D01*
X151126648Y-103544783D01*
X151089501Y-103759896D01*
X151700000Y-104370395D01*
X151714143Y-104356253D01*
X151859722Y-104501832D01*
X151738552Y-104623001D01*
X151565111Y-104623001D01*
X151506253Y-104564143D01*
X151520395Y-104550000D01*
X150909896Y-103939501D01*
X150694783Y-103976648D01*
X150551888Y-104404972D01*
X150567328Y-104623001D01*
X149974999Y-104623001D01*
X149591550Y-104699274D01*
X149266478Y-104916480D01*
X148684958Y-105498000D01*
X146290456Y-105498000D01*
X147281743Y-104506713D01*
X147444756Y-104262747D01*
X147501999Y-103974969D01*
X147501999Y-94415488D01*
X148668256Y-95581745D01*
G36*
X144348000Y-87958808D02*
X144348000Y-90950000D01*
X144405243Y-91237778D01*
X144568256Y-91481744D01*
X145887849Y-92801337D01*
X145664586Y-93024211D01*
X145523161Y-93364799D01*
X145522839Y-93733583D01*
X145663669Y-94074417D01*
X145924211Y-94335414D01*
X145997999Y-94366054D01*
X145997999Y-103663481D01*
X145063632Y-104597848D01*
X145016417Y-104597807D01*
X144675583Y-104738637D01*
X144418407Y-104995365D01*
X143636260Y-104213218D01*
X143511981Y-103912440D01*
X143195228Y-103595133D01*
X142781158Y-103423196D01*
X142442657Y-103422901D01*
X142508875Y-103090000D01*
X142412811Y-102607054D01*
X142139244Y-102197631D01*
X141729821Y-101924064D01*
X141246875Y-101828000D01*
X140453125Y-101828000D01*
X139970179Y-101924064D01*
X139560756Y-102197631D01*
X139427000Y-102397812D01*
X139427000Y-101242188D01*
X139560756Y-101442369D01*
X139970179Y-101715936D01*
X140453125Y-101812000D01*
X141246875Y-101812000D01*
X141729821Y-101715936D01*
X142139244Y-101442369D01*
X142412811Y-101032946D01*
X142508875Y-100550000D01*
X142412811Y-100067054D01*
X142139244Y-99657631D01*
X141729821Y-99384064D01*
X141246875Y-99288000D01*
X140453125Y-99288000D01*
X139970179Y-99384064D01*
X139560756Y-99657631D01*
X139427000Y-99857812D01*
X139427000Y-98702188D01*
X139560756Y-98902369D01*
X139970179Y-99175936D01*
X140453125Y-99272000D01*
X141246875Y-99272000D01*
X141729821Y-99175936D01*
X142139244Y-98902369D01*
X142412811Y-98492946D01*
X142508875Y-98010000D01*
X142412811Y-97527054D01*
X142139244Y-97117631D01*
X141729821Y-96844064D01*
X141246875Y-96748000D01*
X140453125Y-96748000D01*
X139970179Y-96844064D01*
X139560756Y-97117631D01*
X139427000Y-97317812D01*
X139427000Y-96162188D01*
X139560756Y-96362369D01*
X139970179Y-96635936D01*
X140453125Y-96732000D01*
X141246875Y-96732000D01*
X141729821Y-96635936D01*
X142139244Y-96362369D01*
X142412811Y-95952946D01*
X142508875Y-95470000D01*
X142412811Y-94987054D01*
X142139244Y-94577631D01*
X141729821Y-94304064D01*
X141246875Y-94208000D01*
X140453125Y-94208000D01*
X139970179Y-94304064D01*
X139560756Y-94577631D01*
X139427000Y-94777812D01*
X139427000Y-93622188D01*
X139560756Y-93822369D01*
X139970179Y-94095936D01*
X140453125Y-94192000D01*
X141246875Y-94192000D01*
X141729821Y-94095936D01*
X142139244Y-93822369D01*
X142412811Y-93412946D01*
X142508875Y-92930000D01*
X142412811Y-92447054D01*
X142139244Y-92037631D01*
X141729821Y-91764064D01*
X141246875Y-91668000D01*
X140453125Y-91668000D01*
X139970179Y-91764064D01*
X139560756Y-92037631D01*
X139427000Y-92237812D01*
X139427000Y-91082188D01*
X139560756Y-91282369D01*
X139970179Y-91555936D01*
X140453125Y-91652000D01*
X141246875Y-91652000D01*
X141729821Y-91555936D01*
X142139244Y-91282369D01*
X142412811Y-90872946D01*
X142499536Y-90436951D01*
X142779191Y-90437195D01*
X143193560Y-90265981D01*
X143510867Y-89949228D01*
X143636591Y-89646451D01*
X143908521Y-89374521D01*
X144125728Y-89049448D01*
X144202000Y-88666000D01*
X144202000Y-88001274D01*
X144232352Y-87995563D01*
X144325108Y-87935876D01*
X144348000Y-87958808D01*
X144348000Y-87958808D01*
G37*
X144348000Y-87958808D02*
X144348000Y-90950000D01*
X144405243Y-91237778D01*
X144568256Y-91481744D01*
X145887849Y-92801337D01*
X145664586Y-93024211D01*
X145523161Y-93364799D01*
X145522839Y-93733583D01*
X145663669Y-94074417D01*
X145924211Y-94335414D01*
X145997999Y-94366054D01*
X145997999Y-103663481D01*
X145063632Y-104597848D01*
X145016417Y-104597807D01*
X144675583Y-104738637D01*
X144418407Y-104995365D01*
X143636260Y-104213218D01*
X143511981Y-103912440D01*
X143195228Y-103595133D01*
X142781158Y-103423196D01*
X142442657Y-103422901D01*
X142508875Y-103090000D01*
X142412811Y-102607054D01*
X142139244Y-102197631D01*
X141729821Y-101924064D01*
X141246875Y-101828000D01*
X140453125Y-101828000D01*
X139970179Y-101924064D01*
X139560756Y-102197631D01*
X139427000Y-102397812D01*
X139427000Y-101242188D01*
X139560756Y-101442369D01*
X139970179Y-101715936D01*
X140453125Y-101812000D01*
X141246875Y-101812000D01*
X141729821Y-101715936D01*
X142139244Y-101442369D01*
X142412811Y-101032946D01*
X142508875Y-100550000D01*
X142412811Y-100067054D01*
X142139244Y-99657631D01*
X141729821Y-99384064D01*
X141246875Y-99288000D01*
X140453125Y-99288000D01*
X139970179Y-99384064D01*
X139560756Y-99657631D01*
X139427000Y-99857812D01*
X139427000Y-98702188D01*
X139560756Y-98902369D01*
X139970179Y-99175936D01*
X140453125Y-99272000D01*
X141246875Y-99272000D01*
X141729821Y-99175936D01*
X142139244Y-98902369D01*
X142412811Y-98492946D01*
X142508875Y-98010000D01*
X142412811Y-97527054D01*
X142139244Y-97117631D01*
X141729821Y-96844064D01*
X141246875Y-96748000D01*
X140453125Y-96748000D01*
X139970179Y-96844064D01*
X139560756Y-97117631D01*
X139427000Y-97317812D01*
X139427000Y-96162188D01*
X139560756Y-96362369D01*
X139970179Y-96635936D01*
X140453125Y-96732000D01*
X141246875Y-96732000D01*
X141729821Y-96635936D01*
X142139244Y-96362369D01*
X142412811Y-95952946D01*
X142508875Y-95470000D01*
X142412811Y-94987054D01*
X142139244Y-94577631D01*
X141729821Y-94304064D01*
X141246875Y-94208000D01*
X140453125Y-94208000D01*
X139970179Y-94304064D01*
X139560756Y-94577631D01*
X139427000Y-94777812D01*
X139427000Y-93622188D01*
X139560756Y-93822369D01*
X139970179Y-94095936D01*
X140453125Y-94192000D01*
X141246875Y-94192000D01*
X141729821Y-94095936D01*
X142139244Y-93822369D01*
X142412811Y-93412946D01*
X142508875Y-92930000D01*
X142412811Y-92447054D01*
X142139244Y-92037631D01*
X141729821Y-91764064D01*
X141246875Y-91668000D01*
X140453125Y-91668000D01*
X139970179Y-91764064D01*
X139560756Y-92037631D01*
X139427000Y-92237812D01*
X139427000Y-91082188D01*
X139560756Y-91282369D01*
X139970179Y-91555936D01*
X140453125Y-91652000D01*
X141246875Y-91652000D01*
X141729821Y-91555936D01*
X142139244Y-91282369D01*
X142412811Y-90872946D01*
X142499536Y-90436951D01*
X142779191Y-90437195D01*
X143193560Y-90265981D01*
X143510867Y-89949228D01*
X143636591Y-89646451D01*
X143908521Y-89374521D01*
X144125728Y-89049448D01*
X144202000Y-88666000D01*
X144202000Y-88001274D01*
X144232352Y-87995563D01*
X144325108Y-87935876D01*
X144348000Y-87958808D01*
G36*
X144045430Y-79205841D02*
X143933000Y-79771064D01*
X143933000Y-79828936D01*
X144045430Y-80394159D01*
X144365603Y-80873333D01*
X144844777Y-81193506D01*
X145410000Y-81305936D01*
X145975223Y-81193506D01*
X146454397Y-80873333D01*
X146492118Y-80816880D01*
X146504437Y-80882352D01*
X146641757Y-81095753D01*
X146851283Y-81238917D01*
X147100000Y-81289283D01*
X147973096Y-81289283D01*
X147972839Y-81583583D01*
X148113669Y-81924417D01*
X148374211Y-82185414D01*
X148714799Y-82326839D01*
X149083583Y-82327161D01*
X149424417Y-82186331D01*
X149587068Y-82023964D01*
X149978036Y-82023964D01*
X150265814Y-81966721D01*
X150509780Y-81803708D01*
X151080959Y-81232529D01*
X151450000Y-81305936D01*
X152015223Y-81193506D01*
X152494397Y-80873333D01*
X152532118Y-80816880D01*
X152544437Y-80882352D01*
X152681757Y-81095753D01*
X152891283Y-81238917D01*
X153140000Y-81289283D01*
X154840000Y-81289283D01*
X155072352Y-81245563D01*
X155285753Y-81108243D01*
X155428917Y-80898717D01*
X155479283Y-80650000D01*
X155479283Y-80174200D01*
X156315510Y-80174200D01*
X156315510Y-81014250D01*
X156474260Y-81173000D01*
X157823000Y-81173000D01*
X157823000Y-79824260D01*
X157664250Y-79665510D01*
X156824201Y-79665510D01*
X156590812Y-79762183D01*
X156412183Y-79940811D01*
X156315510Y-80174200D01*
X155479283Y-80174200D01*
X155479283Y-79027000D01*
X162473000Y-79027000D01*
X162473000Y-81247598D01*
X162054733Y-80829331D01*
X162024546Y-80677569D01*
X161671967Y-80149898D01*
X161144296Y-79797319D01*
X160521865Y-79673510D01*
X160458135Y-79673510D01*
X159835704Y-79797319D01*
X159516677Y-80010486D01*
X159487817Y-79940811D01*
X159309188Y-79762183D01*
X159075799Y-79665510D01*
X158235750Y-79665510D01*
X158077000Y-79824260D01*
X158077000Y-81173000D01*
X158097000Y-81173000D01*
X158097000Y-81427000D01*
X158077000Y-81427000D01*
X158077000Y-82775740D01*
X158235750Y-82934490D01*
X159075799Y-82934490D01*
X159309188Y-82837817D01*
X159487817Y-82659189D01*
X159516677Y-82589514D01*
X159835704Y-82802681D01*
X160207242Y-82876584D01*
X160573000Y-83242342D01*
X160573000Y-84296472D01*
X160376310Y-84215000D01*
X159735750Y-84215000D01*
X159577000Y-84373750D01*
X159577000Y-86473000D01*
X159597000Y-86473000D01*
X159597000Y-86727000D01*
X159577000Y-86727000D01*
X159577000Y-88826250D01*
X159735750Y-88985000D01*
X160376310Y-88985000D01*
X160573000Y-88903528D01*
X160573000Y-89711839D01*
X160498717Y-89661083D01*
X160250000Y-89610717D01*
X158650000Y-89610717D01*
X158417648Y-89654437D01*
X158204247Y-89791757D01*
X158061083Y-90001283D01*
X158010717Y-90250000D01*
X158010717Y-93750000D01*
X158054437Y-93982352D01*
X158191757Y-94195753D01*
X158401283Y-94338917D01*
X158561227Y-94371306D01*
X158561227Y-96219490D01*
X158604947Y-96451842D01*
X158742267Y-96665243D01*
X158913465Y-96782219D01*
X158697319Y-97105704D01*
X158573510Y-97728135D01*
X158573510Y-97791865D01*
X158697319Y-98414296D01*
X159049898Y-98941967D01*
X159181649Y-99030000D01*
X159049898Y-99118033D01*
X158697319Y-99645704D01*
X158573510Y-100268135D01*
X158573510Y-100331865D01*
X158697319Y-100954296D01*
X159049898Y-101481967D01*
X159181649Y-101570000D01*
X159049898Y-101658033D01*
X158697319Y-102185704D01*
X158573510Y-102808135D01*
X158573510Y-102871865D01*
X158681047Y-103412491D01*
X158319863Y-103412491D01*
X157023686Y-102116314D01*
X156576955Y-101817818D01*
X156050000Y-101713000D01*
X154392844Y-101713000D01*
X154518341Y-101674726D01*
X154902828Y-101358223D01*
X155136928Y-100918675D01*
X155143209Y-100873112D01*
X155018969Y-100677000D01*
X153677000Y-100677000D01*
X153677000Y-100697000D01*
X153423000Y-100697000D01*
X153423000Y-100677000D01*
X153403000Y-100677000D01*
X153403000Y-100423000D01*
X153423000Y-100423000D01*
X153423000Y-100403000D01*
X153677000Y-100403000D01*
X153677000Y-100423000D01*
X155018969Y-100423000D01*
X155143209Y-100226888D01*
X155136928Y-100181325D01*
X154902828Y-99741777D01*
X154814157Y-99668785D01*
X154892027Y-99616754D01*
X155521754Y-98987028D01*
X155684767Y-98743061D01*
X155704940Y-98641645D01*
X155742010Y-98455283D01*
X155742010Y-97697214D01*
X155906734Y-97532490D01*
X156069747Y-97288524D01*
X156126990Y-97000746D01*
X156126990Y-89025663D01*
X156226839Y-88785201D01*
X156227161Y-88416417D01*
X156086331Y-88075583D01*
X155825789Y-87814586D01*
X155485201Y-87673161D01*
X155173645Y-87672889D01*
X155112811Y-87367054D01*
X154839244Y-86957631D01*
X154731667Y-86885750D01*
X158015000Y-86885750D01*
X158015000Y-88476309D01*
X158111673Y-88709698D01*
X158290301Y-88888327D01*
X158523690Y-88985000D01*
X159164250Y-88985000D01*
X159323000Y-88826250D01*
X159323000Y-86727000D01*
X158173750Y-86727000D01*
X158015000Y-86885750D01*
X154731667Y-86885750D01*
X154429821Y-86684064D01*
X153946875Y-86588000D01*
X153153125Y-86588000D01*
X152670179Y-86684064D01*
X152260756Y-86957631D01*
X151987189Y-87367054D01*
X151891125Y-87850000D01*
X151960849Y-88200528D01*
X151845028Y-88161888D01*
X151394625Y-88193783D01*
X151126648Y-88304783D01*
X151089501Y-88519896D01*
X151700000Y-89130395D01*
X151714143Y-89116253D01*
X151875872Y-89277982D01*
X151368256Y-89785597D01*
X151296263Y-89893342D01*
X151089501Y-90100104D01*
X151126648Y-90315217D01*
X151148000Y-90322340D01*
X151148000Y-94232285D01*
X150885201Y-94123161D01*
X150516417Y-94122839D01*
X150226876Y-94242475D01*
X150227161Y-93916417D01*
X150086331Y-93575583D01*
X149825789Y-93314586D01*
X149485201Y-93173161D01*
X149436607Y-93173119D01*
X146852000Y-90588512D01*
X146852000Y-89164972D01*
X150551888Y-89164972D01*
X150583783Y-89615375D01*
X150694783Y-89883352D01*
X150909896Y-89920499D01*
X151520395Y-89310000D01*
X150909896Y-88699501D01*
X150694783Y-88736648D01*
X150551888Y-89164972D01*
X146852000Y-89164972D01*
X146852000Y-86739283D01*
X147600000Y-86739283D01*
X147832352Y-86695563D01*
X148045753Y-86558243D01*
X148188917Y-86348717D01*
X148239283Y-86100000D01*
X148239283Y-85585750D01*
X148365000Y-85585750D01*
X148365000Y-86226310D01*
X148461673Y-86459699D01*
X148640302Y-86638327D01*
X148873691Y-86735000D01*
X150214250Y-86735000D01*
X150373000Y-86576250D01*
X150373000Y-85427000D01*
X150627000Y-85427000D01*
X150627000Y-86576250D01*
X150785750Y-86735000D01*
X152126309Y-86735000D01*
X152359698Y-86638327D01*
X152538327Y-86459699D01*
X152557059Y-86414476D01*
X152581659Y-86434726D01*
X153058000Y-86580000D01*
X153423000Y-86580000D01*
X153423000Y-85437000D01*
X153677000Y-85437000D01*
X153677000Y-86580000D01*
X154042000Y-86580000D01*
X154518341Y-86434726D01*
X154902828Y-86118223D01*
X155136928Y-85678675D01*
X155143209Y-85633112D01*
X155018969Y-85437000D01*
X153677000Y-85437000D01*
X153423000Y-85437000D01*
X152486250Y-85437000D01*
X152476250Y-85427000D01*
X150627000Y-85427000D01*
X150373000Y-85427000D01*
X148523750Y-85427000D01*
X148365000Y-85585750D01*
X148239283Y-85585750D01*
X148239283Y-85383320D01*
X155296285Y-85383320D01*
X155425533Y-85676123D01*
X156125806Y-85944388D01*
X156875435Y-85924250D01*
X157474467Y-85676123D01*
X157603715Y-85383320D01*
X156450000Y-84229605D01*
X155296285Y-85383320D01*
X148239283Y-85383320D01*
X148239283Y-84500000D01*
X148215517Y-84373690D01*
X148365000Y-84373690D01*
X148365000Y-85014250D01*
X148523750Y-85173000D01*
X150373000Y-85173000D01*
X150373000Y-84023750D01*
X150627000Y-84023750D01*
X150627000Y-85173000D01*
X152074696Y-85173000D01*
X152081031Y-85183000D01*
X153423000Y-85183000D01*
X153423000Y-84040000D01*
X153677000Y-84040000D01*
X153677000Y-85183000D01*
X155018969Y-85183000D01*
X155030067Y-85165482D01*
X155116680Y-85203715D01*
X156270395Y-84050000D01*
X155116680Y-82896285D01*
X154823877Y-83025533D01*
X154555612Y-83725806D01*
X154569077Y-84227039D01*
X154518341Y-84185274D01*
X154042000Y-84040000D01*
X153677000Y-84040000D01*
X153423000Y-84040000D01*
X153058000Y-84040000D01*
X152581659Y-84185274D01*
X152563237Y-84200439D01*
X152538327Y-84140301D01*
X152359698Y-83961673D01*
X152126309Y-83865000D01*
X150785750Y-83865000D01*
X150627000Y-84023750D01*
X150373000Y-84023750D01*
X150214250Y-83865000D01*
X148873691Y-83865000D01*
X148640302Y-83961673D01*
X148461673Y-84140301D01*
X148365000Y-84373690D01*
X148215517Y-84373690D01*
X148195563Y-84267648D01*
X148058243Y-84054247D01*
X147848717Y-83911083D01*
X147600000Y-83860717D01*
X146077759Y-83860717D01*
X145408521Y-83191479D01*
X145348363Y-83151283D01*
X145083449Y-82974273D01*
X144700000Y-82898000D01*
X144375923Y-82898000D01*
X144248717Y-82811083D01*
X144000000Y-82760717D01*
X143952000Y-82760717D01*
X143952000Y-82716680D01*
X155296285Y-82716680D01*
X156450000Y-83870395D01*
X156464143Y-83856253D01*
X156643748Y-84035858D01*
X156629605Y-84050000D01*
X157783320Y-85203715D01*
X158015000Y-85101448D01*
X158015000Y-86314250D01*
X158173750Y-86473000D01*
X159323000Y-86473000D01*
X159323000Y-84373750D01*
X159164250Y-84215000D01*
X158523690Y-84215000D01*
X158342132Y-84290204D01*
X158324250Y-83624565D01*
X158076123Y-83025533D01*
X157783322Y-82896286D01*
X157897054Y-82782554D01*
X157823000Y-82708500D01*
X157823000Y-81427000D01*
X156474260Y-81427000D01*
X156315510Y-81585750D01*
X156315510Y-82167934D01*
X156024565Y-82175750D01*
X155425533Y-82423877D01*
X155296285Y-82716680D01*
X143952000Y-82716680D01*
X143952000Y-81724264D01*
X143894757Y-81436486D01*
X143784827Y-81271964D01*
X143731745Y-81192520D01*
X142807480Y-80268256D01*
X142563514Y-80105243D01*
X142275736Y-80048000D01*
X141259145Y-80048000D01*
X141225789Y-80014586D01*
X140885201Y-79873161D01*
X140516417Y-79872839D01*
X140175583Y-80013669D01*
X139914586Y-80274211D01*
X139773161Y-80614799D01*
X139772839Y-80983583D01*
X139913669Y-81324417D01*
X140174211Y-81585414D01*
X140514799Y-81726839D01*
X140883583Y-81727161D01*
X141224417Y-81586331D01*
X141258808Y-81552000D01*
X141964248Y-81552000D01*
X142448000Y-82035753D01*
X142448000Y-82760717D01*
X142400000Y-82760717D01*
X142167648Y-82804437D01*
X141954247Y-82941757D01*
X141811083Y-83151283D01*
X141760717Y-83400000D01*
X141760717Y-84164708D01*
X141729821Y-84144064D01*
X141246875Y-84048000D01*
X140453125Y-84048000D01*
X139970179Y-84144064D01*
X139560756Y-84417631D01*
X139427000Y-84617812D01*
X139427000Y-79027000D01*
X144164927Y-79027000D01*
X144045430Y-79205841D01*
X144045430Y-79205841D01*
G37*
X144045430Y-79205841D02*
X143933000Y-79771064D01*
X143933000Y-79828936D01*
X144045430Y-80394159D01*
X144365603Y-80873333D01*
X144844777Y-81193506D01*
X145410000Y-81305936D01*
X145975223Y-81193506D01*
X146454397Y-80873333D01*
X146492118Y-80816880D01*
X146504437Y-80882352D01*
X146641757Y-81095753D01*
X146851283Y-81238917D01*
X147100000Y-81289283D01*
X147973096Y-81289283D01*
X147972839Y-81583583D01*
X148113669Y-81924417D01*
X148374211Y-82185414D01*
X148714799Y-82326839D01*
X149083583Y-82327161D01*
X149424417Y-82186331D01*
X149587068Y-82023964D01*
X149978036Y-82023964D01*
X150265814Y-81966721D01*
X150509780Y-81803708D01*
X151080959Y-81232529D01*
X151450000Y-81305936D01*
X152015223Y-81193506D01*
X152494397Y-80873333D01*
X152532118Y-80816880D01*
X152544437Y-80882352D01*
X152681757Y-81095753D01*
X152891283Y-81238917D01*
X153140000Y-81289283D01*
X154840000Y-81289283D01*
X155072352Y-81245563D01*
X155285753Y-81108243D01*
X155428917Y-80898717D01*
X155479283Y-80650000D01*
X155479283Y-80174200D01*
X156315510Y-80174200D01*
X156315510Y-81014250D01*
X156474260Y-81173000D01*
X157823000Y-81173000D01*
X157823000Y-79824260D01*
X157664250Y-79665510D01*
X156824201Y-79665510D01*
X156590812Y-79762183D01*
X156412183Y-79940811D01*
X156315510Y-80174200D01*
X155479283Y-80174200D01*
X155479283Y-79027000D01*
X162473000Y-79027000D01*
X162473000Y-81247598D01*
X162054733Y-80829331D01*
X162024546Y-80677569D01*
X161671967Y-80149898D01*
X161144296Y-79797319D01*
X160521865Y-79673510D01*
X160458135Y-79673510D01*
X159835704Y-79797319D01*
X159516677Y-80010486D01*
X159487817Y-79940811D01*
X159309188Y-79762183D01*
X159075799Y-79665510D01*
X158235750Y-79665510D01*
X158077000Y-79824260D01*
X158077000Y-81173000D01*
X158097000Y-81173000D01*
X158097000Y-81427000D01*
X158077000Y-81427000D01*
X158077000Y-82775740D01*
X158235750Y-82934490D01*
X159075799Y-82934490D01*
X159309188Y-82837817D01*
X159487817Y-82659189D01*
X159516677Y-82589514D01*
X159835704Y-82802681D01*
X160207242Y-82876584D01*
X160573000Y-83242342D01*
X160573000Y-84296472D01*
X160376310Y-84215000D01*
X159735750Y-84215000D01*
X159577000Y-84373750D01*
X159577000Y-86473000D01*
X159597000Y-86473000D01*
X159597000Y-86727000D01*
X159577000Y-86727000D01*
X159577000Y-88826250D01*
X159735750Y-88985000D01*
X160376310Y-88985000D01*
X160573000Y-88903528D01*
X160573000Y-89711839D01*
X160498717Y-89661083D01*
X160250000Y-89610717D01*
X158650000Y-89610717D01*
X158417648Y-89654437D01*
X158204247Y-89791757D01*
X158061083Y-90001283D01*
X158010717Y-90250000D01*
X158010717Y-93750000D01*
X158054437Y-93982352D01*
X158191757Y-94195753D01*
X158401283Y-94338917D01*
X158561227Y-94371306D01*
X158561227Y-96219490D01*
X158604947Y-96451842D01*
X158742267Y-96665243D01*
X158913465Y-96782219D01*
X158697319Y-97105704D01*
X158573510Y-97728135D01*
X158573510Y-97791865D01*
X158697319Y-98414296D01*
X159049898Y-98941967D01*
X159181649Y-99030000D01*
X159049898Y-99118033D01*
X158697319Y-99645704D01*
X158573510Y-100268135D01*
X158573510Y-100331865D01*
X158697319Y-100954296D01*
X159049898Y-101481967D01*
X159181649Y-101570000D01*
X159049898Y-101658033D01*
X158697319Y-102185704D01*
X158573510Y-102808135D01*
X158573510Y-102871865D01*
X158681047Y-103412491D01*
X158319863Y-103412491D01*
X157023686Y-102116314D01*
X156576955Y-101817818D01*
X156050000Y-101713000D01*
X154392844Y-101713000D01*
X154518341Y-101674726D01*
X154902828Y-101358223D01*
X155136928Y-100918675D01*
X155143209Y-100873112D01*
X155018969Y-100677000D01*
X153677000Y-100677000D01*
X153677000Y-100697000D01*
X153423000Y-100697000D01*
X153423000Y-100677000D01*
X153403000Y-100677000D01*
X153403000Y-100423000D01*
X153423000Y-100423000D01*
X153423000Y-100403000D01*
X153677000Y-100403000D01*
X153677000Y-100423000D01*
X155018969Y-100423000D01*
X155143209Y-100226888D01*
X155136928Y-100181325D01*
X154902828Y-99741777D01*
X154814157Y-99668785D01*
X154892027Y-99616754D01*
X155521754Y-98987028D01*
X155684767Y-98743061D01*
X155704940Y-98641645D01*
X155742010Y-98455283D01*
X155742010Y-97697214D01*
X155906734Y-97532490D01*
X156069747Y-97288524D01*
X156126990Y-97000746D01*
X156126990Y-89025663D01*
X156226839Y-88785201D01*
X156227161Y-88416417D01*
X156086331Y-88075583D01*
X155825789Y-87814586D01*
X155485201Y-87673161D01*
X155173645Y-87672889D01*
X155112811Y-87367054D01*
X154839244Y-86957631D01*
X154731667Y-86885750D01*
X158015000Y-86885750D01*
X158015000Y-88476309D01*
X158111673Y-88709698D01*
X158290301Y-88888327D01*
X158523690Y-88985000D01*
X159164250Y-88985000D01*
X159323000Y-88826250D01*
X159323000Y-86727000D01*
X158173750Y-86727000D01*
X158015000Y-86885750D01*
X154731667Y-86885750D01*
X154429821Y-86684064D01*
X153946875Y-86588000D01*
X153153125Y-86588000D01*
X152670179Y-86684064D01*
X152260756Y-86957631D01*
X151987189Y-87367054D01*
X151891125Y-87850000D01*
X151960849Y-88200528D01*
X151845028Y-88161888D01*
X151394625Y-88193783D01*
X151126648Y-88304783D01*
X151089501Y-88519896D01*
X151700000Y-89130395D01*
X151714143Y-89116253D01*
X151875872Y-89277982D01*
X151368256Y-89785597D01*
X151296263Y-89893342D01*
X151089501Y-90100104D01*
X151126648Y-90315217D01*
X151148000Y-90322340D01*
X151148000Y-94232285D01*
X150885201Y-94123161D01*
X150516417Y-94122839D01*
X150226876Y-94242475D01*
X150227161Y-93916417D01*
X150086331Y-93575583D01*
X149825789Y-93314586D01*
X149485201Y-93173161D01*
X149436607Y-93173119D01*
X146852000Y-90588512D01*
X146852000Y-89164972D01*
X150551888Y-89164972D01*
X150583783Y-89615375D01*
X150694783Y-89883352D01*
X150909896Y-89920499D01*
X151520395Y-89310000D01*
X150909896Y-88699501D01*
X150694783Y-88736648D01*
X150551888Y-89164972D01*
X146852000Y-89164972D01*
X146852000Y-86739283D01*
X147600000Y-86739283D01*
X147832352Y-86695563D01*
X148045753Y-86558243D01*
X148188917Y-86348717D01*
X148239283Y-86100000D01*
X148239283Y-85585750D01*
X148365000Y-85585750D01*
X148365000Y-86226310D01*
X148461673Y-86459699D01*
X148640302Y-86638327D01*
X148873691Y-86735000D01*
X150214250Y-86735000D01*
X150373000Y-86576250D01*
X150373000Y-85427000D01*
X150627000Y-85427000D01*
X150627000Y-86576250D01*
X150785750Y-86735000D01*
X152126309Y-86735000D01*
X152359698Y-86638327D01*
X152538327Y-86459699D01*
X152557059Y-86414476D01*
X152581659Y-86434726D01*
X153058000Y-86580000D01*
X153423000Y-86580000D01*
X153423000Y-85437000D01*
X153677000Y-85437000D01*
X153677000Y-86580000D01*
X154042000Y-86580000D01*
X154518341Y-86434726D01*
X154902828Y-86118223D01*
X155136928Y-85678675D01*
X155143209Y-85633112D01*
X155018969Y-85437000D01*
X153677000Y-85437000D01*
X153423000Y-85437000D01*
X152486250Y-85437000D01*
X152476250Y-85427000D01*
X150627000Y-85427000D01*
X150373000Y-85427000D01*
X148523750Y-85427000D01*
X148365000Y-85585750D01*
X148239283Y-85585750D01*
X148239283Y-85383320D01*
X155296285Y-85383320D01*
X155425533Y-85676123D01*
X156125806Y-85944388D01*
X156875435Y-85924250D01*
X157474467Y-85676123D01*
X157603715Y-85383320D01*
X156450000Y-84229605D01*
X155296285Y-85383320D01*
X148239283Y-85383320D01*
X148239283Y-84500000D01*
X148215517Y-84373690D01*
X148365000Y-84373690D01*
X148365000Y-85014250D01*
X148523750Y-85173000D01*
X150373000Y-85173000D01*
X150373000Y-84023750D01*
X150627000Y-84023750D01*
X150627000Y-85173000D01*
X152074696Y-85173000D01*
X152081031Y-85183000D01*
X153423000Y-85183000D01*
X153423000Y-84040000D01*
X153677000Y-84040000D01*
X153677000Y-85183000D01*
X155018969Y-85183000D01*
X155030067Y-85165482D01*
X155116680Y-85203715D01*
X156270395Y-84050000D01*
X155116680Y-82896285D01*
X154823877Y-83025533D01*
X154555612Y-83725806D01*
X154569077Y-84227039D01*
X154518341Y-84185274D01*
X154042000Y-84040000D01*
X153677000Y-84040000D01*
X153423000Y-84040000D01*
X153058000Y-84040000D01*
X152581659Y-84185274D01*
X152563237Y-84200439D01*
X152538327Y-84140301D01*
X152359698Y-83961673D01*
X152126309Y-83865000D01*
X150785750Y-83865000D01*
X150627000Y-84023750D01*
X150373000Y-84023750D01*
X150214250Y-83865000D01*
X148873691Y-83865000D01*
X148640302Y-83961673D01*
X148461673Y-84140301D01*
X148365000Y-84373690D01*
X148215517Y-84373690D01*
X148195563Y-84267648D01*
X148058243Y-84054247D01*
X147848717Y-83911083D01*
X147600000Y-83860717D01*
X146077759Y-83860717D01*
X145408521Y-83191479D01*
X145348363Y-83151283D01*
X145083449Y-82974273D01*
X144700000Y-82898000D01*
X144375923Y-82898000D01*
X144248717Y-82811083D01*
X144000000Y-82760717D01*
X143952000Y-82760717D01*
X143952000Y-82716680D01*
X155296285Y-82716680D01*
X156450000Y-83870395D01*
X156464143Y-83856253D01*
X156643748Y-84035858D01*
X156629605Y-84050000D01*
X157783320Y-85203715D01*
X158015000Y-85101448D01*
X158015000Y-86314250D01*
X158173750Y-86473000D01*
X159323000Y-86473000D01*
X159323000Y-84373750D01*
X159164250Y-84215000D01*
X158523690Y-84215000D01*
X158342132Y-84290204D01*
X158324250Y-83624565D01*
X158076123Y-83025533D01*
X157783322Y-82896286D01*
X157897054Y-82782554D01*
X157823000Y-82708500D01*
X157823000Y-81427000D01*
X156474260Y-81427000D01*
X156315510Y-81585750D01*
X156315510Y-82167934D01*
X156024565Y-82175750D01*
X155425533Y-82423877D01*
X155296285Y-82716680D01*
X143952000Y-82716680D01*
X143952000Y-81724264D01*
X143894757Y-81436486D01*
X143784827Y-81271964D01*
X143731745Y-81192520D01*
X142807480Y-80268256D01*
X142563514Y-80105243D01*
X142275736Y-80048000D01*
X141259145Y-80048000D01*
X141225789Y-80014586D01*
X140885201Y-79873161D01*
X140516417Y-79872839D01*
X140175583Y-80013669D01*
X139914586Y-80274211D01*
X139773161Y-80614799D01*
X139772839Y-80983583D01*
X139913669Y-81324417D01*
X140174211Y-81585414D01*
X140514799Y-81726839D01*
X140883583Y-81727161D01*
X141224417Y-81586331D01*
X141258808Y-81552000D01*
X141964248Y-81552000D01*
X142448000Y-82035753D01*
X142448000Y-82760717D01*
X142400000Y-82760717D01*
X142167648Y-82804437D01*
X141954247Y-82941757D01*
X141811083Y-83151283D01*
X141760717Y-83400000D01*
X141760717Y-84164708D01*
X141729821Y-84144064D01*
X141246875Y-84048000D01*
X140453125Y-84048000D01*
X139970179Y-84144064D01*
X139560756Y-84417631D01*
X139427000Y-84617812D01*
X139427000Y-79027000D01*
X144164927Y-79027000D01*
X144045430Y-79205841D01*
M02*
