G04 #@! TF.FileFunction,Paste,Top*
%FSLAX46Y46*%
G04 Gerber Fmt 4.6, Leading zero omitted, Abs format (unit mm)*
G04 Created by KiCad (PCBNEW 4.0.4-stable) date 02/14/17 14:41:20*
%MOMM*%
%LPD*%
G01*
G04 APERTURE LIST*
%ADD10C,0.100000*%
%ADD11R,0.500000X0.600000*%
%ADD12R,0.600000X0.500000*%
%ADD13R,0.800100X0.800100*%
%ADD14R,0.600000X1.450000*%
%ADD15R,1.270000X0.970000*%
%ADD16R,0.500000X0.900000*%
%ADD17R,0.300000X0.400000*%
%ADD18R,0.300000X0.550000*%
%ADD19R,0.400000X0.300000*%
%ADD20R,0.550000X0.300000*%
%ADD21R,0.200000X0.300000*%
%ADD22R,0.300000X0.200000*%
%ADD23R,0.400000X0.200000*%
%ADD24R,0.200000X0.400000*%
%ADD25R,0.600000X0.400000*%
%ADD26R,0.900000X0.800000*%
G04 APERTURE END LIST*
D10*
D11*
X151400000Y-93650000D03*
X151400000Y-92550000D03*
D12*
X147750000Y-99414000D03*
X146650000Y-99414000D03*
X149500000Y-107550000D03*
X148400000Y-107550000D03*
X149750000Y-99400000D03*
X150850000Y-99400000D03*
D13*
X149900000Y-87050000D03*
X148000000Y-87050000D03*
X148950000Y-89048980D03*
D14*
X145795000Y-97400000D03*
X147065000Y-97400000D03*
X148335000Y-97400000D03*
X149605000Y-97400000D03*
X149605000Y-91400000D03*
X148335000Y-91400000D03*
X147065000Y-91400000D03*
X145795000Y-91400000D03*
D15*
X157450000Y-86660000D03*
X157450000Y-87940000D03*
X161200000Y-86660000D03*
X161200000Y-87940000D03*
D16*
X149300000Y-85300000D03*
X150800000Y-85300000D03*
D17*
X146500000Y-105300000D03*
D18*
X147000000Y-105200000D03*
X147500000Y-105200000D03*
X148000000Y-105200000D03*
X148500000Y-105200000D03*
X149000000Y-105200000D03*
D17*
X149500000Y-105350000D03*
D19*
X150000000Y-104800000D03*
D20*
X149900000Y-104300000D03*
X149900000Y-103800000D03*
X149900000Y-103300000D03*
X149900000Y-102800000D03*
X149900000Y-102300000D03*
D19*
X150000000Y-101800000D03*
D17*
X149500000Y-101250000D03*
D18*
X149000000Y-101400000D03*
X148500000Y-101400000D03*
X148000000Y-101400000D03*
X147500000Y-101400000D03*
X147000000Y-101400000D03*
D17*
X146500000Y-101300000D03*
D19*
X146000000Y-101800000D03*
D20*
X146100000Y-102300000D03*
X146100000Y-102800000D03*
X146100000Y-103300000D03*
X146100000Y-103800000D03*
X146100000Y-104300000D03*
D19*
X146000000Y-104800000D03*
D21*
X146550000Y-105150000D03*
D22*
X146150000Y-104750000D03*
D23*
X149900000Y-104750000D03*
D24*
X149450000Y-105250000D03*
D23*
X149900000Y-101850000D03*
D24*
X149450000Y-101350000D03*
D21*
X146550000Y-101450000D03*
D22*
X146150000Y-101850000D03*
D25*
X143450000Y-106850000D03*
X143450000Y-107750000D03*
D11*
X143200000Y-79000000D03*
X143200000Y-80100000D03*
D12*
X139450000Y-83300000D03*
X140550000Y-83300000D03*
D26*
X139700000Y-79850000D03*
X139700000Y-81750000D03*
X141700000Y-80800000D03*
M02*
