G04 #@! TF.FileFunction,Legend,Bot*
%FSLAX46Y46*%
G04 Gerber Fmt 4.6, Leading zero omitted, Abs format (unit mm)*
G04 Created by KiCad (PCBNEW 4.0.4-stable) date 02/16/17 23:31:48*
%MOMM*%
%LPD*%
G01*
G04 APERTURE LIST*
%ADD10C,0.100000*%
%ADD11C,0.250000*%
%ADD12C,0.200000*%
%ADD13C,0.150000*%
%ADD14C,0.120000*%
%ADD15C,0.090000*%
G04 APERTURE END LIST*
D10*
D11*
X147371429Y-106520500D02*
X147371429Y-108058595D01*
X147442857Y-108239547D01*
X147514286Y-108330024D01*
X147657143Y-108420500D01*
X147942857Y-108420500D01*
X148085715Y-108330024D01*
X148157143Y-108239547D01*
X148228572Y-108058595D01*
X148228572Y-106520500D01*
D10*
X146728572Y-108414286D02*
X146757143Y-108442857D01*
X146842857Y-108471429D01*
X146900000Y-108471429D01*
X146985715Y-108442857D01*
X147042857Y-108385714D01*
X147071429Y-108328571D01*
X147100000Y-108214286D01*
X147100000Y-108128571D01*
X147071429Y-108014286D01*
X147042857Y-107957143D01*
X146985715Y-107900000D01*
X146900000Y-107871429D01*
X146842857Y-107871429D01*
X146757143Y-107900000D01*
X146728572Y-107928571D01*
X146271429Y-108157143D02*
X146185715Y-108185714D01*
X146157143Y-108214286D01*
X146128572Y-108271429D01*
X146128572Y-108357143D01*
X146157143Y-108414286D01*
X146185715Y-108442857D01*
X146242857Y-108471429D01*
X146471429Y-108471429D01*
X146471429Y-107871429D01*
X146271429Y-107871429D01*
X146214286Y-107900000D01*
X146185715Y-107928571D01*
X146157143Y-107985714D01*
X146157143Y-108042857D01*
X146185715Y-108100000D01*
X146214286Y-108128571D01*
X146271429Y-108157143D01*
X146471429Y-108157143D01*
X145871429Y-108471429D02*
X145871429Y-107871429D01*
X145728572Y-107871429D01*
X145642857Y-107900000D01*
X145585715Y-107957143D01*
X145557143Y-108014286D01*
X145528572Y-108128571D01*
X145528572Y-108214286D01*
X145557143Y-108328571D01*
X145585715Y-108385714D01*
X145642857Y-108442857D01*
X145728572Y-108471429D01*
X145871429Y-108471429D01*
X144928572Y-108414286D02*
X144957143Y-108442857D01*
X145042857Y-108471429D01*
X145100000Y-108471429D01*
X145185715Y-108442857D01*
X145242857Y-108385714D01*
X145271429Y-108328571D01*
X145300000Y-108214286D01*
X145300000Y-108128571D01*
X145271429Y-108014286D01*
X145242857Y-107957143D01*
X145185715Y-107900000D01*
X145100000Y-107871429D01*
X145042857Y-107871429D01*
X144957143Y-107900000D01*
X144928572Y-107928571D01*
X144357143Y-108471429D02*
X144700000Y-108471429D01*
X144528572Y-108471429D02*
X144528572Y-107871429D01*
X144585715Y-107957143D01*
X144642857Y-108014286D01*
X144700000Y-108042857D01*
X144100000Y-108414286D02*
X144071428Y-108442857D01*
X144100000Y-108471429D01*
X144128571Y-108442857D01*
X144100000Y-108414286D01*
X144100000Y-108471429D01*
X143700000Y-107871429D02*
X143642857Y-107871429D01*
X143585714Y-107900000D01*
X143557143Y-107928571D01*
X143528572Y-107985714D01*
X143500000Y-108100000D01*
X143500000Y-108242857D01*
X143528572Y-108357143D01*
X143557143Y-108414286D01*
X143585714Y-108442857D01*
X143642857Y-108471429D01*
X143700000Y-108471429D01*
X143757143Y-108442857D01*
X143785714Y-108414286D01*
X143814286Y-108357143D01*
X143842857Y-108242857D01*
X143842857Y-108100000D01*
X143814286Y-107985714D01*
X143785714Y-107928571D01*
X143757143Y-107900000D01*
X143700000Y-107871429D01*
D12*
X144700000Y-106450000D02*
X147345600Y-106450000D01*
D10*
X146564285Y-107485714D02*
X146602380Y-107523810D01*
X146716666Y-107561905D01*
X146792856Y-107561905D01*
X146907142Y-107523810D01*
X146983333Y-107447619D01*
X147021428Y-107371429D01*
X147059523Y-107219048D01*
X147059523Y-107104762D01*
X147021428Y-106952381D01*
X146983333Y-106876190D01*
X146907142Y-106800000D01*
X146792856Y-106761905D01*
X146716666Y-106761905D01*
X146602380Y-106800000D01*
X146564285Y-106838095D01*
X146259523Y-107333333D02*
X145878571Y-107333333D01*
X146335714Y-107561905D02*
X146069047Y-106761905D01*
X145802380Y-107561905D01*
X145535714Y-107561905D02*
X145535714Y-106761905D01*
X145078571Y-107561905D01*
X145078571Y-106761905D01*
D13*
X138580000Y-104995000D02*
X138580000Y-83405000D01*
X138580000Y-83405000D02*
X155820000Y-83405000D01*
X155820000Y-83405000D02*
X155820000Y-104995000D01*
X155820000Y-104995000D02*
X150073333Y-104995000D01*
X150073333Y-104995000D02*
X144326667Y-104995000D01*
X144326667Y-104995000D02*
X138580000Y-104995000D01*
X150967000Y-82633000D02*
X150967000Y-84182400D01*
X150967000Y-87967000D02*
X150967000Y-86417600D01*
X145633000Y-83395000D02*
X145633000Y-84182400D01*
X145633000Y-87205000D02*
X145633000Y-86417600D01*
X146166910Y-84181428D02*
G75*
G02X150433600Y-84182400I2133090J-1118572D01*
G01*
X150433600Y-86417600D02*
G75*
G02X146166400Y-86417600I-2133600J1117600D01*
G01*
X150967000Y-87967000D02*
X146395000Y-87967000D01*
X146395000Y-87967000D02*
X145633000Y-87205000D01*
X145633000Y-83395000D02*
X146395000Y-82633000D01*
X146395000Y-82633000D02*
X150967000Y-82633000D01*
X144225000Y-84400000D02*
X144225000Y-86400000D01*
X142175000Y-86400000D02*
X142175000Y-84400000D01*
X157101200Y-104330980D02*
X157101200Y-93729020D01*
X157499980Y-93729020D02*
X157499980Y-104330980D01*
X162800960Y-93729020D02*
X162800960Y-104330980D01*
X163298800Y-104330980D02*
X163298800Y-93729020D01*
X162800960Y-101526820D02*
X163298800Y-101526820D01*
X162800960Y-99030000D02*
X163298800Y-99030000D01*
X163298800Y-93932220D02*
X162800960Y-93932220D01*
X162800960Y-104130320D02*
X163298800Y-104130320D01*
X163298800Y-96533180D02*
X162800960Y-96533180D01*
X163298800Y-104328440D02*
X157101200Y-104328440D01*
X157101200Y-93734100D02*
X163298800Y-93734100D01*
X158334394Y-92132886D02*
G75*
G02X158332400Y-86467900I1115606J2832886D01*
G01*
X160567600Y-86467900D02*
G75*
G02X160567600Y-92132100I-1117600J-2832100D01*
G01*
X156148000Y-85998000D02*
X158332400Y-85998000D01*
X162752000Y-85998000D02*
X160567600Y-85998000D01*
X156910000Y-92602000D02*
X158332400Y-92602000D01*
X161990000Y-92602000D02*
X160567600Y-92602000D01*
X156148000Y-85998000D02*
X156148000Y-91840000D01*
X156148000Y-91840000D02*
X156910000Y-92602000D01*
X161990000Y-92602000D02*
X162752000Y-91840000D01*
X162752000Y-91840000D02*
X162752000Y-85998000D01*
D14*
X152720000Y-81190000D02*
X150060000Y-81190000D01*
X150060000Y-81190000D02*
X150060000Y-78410000D01*
X150060000Y-78410000D02*
X152720000Y-78410000D01*
X152720000Y-78410000D02*
X152720000Y-81190000D01*
X153990000Y-81190000D02*
X155380000Y-81190000D01*
X155380000Y-81190000D02*
X155380000Y-79800000D01*
X146680000Y-81190000D02*
X144020000Y-81190000D01*
X144020000Y-81190000D02*
X144020000Y-78410000D01*
X144020000Y-78410000D02*
X146680000Y-78410000D01*
X146680000Y-78410000D02*
X146680000Y-81190000D01*
X147950000Y-81190000D02*
X149340000Y-81190000D01*
X149340000Y-81190000D02*
X149340000Y-79800000D01*
X155470000Y-105410000D02*
X163210000Y-105410000D01*
X163210000Y-105410000D02*
X163210000Y-108190000D01*
X163210000Y-108190000D02*
X155470000Y-108190000D01*
X155470000Y-108190000D02*
X155470000Y-105410000D01*
X154200000Y-105410000D02*
X152810000Y-105410000D01*
X152810000Y-105410000D02*
X152810000Y-106800000D01*
X155430000Y-109410000D02*
X163170000Y-109410000D01*
X163170000Y-109410000D02*
X163170000Y-112190000D01*
X163170000Y-112190000D02*
X155430000Y-112190000D01*
X155430000Y-112190000D02*
X155430000Y-109410000D01*
X154160000Y-109410000D02*
X152770000Y-109410000D01*
X152770000Y-109410000D02*
X152770000Y-110800000D01*
X141640000Y-109410000D02*
X149380000Y-109410000D01*
X149380000Y-109410000D02*
X149380000Y-112190000D01*
X149380000Y-112190000D02*
X141640000Y-112190000D01*
X141640000Y-112190000D02*
X141640000Y-109410000D01*
X140370000Y-109410000D02*
X138980000Y-109410000D01*
X138980000Y-109410000D02*
X138980000Y-110800000D01*
D13*
X141700000Y-88550000D02*
X141700000Y-105550000D01*
X152700000Y-88550000D02*
X141700000Y-88550000D01*
X152700000Y-105550000D02*
X152700000Y-88550000D01*
X141700000Y-105550000D02*
X152700000Y-105550000D01*
X162019080Y-78699040D02*
X156420920Y-78699040D01*
X156619040Y-78201200D02*
X156619040Y-78699040D01*
X161820960Y-78699040D02*
X161820960Y-78201200D01*
X159220000Y-78201200D02*
X159220000Y-78699040D01*
X156420920Y-84000020D02*
X162019080Y-84000020D01*
X156420920Y-78201200D02*
X162019080Y-78201200D01*
X162019080Y-78201200D02*
X162019080Y-84398800D01*
X162019080Y-84398800D02*
X156420920Y-84398800D01*
X156420920Y-84398800D02*
X156420920Y-78201200D01*
D15*
X138930952Y-103245238D02*
X139254762Y-103245238D01*
X139292857Y-103264286D01*
X139311905Y-103283333D01*
X139330952Y-103321429D01*
X139330952Y-103397619D01*
X139311905Y-103435714D01*
X139292857Y-103454762D01*
X139254762Y-103473810D01*
X138930952Y-103473810D01*
X138930952Y-103626191D02*
X138930952Y-103873810D01*
X139083333Y-103740477D01*
X139083333Y-103797619D01*
X139102381Y-103835715D01*
X139121429Y-103854762D01*
X139159524Y-103873810D01*
X139254762Y-103873810D01*
X139292857Y-103854762D01*
X139311905Y-103835715D01*
X139330952Y-103797619D01*
X139330952Y-103683334D01*
X139311905Y-103645238D01*
X139292857Y-103626191D01*
X145192857Y-86633334D02*
X145211905Y-86614286D01*
X145230952Y-86557143D01*
X145230952Y-86519048D01*
X145211905Y-86461905D01*
X145173810Y-86423810D01*
X145135714Y-86404762D01*
X145059524Y-86385714D01*
X145002381Y-86385714D01*
X144926190Y-86404762D01*
X144888095Y-86423810D01*
X144850000Y-86461905D01*
X144830952Y-86519048D01*
X144830952Y-86557143D01*
X144850000Y-86614286D01*
X144869048Y-86633334D01*
X144830952Y-86766667D02*
X144830952Y-87033334D01*
X145230952Y-86861905D01*
X145074181Y-82979071D02*
X144769419Y-82979071D01*
X144921800Y-83131452D02*
X144921800Y-82826690D01*
X143480952Y-85433333D02*
X143480952Y-85242857D01*
X143080952Y-85242857D01*
X143119048Y-85547619D02*
X143100000Y-85566667D01*
X143080952Y-85604762D01*
X143080952Y-85700000D01*
X143100000Y-85738096D01*
X143119048Y-85757143D01*
X143157143Y-85776191D01*
X143195238Y-85776191D01*
X143252381Y-85757143D01*
X143480952Y-85528572D01*
X143480952Y-85776191D01*
X158380952Y-94664762D02*
X157980952Y-94664762D01*
X157980952Y-94817143D01*
X158000000Y-94855238D01*
X158019048Y-94874286D01*
X158057143Y-94893334D01*
X158114286Y-94893334D01*
X158152381Y-94874286D01*
X158171429Y-94855238D01*
X158190476Y-94817143D01*
X158190476Y-94664762D01*
X157980952Y-95026667D02*
X157980952Y-95293334D01*
X158380952Y-95121905D01*
X157342857Y-89233334D02*
X157361905Y-89214286D01*
X157380952Y-89157143D01*
X157380952Y-89119048D01*
X157361905Y-89061905D01*
X157323810Y-89023810D01*
X157285714Y-89004762D01*
X157209524Y-88985714D01*
X157152381Y-88985714D01*
X157076190Y-89004762D01*
X157038095Y-89023810D01*
X157000000Y-89061905D01*
X156980952Y-89119048D01*
X156980952Y-89157143D01*
X157000000Y-89214286D01*
X157019048Y-89233334D01*
X157114286Y-89576191D02*
X157380952Y-89576191D01*
X156961905Y-89480953D02*
X157247619Y-89385714D01*
X157247619Y-89633334D01*
D13*
X156511529Y-93198948D02*
X156511529Y-93960853D01*
X156892481Y-93579901D02*
X156130576Y-93579901D01*
D15*
X155630952Y-78854762D02*
X155230952Y-78854762D01*
X155230952Y-79007143D01*
X155250000Y-79045238D01*
X155269048Y-79064286D01*
X155307143Y-79083334D01*
X155364286Y-79083334D01*
X155402381Y-79064286D01*
X155421429Y-79045238D01*
X155440476Y-79007143D01*
X155440476Y-78854762D01*
X155630952Y-79273810D02*
X155630952Y-79350000D01*
X155611905Y-79388095D01*
X155592857Y-79407143D01*
X155535714Y-79445238D01*
X155459524Y-79464286D01*
X155307143Y-79464286D01*
X155269048Y-79445238D01*
X155250000Y-79426191D01*
X155230952Y-79388095D01*
X155230952Y-79311905D01*
X155250000Y-79273810D01*
X155269048Y-79254762D01*
X155307143Y-79235714D01*
X155402381Y-79235714D01*
X155440476Y-79254762D01*
X155459524Y-79273810D01*
X155478571Y-79311905D01*
X155478571Y-79388095D01*
X155459524Y-79426191D01*
X155440476Y-79445238D01*
X155402381Y-79464286D01*
X149590952Y-79054762D02*
X149190952Y-79054762D01*
X149190952Y-79207143D01*
X149210000Y-79245238D01*
X149229048Y-79264286D01*
X149267143Y-79283334D01*
X149324286Y-79283334D01*
X149362381Y-79264286D01*
X149381429Y-79245238D01*
X149400476Y-79207143D01*
X149400476Y-79054762D01*
X149590952Y-79664286D02*
X149590952Y-79435714D01*
X149590952Y-79550000D02*
X149190952Y-79550000D01*
X149248095Y-79511905D01*
X149286190Y-79473810D01*
X149305238Y-79435714D01*
X152920952Y-107104762D02*
X152520952Y-107104762D01*
X152520952Y-107257143D01*
X152540000Y-107295238D01*
X152559048Y-107314286D01*
X152597143Y-107333334D01*
X152654286Y-107333334D01*
X152692381Y-107314286D01*
X152711429Y-107295238D01*
X152730476Y-107257143D01*
X152730476Y-107104762D01*
X152654286Y-107676191D02*
X152920952Y-107676191D01*
X152501905Y-107580953D02*
X152787619Y-107485714D01*
X152787619Y-107733334D01*
X152880952Y-111254762D02*
X152480952Y-111254762D01*
X152480952Y-111407143D01*
X152500000Y-111445238D01*
X152519048Y-111464286D01*
X152557143Y-111483334D01*
X152614286Y-111483334D01*
X152652381Y-111464286D01*
X152671429Y-111445238D01*
X152690476Y-111407143D01*
X152690476Y-111254762D01*
X152480952Y-111845238D02*
X152480952Y-111654762D01*
X152671429Y-111635714D01*
X152652381Y-111654762D01*
X152633333Y-111692857D01*
X152633333Y-111788095D01*
X152652381Y-111826191D01*
X152671429Y-111845238D01*
X152709524Y-111864286D01*
X152804762Y-111864286D01*
X152842857Y-111845238D01*
X152861905Y-111826191D01*
X152880952Y-111788095D01*
X152880952Y-111692857D01*
X152861905Y-111654762D01*
X152842857Y-111635714D01*
X139130952Y-111254762D02*
X138730952Y-111254762D01*
X138730952Y-111407143D01*
X138750000Y-111445238D01*
X138769048Y-111464286D01*
X138807143Y-111483334D01*
X138864286Y-111483334D01*
X138902381Y-111464286D01*
X138921429Y-111445238D01*
X138940476Y-111407143D01*
X138940476Y-111254762D01*
X138902381Y-111711905D02*
X138883333Y-111673810D01*
X138864286Y-111654762D01*
X138826190Y-111635714D01*
X138807143Y-111635714D01*
X138769048Y-111654762D01*
X138750000Y-111673810D01*
X138730952Y-111711905D01*
X138730952Y-111788095D01*
X138750000Y-111826191D01*
X138769048Y-111845238D01*
X138807143Y-111864286D01*
X138826190Y-111864286D01*
X138864286Y-111845238D01*
X138883333Y-111826191D01*
X138902381Y-111788095D01*
X138902381Y-111711905D01*
X138921429Y-111673810D01*
X138940476Y-111654762D01*
X138978571Y-111635714D01*
X139054762Y-111635714D01*
X139092857Y-111654762D01*
X139111905Y-111673810D01*
X139130952Y-111711905D01*
X139130952Y-111788095D01*
X139111905Y-111826191D01*
X139092857Y-111845238D01*
X139054762Y-111864286D01*
X138978571Y-111864286D01*
X138940476Y-111845238D01*
X138921429Y-111826191D01*
X138902381Y-111788095D01*
X152004762Y-105830952D02*
X152004762Y-106154762D01*
X151985714Y-106192857D01*
X151966667Y-106211905D01*
X151928571Y-106230952D01*
X151852381Y-106230952D01*
X151814286Y-106211905D01*
X151795238Y-106192857D01*
X151776190Y-106154762D01*
X151776190Y-105830952D01*
X151395238Y-105830952D02*
X151585714Y-105830952D01*
X151604762Y-106021429D01*
X151585714Y-106002381D01*
X151547619Y-105983333D01*
X151452381Y-105983333D01*
X151414285Y-106002381D01*
X151395238Y-106021429D01*
X151376190Y-106059524D01*
X151376190Y-106154762D01*
X151395238Y-106192857D01*
X151414285Y-106211905D01*
X151452381Y-106230952D01*
X151547619Y-106230952D01*
X151585714Y-106211905D01*
X151604762Y-106192857D01*
D13*
X151152381Y-90930952D02*
X151152381Y-91121429D01*
X151200000Y-91216667D01*
X151295238Y-91311905D01*
X151485714Y-91359524D01*
X151819048Y-91359524D01*
X152009524Y-91311905D01*
X152104762Y-91216667D01*
X152152381Y-91121429D01*
X152152381Y-90930952D01*
X152104762Y-90835714D01*
X152009524Y-90740476D01*
X151819048Y-90692857D01*
X151485714Y-90692857D01*
X151295238Y-90740476D01*
X151200000Y-90835714D01*
X151152381Y-90930952D01*
X151152381Y-91788095D02*
X151961905Y-91788095D01*
X152057143Y-91835714D01*
X152104762Y-91883333D01*
X152152381Y-91978571D01*
X152152381Y-92169048D01*
X152104762Y-92264286D01*
X152057143Y-92311905D01*
X151961905Y-92359524D01*
X151152381Y-92359524D01*
X151152381Y-92692857D02*
X151152381Y-93264286D01*
X152152381Y-92978571D02*
X151152381Y-92978571D01*
X151771429Y-93597619D02*
X151771429Y-94359524D01*
X142152381Y-90930952D02*
X142152381Y-91121429D01*
X142200000Y-91216667D01*
X142295238Y-91311905D01*
X142485714Y-91359524D01*
X142819048Y-91359524D01*
X143009524Y-91311905D01*
X143104762Y-91216667D01*
X143152381Y-91121429D01*
X143152381Y-90930952D01*
X143104762Y-90835714D01*
X143009524Y-90740476D01*
X142819048Y-90692857D01*
X142485714Y-90692857D01*
X142295238Y-90740476D01*
X142200000Y-90835714D01*
X142152381Y-90930952D01*
X142152381Y-91788095D02*
X142961905Y-91788095D01*
X143057143Y-91835714D01*
X143104762Y-91883333D01*
X143152381Y-91978571D01*
X143152381Y-92169048D01*
X143104762Y-92264286D01*
X143057143Y-92311905D01*
X142961905Y-92359524D01*
X142152381Y-92359524D01*
X142152381Y-92692857D02*
X142152381Y-93264286D01*
X143152381Y-92978571D02*
X142152381Y-92978571D01*
X142771429Y-93597619D02*
X142771429Y-94359524D01*
X143152381Y-93978572D02*
X142390476Y-93978572D01*
X143152381Y-100407143D02*
X142152381Y-100407143D01*
X143152381Y-100883333D02*
X142152381Y-100883333D01*
X143152381Y-101454762D01*
X142152381Y-101454762D01*
X142771429Y-101930952D02*
X142771429Y-102692857D01*
X143152381Y-102311905D02*
X142390476Y-102311905D01*
X152152381Y-100407143D02*
X151152381Y-100407143D01*
X152152381Y-100883333D02*
X151152381Y-100883333D01*
X152152381Y-101454762D01*
X151152381Y-101454762D01*
X151771429Y-101930952D02*
X151771429Y-102692857D01*
D15*
X159515238Y-85981832D02*
X159515238Y-85581832D01*
X159362857Y-85581832D01*
X159324762Y-85600880D01*
X159305714Y-85619928D01*
X159286666Y-85658023D01*
X159286666Y-85715166D01*
X159305714Y-85753261D01*
X159324762Y-85772309D01*
X159362857Y-85791356D01*
X159515238Y-85791356D01*
X158943809Y-85581832D02*
X159020000Y-85581832D01*
X159058095Y-85600880D01*
X159077143Y-85619928D01*
X159115238Y-85677070D01*
X159134286Y-85753261D01*
X159134286Y-85905642D01*
X159115238Y-85943737D01*
X159096190Y-85962785D01*
X159058095Y-85981832D01*
X158981905Y-85981832D01*
X158943809Y-85962785D01*
X158924762Y-85943737D01*
X158905714Y-85905642D01*
X158905714Y-85810404D01*
X158924762Y-85772309D01*
X158943809Y-85753261D01*
X158981905Y-85734213D01*
X159058095Y-85734213D01*
X159096190Y-85753261D01*
X159115238Y-85772309D01*
X159134286Y-85810404D01*
M02*
