G04 #@! TF.FileFunction,Other,User*
%FSLAX46Y46*%
G04 Gerber Fmt 4.6, Leading zero omitted, Abs format (unit mm)*
G04 Created by KiCad (PCBNEW 4.0.4-stable) date 02/16/17 23:31:48*
%MOMM*%
%LPD*%
G01*
G04 APERTURE LIST*
%ADD10C,0.100000*%
%ADD11C,0.050000*%
%ADD12C,0.150000*%
G04 APERTURE END LIST*
D10*
D11*
X150800000Y-94250000D02*
X150800000Y-91950000D01*
X152000000Y-94250000D02*
X152000000Y-91950000D01*
X150800000Y-94250000D02*
X152000000Y-94250000D01*
X150800000Y-91950000D02*
X152000000Y-91950000D01*
X148350000Y-100014000D02*
X146050000Y-100014000D01*
X148350000Y-98814000D02*
X146050000Y-98814000D01*
X148350000Y-100014000D02*
X148350000Y-98814000D01*
X146050000Y-100014000D02*
X146050000Y-98814000D01*
X150100000Y-108150000D02*
X147800000Y-108150000D01*
X150100000Y-106950000D02*
X147800000Y-106950000D01*
X150100000Y-108150000D02*
X150100000Y-106950000D01*
X147800000Y-108150000D02*
X147800000Y-106950000D01*
X149150000Y-98800000D02*
X151450000Y-98800000D01*
X149150000Y-100000000D02*
X151450000Y-100000000D01*
X149150000Y-98800000D02*
X149150000Y-100000000D01*
X151450000Y-98800000D02*
X151450000Y-100000000D01*
X150600000Y-89650760D02*
X147300000Y-89650760D01*
X147300000Y-89650760D02*
X147300000Y-86450760D01*
X147300000Y-86450760D02*
X150600000Y-86450760D01*
X150600000Y-86450760D02*
X150600000Y-89650760D01*
X152750000Y-110800000D02*
G75*
G03X152750000Y-110800000I-1550000J0D01*
G01*
X158550000Y-85850000D02*
X158550000Y-88800000D01*
X158550000Y-88800000D02*
X156350000Y-88800000D01*
X156350000Y-88800000D02*
X156350000Y-85850000D01*
X156350000Y-85850000D02*
X158550000Y-85850000D01*
X162300000Y-85850000D02*
X162300000Y-88800000D01*
X162300000Y-88800000D02*
X160100000Y-88800000D01*
X160100000Y-88800000D02*
X160100000Y-85850000D01*
X160100000Y-85850000D02*
X162300000Y-85850000D01*
X148750000Y-84500000D02*
X151350000Y-84500000D01*
X148750000Y-86100000D02*
X151350000Y-86100000D01*
X148750000Y-84500000D02*
X148750000Y-86100000D01*
X151350000Y-84500000D02*
X151350000Y-86100000D01*
D12*
X144725000Y-106575000D02*
X144725000Y-100025000D01*
X144725000Y-100025000D02*
X151275000Y-100025000D01*
X151275000Y-100025000D02*
X151275000Y-106575000D01*
X151275000Y-106575000D02*
X144725000Y-106575000D01*
D11*
X144100000Y-106350000D02*
X144100000Y-108250000D01*
X142800000Y-106350000D02*
X142800000Y-108250000D01*
X144100000Y-106350000D02*
X142800000Y-106350000D01*
X144100000Y-108250000D02*
X142800000Y-108250000D01*
X143800000Y-78400000D02*
X143800000Y-80700000D01*
X142600000Y-78400000D02*
X142600000Y-80700000D01*
X143800000Y-78400000D02*
X142600000Y-78400000D01*
X143800000Y-80700000D02*
X142600000Y-80700000D01*
X138850000Y-82700000D02*
X141150000Y-82700000D01*
X138850000Y-83900000D02*
X141150000Y-83900000D01*
X138850000Y-82700000D02*
X138850000Y-83900000D01*
X141150000Y-82700000D02*
X141150000Y-83900000D01*
X139000000Y-79050000D02*
X142400000Y-79050000D01*
X142400000Y-79050000D02*
X142400000Y-82550000D01*
X142400000Y-82550000D02*
X139000000Y-82550000D01*
X139000000Y-82550000D02*
X139000000Y-79050000D01*
X148750000Y-81750000D02*
X141850000Y-81750000D01*
X141850000Y-81750000D02*
X141850000Y-88250000D01*
X141850000Y-88250000D02*
X148750000Y-88250000D01*
X148750000Y-88250000D02*
X148750000Y-81750000D01*
X150350000Y-107200000D02*
X153300000Y-107200000D01*
X153300000Y-107200000D02*
X153300000Y-109400000D01*
X153300000Y-109400000D02*
X150350000Y-109400000D01*
X150350000Y-109400000D02*
X150350000Y-107200000D01*
M02*
