G04 #@! TF.FileFunction,Other,User*
%FSLAX46Y46*%
G04 Gerber Fmt 4.6, Leading zero omitted, Abs format (unit mm)*
G04 Created by KiCad (PCBNEW 4.0.4-stable) date 02/14/17 14:41:20*
%MOMM*%
%LPD*%
G01*
G04 APERTURE LIST*
%ADD10C,0.100000*%
%ADD11C,0.050000*%
G04 APERTURE END LIST*
D10*
D11*
X152250000Y-88300000D02*
X144350000Y-88300000D01*
X144350000Y-88300000D02*
X144350000Y-82300000D01*
X144350000Y-82300000D02*
X152250000Y-82300000D01*
X152250000Y-82300000D02*
X152250000Y-88300000D01*
X152750000Y-110300000D02*
G75*
G03X152750000Y-110300000I-1550000J0D01*
G01*
X144350000Y-87700000D02*
X144350000Y-83100000D01*
X142050000Y-87700000D02*
X142050000Y-83100000D01*
X144350000Y-87700000D02*
X142050000Y-87700000D01*
X144350000Y-83100000D02*
X142050000Y-83100000D01*
X156898000Y-93442000D02*
X156898000Y-104618000D01*
X163502000Y-93442000D02*
X156898000Y-93442000D01*
X163502000Y-104618000D02*
X163502000Y-93442000D01*
X156898000Y-104618000D02*
X163502000Y-104618000D01*
X163100000Y-84450000D02*
X163100000Y-94150000D01*
X163100000Y-94150000D02*
X155800000Y-94150000D01*
X155800000Y-94150000D02*
X155800000Y-84450000D01*
X155800000Y-84450000D02*
X163100000Y-84450000D01*
X155590000Y-81400000D02*
X149890000Y-81400000D01*
X149890000Y-81400000D02*
X149890000Y-78200000D01*
X149890000Y-78200000D02*
X155590000Y-78200000D01*
X155590000Y-78200000D02*
X155590000Y-81400000D01*
X149550000Y-81400000D02*
X143850000Y-81400000D01*
X143850000Y-81400000D02*
X143850000Y-78200000D01*
X143850000Y-78200000D02*
X149550000Y-78200000D01*
X149550000Y-78200000D02*
X149550000Y-81400000D01*
X152600000Y-105200000D02*
X163400000Y-105200000D01*
X163400000Y-105200000D02*
X163400000Y-108400000D01*
X163400000Y-108400000D02*
X152600000Y-108400000D01*
X152600000Y-108400000D02*
X152600000Y-105200000D01*
X152560000Y-109200000D02*
X163360000Y-109200000D01*
X163360000Y-109200000D02*
X163360000Y-112400000D01*
X163360000Y-112400000D02*
X152560000Y-112400000D01*
X152560000Y-112400000D02*
X152560000Y-109200000D01*
X138770000Y-109200000D02*
X149570000Y-109200000D01*
X149570000Y-109200000D02*
X149570000Y-112400000D01*
X149570000Y-112400000D02*
X138770000Y-112400000D01*
X138770000Y-112400000D02*
X138770000Y-109200000D01*
X156250000Y-84600000D02*
X162250000Y-84600000D01*
X156250000Y-78000000D02*
X156250000Y-84600000D01*
X162250000Y-78000000D02*
X156250000Y-78000000D01*
X162250000Y-84600000D02*
X162250000Y-78000000D01*
M02*
