M48
;DRILL file {KiCad 4.0.4-stable} date 02/09/17 23:38:06
;FORMAT={2:4/ absolute / inch / keep zeros}
FMAT,2
INCH,TZ
T1C0.016
T2C0.039
T3C0.059
%
G90
G05
M72
T1
X058166Y-032677
X058213Y-033438
X058228Y-031339
X058425Y-032402
X058543Y-033107
X058839Y-032853
X058873Y-033376
X059131Y-033287
X059134Y-032795
X059724Y-028366
X059795Y-027707
X059902Y-032402
X059921Y-032815
X059921Y-033091
X059923Y-033484
X060118Y-029547
X060440Y-028786
X060709Y-033484
X060758Y-031221
X060807Y-030827
X061506Y-031890
X061594Y-030039
X061693Y-030433
X061736Y-028065
X061988Y-030728
X062136Y-031693
X062264Y-032316
X062638Y-034173
X062726Y-030732
X062915Y-033384
X063110Y-032559
X063183Y-030630
X063737Y-028835
T2
X057520Y-031953
X057520Y-032953
X057559Y-029866
X057559Y-030866
X057598Y-027717
X057598Y-028717
X058213Y-034016
X059213Y-034016
T3
X062579Y-028760
T0
M30
