M48
;DRILL file {KiCad 4.0.4-stable} date 02/14/17 14:41:23
;FORMAT={-:-/ absolute / inch / decimal}
FMAT,2
INCH,TZ
T1C0.016
T2C0.024
T3C0.039
T4C0.043
T5C0.079
%
G90
G05
M72
T1
X5.5098Y-3.1024
X5.5394Y-3.1811
X5.5689Y-3.25
X5.6772Y-3.1811
X5.703Y-4.2583
X5.7126Y-3.4409
X5.7165Y-4.1545
X5.7441Y-3.748
X5.7464Y-4.2746
X5.7657Y-3.6831
X5.7756Y-3.2677
X5.8622Y-3.2047
X5.8622Y-3.4646
X5.878Y-3.7047
X5.9134Y-4.2244
X5.9331Y-3.7421
X5.9539Y-4.2149
X5.9803Y-3.8189
X5.9803Y-3.9724
X5.9855Y-4.2201
X6.008Y-4.1894
X6.0512Y-4.2736
X6.1142Y-3.4882
T2
X5.6124Y-3.5161
X5.6124Y-4.1161
X5.9724Y-3.5161
X5.9724Y-4.1161
T3
X5.5264Y-4.3622
X5.5453Y-3.3587
X5.5453Y-3.4587
X5.5453Y-3.5587
X5.5453Y-3.6587
X5.5453Y-3.7587
X5.5453Y-3.8587
X5.5453Y-3.9587
X5.5453Y-4.0587
X5.6264Y-4.3622
X5.7248Y-3.1417
X5.7264Y-4.3622
X5.8248Y-3.1417
X5.8264Y-4.3622
X5.9626Y-3.1417
X6.0453Y-3.3587
X6.0453Y-3.4587
X6.0453Y-3.5587
X6.0453Y-3.6587
X6.0453Y-3.7587
X6.0453Y-3.8587
X6.0453Y-3.9587
X6.0453Y-4.0587
X6.0626Y-3.1417
X6.0693Y-4.3622
X6.0709Y-4.2047
X6.1693Y-4.3622
X6.1709Y-4.2047
X6.2693Y-4.3622
X6.2709Y-4.2047
X6.3693Y-4.3622
X6.3709Y-4.2047
T4
X6.2185Y-3.2008
X6.3071Y-3.7488
X6.3071Y-3.8488
X6.3071Y-3.9488
X6.3071Y-4.0488
X6.3185Y-3.2008
T5
X5.5295Y-4.2047
X6.1594Y-3.3091
T0
M30
