G04 #@! TF.FileFunction,Soldermask,Top*
%FSLAX46Y46*%
G04 Gerber Fmt 4.6, Leading zero omitted, Abs format (unit mm)*
G04 Created by KiCad (PCBNEW 4.0.4-stable) date 10/31/16 09:30:40*
%MOMM*%
%LPD*%
G01*
G04 APERTURE LIST*
%ADD10C,0.100000*%
%ADD11R,1.750000X1.750000*%
%ADD12C,1.750000*%
%ADD13R,0.700000X0.800000*%
%ADD14R,0.700000X0.950000*%
%ADD15R,0.800000X0.700000*%
%ADD16R,0.950000X0.700000*%
%ADD17R,0.600000X0.700000*%
%ADD18R,0.700000X0.600000*%
%ADD19R,0.800000X0.600000*%
%ADD20R,0.600000X0.800000*%
%ADD21O,2.400000X1.670000*%
%ADD22R,2.432000X2.127200*%
%ADD23O,2.432000X2.127200*%
%ADD24R,0.900000X1.000000*%
%ADD25R,1.000000X0.900000*%
%ADD26R,1.000000X0.800000*%
%ADD27R,1.200100X1.200100*%
%ADD28R,1.000000X1.850000*%
%ADD29R,0.800000X1.000000*%
%ADD30C,1.400000*%
%ADD31C,2.540000*%
%ADD32O,1.400000X1.400000*%
G04 APERTURE END LIST*
D10*
D11*
X161200000Y-97800000D03*
D12*
X161200000Y-95800000D03*
D13*
X147000000Y-107050000D03*
D14*
X147500000Y-107000000D03*
X148000000Y-107000000D03*
X148500000Y-107000000D03*
X149000000Y-107000000D03*
X149500000Y-107000000D03*
D13*
X150000000Y-107100000D03*
D15*
X150524380Y-106551140D03*
D16*
X150450000Y-106050000D03*
X150450000Y-105550000D03*
X150450000Y-105050000D03*
X150450000Y-104550000D03*
X150450000Y-104050000D03*
D15*
X150500000Y-103550000D03*
D13*
X150000000Y-103000000D03*
D14*
X149500000Y-103100000D03*
X149000000Y-103100000D03*
X148500000Y-103100000D03*
X148000000Y-103100000D03*
X147500000Y-103100000D03*
D13*
X147000000Y-103050000D03*
D15*
X146500000Y-103550000D03*
D16*
X146550000Y-104050000D03*
X146550000Y-104550000D03*
X146550000Y-105050000D03*
X146550000Y-105550000D03*
X146550000Y-106050000D03*
D15*
X146500000Y-106550000D03*
D17*
X147050000Y-106950000D03*
D18*
X146650000Y-106500000D03*
D19*
X150400000Y-106500000D03*
D20*
X149950000Y-107000000D03*
D19*
X150400000Y-103600000D03*
D20*
X149950000Y-103100000D03*
D17*
X147050000Y-103150000D03*
D18*
X146600000Y-103600000D03*
D21*
X153550000Y-105840000D03*
X140850000Y-105840000D03*
X153550000Y-103300000D03*
X140850000Y-103300000D03*
X153550000Y-100760000D03*
X140850000Y-100760000D03*
X153550000Y-98220000D03*
X140850000Y-98220000D03*
X153550000Y-95680000D03*
X140850000Y-95680000D03*
X153550000Y-93140000D03*
X140850000Y-93140000D03*
X153550000Y-90600000D03*
X140850000Y-90600000D03*
X153550000Y-88060000D03*
X140850000Y-88060000D03*
D22*
X157600000Y-98130000D03*
D23*
X157600000Y-95590000D03*
X157600000Y-93050000D03*
X157600000Y-90510000D03*
D24*
X151450000Y-95350000D03*
X151450000Y-94250000D03*
D25*
X147550000Y-100750000D03*
X146450000Y-100750000D03*
X148950000Y-108450000D03*
X150050000Y-108450000D03*
X149700000Y-101150000D03*
X150800000Y-101150000D03*
D26*
X147700000Y-109000000D03*
X147700000Y-109900000D03*
D27*
X149400000Y-88949240D03*
X147500000Y-88949240D03*
X148450000Y-90948220D03*
D28*
X146295000Y-99150000D03*
X147565000Y-99150000D03*
X148835000Y-99150000D03*
X150105000Y-99150000D03*
X150105000Y-93150000D03*
X148835000Y-93150000D03*
X147565000Y-93150000D03*
X146295000Y-93150000D03*
D11*
X153200000Y-85050000D03*
D12*
X155200000Y-85050000D03*
D11*
X157700000Y-87050000D03*
D12*
X157700000Y-85050000D03*
D11*
X161200000Y-92300000D03*
D12*
X161200000Y-90300000D03*
D11*
X160100000Y-110300000D03*
D12*
X158100000Y-110300000D03*
D29*
X147750000Y-87550000D03*
X148650000Y-87550000D03*
D30*
X144300000Y-107350000D03*
D31*
X154700000Y-109800000D03*
X140500000Y-84550000D03*
D11*
X161200000Y-87300000D03*
D12*
X161200000Y-85300000D03*
D32*
X143160000Y-86850000D03*
X145700000Y-86850000D03*
X145700000Y-89390000D03*
X145700000Y-84310000D03*
X143160000Y-84310000D03*
M02*
