G04 #@! TF.FileFunction,Legend,Top*
%FSLAX46Y46*%
G04 Gerber Fmt 4.6, Leading zero omitted, Abs format (unit mm)*
G04 Created by KiCad (PCBNEW 4.0.4-stable) date 10/31/16 09:30:40*
%MOMM*%
%LPD*%
G01*
G04 APERTURE LIST*
%ADD10C,0.100000*%
%ADD11C,0.250000*%
%ADD12C,0.200000*%
%ADD13C,0.150000*%
%ADD14C,0.090000*%
G04 APERTURE END LIST*
D10*
X144500000Y-89704762D02*
X144480952Y-89742857D01*
X144480952Y-89800000D01*
X144500000Y-89857143D01*
X144538095Y-89895238D01*
X144576190Y-89914286D01*
X144652381Y-89933334D01*
X144709524Y-89933334D01*
X144785714Y-89914286D01*
X144823810Y-89895238D01*
X144861905Y-89857143D01*
X144880952Y-89800000D01*
X144880952Y-89761905D01*
X144861905Y-89704762D01*
X144842857Y-89685714D01*
X144709524Y-89685714D01*
X144709524Y-89761905D01*
X144880952Y-89514286D02*
X144480952Y-89514286D01*
X144880952Y-89285714D01*
X144480952Y-89285714D01*
X144880952Y-89095238D02*
X144480952Y-89095238D01*
X144480952Y-89000000D01*
X144500000Y-88942857D01*
X144538095Y-88904762D01*
X144576190Y-88885714D01*
X144652381Y-88866666D01*
X144709524Y-88866666D01*
X144785714Y-88885714D01*
X144823810Y-88904762D01*
X144861905Y-88942857D01*
X144880952Y-89000000D01*
X144880952Y-89095238D01*
X144880952Y-87019047D02*
X144690476Y-87152381D01*
X144880952Y-87247619D02*
X144480952Y-87247619D01*
X144480952Y-87095238D01*
X144500000Y-87057143D01*
X144519048Y-87038095D01*
X144557143Y-87019047D01*
X144614286Y-87019047D01*
X144652381Y-87038095D01*
X144671429Y-87057143D01*
X144690476Y-87095238D01*
X144690476Y-87247619D01*
X144861905Y-86866667D02*
X144880952Y-86809524D01*
X144880952Y-86714286D01*
X144861905Y-86676190D01*
X144842857Y-86657143D01*
X144804762Y-86638095D01*
X144766667Y-86638095D01*
X144728571Y-86657143D01*
X144709524Y-86676190D01*
X144690476Y-86714286D01*
X144671429Y-86790476D01*
X144652381Y-86828571D01*
X144633333Y-86847619D01*
X144595238Y-86866667D01*
X144557143Y-86866667D01*
X144519048Y-86847619D01*
X144500000Y-86828571D01*
X144480952Y-86790476D01*
X144480952Y-86695238D01*
X144500000Y-86638095D01*
X144480952Y-86523810D02*
X144480952Y-86295238D01*
X144880952Y-86409524D02*
X144480952Y-86409524D01*
X142480952Y-87209524D02*
X142080952Y-87209524D01*
X142080952Y-87114286D01*
X142100000Y-87057143D01*
X142138095Y-87019048D01*
X142176190Y-87000000D01*
X142252381Y-86980952D01*
X142309524Y-86980952D01*
X142385714Y-87000000D01*
X142423810Y-87019048D01*
X142461905Y-87057143D01*
X142480952Y-87114286D01*
X142480952Y-87209524D01*
X142480952Y-86809524D02*
X142080952Y-86809524D01*
X142080952Y-86542857D02*
X142080952Y-86466667D01*
X142100000Y-86428572D01*
X142138095Y-86390476D01*
X142214286Y-86371429D01*
X142347619Y-86371429D01*
X142423810Y-86390476D01*
X142461905Y-86428572D01*
X142480952Y-86466667D01*
X142480952Y-86542857D01*
X142461905Y-86580953D01*
X142423810Y-86619048D01*
X142347619Y-86638096D01*
X142214286Y-86638096D01*
X142138095Y-86619048D01*
X142100000Y-86580953D01*
X142080952Y-86542857D01*
X144480952Y-84895237D02*
X144480952Y-84647618D01*
X144633333Y-84780951D01*
X144633333Y-84723809D01*
X144652381Y-84685713D01*
X144671429Y-84666666D01*
X144709524Y-84647618D01*
X144804762Y-84647618D01*
X144842857Y-84666666D01*
X144861905Y-84685713D01*
X144880952Y-84723809D01*
X144880952Y-84838094D01*
X144861905Y-84876190D01*
X144842857Y-84895237D01*
X144480952Y-84533333D02*
X144880952Y-84399999D01*
X144480952Y-84266666D01*
X144480952Y-84171428D02*
X144480952Y-83923809D01*
X144633333Y-84057142D01*
X144633333Y-84000000D01*
X144652381Y-83961904D01*
X144671429Y-83942857D01*
X144709524Y-83923809D01*
X144804762Y-83923809D01*
X144842857Y-83942857D01*
X144861905Y-83961904D01*
X144880952Y-84000000D01*
X144880952Y-84114285D01*
X144861905Y-84152381D01*
X144842857Y-84171428D01*
X142442857Y-84638095D02*
X142461905Y-84657143D01*
X142480952Y-84714286D01*
X142480952Y-84752381D01*
X142461905Y-84809524D01*
X142423810Y-84847619D01*
X142385714Y-84866667D01*
X142309524Y-84885715D01*
X142252381Y-84885715D01*
X142176190Y-84866667D01*
X142138095Y-84847619D01*
X142100000Y-84809524D01*
X142080952Y-84752381D01*
X142080952Y-84714286D01*
X142100000Y-84657143D01*
X142119048Y-84638095D01*
X142480952Y-84276191D02*
X142480952Y-84466667D01*
X142080952Y-84466667D01*
X142480952Y-84142857D02*
X142080952Y-84142857D01*
X142480952Y-83914285D02*
X142252381Y-84085714D01*
X142080952Y-83914285D02*
X142309524Y-84142857D01*
X160185886Y-105762972D02*
X160214457Y-105791543D01*
X160243029Y-105877257D01*
X160243029Y-105934400D01*
X160214457Y-106020115D01*
X160157314Y-106077257D01*
X160100171Y-106105829D01*
X159985886Y-106134400D01*
X159900171Y-106134400D01*
X159785886Y-106105829D01*
X159728743Y-106077257D01*
X159671600Y-106020115D01*
X159643029Y-105934400D01*
X159643029Y-105877257D01*
X159671600Y-105791543D01*
X159700171Y-105762972D01*
X159928743Y-105305829D02*
X159957314Y-105220115D01*
X159985886Y-105191543D01*
X160043029Y-105162972D01*
X160128743Y-105162972D01*
X160185886Y-105191543D01*
X160214457Y-105220115D01*
X160243029Y-105277257D01*
X160243029Y-105505829D01*
X159643029Y-105505829D01*
X159643029Y-105305829D01*
X159671600Y-105248686D01*
X159700171Y-105220115D01*
X159757314Y-105191543D01*
X159814457Y-105191543D01*
X159871600Y-105220115D01*
X159900171Y-105248686D01*
X159928743Y-105305829D01*
X159928743Y-105505829D01*
X160243029Y-104905829D02*
X159643029Y-104905829D01*
X159643029Y-104762972D01*
X159671600Y-104677257D01*
X159728743Y-104620115D01*
X159785886Y-104591543D01*
X159900171Y-104562972D01*
X159985886Y-104562972D01*
X160100171Y-104591543D01*
X160157314Y-104620115D01*
X160214457Y-104677257D01*
X160243029Y-104762972D01*
X160243029Y-104905829D01*
X160185886Y-103962972D02*
X160214457Y-103991543D01*
X160243029Y-104077257D01*
X160243029Y-104134400D01*
X160214457Y-104220115D01*
X160157314Y-104277257D01*
X160100171Y-104305829D01*
X159985886Y-104334400D01*
X159900171Y-104334400D01*
X159785886Y-104305829D01*
X159728743Y-104277257D01*
X159671600Y-104220115D01*
X159643029Y-104134400D01*
X159643029Y-104077257D01*
X159671600Y-103991543D01*
X159700171Y-103962972D01*
X160243029Y-103391543D02*
X160243029Y-103734400D01*
X160243029Y-103562972D02*
X159643029Y-103562972D01*
X159728743Y-103620115D01*
X159785886Y-103677257D01*
X159814457Y-103734400D01*
X160185886Y-103134400D02*
X160214457Y-103105828D01*
X160243029Y-103134400D01*
X160214457Y-103162971D01*
X160185886Y-103134400D01*
X160243029Y-103134400D01*
X159643029Y-102734400D02*
X159643029Y-102677257D01*
X159671600Y-102620114D01*
X159700171Y-102591543D01*
X159757314Y-102562972D01*
X159871600Y-102534400D01*
X160014457Y-102534400D01*
X160128743Y-102562972D01*
X160185886Y-102591543D01*
X160214457Y-102620114D01*
X160243029Y-102677257D01*
X160243029Y-102734400D01*
X160214457Y-102791543D01*
X160185886Y-102820114D01*
X160128743Y-102848686D01*
X160014457Y-102877257D01*
X159871600Y-102877257D01*
X159757314Y-102848686D01*
X159700171Y-102820114D01*
X159671600Y-102791543D01*
X159643029Y-102734400D01*
D11*
X158321524Y-106369629D02*
X159859619Y-106369629D01*
X160040571Y-106441057D01*
X160131048Y-106512486D01*
X160221524Y-106655343D01*
X160221524Y-106941057D01*
X160131048Y-107083915D01*
X160040571Y-107155343D01*
X159859619Y-107226772D01*
X158321524Y-107226772D01*
D10*
X159292114Y-105610685D02*
X159330210Y-105648780D01*
X159368305Y-105763066D01*
X159368305Y-105839256D01*
X159330210Y-105953542D01*
X159254019Y-106029733D01*
X159177829Y-106067828D01*
X159025448Y-106105923D01*
X158911162Y-106105923D01*
X158758781Y-106067828D01*
X158682590Y-106029733D01*
X158606400Y-105953542D01*
X158568305Y-105839256D01*
X158568305Y-105763066D01*
X158606400Y-105648780D01*
X158644495Y-105610685D01*
X159139733Y-105305923D02*
X159139733Y-104924971D01*
X159368305Y-105382114D02*
X158568305Y-105115447D01*
X159368305Y-104848780D01*
X159368305Y-104582114D02*
X158568305Y-104582114D01*
X159368305Y-104124971D01*
X158568305Y-104124971D01*
D12*
X158295200Y-106391800D02*
X158295200Y-103746200D01*
D13*
X146500000Y-107050000D02*
X146500000Y-107050000D01*
X150975000Y-94550000D02*
X150975000Y-95050000D01*
X151925000Y-95050000D02*
X151925000Y-94550000D01*
X146750000Y-101225000D02*
X147250000Y-101225000D01*
X147250000Y-100275000D02*
X146750000Y-100275000D01*
X149750000Y-107975000D02*
X149250000Y-107975000D01*
X149250000Y-108925000D02*
X149750000Y-108925000D01*
X150500000Y-100675000D02*
X150000000Y-100675000D01*
X150000000Y-101625000D02*
X150500000Y-101625000D01*
X148225000Y-109700000D02*
X148225000Y-109200000D01*
X147175000Y-109200000D02*
X147175000Y-109700000D01*
X147150840Y-90600240D02*
X147199100Y-90600240D01*
X149949820Y-89899200D02*
X149949820Y-90600240D01*
X149949820Y-90600240D02*
X149700900Y-90600240D01*
X147150840Y-90600240D02*
X146950180Y-90600240D01*
X146950180Y-90600240D02*
X146950180Y-89899200D01*
D12*
X145700000Y-98150000D02*
X145700000Y-94150000D01*
X145700000Y-94150000D02*
X150700000Y-94150000D01*
X150700000Y-94150000D02*
X150700000Y-98150000D01*
X150700000Y-98150000D02*
X145700000Y-98150000D01*
X146950000Y-97400000D02*
G75*
G03X146950000Y-97400000I-500000J0D01*
G01*
D13*
X148450000Y-87025000D02*
X147950000Y-87025000D01*
X147950000Y-88075000D02*
X148450000Y-88075000D01*
D14*
X145673152Y-107925762D02*
X145996962Y-107925762D01*
X146035057Y-107906714D01*
X146054105Y-107887667D01*
X146073152Y-107849571D01*
X146073152Y-107773381D01*
X146054105Y-107735286D01*
X146035057Y-107716238D01*
X145996962Y-107697190D01*
X145673152Y-107697190D01*
X145806486Y-107335285D02*
X146073152Y-107335285D01*
X145654105Y-107430523D02*
X145939819Y-107525762D01*
X145939819Y-107278142D01*
X151283334Y-96442857D02*
X151264286Y-96461905D01*
X151207143Y-96480952D01*
X151169048Y-96480952D01*
X151111905Y-96461905D01*
X151073810Y-96423810D01*
X151054762Y-96385714D01*
X151035714Y-96309524D01*
X151035714Y-96252381D01*
X151054762Y-96176190D01*
X151073810Y-96138095D01*
X151111905Y-96100000D01*
X151169048Y-96080952D01*
X151207143Y-96080952D01*
X151264286Y-96100000D01*
X151283334Y-96119048D01*
X151664286Y-96480952D02*
X151435714Y-96480952D01*
X151550000Y-96480952D02*
X151550000Y-96080952D01*
X151511905Y-96138095D01*
X151473810Y-96176190D01*
X151435714Y-96195238D01*
X145642857Y-100316666D02*
X145661905Y-100335714D01*
X145680952Y-100392857D01*
X145680952Y-100430952D01*
X145661905Y-100488095D01*
X145623810Y-100526190D01*
X145585714Y-100545238D01*
X145509524Y-100564286D01*
X145452381Y-100564286D01*
X145376190Y-100545238D01*
X145338095Y-100526190D01*
X145300000Y-100488095D01*
X145280952Y-100430952D01*
X145280952Y-100392857D01*
X145300000Y-100335714D01*
X145319048Y-100316666D01*
X145319048Y-100164286D02*
X145300000Y-100145238D01*
X145280952Y-100107143D01*
X145280952Y-100011905D01*
X145300000Y-99973809D01*
X145319048Y-99954762D01*
X145357143Y-99935714D01*
X145395238Y-99935714D01*
X145452381Y-99954762D01*
X145680952Y-100183333D01*
X145680952Y-99935714D01*
X149456334Y-109703857D02*
X149437286Y-109722905D01*
X149380143Y-109741952D01*
X149342048Y-109741952D01*
X149284905Y-109722905D01*
X149246810Y-109684810D01*
X149227762Y-109646714D01*
X149208714Y-109570524D01*
X149208714Y-109513381D01*
X149227762Y-109437190D01*
X149246810Y-109399095D01*
X149284905Y-109361000D01*
X149342048Y-109341952D01*
X149380143Y-109341952D01*
X149437286Y-109361000D01*
X149456334Y-109380048D01*
X149684905Y-109513381D02*
X149646810Y-109494333D01*
X149627762Y-109475286D01*
X149608714Y-109437190D01*
X149608714Y-109418143D01*
X149627762Y-109380048D01*
X149646810Y-109361000D01*
X149684905Y-109341952D01*
X149761095Y-109341952D01*
X149799191Y-109361000D01*
X149818238Y-109380048D01*
X149837286Y-109418143D01*
X149837286Y-109437190D01*
X149818238Y-109475286D01*
X149799191Y-109494333D01*
X149761095Y-109513381D01*
X149684905Y-109513381D01*
X149646810Y-109532429D01*
X149627762Y-109551476D01*
X149608714Y-109589571D01*
X149608714Y-109665762D01*
X149627762Y-109703857D01*
X149646810Y-109722905D01*
X149684905Y-109741952D01*
X149761095Y-109741952D01*
X149799191Y-109722905D01*
X149818238Y-109703857D01*
X149837286Y-109665762D01*
X149837286Y-109589571D01*
X149818238Y-109551476D01*
X149799191Y-109532429D01*
X149761095Y-109513381D01*
X151942857Y-101216666D02*
X151961905Y-101235714D01*
X151980952Y-101292857D01*
X151980952Y-101330952D01*
X151961905Y-101388095D01*
X151923810Y-101426190D01*
X151885714Y-101445238D01*
X151809524Y-101464286D01*
X151752381Y-101464286D01*
X151676190Y-101445238D01*
X151638095Y-101426190D01*
X151600000Y-101388095D01*
X151580952Y-101330952D01*
X151580952Y-101292857D01*
X151600000Y-101235714D01*
X151619048Y-101216666D01*
X151980952Y-101026190D02*
X151980952Y-100950000D01*
X151961905Y-100911905D01*
X151942857Y-100892857D01*
X151885714Y-100854762D01*
X151809524Y-100835714D01*
X151657143Y-100835714D01*
X151619048Y-100854762D01*
X151600000Y-100873809D01*
X151580952Y-100911905D01*
X151580952Y-100988095D01*
X151600000Y-101026190D01*
X151619048Y-101045238D01*
X151657143Y-101064286D01*
X151752381Y-101064286D01*
X151790476Y-101045238D01*
X151809524Y-101026190D01*
X151828571Y-100988095D01*
X151828571Y-100911905D01*
X151809524Y-100873809D01*
X151790476Y-100854762D01*
X151752381Y-100835714D01*
X146864952Y-109516666D02*
X146674476Y-109650000D01*
X146864952Y-109745238D02*
X146464952Y-109745238D01*
X146464952Y-109592857D01*
X146484000Y-109554762D01*
X146503048Y-109535714D01*
X146541143Y-109516666D01*
X146598286Y-109516666D01*
X146636381Y-109535714D01*
X146655429Y-109554762D01*
X146674476Y-109592857D01*
X146674476Y-109745238D01*
X146464952Y-109154762D02*
X146464952Y-109345238D01*
X146655429Y-109364286D01*
X146636381Y-109345238D01*
X146617333Y-109307143D01*
X146617333Y-109211905D01*
X146636381Y-109173809D01*
X146655429Y-109154762D01*
X146693524Y-109135714D01*
X146788762Y-109135714D01*
X146826857Y-109154762D01*
X146845905Y-109173809D01*
X146864952Y-109211905D01*
X146864952Y-109307143D01*
X146845905Y-109345238D01*
X146826857Y-109364286D01*
X149395238Y-90980952D02*
X149395238Y-91304762D01*
X149414286Y-91342857D01*
X149433333Y-91361905D01*
X149471429Y-91380952D01*
X149547619Y-91380952D01*
X149585714Y-91361905D01*
X149604762Y-91342857D01*
X149623810Y-91304762D01*
X149623810Y-90980952D01*
X150023810Y-91380952D02*
X149795238Y-91380952D01*
X149909524Y-91380952D02*
X149909524Y-90980952D01*
X149871429Y-91038095D01*
X149833334Y-91076190D01*
X149795238Y-91095238D01*
X144980952Y-93454762D02*
X145304762Y-93454762D01*
X145342857Y-93435714D01*
X145361905Y-93416667D01*
X145380952Y-93378571D01*
X145380952Y-93302381D01*
X145361905Y-93264286D01*
X145342857Y-93245238D01*
X145304762Y-93226190D01*
X144980952Y-93226190D01*
X145019048Y-93054762D02*
X145000000Y-93035714D01*
X144980952Y-92997619D01*
X144980952Y-92902381D01*
X145000000Y-92864285D01*
X145019048Y-92845238D01*
X145057143Y-92826190D01*
X145095238Y-92826190D01*
X145152381Y-92845238D01*
X145380952Y-93073809D01*
X145380952Y-92826190D01*
X145271190Y-98588095D02*
X145271190Y-98511905D01*
X145309286Y-98435714D01*
X145385476Y-98397619D01*
X145461667Y-98397619D01*
X145537857Y-98435714D01*
X145575952Y-98511905D01*
X145575952Y-98588095D01*
X145537857Y-98664286D01*
X145461667Y-98702381D01*
X145385476Y-98702381D01*
X145309286Y-98664286D01*
X145271190Y-98588095D01*
X147080952Y-87866666D02*
X146890476Y-88000000D01*
X147080952Y-88095238D02*
X146680952Y-88095238D01*
X146680952Y-87942857D01*
X146700000Y-87904762D01*
X146719048Y-87885714D01*
X146757143Y-87866666D01*
X146814286Y-87866666D01*
X146852381Y-87885714D01*
X146871429Y-87904762D01*
X146890476Y-87942857D01*
X146890476Y-88095238D01*
X146814286Y-87523809D02*
X147080952Y-87523809D01*
X146661905Y-87619047D02*
X146947619Y-87714286D01*
X146947619Y-87466666D01*
X143480952Y-108145238D02*
X143080952Y-108145238D01*
X143080952Y-107992857D01*
X143100000Y-107954762D01*
X143119048Y-107935714D01*
X143157143Y-107916666D01*
X143214286Y-107916666D01*
X143252381Y-107935714D01*
X143271429Y-107954762D01*
X143290476Y-107992857D01*
X143290476Y-108145238D01*
X143252381Y-107688095D02*
X143233333Y-107726190D01*
X143214286Y-107745238D01*
X143176190Y-107764286D01*
X143157143Y-107764286D01*
X143119048Y-107745238D01*
X143100000Y-107726190D01*
X143080952Y-107688095D01*
X143080952Y-107611905D01*
X143100000Y-107573809D01*
X143119048Y-107554762D01*
X143157143Y-107535714D01*
X143176190Y-107535714D01*
X143214286Y-107554762D01*
X143233333Y-107573809D01*
X143252381Y-107611905D01*
X143252381Y-107688095D01*
X143271429Y-107726190D01*
X143290476Y-107745238D01*
X143328571Y-107764286D01*
X143404762Y-107764286D01*
X143442857Y-107745238D01*
X143461905Y-107726190D01*
X143480952Y-107688095D01*
X143480952Y-107611905D01*
X143461905Y-107573809D01*
X143442857Y-107554762D01*
X143404762Y-107535714D01*
X143328571Y-107535714D01*
X143290476Y-107554762D01*
X143271429Y-107573809D01*
X143252381Y-107611905D01*
X146404762Y-83780952D02*
X146404762Y-83380952D01*
X146557143Y-83380952D01*
X146595238Y-83400000D01*
X146614286Y-83419048D01*
X146633334Y-83457143D01*
X146633334Y-83514286D01*
X146614286Y-83552381D01*
X146595238Y-83571429D01*
X146557143Y-83590476D01*
X146404762Y-83590476D01*
X146785714Y-83419048D02*
X146804762Y-83400000D01*
X146842857Y-83380952D01*
X146938095Y-83380952D01*
X146976191Y-83400000D01*
X146995238Y-83419048D01*
X147014286Y-83457143D01*
X147014286Y-83495238D01*
X146995238Y-83552381D01*
X146766667Y-83780952D01*
X147014286Y-83780952D01*
M02*
