M48
;DRILL file {KiCad 4.0.4-stable} date 02/16/17 23:31:55
;FORMAT={2:4/ absolute / inch / keep zeros}
FMAT,2
INCH,TZ
T1C0.016
T2C0.024
T3C0.039
T4C0.043
T5C0.079
%
G90
G05
M72
T1
X055098Y-031024
X055394Y-031811
X055689Y-032500
X056772Y-031811
X057030Y-042583
X057126Y-034409
X057165Y-041545
X057441Y-037480
X057464Y-042746
X057657Y-036831
X057756Y-032677
X058622Y-032047
X058622Y-034646
X058780Y-037047
X059134Y-042244
X059331Y-037421
X059498Y-042154
X059803Y-038189
X059803Y-039724
X059803Y-042035
X060099Y-041876
X060630Y-042717
X061142Y-034882
T2
X056124Y-035161
X056124Y-041161
X059724Y-035161
X059724Y-041161
T3
X055264Y-043622
X055453Y-033587
X055453Y-034587
X055453Y-035587
X055453Y-036587
X055453Y-037587
X055453Y-038587
X055453Y-039587
X055453Y-040587
X056264Y-043622
X057248Y-031417
X057264Y-043622
X058248Y-031417
X058264Y-043622
X059626Y-031417
X060453Y-033587
X060453Y-034587
X060453Y-035587
X060453Y-036587
X060453Y-037587
X060453Y-038587
X060453Y-039587
X060453Y-040587
X060626Y-031417
X060693Y-043622
X060709Y-042047
X061693Y-043622
X061709Y-042047
X062693Y-043622
X062709Y-042047
X063693Y-043622
X063709Y-042047
T4
X062185Y-032008
X063071Y-037488
X063071Y-038488
X063071Y-039488
X063071Y-040488
X063185Y-032008
T5
X055295Y-042047
X061594Y-033091
T0
M30
